<?xml version="1.0" encoding="UTF-8" standalone="no"?>
<svg
   width="300"
   height="300"
   viewBox="0 0 300 300"
   version="1.1"
   id="svg21608"
   inkscape:version="1.2 (dc2aeda, 2022-05-15)"
   sodipodi:docname="2xlibrary.svg"
   xmlns:inkscape="http://www.inkscape.org/namespaces/inkscape"
   xmlns:sodipodi="http://sodipodi.sourceforge.net/DTD/sodipodi-0.dtd"
   xmlns="http://www.w3.org/2000/svg"
   xmlns:svg="http://www.w3.org/2000/svg"
   xmlns:rdf="http://www.w3.org/1999/02/22-rdf-syntax-ns#"
   xmlns:cc="http://creativecommons.org/ns#"
   xmlns:dc="http://purl.org/dc/elements/1.1/">
  <defs
     id="defs21602" />
  <sodipodi:namedview
     id="base"
     pagecolor="#ffffff"
     bordercolor="#666666"
     borderopacity="1.0"
     inkscape:pageopacity="0.0"
     inkscape:pageshadow="2"
     inkscape:zoom="0.33320742"
     inkscape:cx="-40.515304"
     inkscape:cy="21.007935"
     inkscape:document-units="px"
     inkscape:current-layer="layer1"
     inkscape:document-rotation="0"
     showgrid="false"
     units="px"
     width="300px"
     inkscape:showpageshadow="2"
     inkscape:pagecheckerboard="0"
     inkscape:deskcolor="#d1d1d1"
     inkscape:window-width="1436"
     inkscape:window-height="456"
     inkscape:window-x="0"
     inkscape:window-y="38"
     inkscape:window-maximized="0" />
  <metadata
     id="metadata21605">
    <rdf:RDF>
      <cc:Work
         rdf:about="">
        <dc:format>image/svg+xml</dc:format>
        <dc:type
           rdf:resource="http://purl.org/dc/dcmitype/StillImage" />
        <dc:title />
      </cc:Work>
    </rdf:RDF>
  </metadata>
  <g
     inkscape:label="Layer 1"
     inkscape:groupmode="layer"
     id="layer1">
    <g
       id="g16794"
       transform="matrix(14.563954,0,0,14.563954,4272.2869,-1030.2403)"
       style="stroke-width:2.90413">
      <g
         class=""
         transform="matrix(0.04001394,0,0,0.0400139,-293.34528,70.749856)"
         id="g16747"
         style="fill:#800080;stroke-width:19.2029">
        <path
           d="m 102.5,26.03 90.03,345.75 289.22,23.25 -90.063,-345.75 z m -18.906,1.564 c -30.466,11.873 -55.68,53.098 -49.75,75.312 l 3.25,11.78 c 0.667,-1.76 1.36,-3.522 2.093,-5.28 C 49.097,85.7 65.748,62.64 89.564,50.5 Z m 10.844,41.593 c -16.657,10.012 -29.92,28.077 -38,47.407 -5.247,12.55 -8.038,25.63 -8.75,36.53 L 112.5,388.407 c 0.294,-0.55 0.572,-1.106 0.875,-1.656 10.603,-19.252 27.823,-37.695 51.125,-48.47 L 94.437,69.19 Z m 74.874,287.594 c -17.677,9.078 -31.145,23.717 -39.562,39 -4.464,8.107 -7.27,16.364 -8.688,23.75 l 11.688,42.408 1.625,0.125 c -3.84,-27.548 11.352,-60.504 41.25,-81.094 l -6.313,-24.19 z m 26.344,34 c -32.567,17.27 -46.51,52.44 -41.844,72.94 l 289.844,24.5 c -5.34,-7.79 -8.673,-17.947 -8.594,-28.5 l -22.406,-9 46.344,-7.285 -13.5,-12.875 c 5.604,-6.917 13.707,-13.05 24.813,-17.687 L 195.656,390.78 Z"
           fill="#000000"
           fill-opacity="1"
           id="path16745"
           style="fill:#800080;stroke-width:119.785" />
      </g>
      <text
         xml:space="preserve"
         style="font-size:10.7498px;line-height:1.25;font-family:'Archivo Narrow';-inkscape-font-specification:'Archivo Narrow';letter-spacing:0px;word-spacing:0px;fill:#ffffff;stroke-width:0.768385"
         x="-318.14066"
         y="82.663216"
         id="text16788"
         transform="skewX(21.749219)"><tspan
           sodipodi:role="line"
           id="tspan16786"
           x="-318.14066"
           y="82.663216"
           style="fill:#ffffff;stroke-width:0.768385">2x</tspan></text>
    </g>
  </g>
</svg>
