<?xml version="1.0" encoding="UTF-8" standalone="no"?>
<!-- Created with Inkscape (http://www.inkscape.org/) -->

<svg
   width="300"
   height="300"
   viewBox="0 0 300 300.00001"
   version="1.1"
   id="svg1"
   inkscape:version="1.3 (0e150ed6c4, 2023-07-21)"
   sodipodi:docname="mage per overkill.svg"
   xmlns:inkscape="http://www.inkscape.org/namespaces/inkscape"
   xmlns:sodipodi="http://sodipodi.sourceforge.net/DTD/sodipodi-0.dtd"
   xmlns="http://www.w3.org/2000/svg"
   xmlns:svg="http://www.w3.org/2000/svg">
  <sodipodi:namedview
     id="namedview1"
     pagecolor="#ffffff"
     bordercolor="#666666"
     borderopacity="1.0"
     inkscape:showpageshadow="2"
     inkscape:pageopacity="0.0"
     inkscape:pagecheckerboard="0"
     inkscape:deskcolor="#d1d1d1"
     inkscape:document-units="px"
     inkscape:current-layer="g1" />
  <defs
     id="defs1" />
  <g
     inkscape:label="Layer 1"
     inkscape:groupmode="layer"
     id="layer1">
    <g
       id="g1"
       transform="matrix(2.5487762,0,0,2.5487762,-230.7178,-222.29129)">
      <g
         inkscape:label="Layer 1"
         id="g4"
         transform="matrix(0.22285346,0,0,0.22285346,139.37757,138.23243)"
         style="font-variation-settings:normal;fill:#800000;fill-opacity:0.99579829;stroke:none;stroke-width:1.32304589px;stroke-linecap:butt;stroke-linejoin:miter;stroke-miterlimit:4;stroke-dasharray:none;stroke-dashoffset:0;stroke-opacity:1;paint-order:stroke markers fill;stop-color:#000000;opacity:1;vector-effect:none;-inkscape-stroke:none;stop-opacity:1">
        <path
           d="m 117.94336,241.45312 54.61523,-24.18164 -59.68945,-55.89062 51.84961,-33.79102 -56.46875,-59.820309 15.18555,-24.021484 0.78906,-1.246094 c -0.14374,-0.124963 -0.27757,-0.270803 -0.42188,-0.394531 -1.78034,-1.526522 -3.60215,-2.95888 -5.46093,-4.298828 -1.85879,-1.339948 -3.75467,-2.588209 -5.67969,-3.744141 -1.92502,-1.155931 -3.88031,-2.218888 -5.85938,-3.193359 -1.97906,-0.974472 -3.98105,-1.858729 -6.00195,-2.654297 -2.0209,-0.795568 -4.060786,-1.503826 -6.111327,-2.123047 -2.050541,-0.619221 -4.111706,-1.150273 -6.179687,-1.595703 -2.067982,-0.44543 -4.141622,-0.803929 -6.214844,-1.078125 -2.073222,-0.274196 -4.146628,-0.464794 -6.212891,-0.570313 -2.066262,-0.105518 -4.126724,-0.127008 -6.173828,-0.06641 -2.047104,0.0606 -4.08191,0.203568 -6.097656,0.427734 -2.015746,0.224167 -4.012187,0.530841 -5.984375,0.916016 -1.972188,0.385175 -3.919507,0.848952 -5.835938,1.392578 h -0.0078 c -1.690783,0.479688 -3.357418,1.016395 -4.996094,1.609375 -1.638676,0.592981 -3.249318,1.241857 -4.828125,1.949219 -1.578807,0.707362 -3.125544,1.47209 -4.636719,2.294922 -1.511175,0.822832 -2.988047,1.705141 -4.423828,2.644531 -1.43578,0.939391 -2.830971,1.937103 -4.183594,2.994141 -1.352622,1.057038 -2.662125,2.171882 -3.923828,3.347656 -1.261702,1.175774 -2.475652,2.411433 -3.638672,3.707031 -1.163019,1.295599 -2.275457,2.651848 -3.332031,4.06836 -1.056573,1.416512 -2.057635,2.893126 -3,4.43164 -0.942365,1.538514 -1.826091,3.139177 -2.646484,4.800781 -0.820393,1.661605 -1.576919,3.384138 -2.267578,5.169922 -0.6906593,1.785785 -1.3140258,3.63387 -1.8671877,5.544922 -0.553162,1.911052 -1.0374104,3.88642 -1.4453126,5.923828 -0.4079021,2.037409 -0.7412142,4.137881 -0.9960937,6.302735 -0.2548795,2.164854 -0.4312966,4.394112 -0.5253906,6.6875 -0.094094,2.293388 -0.1057042,4.651208 -0.03125,7.074218 0.082191,2.66599 0.2864063,5.304127 0.6054687,7.916022 0.3190624,2.61189 0.7543479,5.19635 1.296875,7.75586 0.5425271,2.55951 1.1927276,5.09466 1.9453125,7.60351 0.752585,2.50886 1.6074044,4.99321 2.5566404,7.45313 0.949236,2.45992 1.99252,4.89393 3.125,7.30664 1.13248,2.4127 2.353933,4.80271 3.65625,7.16992 1.302318,2.36721 2.685784,4.71171 4.144531,7.03516 1.458748,2.32344 2.991979,4.62681 4.59375,6.9082 1.601772,2.28139 3.272519,4.54213 5.003907,6.7832 1.731388,2.24107 3.523496,4.4616 5.371093,6.66407 1.847598,2.20246 3.750772,4.38715 5.701172,6.55273 1.950401,2.16558 3.948485,4.31294 5.988282,6.44336 2.039797,2.13042 4.120542,4.24286 6.236328,6.33984 2.115786,2.09698 4.266944,4.17888 6.445312,6.24414 4.356737,4.13053 8.824937,8.1989 13.351563,12.21289 4.527037,4.014 9.093926,7.96268 13.640625,11.85938 4.546699,3.8967 9.073949,7.74157 13.519534,11.54687 4.44558,3.80531 8.80951,7.57074 13.0332,11.31055 0.86234,0.76355 1.63822,1.51588 2.48828,2.27734 z"
           style="font-variation-settings:normal;display:inline;fill:#800000;fill-opacity:0.99579829;stroke:none;stroke-width:1.32304589px;stroke-linecap:butt;stroke-linejoin:miter;stroke-miterlimit:4;stroke-dasharray:none;stroke-dashoffset:0;stroke-opacity:1;paint-order:stroke markers fill;stop-color:#000000;stop-opacity:1;vector-effect:none;-inkscape-stroke:none"
           id="path3" />
        <path
           d="m 227.31445,22.666016 0.008,0.002 c -1.52919,0.01134 -3.06326,0.07192 -4.59961,0.183593 -1.53636,0.111675 -3.07447,0.27449 -4.61329,0.488282 -1.53881,0.213792 -3.07866,0.479183 -4.61523,0.796875 -1.53657,0.317691 -3.06999,0.686003 -4.59961,1.109375 -1.52962,0.423372 -3.0543,0.900806 -4.57226,1.43164 -1.51797,0.530835 -3.02965,1.115782 -4.53125,1.75586 -1.50161,0.640078 -2.99407,1.334834 -4.47461,2.085937 -1.48054,0.751103 -2.94953,1.557965 -4.4043,2.421875 -1.45477,0.86391 -2.89602,1.785174 -4.32031,2.763672 -1.4243,0.978498 -2.8316,2.014507 -4.22071,3.109375 -1.38911,1.094868 -2.76015,2.247919 -4.10937,3.460938 -1.34922,1.213019 -2.67584,2.48736 -3.98047,3.820312 -1.30463,1.332952 -2.58647,2.725022 -3.8418,4.179688 -1.25533,1.454665 -2.48422,2.970666 -3.68554,4.548828 -1.20133,1.578161 -2.37496,3.218436 -3.51758,4.921875 -1.14262,1.703438 -2.25478,3.470284 -3.33399,5.300781 l -8.60742,14.583984 -8.54687,-14.615234 c -1.3446,-2.29838 -2.75668,-4.498029 -4.22852,-6.599609 -1.47183,-2.101581 -3.00297,-4.104382 -4.58984,-6.011719 -1.58687,-1.907338 -3.22826,-3.717943 -4.91797,-5.433594 -0.0387,-0.03926 -0.0804,-0.07217 -0.11914,-0.111328 l -0.15235,0.242187 -12.58398,19.902344 58.28125,61.742187 -51.43945,33.52344 60.76757,56.90039 -60.76953,26.90625 c 1.53511,1.4155 3.16664,2.84301 4.64649,4.25391 2.30816,2.2008 4.55206,4.39504 6.71484,6.59179 2.16279,2.19676 4.2451,4.3948 6.23047,6.60547 1.98537,2.21068 3.87252,4.43322 5.64844,6.67578 1.77592,2.24257 3.44017,4.50641 4.97461,6.79883 1.53906,-2.13167 3.20048,-4.24438 4.9707,-6.3457 1.77022,-2.10132 3.64853,-4.19204 5.62109,-6.2832 1.97257,-2.09117 4.03946,-4.182 6.18555,-6.28321 2.14609,-2.1012 4.37132,-4.21231 6.66211,-6.34375 3.97237,-3.69661 8.15818,-7.4354 12.49219,-11.2207 4.334,-3.7853 8.8177,-7.61691 13.38281,-11.50391 4.56511,-3.88699 9.21322,-7.82837 13.87891,-11.83007 4.66568,-4.00171 9.34863,-8.06394 13.98437,-12.19336 4.63561,-4.12915 9.19947,-8.31553 13.63672,-12.5586 2.21863,-2.12153 4.40512,-4.25839 6.55273,-6.4082 2.14762,-2.14981 4.25606,-4.31227 6.31836,-6.49023 2.06231,-2.17797 4.08025,-4.3702 6.04297,-6.57618 1.96272,-2.20597 3.87186,-4.4263 5.72071,-6.66015 1.84884,-2.23386 3.63673,-4.48254 5.35742,-6.74414 1.72069,-2.2616 3.37293,-4.53696 4.95117,-6.82618 1.57824,-2.28921 3.08239,-4.5915 4.50391,-6.9082 1.42151,-2.31669 2.76122,-4.64619 4.01171,-6.99023 1.2505,-2.34404 2.41137,-4.70297 3.47657,-7.07422 1.06519,-2.37126 2.03478,-4.75596 2.90039,-7.1543 0.86561,-2.39833 1.62756,-4.80909 2.27929,-7.23437 0.65174,-2.42528 1.19361,-4.86432 1.61719,-7.31641 0.42358,-2.45209 0.72903,-4.91771 0.91016,-7.39648 0.0906,-1.23939 0.15046,-2.48249 0.17773,-3.728522 0.0273,-1.246032 0.0222,-2.495387 -0.0156,-3.748047 -0.0774,-2.553023 -0.24437,-5.038401 -0.49414,-7.457032 -0.24977,-2.41863 -0.58264,-4.770497 -0.9961,-7.054687 -0.41345,-2.28419 -0.9062,-4.500691 -1.47461,-6.650391 -0.5684,-2.149699 -1.21311,-4.232887 -1.92773,-6.248047 -0.71462,-2.015159 -1.49946,-3.96318 -2.35156,-5.84375 -0.85211,-1.880569 -1.7711,-3.693522 -2.75196,-5.439453 -0.98085,-1.74593 -2.02412,-3.423914 -3.125,-5.035156 -1.10087,-1.611242 -2.25853,-3.156308 -3.4707,-4.632812 -1.21216,-1.476505 -2.47825,-2.884846 -3.79297,-4.226563 -1.31472,-1.341717 -2.67934,-2.615385 -4.08789,-3.822266 -1.40854,-1.20688 -2.86183,-2.347927 -4.35547,-3.419921 -1.49363,-1.071995 -3.02766,-2.076613 -4.59765,-3.013672 -1.57,-0.937059 -3.17488,-1.805348 -4.8125,-2.607422 -1.63762,-0.802074 -3.30739,-1.538039 -5.00391,-2.205078 -1.69652,-0.66704 -3.41934,-1.26492 -5.16602,-1.796875 -1.74667,-0.531956 -3.51657,-0.997709 -5.30468,-1.394532 a 70.386271,70.386271 0 0 0 -7.85352,-1.28125 70.386271,70.386271 0 0 0 -7.94922,-0.388671 z"
           style="font-variation-settings:normal;display:inline;fill:#800000;fill-opacity:0.99579829;stroke:none;stroke-width:1.32304589px;stroke-linecap:butt;stroke-linejoin:miter;stroke-miterlimit:4;stroke-dasharray:none;stroke-dashoffset:0;stroke-opacity:1;paint-order:stroke markers fill;stop-color:#000000;stop-opacity:1;vector-effect:none;-inkscape-stroke:none"
           id="path4" />
      </g>
      <path
         style="fill:none;stroke:#000000;stroke-width:5.00001;stroke-linecap:butt;stroke-linejoin:miter;stroke-dasharray:none;stroke-opacity:1"
         d="M 96.651405,190.20691 185.21325,101.64506"
         id="path10" />
    </g>
  </g>
</svg>
