<?xml version="1.0" encoding="UTF-8" standalone="no"?>
<svg
   width="300"
   height="300"
   viewBox="0 0 300 300"
   version="1.1"
   id="svg21608"
   inkscape:version="1.2 (dc2aeda, 2022-05-15)"
   sodipodi:docname="airfield.svg"
   xmlns:inkscape="http://www.inkscape.org/namespaces/inkscape"
   xmlns:sodipodi="http://sodipodi.sourceforge.net/DTD/sodipodi-0.dtd"
   xmlns="http://www.w3.org/2000/svg"
   xmlns:svg="http://www.w3.org/2000/svg"
   xmlns:rdf="http://www.w3.org/1999/02/22-rdf-syntax-ns#"
   xmlns:cc="http://creativecommons.org/ns#"
   xmlns:dc="http://purl.org/dc/elements/1.1/">
  <defs
     id="defs21602" />
  <sodipodi:namedview
     id="base"
     pagecolor="#ffffff"
     bordercolor="#666666"
     borderopacity="1.0"
     inkscape:pageopacity="0.0"
     inkscape:pageshadow="2"
     inkscape:zoom="0.98994949"
     inkscape:cx="118.69292"
     inkscape:cy="169.20055"
     inkscape:document-units="px"
     inkscape:current-layer="layer1"
     inkscape:document-rotation="0"
     showgrid="false"
     units="px"
     width="300px"
     inkscape:showpageshadow="2"
     inkscape:pagecheckerboard="0"
     inkscape:deskcolor="#d1d1d1"
     inkscape:window-width="808"
     inkscape:window-height="799"
     inkscape:window-x="704"
     inkscape:window-y="38"
     inkscape:window-maximized="0" />
  <metadata
     id="metadata21605">
    <rdf:RDF>
      <cc:Work
         rdf:about="">
        <dc:format>image/svg+xml</dc:format>
        <dc:type
           rdf:resource="http://purl.org/dc/dcmitype/StillImage" />
        <dc:title />
      </cc:Work>
    </rdf:RDF>
  </metadata>
  <g
     inkscape:label="Layer 1"
     inkscape:groupmode="layer"
     id="layer1">
    <path
       id="path10308"
       style="font-variation-settings:normal;display:inline;vector-effect:none;fill:#5599ff;fill-opacity:1;stroke:none;stroke-width:1.37546;stroke-linecap:butt;stroke-linejoin:miter;stroke-miterlimit:4;stroke-dasharray:none;stroke-dashoffset:0;stroke-opacity:1;-inkscape-stroke:none;paint-order:fill markers stroke;stop-color:#000000"
       inkscape:transform-center-x="4.829698e-05"
       inkscape:transform-center-y="-6.0367964e-05"
       d="M 158.52903,4.3992114 134.76897,40.286632 102.1525,12.218355 l -8.201747,42.238337 -40.88218,-13.43606 8.568902,42.142992 -42.876901,3.255277 24.031463,35.648129 -38.3929391,19.4198 35.8877491,23.74429 -28.052598,32.61622 42.222329,8.2181 -13.435731,40.86609 42.158683,-8.6007 3.239178,42.92446 35.664302,-24.06333 19.40395,38.4088 23.74404,-35.88752 32.61646,28.0526 8.21785,-42.22265 40.88219,13.43606 -8.585,-42.1747 42.89301,-3.22349 -24.06367,-35.6639 38.40904,-19.40403 -35.87167,-23.74404 28.03675,-32.61646 -42.20679,-8.217852 13.41996,-40.882111 -42.17478,8.584592 -3.22308,-42.892671 -35.64821,24.047562 z m -11.69658,64.5943636 -0.0163,113.423245 h 6.35083 V 68.993575 c 0.21651,0 0.45426,0.01633 0.66995,0.0653 9.97113,18.209652 11.25881,37.701925 9.90937,58.307435 -1.16105,17.74829 -4.31689,36.21849 -5.32974,54.98828 -0.12337,2.68027 -0.24673,5.36584 -0.27778,8.05844 h -16.27629 c -0.36112,-21.54017 -4.28903,-42.76294 -5.61682,-63.04672 -1.34945,-20.60584 -0.0654,-40.097783 9.89327,-58.307435 0.21651,-0.03265 0.46978,-0.01632 0.68547,-0.0653 z m 14.74433,1.213494 c 2.53517,0.543309 5.12899,1.241359 7.70738,2.090556 l 0.84609,1.022077 c 13.7479,16.24573 17.53342,29.019768 16.1963,42.828788 -1.33392,13.80902 -8.19953,28.90481 -16.67491,48.38204 l -1.56554,3.97351 c -0.24673,0.83065 -0.97885,2.20469 -1.81882,3.76565 -0.27778,0.5188 -0.58334,1.04684 -0.86153,1.59643 1.32478,-15.39032 3.69099,-30.82886 4.69149,-46.10007 1.2876,-19.64145 0.27778,-39.111579 -8.52135,-57.541658 z m -23.13782,0.01632 c -1.37412,2.881004 -2.55993,5.785533 -3.57432,8.712861 -0.2165,0.583341 -0.3889,1.167181 -0.57435,1.753866 -4.36346,13.505831 -5.2562,27.463134 -4.67564,41.552544 0.0326,0.61111 0.0653,1.22281 0.0923,1.83425 0.0653,1.22584 0.12337,2.45796 0.2165,3.68633 0.93874,14.31671 3.0632,28.7933 4.42,43.22765 0.0923,0.96039 0.18546,1.91146 0.27778,2.87178 -1.15182,-2.19546 -2.3622,-4.25603 -2.68027,-5.36152 l -1.56252,-3.97351 c -5.56217,-12.78138 -10.43029,-23.67884 -13.49961,-33.55766 -0.15441,-0.47222 -0.30884,-0.93873 -0.4322,-1.405 -1.10239,-3.72742 -1.93916,-7.30778 -2.44251,-10.80301 -0.0654,-0.43873 -0.12337,-0.87697 -0.18547,-1.30925 -0.0653,-0.43546 -0.12337,-0.87698 -0.15441,-1.30925 -1.33703,-13.80812 2.46719,-26.582725 16.21232,-42.828784 l 0.84609,-1.006636 c 2.5846,-0.849185 5.16576,-1.546997 7.70713,-2.090466 z m 42.76514,7.13302 c 1.2938,0.682201 2.55673,1.417425 3.782,2.170869 10.75791,6.622225 18.25475,15.568191 18.25475,25.116272 0,5.02524 -0.4322,9.41647 -1.21359,13.34031 -0.0653,0.24673 -0.0923,0.53432 -0.15441,0.78105 -0.88008,4.11926 -2.14913,7.72372 -3.73387,10.99444 -0.18547,0.41096 -0.3889,0.81536 -0.60541,1.21358 -3.10796,5.98521 -7.25934,10.89655 -11.8402,16.05267 -0.99119,1.11472 -2.00712,2.2573 -3.03229,3.39891 2.87168,-6.83352 5.34852,-13.24586 7.14879,-19.45158 0.0923,-0.3456 0.18546,-0.67975 0.27778,-1.02208 1.24437,-4.46665 2.13059,-8.83696 2.55363,-13.19642 1.24756,-12.89936 -1.84962,-25.556081 -11.44125,-39.39818 z m -62.42425,0.01632 0.0163,0.01633 c -0.0163,0.0079 -0.0327,0.0079 -0.0654,0.01632 -9.55642,13.816205 -12.65262,26.455281 -11.40946,39.334221 0.0327,0.33333 0.0923,0.66993 0.12337,1.00662 0.0327,0.33661 0.0923,0.66668 0.12336,1.00672 0.4755,3.6931 1.2599,7.40689 2.31286,11.18618 0.0923,0.34232 0.21651,0.67649 0.31782,1.02208 1.59953,5.51625 3.73698,11.19362 6.20727,17.1857 0.30882,0.75001 0.62419,1.50688 0.94176,2.26645 -1.02517,-1.1425 -2.05648,-2.285 -3.04775,-3.39883 -9.77285,-10.99933 -17.537015,-20.94203 -17.537015,-42.38196 0,-9.548332 7.481635,-18.494865 18.238905,-25.116614 1.20426,-0.737753 2.46106,-1.432776 3.7342,-2.105907 0.008,-0.01633 0.0245,-0.01633 0.0327,-0.03265 z m 19.94652,119.279781 h 7.54775 v 12.84528 h -7.54775 z m 15.0155,0 h 7.54773 v 12.84528 h -7.54773 z m -15.0155,19.10043 h 22.56323 v 15.27121 h -22.56323 z" />
  </g>
</svg>
