<?xml version="1.0" encoding="UTF-8" standalone="no"?>
<!-- Created with Inkscape (http://www.inkscape.org/) -->

<svg
   width="825"
   height="1125"
   viewBox="0 0 218.28124 297.65625"
   version="1.1"
   id="svg5"
   inkscape:version="1.3 (0e150ed6c4, 2023-07-21)"
   sodipodi:docname="army.svg"
   xml:space="preserve"
   xmlns:inkscape="http://www.inkscape.org/namespaces/inkscape"
   xmlns:sodipodi="http://sodipodi.sourceforge.net/DTD/sodipodi-0.dtd"
   xmlns="http://www.w3.org/2000/svg"
   xmlns:svg="http://www.w3.org/2000/svg"><sodipodi:namedview
     id="namedview7"
     pagecolor="#ffffff"
     bordercolor="#000000"
     borderopacity="0.25"
     inkscape:showpageshadow="2"
     inkscape:pageopacity="0.0"
     inkscape:pagecheckerboard="0"
     inkscape:deskcolor="#d1d1d1"
     inkscape:document-units="px"
     showgrid="false"
     inkscape:zoom="0.8299285"
     inkscape:cx="-63.258461"
     inkscape:cy="797.65908"
     inkscape:window-width="1512"
     inkscape:window-height="842"
     inkscape:window-x="0"
     inkscape:window-y="38"
     inkscape:window-maximized="1"
     inkscape:current-layer="layer1"><sodipodi:guide
       position="20.013296,277.64296"
       orientation="973.71841,0"
       id="guide1"
       inkscape:locked="false" /><sodipodi:guide
       position="20.013296,20.013299"
       orientation="0,673.71837"
       id="guide2"
       inkscape:locked="false" /><sodipodi:guide
       position="198.26794,20.013299"
       orientation="-973.71841,0"
       id="guide3"
       inkscape:locked="false" /><sodipodi:guide
       position="198.26794,277.64296"
       orientation="0,-673.71837"
       id="guide4"
       inkscape:locked="false" /></sodipodi:namedview><defs
     id="defs2"><inkscape:path-effect
       effect="mirror_symmetry"
       start_point="351.78899,108.87568"
       end_point="351.78899,131.89085"
       center_point="351.78899,120.38326"
       id="path-effect4"
       is_visible="true"
       lpeversion="1.2"
       lpesatellites=""
       mode="free"
       discard_orig_path="false"
       fuse_paths="false"
       oposite_fuse="false"
       split_items="false"
       split_open="false"
       link_styles="false" /><inkscape:path-effect
       effect="powerstroke"
       id="path-effect1295"
       is_visible="true"
       lpeversion="1"
       offset_points="10,3.249995"
       not_jump="false"
       sort_points="true"
       interpolator_type="CentripetalCatmullRom"
       interpolator_beta="0.2"
       start_linecap_type="zerowidth"
       linejoin_type="round"
       miter_limit="4"
       scale_width="1"
       end_linecap_type="zerowidth" /><inkscape:path-effect
       effect="taper_stroke"
       id="path-effect1293"
       is_visible="true"
       lpeversion="1"
       stroke_width="6.2"
       attach_start="0.068634695"
       end_offset="0.2"
       start_smoothing="0.5"
       end_smoothing="0.5"
       jointype="extrapolated"
       start_shape="center"
       end_shape="center"
       miter_limit="100" /><inkscape:path-effect
       effect="powerstroke"
       id="path-effect1287"
       is_visible="true"
       lpeversion="1"
       offset_points="0.2,3.249995 | 0.5,3.249995 | 0.8,3.249995"
       not_jump="false"
       sort_points="true"
       interpolator_type="CubicBezierFit"
       interpolator_beta="0.2"
       start_linecap_type="zerowidth"
       linejoin_type="round"
       miter_limit="4"
       scale_width="1"
       end_linecap_type="zerowidth" /><inkscape:path-effect
       effect="powerstroke"
       id="path-effect1229"
       is_visible="true"
       lpeversion="1"
       offset_points="0.2,3.25 | 0.5,3.25 | 0.8,3.25"
       not_jump="false"
       sort_points="true"
       interpolator_type="CentripetalCatmullRom"
       interpolator_beta="0.24205379"
       start_linecap_type="zerowidth"
       linejoin_type="round"
       miter_limit="4"
       scale_width="1"
       end_linecap_type="zerowidth" /></defs><g
     inkscape:label="Layer 1"
     inkscape:groupmode="layer"
     id="layer1"><text
       xml:space="preserve"
       style="font-size:11.3089px;font-family:Acknowledgement;-inkscape-font-specification:'Acknowledgement, Normal';fill:#000000;stroke:#73573b;stroke-width:0.264583;paint-order:stroke fill markers;stop-color:#000000"
       x="89.89975"
       y="80.305107"
       id="text206"
       transform="scale(1.0049549,0.99506952)"><tspan
         sodipodi:role="line"
         id="tspan204"
         x="89.89975"
         y="80.305107"
         style="font-style:normal;font-variant:normal;font-weight:bold;font-stretch:normal;font-family:Georgia;-inkscape-font-specification:'Georgia Bold';stroke-width:0.264583">Attack</tspan></text><text
       xml:space="preserve"
       style="font-size:11.3089px;font-family:Acknowledgement;-inkscape-font-specification:'Acknowledgement, Normal';fill:#000000;stroke:#73573b;stroke-width:0.264583;paint-order:stroke fill markers;stop-color:#000000"
       x="89.89975"
       y="187.63315"
       id="text1"
       transform="scale(1.0049549,0.99506952)"><tspan
         sodipodi:role="line"
         id="tspan1"
         x="89.89975"
         y="187.63315"
         style="font-style:normal;font-variant:normal;font-weight:bold;font-stretch:normal;font-family:Georgia;-inkscape-font-specification:'Georgia Bold';stroke-width:0.264583">Special</tspan></text><path
       id="path12677"
       style="font-variation-settings:normal;display:inline;vector-effect:none;fill:#000000;fill-opacity:1;stroke:none;stroke-width:2.56627px;stroke-linecap:butt;stroke-linejoin:miter;stroke-miterlimit:4;stroke-dasharray:none;stroke-dashoffset:0;stroke-opacity:1;-inkscape-stroke:none;paint-order:stroke markers fill;stop-color:#000000"
       d="m 318.84686,215.31451 c -1.16218,0.40054 -2.14006,0.74534 -3.37396,1.16582 -0.85498,0.29136 -0.88196,0.29631 -1.71669,0.57929 0.59865,0.72547 1.16819,1.45607 1.66708,2.20142 0.96289,-1.33362 2.13366,-2.63672 3.42357,-3.94653 z" /><path
       id="path7"
       style="font-variation-settings:normal;display:inline;vector-effect:none;fill:#000000;fill-opacity:1;stroke:none;stroke-width:2.56627px;stroke-linecap:butt;stroke-linejoin:miter;stroke-miterlimit:4;stroke-dasharray:none;stroke-dashoffset:0;stroke-opacity:1;-inkscape-stroke:none;paint-order:stroke markers fill;stop-color:#000000"
       d="m 348.08998,223.76114 c -0.0326,-0.0442 -0.0484,-0.0649 -0.0816,-0.11007 -1.0618,-1.44309 -2.4465,-3.35234 -3.82096,-5.25653 -2.74891,-3.80837 -5.45651,-7.59695 -5.45651,-7.59695 l 10.23607,-8.61343 -6.73603,-17.38705 6.36551,-12.92066 c -2.62386,1.72868 -5.04007,4.21549 -7.01508,7.56543 l -2.15956,3.65921 -2.14457,-3.66696 c -5.39766,-9.22645 -15.07752,-12.09178 -22.7707,-9.90947 h -0.003 c -6.78736,1.92562 -12.02634,7.47218 -11.72745,17.19895 0.32992,10.70215 8.48223,19.63923 17.56792,27.69598 4.54323,4.02835 9.24743,7.79542 13.14235,11.50886 1.56597,1.49313 2.99656,2.97689 4.24573,4.49068 0.83473,-0.28298 0.86171,-0.28793 1.71669,-0.57929 1.2339,-0.42048 2.21178,-0.76528 3.37396,-1.16582 0.77927,-0.7913 1.59191,-1.58443 2.45773,-2.39003 0.89328,-0.83127 1.84159,-1.67384 2.80913,-2.52285 z" /><path
       id="path6"
       style="font-variation-settings:normal;display:inline;vector-effect:none;fill:#000000;fill-opacity:1;stroke:none;stroke-width:2.56627px;stroke-linecap:butt;stroke-linejoin:miter;stroke-miterlimit:4;stroke-dasharray:none;stroke-dashoffset:0;stroke-opacity:1;-inkscape-stroke:none;paint-order:stroke markers fill;stop-color:#000000"
       d="m 369.26605,171.73141 c -3.29325,-0.55338 -6.83849,-0.18223 -10.27926,1.30711 l -8.5069,11.62307 3.62319,18.29088 -11.57306,6.71062 c 0,0 2.01059,4.20023 4.05844,8.42711 1.02392,2.11345 2.05706,4.23365 2.85291,5.83881 0.0249,0.0503 0.0369,0.0734 0.0614,0.12256 3.80897,-2.31535 7.99409,-4.6768 12.10629,-7.21868 10.59912,-6.55134 20.24067,-14.20402 21.68348,-24.16177 1.469,-10.14763 -3.40057,-17.02837 -10.1943,-19.84035 a 17.659599,17.659599 0 0 0 -3.82959,-1.09891 z"
       inkscape:transform-center-x="-15.116841"
       inkscape:transform-center-y="-25.135035" /><path
       style="font-variation-settings:normal;display:inline;vector-effect:none;fill:#000000;fill-opacity:1;stroke:none;stroke-width:1.18678px;stroke-linecap:butt;stroke-linejoin:miter;stroke-miterlimit:4;stroke-dasharray:none;stroke-dashoffset:0;stroke-opacity:1;-inkscape-stroke:none;paint-order:stroke markers fill;stop-color:#000000"
       d="m 45.674012,20.013713 c -2.838841,0.0211 -5.819049,1.518998 -7.822509,4.917195 l -0.998687,1.69205 -0.991727,-1.695637 C 33.364928,20.660533 28.888547,19.335477 25.33082,20.344691 h -0.0014 c -3.138824,0.890507 -5.561436,3.455495 -5.423214,7.953658 0.152572,4.949232 3.92261,9.082198 8.124301,12.808058 2.101027,1.862917 4.276372,3.604962 6.077583,5.322251 1.071246,1.021412 2.022402,2.030731 2.73454,3.094665 0.714302,-0.989322 1.656533,-1.941113 2.7197,-2.930338 1.843623,-1.715619 4.083487,-3.507531 6.234959,-5.424026 4.302853,-3.832747 8.081414,-8.090441 7.941078,-12.741397 -0.14361,-4.739527 -2.912667,-7.483496 -6.232176,-8.220166 A 8.1667066,8.1667066 0 0 0 45.672772,20.01353 Z"
       id="path5" /><g
       id="g6739"
       transform="matrix(0.15876436,0,0,0.15795293,222.37238,129.56445)"
       style="stroke-width:1.67078"><path
         d="m 286.031,211.595 c -0.745,0.007 -1.525,0.022 -2.31,0.062 -8.694,0.44 -19.32,2.508 -29.626,5.594 -10.308,3.086 -20.344,7.183 -28.063,11.313 -5.254,2.81 -8.667,5.522 -10.905,7.53 5.213,15.886 19.636,48.602 36.22,77 9.044,15.492 18.7,29.674 27.218,39 4.258,4.664 8.254,8.075 11.218,9.813 2.965,1.74 4.307,1.64 4.595,1.563 0.288,-0.077 1.42,-0.62 3.094,-3.564 1.67,-2.944 3.424,-7.837 4.75,-13.97 2.648,-12.262 3.823,-29.34 3.81,-47.217 -0.02,-33.398 -4.27,-69.712 -7.842,-85.564 -2.73,-0.895 -6.933,-1.61 -12.157,-1.562 z"
         id="path6733"
         style="font-variation-settings:normal;opacity:1;vector-effect:none;fill:#333333;fill-opacity:1;stroke-width:1.67078;stroke-linecap:butt;stroke-linejoin:miter;stroke-miterlimit:4;stroke-dasharray:none;stroke-dashoffset:0;stroke-opacity:1;stop-color:#000000;stop-opacity:1" /><path
         d="m 413.874,199.531 c -13.045,15.41 -48.86,31.746 -91.874,45.845 1.64,16.418 2.707,35.075 2.72,53.344 0.01,18.658 -1.105,36.594 -4.25,51.155 -1.574,7.28 -3.61,13.75 -6.75,19.28 -3.143,5.53 -7.815,10.59 -14.564,12.376 -6.75,1.786 -13.316,-0.275 -18.812,-3.5 -5.497,-3.223 -10.55,-7.79 -15.594,-13.31 -10.087,-11.045 -20.125,-26.058 -29.563,-42.22 -9.477,-16.23 -18.235,-33.37 -25.218,-48.688 -45.532,8.43 -85.193,11.69 -102.126,6.313 27.59,101.65 71.632,175.738 120.312,216.094 H 388.75 c 47.247,-52.587 62.203,-160.075 25.125,-296.69 z"
         id="path6735"
         style="font-variation-settings:normal;opacity:1;vector-effect:none;fill:#333333;fill-opacity:1;stroke-width:1.67078;stroke-linecap:butt;stroke-linejoin:miter;stroke-miterlimit:4;stroke-dasharray:none;stroke-dashoffset:0;stroke-opacity:1;stop-color:#000000;stop-opacity:1" /><path
         d="m 173.844,15.563 v 0.03 l 52.22,192.157 c 7.035,-3.16 14.752,-6.03 22.686,-8.406 8.894,-2.663 18.006,-4.683 26.72,-5.72 L 227,15.565 Z"
         id="path6737"
         style="font-variation-settings:normal;opacity:1;vector-effect:none;fill:#552200;fill-opacity:1;stroke-width:1.67078;stroke-linecap:butt;stroke-linejoin:miter;stroke-miterlimit:4;stroke-dasharray:none;stroke-dashoffset:0;stroke-opacity:1;stop-color:#000000;stop-opacity:1" /></g><rect
       style="fill:#000000;stroke:#ffffff;stroke-width:13.2292;stroke-dasharray:none;stroke-opacity:1;paint-order:stroke fill markers"
       id="rect7"
       width="14.664917"
       height="102.33562"
       x="321.87955"
       y="51.641327"
       rx="0"
       ry="0"
       transform="rotate(15)" /><path
       id="path8"
       style="font-variation-settings:normal;display:inline;vector-effect:none;fill:#000000;fill-opacity:1;stroke:none;stroke-width:2.56627px;stroke-linecap:butt;stroke-linejoin:miter;stroke-miterlimit:4;stroke-dasharray:none;stroke-dashoffset:0;stroke-opacity:1;-inkscape-stroke:none;paint-order:stroke markers fill;stop-color:#000000"
       d="m 316.01373,361.42235 c -0.0326,-0.0442 -0.0484,-0.0649 -0.0816,-0.11007 -1.0618,-1.44309 -2.4465,-3.35234 -3.82096,-5.25653 -2.74891,-3.80837 -5.45651,-7.59695 -5.45651,-7.59695 l 10.23607,-8.61343 -6.73603,-17.38705 6.36551,-12.92066 c -2.62386,1.72868 -5.04007,4.21549 -7.01508,7.56543 l -2.15956,3.65921 -2.14457,-3.66696 c -5.39766,-9.22645 -15.07752,-12.09178 -22.7707,-9.90947 h -0.003 c -6.78736,1.92562 -12.02634,7.47218 -11.72745,17.19895 0.32992,10.70215 8.48223,19.63923 17.56792,27.69598 4.54323,4.02835 9.24743,7.79542 13.14235,11.50886 1.56597,1.49313 2.99656,2.97689 4.24573,4.49068 0.83473,-0.28298 0.86171,-0.28793 1.71669,-0.57929 1.2339,-0.42048 2.21178,-0.76528 3.37396,-1.16582 0.77927,-0.7913 1.59191,-1.58443 2.45773,-2.39003 0.89328,-0.83127 1.84159,-1.67384 2.80913,-2.52285 z" /><path
       id="path9"
       style="font-variation-settings:normal;display:inline;vector-effect:none;fill:#000000;fill-opacity:1;stroke:none;stroke-width:2.56627px;stroke-linecap:butt;stroke-linejoin:miter;stroke-miterlimit:4;stroke-dasharray:none;stroke-dashoffset:0;stroke-opacity:1;-inkscape-stroke:none;paint-order:stroke markers fill;stop-color:#000000"
       d="m 337.1898,309.39262 c -3.29325,-0.55338 -6.83849,-0.18223 -10.27926,1.30711 l -8.5069,11.62307 3.62319,18.29088 -11.57306,6.71062 c 0,0 2.01059,4.20023 4.05844,8.42711 1.02392,2.11345 2.05706,4.23365 2.85291,5.83881 0.0249,0.0503 0.0369,0.0734 0.0614,0.12256 3.80897,-2.31535 7.99409,-4.6768 12.10629,-7.21868 10.59912,-6.55134 20.24067,-14.20402 21.68348,-24.16177 1.469,-10.14763 -3.40057,-17.02837 -10.1943,-19.84035 a 17.659599,17.659599 0 0 0 -3.82959,-1.09891 z"
       inkscape:transform-center-x="-15.116841"
       inkscape:transform-center-y="-25.135035" /><path
       id="rect9"
       style="stroke-width:13.2292;paint-order:stroke fill markers;fill:#cccccc"
       d="m 198.26794,212.12903 v 65.35452 h -65.35453 z"
       sodipodi:nodetypes="cccc" /><path
       style="font-variation-settings:normal;display:inline;fill:#000000;fill-opacity:1;stroke:#ffffff;stroke-width:0.79375;stroke-linecap:butt;stroke-linejoin:miter;stroke-miterlimit:4;stroke-dasharray:none;stroke-dashoffset:0;stroke-opacity:1;paint-order:stroke markers fill;stop-color:#000000"
       d="m 192.40302,208.30837 c -2.06352,0.0153 -4.2298,1.10415 -5.6861,3.57426 l -0.72593,1.22993 -0.72087,-1.23254 c -1.81443,-3.10148 -5.06827,-4.06464 -7.65434,-3.33106 h -7.2e-4 c -2.28158,0.6473 -4.04255,2.51176 -3.94208,5.78142 0.11091,3.59754 2.8513,6.60175 5.90546,9.31003 1.52722,1.35414 3.10845,2.62041 4.41773,3.86869 0.77867,0.74245 1.47006,1.47611 1.98771,2.24947 0.51921,-0.71913 1.20411,-1.41097 1.97692,-2.13002 1.3401,-1.24707 2.96823,-2.54959 4.53212,-3.94267 3.12769,-2.78598 5.87428,-5.88085 5.77227,-9.26158 -0.10439,-3.4451 -2.11718,-5.43966 -4.53009,-5.97514 a 5.936285,5.936285 0 0 0 -1.3327,-0.14092 z"
       id="path12" /><path
       style="fill:none;stroke:#ffffff;stroke-width:0.79375;stroke-linecap:square;stroke-linejoin:miter;stroke-dasharray:none;stroke-opacity:1"
       d="m 183.86504,210.22769 -1.17097,1.8523 5.96598,3.5482 -5.48268,4.41655 5.07954,4.75633 -3.30806,3.68643"
       id="path13"
       sodipodi:nodetypes="cccccc" /></g></svg>
