<?xml version="1.0" encoding="UTF-8" standalone="no"?>
<!-- Created with Inkscape (http://www.inkscape.org/) -->

<svg
   width="825"
   height="1125"
   viewBox="0 0 218.28124 297.65625"
   version="1.1"
   id="svg5"
   inkscape:version="1.3 (0e150ed6c4, 2023-07-21)"
   sodipodi:docname="army.svg"
   xml:space="preserve"
   xmlns:inkscape="http://www.inkscape.org/namespaces/inkscape"
   xmlns:sodipodi="http://sodipodi.sourceforge.net/DTD/sodipodi-0.dtd"
   xmlns="http://www.w3.org/2000/svg"
   xmlns:svg="http://www.w3.org/2000/svg"><sodipodi:namedview
     id="namedview7"
     pagecolor="#ffffff"
     bordercolor="#000000"
     borderopacity="0.25"
     inkscape:showpageshadow="2"
     inkscape:pageopacity="0.0"
     inkscape:pagecheckerboard="0"
     inkscape:deskcolor="#d1d1d1"
     inkscape:document-units="px"
     showgrid="false"
     inkscape:zoom="0.8299285"
     inkscape:cx="-63.258461"
     inkscape:cy="797.65908"
     inkscape:window-width="1512"
     inkscape:window-height="842"
     inkscape:window-x="0"
     inkscape:window-y="38"
     inkscape:window-maximized="1"
     inkscape:current-layer="layer1"><sodipodi:guide
       position="20.013296,277.64296"
       orientation="973.71841,0"
       id="guide1"
       inkscape:locked="false" /><sodipodi:guide
       position="20.013296,20.013299"
       orientation="0,673.71837"
       id="guide2"
       inkscape:locked="false" /><sodipodi:guide
       position="198.26794,20.013299"
       orientation="-973.71841,0"
       id="guide3"
       inkscape:locked="false" /><sodipodi:guide
       position="198.26794,277.64296"
       orientation="0,-673.71837"
       id="guide4"
       inkscape:locked="false" /></sodipodi:namedview><defs
     id="defs2"><inkscape:path-effect
       effect="roughen"
       id="path-effect22"
       is_visible="true"
       lpeversion="1.2"
       global_randomize="0.9;1323055780"
       displace_x="0.89;-1098145191"
       displace_y="0.6833;364858470"
       method="segments"
       max_segment_size="0"
       segments="20"
       handles="along"
       shift_nodes="true"
       fixed_displacement="false"
       spray_tool_friendly="false" /><inkscape:path-effect
       effect="powerstroke"
       id="path-effect20"
       is_visible="true"
       lpeversion="1.3"
       scale_width="1"
       interpolator_type="CentripetalCatmullRom"
       interpolator_beta="0.2"
       start_linecap_type="zerowidth"
       end_linecap_type="zerowidth"
       offset_points="0.37081178,-3.8946892"
       linejoin_type="round"
       miter_limit="4"
       not_jump="false"
       sort_points="true"
       message="&lt;b&gt;Ctrl + click&lt;/b&gt; on existing node and move it" /><inkscape:path-effect
       effect="roughen"
       id="path-effect18"
       is_visible="true"
       lpeversion="1.2"
       global_randomize="0.9;313196342"
       displace_x="0.79;1098145192"
       displace_y="0.58;364858470"
       method="segments"
       max_segment_size="0"
       segments="17"
       handles="along"
       shift_nodes="true"
       fixed_displacement="false"
       spray_tool_friendly="false" /><inkscape:path-effect
       effect="powerstroke"
       id="path-effect16"
       is_visible="true"
       lpeversion="1.3"
       scale_width="1"
       interpolator_type="CentripetalCatmullRom"
       interpolator_beta="0.2"
       start_linecap_type="zerowidth"
       end_linecap_type="zerowidth"
       offset_points="0.23505891,-1.452083"
       linejoin_type="round"
       miter_limit="4"
       not_jump="false"
       sort_points="true"
       message="&lt;b&gt;Ctrl + click&lt;/b&gt; on existing node and move it" /><inkscape:path-effect
       effect="roughen"
       id="path-effect14"
       is_visible="true"
       lpeversion="1.2"
       global_randomize="0.9;1323055780"
       displace_x="0.89;-1098145191"
       displace_y="0.6833;364858470"
       method="segments"
       max_segment_size="0"
       segments="20"
       handles="along"
       shift_nodes="true"
       fixed_displacement="false"
       spray_tool_friendly="false" /><inkscape:path-effect
       effect="sketch"
       id="path-effect13"
       is_visible="true"
       lpeversion="1"
       nbiter_approxstrokes="5"
       parallel_offset="1;893187567"
       strokelength="45.612245"
       strokelength_rdm="0.3;1"
       strokeoverlap="0.093294461"
       strokeoverlap_rdm="0.3;1"
       ends_tolerance="0.1;1"
       tremble_size="5;-1255307600"
       tremble_frequency="0.01"
       nbtangents="0"
       tgt_places_rdmness="1;-717823556"
       tgtlength="0"
       tgtlength_rdm="0.3;-219597618"
       tgtscale="10" /><inkscape:path-effect
       effect="powerstroke"
       id="path-effect12"
       is_visible="true"
       lpeversion="1.3"
       scale_width="1"
       interpolator_type="CentripetalCatmullRom"
       interpolator_beta="0.2"
       start_linecap_type="zerowidth"
       end_linecap_type="zerowidth"
       offset_points="0.37081178,-3.8946892"
       linejoin_type="round"
       miter_limit="4"
       not_jump="false"
       sort_points="true"
       message="&lt;b&gt;Ctrl + click&lt;/b&gt; on existing node and move it" /><inkscape:path-effect
       effect="mirror_symmetry"
       start_point="351.78899,108.87568"
       end_point="351.78899,131.89085"
       center_point="351.78899,120.38326"
       id="path-effect4"
       is_visible="true"
       lpeversion="1.2"
       lpesatellites=""
       mode="free"
       discard_orig_path="false"
       fuse_paths="false"
       oposite_fuse="false"
       split_items="false"
       split_open="false"
       link_styles="false" /><inkscape:path-effect
       effect="powerstroke"
       id="path-effect1295"
       is_visible="true"
       lpeversion="1"
       offset_points="10,3.249995"
       not_jump="false"
       sort_points="true"
       interpolator_type="CentripetalCatmullRom"
       interpolator_beta="0.2"
       start_linecap_type="zerowidth"
       linejoin_type="round"
       miter_limit="4"
       scale_width="1"
       end_linecap_type="zerowidth" /><inkscape:path-effect
       effect="taper_stroke"
       id="path-effect1293"
       is_visible="true"
       lpeversion="1"
       stroke_width="6.2"
       attach_start="0.068634695"
       end_offset="0.2"
       start_smoothing="0.5"
       end_smoothing="0.5"
       jointype="extrapolated"
       start_shape="center"
       end_shape="center"
       miter_limit="100" /><inkscape:path-effect
       effect="powerstroke"
       id="path-effect1287"
       is_visible="true"
       lpeversion="1"
       offset_points="0.2,3.249995 | 0.5,3.249995 | 0.8,3.249995"
       not_jump="false"
       sort_points="true"
       interpolator_type="CubicBezierFit"
       interpolator_beta="0.2"
       start_linecap_type="zerowidth"
       linejoin_type="round"
       miter_limit="4"
       scale_width="1"
       end_linecap_type="zerowidth" /><inkscape:path-effect
       effect="powerstroke"
       id="path-effect1229"
       is_visible="true"
       lpeversion="1"
       offset_points="0.2,3.25 | 0.5,3.25 | 0.8,3.25"
       not_jump="false"
       sort_points="true"
       interpolator_type="CentripetalCatmullRom"
       interpolator_beta="0.24205379"
       start_linecap_type="zerowidth"
       linejoin_type="round"
       miter_limit="4"
       scale_width="1"
       end_linecap_type="zerowidth" /></defs><g
     inkscape:label="Layer 1"
     inkscape:groupmode="layer"
     id="layer1"><path
       style="font-variation-settings:normal;display:inline;opacity:1;vector-effect:none;fill:#800000;fill-opacity:0.647059;stroke:none;stroke-width:0.198833px;stroke-linecap:butt;stroke-linejoin:miter;stroke-miterlimit:4;stroke-dasharray:none;stroke-dashoffset:0;stroke-opacity:1;-inkscape-stroke:none;paint-order:stroke markers fill;stop-color:#000000;stop-opacity:1"
       d="m 38.072163,20.013586 c -2.001527,0.01488 -4.102725,0.01264 -5.515267,2.40854 l -0.704125,1.192981 -0.699218,-1.19551 C 29.393632,19.411295 26.237556,19.535396 23.729177,20.246943 H 23.7282 c -2.213031,0.627852 -3.921096,2.4363 -3.823642,5.607734 0.107571,3.48946 2.76564,6.403411 5.728046,9.030333 1.48133,1.313451 3.01506,2.541681 4.285005,3.752458 0.755283,0.720147 1.425896,1.431768 1.92799,2.181896 0.503619,-0.697522 1.16794,-1.368584 1.917527,-2.066037 1.299848,-1.209599 2.879067,-2.472988 4.395964,-3.824215 3.03373,-2.702282 5.697808,-5.704173 5.598864,-8.983333 -0.101253,-3.341608 -2.053579,-5.276246 -4.394001,-5.795636 -0.424344,-0.09421 -0.857992,-0.140062 -1.292655,-0.136685 z"
       id="path5"
       sodipodi:nodetypes="cccccccccccccccc" /><path
       id="rect9"
       style="fill:#e0d1d1;stroke-width:0.302677px;paint-order:stroke markers fill;font-variation-settings:normal;opacity:1;vector-effect:none;fill-opacity:0.659664;stroke:none;stroke-linecap:butt;stroke-linejoin:miter;stroke-miterlimit:4;stroke-dasharray:none;stroke-dashoffset:0;stroke-opacity:1;-inkscape-stroke:none;stop-color:#000000;stop-opacity:1"
       d="m 198.26794,212.36813 v 65.35452 l -78.88018,0 c 20.98285,-16.65405 55.35992,-33.15716 78.88018,-65.35452 z"
       sodipodi:nodetypes="cccc" /><g
       inkscape:label="Layer 1"
       id="layer1-5"
       transform="matrix(0.05984054,0,0,0.05984054,180.50349,208.98534)"
       style="font-variation-settings:normal;opacity:1;fill:#f0e9e9;fill-opacity:1;stroke:#ffffff;stroke-width:22.10736461;stroke-linecap:butt;stroke-linejoin:miter;stroke-miterlimit:4;stroke-dasharray:none;stroke-dashoffset:0;stroke-opacity:1;paint-order:stroke fill markers;stop-color:#000000;stop-opacity:1"><path
         d="m 117.94336,241.45312 54.61523,-24.18164 -59.68945,-55.89062 51.84961,-33.79102 -56.46875,-59.820309 15.18555,-24.021484 0.78906,-1.246094 c -0.14374,-0.124963 -0.27757,-0.270803 -0.42188,-0.394531 -1.78034,-1.526522 -3.60215,-2.95888 -5.46093,-4.298828 -1.85879,-1.339948 -3.75467,-2.588209 -5.67969,-3.744141 -1.92502,-1.155931 -3.88031,-2.218888 -5.85938,-3.193359 -1.97906,-0.974472 -3.98105,-1.858729 -6.00195,-2.654297 -2.0209,-0.795568 -4.060786,-1.503826 -6.111327,-2.123047 -2.050541,-0.619221 -4.111706,-1.150273 -6.179687,-1.595703 -2.067982,-0.44543 -4.141622,-0.803929 -6.214844,-1.078125 -2.073222,-0.274196 -4.146628,-0.464794 -6.212891,-0.570313 -2.066262,-0.105518 -4.126724,-0.127008 -6.173828,-0.06641 -2.047104,0.0606 -4.08191,0.203568 -6.097656,0.427734 -2.015746,0.224167 -4.012187,0.530841 -5.984375,0.916016 -1.972188,0.385175 -3.919507,0.848952 -5.835938,1.392578 h -0.0078 c -1.690783,0.479688 -3.357418,1.016395 -4.996094,1.609375 -1.638676,0.592981 -3.249318,1.241857 -4.828125,1.949219 -1.578807,0.707362 -3.125544,1.47209 -4.636719,2.294922 -1.511175,0.822832 -2.988047,1.705141 -4.423828,2.644531 -1.43578,0.939391 -2.830971,1.937103 -4.183594,2.994141 -1.352622,1.057038 -2.662125,2.171882 -3.923828,3.347656 -1.261702,1.175774 -2.475652,2.411433 -3.638672,3.707031 -1.163019,1.295599 -2.275457,2.651848 -3.332031,4.06836 -1.056573,1.416512 -2.057635,2.893126 -3,4.43164 -0.942365,1.538514 -1.826091,3.139177 -2.646484,4.800781 -0.820393,1.661605 -1.576919,3.384138 -2.267578,5.169922 -0.6906593,1.785785 -1.3140258,3.63387 -1.8671877,5.544922 -0.553162,1.911052 -1.0374104,3.88642 -1.4453126,5.923828 -0.4079021,2.037409 -0.7412142,4.137881 -0.9960937,6.302735 -0.2548795,2.164854 -0.4312966,4.394112 -0.5253906,6.6875 -0.094094,2.293388 -0.1057042,4.651208 -0.03125,7.074218 0.082191,2.66599 0.2864063,5.304127 0.6054687,7.916022 0.3190624,2.61189 0.7543479,5.19635 1.296875,7.75586 0.5425271,2.55951 1.1927276,5.09466 1.9453125,7.60351 0.752585,2.50886 1.6074044,4.99321 2.5566404,7.45313 0.949236,2.45992 1.99252,4.89393 3.125,7.30664 1.13248,2.4127 2.353933,4.80271 3.65625,7.16992 1.302318,2.36721 2.685784,4.71171 4.144531,7.03516 1.458748,2.32344 2.991979,4.62681 4.59375,6.9082 1.601772,2.28139 3.272519,4.54213 5.003907,6.7832 1.731388,2.24107 3.523496,4.4616 5.371093,6.66407 1.847598,2.20246 3.750772,4.38715 5.701172,6.55273 1.950401,2.16558 3.948485,4.31294 5.988282,6.44336 2.039797,2.13042 4.120542,4.24286 6.236328,6.33984 2.115786,2.09698 4.266944,4.17888 6.445312,6.24414 4.356737,4.13053 8.824937,8.1989 13.351563,12.21289 4.527037,4.014 9.093926,7.96268 13.640625,11.85938 4.546699,3.8967 9.073949,7.74157 13.519534,11.54687 4.44558,3.80531 8.80951,7.57074 13.0332,11.31055 0.86234,0.76355 1.63822,1.51588 2.48828,2.27734 z"
         style="font-variation-settings:normal;display:inline;fill:#f0e9e9;fill-opacity:1;stroke:#ffffff;stroke-width:22.10736461;stroke-linecap:butt;stroke-linejoin:miter;stroke-miterlimit:4;stroke-dasharray:none;stroke-dashoffset:0;stroke-opacity:1;paint-order:stroke fill markers;stop-color:#000000;stop-opacity:1"
         id="path2" /><path
         d="m 227.31445,22.666016 0.008,0.002 c -1.52919,0.01134 -3.06326,0.07192 -4.59961,0.183593 -1.53636,0.111675 -3.07447,0.27449 -4.61329,0.488282 -1.53881,0.213792 -3.07866,0.479183 -4.61523,0.796875 -1.53657,0.317691 -3.06999,0.686003 -4.59961,1.109375 -1.52962,0.423372 -3.0543,0.900806 -4.57226,1.43164 -1.51797,0.530835 -3.02965,1.115782 -4.53125,1.75586 -1.50161,0.640078 -2.99407,1.334834 -4.47461,2.085937 -1.48054,0.751103 -2.94953,1.557965 -4.4043,2.421875 -1.45477,0.86391 -2.89602,1.785174 -4.32031,2.763672 -1.4243,0.978498 -2.8316,2.014507 -4.22071,3.109375 -1.38911,1.094868 -2.76015,2.247919 -4.10937,3.460938 -1.34922,1.213019 -2.67584,2.48736 -3.98047,3.820312 -1.30463,1.332952 -2.58647,2.725022 -3.8418,4.179688 -1.25533,1.454665 -2.48422,2.970666 -3.68554,4.548828 -1.20133,1.578161 -2.37496,3.218436 -3.51758,4.921875 -1.14262,1.703438 -2.25478,3.470284 -3.33399,5.300781 l -8.60742,14.583984 -8.54687,-14.615234 c -1.3446,-2.29838 -2.75668,-4.498029 -4.22852,-6.599609 -1.47183,-2.101581 -3.00297,-4.104382 -4.58984,-6.011719 -1.58687,-1.907338 -3.22826,-3.717943 -4.91797,-5.433594 -0.0387,-0.03926 -0.0804,-0.07217 -0.11914,-0.111328 l -0.15235,0.242187 -12.58398,19.902344 58.28125,61.742187 -51.43945,33.52344 60.76757,56.90039 -60.76953,26.90625 c 1.53511,1.4155 3.16664,2.84301 4.64649,4.25391 2.30816,2.2008 4.55206,4.39504 6.71484,6.59179 2.16279,2.19676 4.2451,4.3948 6.23047,6.60547 1.98537,2.21068 3.87252,4.43322 5.64844,6.67578 1.77592,2.24257 3.44017,4.50641 4.97461,6.79883 1.53906,-2.13167 3.20048,-4.24438 4.9707,-6.3457 1.77022,-2.10132 3.64853,-4.19204 5.62109,-6.2832 1.97257,-2.09117 4.03946,-4.182 6.18555,-6.28321 2.14609,-2.1012 4.37132,-4.21231 6.66211,-6.34375 3.97237,-3.69661 8.15818,-7.4354 12.49219,-11.2207 4.334,-3.7853 8.8177,-7.61691 13.38281,-11.50391 4.56511,-3.88699 9.21322,-7.82837 13.87891,-11.83007 4.66568,-4.00171 9.34863,-8.06394 13.98437,-12.19336 4.63561,-4.12915 9.19947,-8.31553 13.63672,-12.5586 2.21863,-2.12153 4.40512,-4.25839 6.55273,-6.4082 2.14762,-2.14981 4.25606,-4.31227 6.31836,-6.49023 2.06231,-2.17797 4.08025,-4.3702 6.04297,-6.57618 1.96272,-2.20597 3.87186,-4.4263 5.72071,-6.66015 1.84884,-2.23386 3.63673,-4.48254 5.35742,-6.74414 1.72069,-2.2616 3.37293,-4.53696 4.95117,-6.82618 1.57824,-2.28921 3.08239,-4.5915 4.50391,-6.9082 1.42151,-2.31669 2.76122,-4.64619 4.01171,-6.99023 1.2505,-2.34404 2.41137,-4.70297 3.47657,-7.07422 1.06519,-2.37126 2.03478,-4.75596 2.90039,-7.1543 0.86561,-2.39833 1.62756,-4.80909 2.27929,-7.23437 0.65174,-2.42528 1.19361,-4.86432 1.61719,-7.31641 0.42358,-2.45209 0.72903,-4.91771 0.91016,-7.39648 0.0906,-1.23939 0.15046,-2.48249 0.17773,-3.728522 0.0273,-1.246032 0.0222,-2.495387 -0.0156,-3.748047 -0.0774,-2.553023 -0.24437,-5.038401 -0.49414,-7.457032 -0.24977,-2.41863 -0.58264,-4.770497 -0.9961,-7.054687 -0.41345,-2.28419 -0.9062,-4.500691 -1.47461,-6.650391 -0.5684,-2.149699 -1.21311,-4.232887 -1.92773,-6.248047 -0.71462,-2.015159 -1.49946,-3.96318 -2.35156,-5.84375 -0.85211,-1.880569 -1.7711,-3.693522 -2.75196,-5.439453 -0.98085,-1.74593 -2.02412,-3.423914 -3.125,-5.035156 -1.10087,-1.611242 -2.25853,-3.156308 -3.4707,-4.632812 -1.21216,-1.476505 -2.47825,-2.884846 -3.79297,-4.226563 -1.31472,-1.341717 -2.67934,-2.615385 -4.08789,-3.822266 -1.40854,-1.20688 -2.86183,-2.347927 -4.35547,-3.419921 -1.49363,-1.071995 -3.02766,-2.076613 -4.59765,-3.013672 -1.57,-0.937059 -3.17488,-1.805348 -4.8125,-2.607422 -1.63762,-0.802074 -3.30739,-1.538039 -5.00391,-2.205078 -1.69652,-0.66704 -3.41934,-1.26492 -5.16602,-1.796875 -1.74667,-0.531956 -3.51657,-0.997709 -5.30468,-1.394532 a 70.386271,70.386271 0 0 0 -7.85352,-1.28125 70.386271,70.386271 0 0 0 -7.94922,-0.388671 z"
         style="font-variation-settings:normal;display:inline;fill:#f0e9e9;fill-opacity:1;stroke:#ffffff;stroke-width:22.10736461;stroke-linecap:butt;stroke-linejoin:miter;stroke-miterlimit:4;stroke-dasharray:none;stroke-dashoffset:0;stroke-opacity:1;paint-order:stroke fill markers;stop-color:#000000;stop-opacity:1"
         id="path1" /></g><path
       style="font-variation-settings:normal;opacity:1;vector-effect:none;fill:#800000;fill-opacity:0.647059;fill-rule:nonzero;stroke:none;stroke-width:0.264583px;stroke-linecap:butt;stroke-linejoin:miter;stroke-miterlimit:4;stroke-dasharray:none;stroke-dashoffset:0;stroke-opacity:1;-inkscape-stroke:none;paint-order:stroke markers fill;stop-color:#000000;stop-opacity:1"
       d="m 186.35784,80.858426 c -0.16537,0.13236 -0.4727,0.33942 -0.6469,0.478564 -0.27555,0.152424 -0.38873,0.156542 -0.53669,0.27463 -0.27601,0.06641 -0.10658,0.292925 -0.28881,0.438827 0.01,0.200294 -0.58449,0.36941 -0.83678,0.56941 -0.28588,0.129774 -0.33486,0.165274 -0.52536,0.315696 -0.20122,0.05883 -0.48898,0.350291 -0.73716,0.546005 -0.23133,0.146591 -0.66315,0.345122 -0.89328,0.52629 -0.40323,0.139929 -0.42521,0.476797 -0.61589,0.62774 -0.2489,0.338333 -0.39942,0.27382 -0.60228,0.433506 -0.25309,0.157257 -0.50361,0.108339 -0.76378,0.311933 -0.29619,-0.05589 -0.90714,0.434792 -1.21968,0.683908 -0.51199,0.125617 -0.42504,0.201367 -0.63786,0.376063 -0.29288,0.09997 -0.42739,0.44147 -0.72381,0.694721 -0.14726,0.215217 -0.62995,0.622614 -0.94963,0.895512 -0.27451,0.3176 -0.57113,0.390846 -0.84116,0.61475 -0.33696,0.186792 -0.1873,0.421341 -0.4872,0.66688 0.0287,0.238792 -0.81942,0.616489 -1.25824,0.929246 -0.3546,0.230881 -0.62617,0.503976 -0.95679,0.72988 -0.32527,0.285172 -0.52496,0.118543 -0.87499,0.33595 -0.36952,0.229515 -1.16906,0.815687 -1.52265,1.047488 -0.36626,0.240099 -0.49169,0.480335 -0.86301,0.720847 -0.18422,0.276844 -0.94033,0.378402 -1.37646,0.655795 -0.4648,0.06842 -0.51466,0.397118 -0.90466,0.642609 -0.19863,0.19436 -0.44366,0.540098 -0.90919,0.828738 -0.0307,0.27754 -1.01678,0.873526 -1.53671,1.187432 -0.36141,0.465645 -0.6556,0.624946 -1.0214,0.840277 -0.32714,0.423572 -0.68506,0.514044 -1.08554,0.741873 -0.32706,0.29894 -0.79851,0.498278 -1.23889,0.739344 -0.36878,0.249463 -0.59301,0.339758 -1.03843,0.574934 -0.23336,0.137463 -1.06153,0.556437 -1.59563,0.828356 -0.44738,0.2296 -1.33601,-0.0191 -1.77261,0.19787 -0.8533,-0.26658 -0.61497,0.21889 -0.9899,0.41282 -0.36342,0.0998 -1.1027,0.58251 -1.6061,0.85575 -0.51291,0.28031 -0.46772,0.53954 -0.87902,0.7683 -0.16251,0.37739 -1.02975,0.57034 -1.5688,0.85757 -0.44079,0.23888 -0.95292,0.4948 -1.42406,0.73815 -0.48473,0.24203 -1.46763,0.56583 -1.92968,0.7993 -0.88784,0.26532 -0.27272,0.40157 -0.56778,0.56343 -0.1565,0.3574 -1.21103,0.55499 -1.82131,0.81748 -0.49793,0.21416 -0.71246,0.44531 -1.20159,0.67966 -0.37654,0.18042 -0.9887,0.42836 -1.36734,0.60689 -0.54087,0.2129 -0.63764,0.25778 -0.94441,0.40073 -0.4025,0.14568 -0.84085,0.13403 -1.21906,0.30798 -0.47118,-0.0394 -0.50374,0.32311 -0.8897,0.49994 -0.19099,0.17876 -0.90874,0.30376 -1.3707,0.51321 -0.38896,0.0648 -0.55997,0.50455 -0.96209,0.68611 -0.18958,0.33614 -0.83847,0.38292 -1.27435,0.57553 -0.36525,0.16763 -1.06292,0.35874 -1.45817,0.53012 -0.58408,0.14627 -0.61157,0.32062 -0.91776,0.45239 -0.37864,0.21886 -1.07827,0.1981 -1.45772,0.35894 -0.6317,0.005 -0.63748,0.14519 -0.94686,0.27783 -0.41127,0.0503 -1.14819,0.38487 -1.54082,0.55757 -0.63616,0.16585 -0.39465,0.0102 -0.66915,0.1341 -0.29376,-0.0307 -0.72378,0.40502 -1.17501,0.62177 -0.23151,0.18636 -0.87496,0.31278 -1.30446,0.51918 -0.40105,0.084 -0.50124,0.2244 -0.87821,0.40955 -0.18401,0.0728 -0.80582,0.41063 -1.27261,0.63752 -0.29783,0.15732 -0.85044,0.3696 -1.25101,0.55342 -0.43271,0.16103 -0.64226,0.29947 -0.98067,0.45101 -0.38061,0.17045 -0.99842,0.45931 -1.36478,0.59212 -0.36591,0.13265 -0.62489,0.17491 -0.99527,0.30697 -0.30206,0.0565 -1.18075,0.30301 -1.59822,0.4495 -0.62475,0.10444 -0.563,0.20588 -0.83408,0.30039 -0.39405,0.14606 -0.71232,0.43284 -1.0861,0.56188 -0.3444,0.30391 -0.77158,0.31658 -1.15021,0.44466 -0.39661,0.18583 -0.17069,0.035 -0.55131,0.16081 0.002,-0.0264 -1.43595,0.41726 -2.03946,0.61096 -0.57592,0.13286 -0.63686,0.30267 -0.95756,0.4045 -0.39342,0.22373 -0.72477,0.25578 -1.12265,0.37929 -0.36186,0.13899 -0.84466,-0.10278 -1.27677,0.028 -0.43794,-0.23075 -0.83529,0.57036 -1.29003,0.71244 -0.34233,0.42257 -0.82873,0.26167 -1.24167,0.38644 -0.42858,0.13463 -0.88117,0.20825 -1.30299,0.3319 -0.46219,0.08 -0.96733,0.0996 -1.38717,0.22143 -0.53876,-0.0266 -0.8424,0.34005 -1.24614,0.46366 -0.44951,0.22873 -0.99342,0.29117 -1.40879,0.41683 -0.55461,0.15601 -0.85262,0.26003 -1.23534,0.37489 -0.50064,0.15273 -0.81474,0.0203 -1.231531,0.14258 -0.431447,-0.0967 -0.792031,0.41814 -1.278375,0.61511 -0.429965,0.17414 -1.213821,0.30839 -1.672755,0.43432 -0.778707,0.21366 -1.694168,0.37522 -2.471117,0.58382 -0.875851,0.14867 -1.589084,0.40285 -2.324788,0.5968 -0.852373,0.20329 -1.437611,0.35757 -2.172767,0.54798 -0.748346,0.17397 -1.561438,0.34831 -2.343781,0.5473 -0.766779,0.14071 -1.411823,0.44255 -2.183789,0.63581 -0.665774,0.25112 -1.636258,0.47705 -2.436898,0.67339 -0.775106,0.25974 -1.540161,0.44265 -2.282052,0.62052 -0.785645,0.25568 -1.512389,0.52495 -2.242895,0.6956 -0.770724,0.345 -1.635397,0.57937 -2.356453,0.74171 -0.859389,0.39561 -0.796553,0.2305 -1.463764,0.37341 -0.373083,0.12897 -2.052056,0.38933 -2.975047,0.5739 -0.87902,0.13582 -1.14793,0.28816 -1.815262,0.41674 -0.597604,0.17502 -1.580969,0.54344 -2.3713,0.68841 -0.711296,0.37347 -1.439306,0.10724 -2.150018,0.22498 -0.735221,-0.0273 -1.441819,0.0389 -2.158493,0.15599 -0.719876,-0.0811 -1.42672,0.0968 -2.139712,0.22626 -0.700684,-0.0165 -1.350992,0.13166 -2.054611,0.28163 -0.643124,0.011 -1.694212,0.39043 -2.406496,0.57038 -0.886398,0.21996 -1.318733,0.22589 -1.869585,0.36279 -0.653727,0.16246 -0.926763,0.39252 -1.621736,0.52449 -0.347613,0.066 -0.426997,0.17371 -0.771923,0.2385 -0.161302,0.12274 -0.795099,0.0221 -1.220838,0.10028 -0.308659,-0.0699 -0.731809,0.11322 -1.098762,0.18031 -0.335679,0.0403 -0.718133,0.12201 -1.056911,0.18384 -0.359703,0.0564 -0.303493,0.11836 -0.623396,0.1767 -0.09881,0.081 -0.860441,-0.10489 -1.298596,-0.026 -0.328907,-0.20208 -0.896006,0.26987 -1.241421,0.33435 -0.449591,0.18992 -0.764477,0.0508 -1.008993,0.0968 -0.503564,0.002 -0.475317,0.17039 -0.703043,0.21402 -0.317,0.14132 -0.633599,0.0657 -0.929435,0.12255 -0.331436,0.008 -0.58809,0.0737 -0.880939,0.13095 -0.297764,0.0183 -0.665636,0.2317 -0.964876,0.29191 -0.324786,0.16555 -0.557837,0.21321 -0.820448,0.26472 -0.297611,0.16014 -0.543897,0.35352 -0.811926,0.40151 -0.271778,0.298 -0.299406,0.51422 -0.568259,0.54764 -0.118257,0.4703 -0.689026,-0.23563 -1.069861,-0.25158 -0.212947,-0.29631 -0.441275,0.0788 -0.71841,0.0845 -0.176973,0.0983 -0.453364,0.14525 -0.750954,0.15101 -0.147432,0.14266 -0.588389,-0.0771 -0.886073,-0.0956 -0.265284,-0.0165 -0.64282,0.19848 -0.844156,0.23291 -0.35653,0.061 -0.671491,0.31274 -1.010984,0.36997 -0.307104,0.25003 -0.659022,-0.009 -0.982744,0.0437 -0.321643,-0.0668 -0.713015,0.0781 -1.030733,0.12888 -0.344012,0.0176 -0.786827,0.10107 -1.064284,0.14482 -0.431955,0.0443 -0.502508,0.0687 -0.71374,0.10184 -0.322375,0.0402 -0.455071,-0.20562 -0.697741,-0.16779 -0.247942,-0.23819 -0.555272,0.31688 -0.834943,0.3634 -0.217409,0.26526 -0.371063,0.0797 -0.606569,0.11858 -0.158788,0.0442 -0.175384,0.0925 -0.43852,0.1355 0.02597,0.0589 -0.47778,0.25818 -0.813299,0.3103 -0.06234,0.1898 -0.60254,0.0595 -0.874328,0.095 -0.239427,0.003 -0.331323,-0.31685 -0.513258,-0.2948 -0.18442,-0.33708 -0.417477,9.7e-4 -0.634742,0.0388 -0.171066,-0.0251 -0.402431,0.14835 -0.594307,0.19111 -0.17491,0.11125 -0.04692,-0.13317 -0.20574,-0.0959 0.02345,-0.14695 -0.559269,0.0963 -0.832608,0.18039 -0.180245,0.004 0.110269,0.44098 -0.03394,0.49147 0.187165,0.42231 -0.478239,0.28696 -0.768238,0.27699 -0.1387,0.19828 -0.55453,-0.0905 -0.717175,-0.14876 -0.147757,-0.053 -0.158605,0.002 -0.243783,0.0189 0.137556,-0.0478 0.400719,0.0265 0.542313,-0.023 0.242489,0.0814 -0.06069,-0.15402 0.06086,-0.1973 -0.07702,-0.14931 0.531764,-0.16783 0.769735,-0.25224 0.207727,-0.0524 0.26092,0.30532 0.393583,0.25833 0.200477,0.32682 0.349093,-0.0863 0.558185,-0.16457 0.132733,-0.0111 0.497152,-0.41639 0.692053,-0.49208 0.228892,-0.31596 0.150444,-0.0324 0.2593,-0.0744 0.137894,-0.0272 0.953964,-0.47482 1.165913,-0.55602 0.546654,-0.31777 0.263195,-0.10194 0.263195,-0.10194 0.374532,-0.14459 0.233474,-0.2022 0.344342,-0.24394 0.208419,-0.19167 0.394081,-0.38563 0.591889,-0.45609 0.203079,-0.31169 0.247833,-0.21499 0.454537,-0.28031 0.120901,-0.16303 0.587141,-0.23039 0.887284,-0.30868 0.26045,-0.12354 0.513133,-0.0925 0.771001,-0.15125 0.27951,-0.0283 0.554971,-0.16312 0.830627,-0.22387 0.294847,-0.10375 0.550447,-0.0846 0.831754,-0.14532 0.30079,-0.03 0.681985,-0.0118 0.988807,-0.0849 0.387912,0.0482 0.604585,-0.20485 0.89991,-0.30292 0.333316,-0.15021 0.604616,-0.0261 0.928059,-0.13037 0.317642,-0.10235 0.523084,-0.35957 0.895073,-0.47539 0.246736,-0.0768 0.492086,-0.16154 0.741893,-0.2389 0.247097,-0.0851 0.898745,-0.15759 1.152038,-0.23559 0.530748,-0.0436 0.233308,0.0168 0.367148,-0.0245 0.243167,0.0136 0.563884,-0.21711 0.843033,-0.30419 0.262807,-0.12455 0.178002,-0.10397 0.434093,-0.18421 0.03542,-0.0598 0.771081,-0.38232 1.148079,-0.50019 0.277263,-0.22751 1.105266,-0.13561 1.353543,-0.21196 0.704932,-0.0107 -0.144222,-0.0952 -0.0548,-0.12285 0.04887,-0.15501 1.12676,-0.26859 1.504557,-0.38381 0.546292,-0.0895 0.322383,-0.0185 0.487956,-0.0692 0.291989,-0.009 0.485391,-0.26551 0.786679,-0.35969 0.204118,-0.1804 0.643327,-0.2091 0.970016,-0.30973 0.297261,-0.10035 0.674752,-0.18593 0.979691,-0.27853 0.357952,-0.0878 0.745664,-0.36645 1.033415,-0.45357 0.421808,-0.268 0.453014,-0.14177 0.696833,-0.21096 0.297141,-0.0909 0.597638,-0.0593 0.937195,-0.14969 0.281351,0.0327 0.883032,-0.17925 1.256199,-0.28874 0.459687,-0.0682 0.97647,-0.21786 1.258648,-0.31232 0.660793,-0.12753 0.522184,0.18403 0.710024,0.10186 0.284981,-0.12467 0.555122,-0.61046 1.017605,-0.74761 0.681226,-0.20201 1.335769,-0.75381 2.016747,-0.95573 0.631323,-0.54493 1.320253,-0.41523 1.978455,-0.60873 0.683235,-0.22552 1.298414,-0.36378 1.978028,-0.56196 0.645635,-0.17109 1.428355,-0.44341 2.135268,-0.6483 0.695225,-0.22914 1.479532,-0.57569 2.159202,-0.77165 0.758918,-0.36647 1.268219,-0.47899 1.904835,-0.66087 0.681472,-0.30897 1.473598,-0.50954 2.160037,-0.70319 0.760261,-0.30478 1.309145,-0.37761 1.966497,-0.56053 0.700356,-0.20461 1.187353,-0.24078 1.893257,-0.43508 0.566126,-0.0668 1.333125,-0.4854 2.127837,-0.70434 0.536962,-0.26657 1.393467,-0.32495 2.187134,-0.54206 0.603315,-0.1069 1.466086,-0.76143 2.259036,-0.97978 0.631166,-0.53387 1.48649,-0.26888 2.227253,-0.46483 0.76264,-0.0665 1.508705,-0.21973 2.255627,-0.41781 0.778053,-0.0272 1.48641,-0.42389 2.240525,-0.63453 0.741376,-0.23123 1.489782,-0.40166 2.248156,-0.62104 0.748885,-0.19841 1.617519,-0.37911 2.389802,-0.61123 0.837812,-0.15727 1.833469,-0.93474 2.580326,-1.17929 1.029125,-0.69807 1.149302,-0.44524 1.774888,-0.57526 0.769694,-0.15997 1.925493,-0.17301 2.800371,-0.45366 0.469134,-0.1505 1.065454,-0.29094 1.523739,-0.43913 0.551349,-0.12648 0.891722,-0.56706 1.301205,-0.70063 0.459984,-0.42798 0.832698,-0.47136 1.224986,-0.59908 0.443815,-0.3444 0.910233,-0.20896 1.309733,-0.33771 0.50573,-0.0766 0.30887,-0.27355 0.70727,-0.40128 0.0749,-0.19754 0.89792,-0.38887 1.46455,-0.56692 0.24085,-0.1771 0.9534,-0.17607 1.44036,-0.32561 0.40402,-0.002 0.86243,-0.26188 1.28948,-0.3924 0.40751,-0.12198 0.49749,-0.11586 0.8978,-0.23795 0.19481,-0.0232 0.55323,-0.11433 1.05813,-0.26918 0.088,0.027 1.18433,-0.30369 1.74056,-0.47733 0.4572,-0.0811 0.86108,-0.31024 1.22523,-0.42628 0.47388,-0.19029 0.72848,-0.17496 1.06398,-0.2828 0.42742,-0.0796 0.41573,-0.16527 0.78385,-0.28646 0.15192,-0.0826 1.11269,-0.33255 1.60518,-0.49622 0.4825,-0.12528 0.60334,-0.21986 0.93535,-0.3325 0.33183,-0.13105 0.81367,-0.44545 1.21215,-0.58098 0.38023,-0.29848 0.67987,-0.013 1.03994,-0.11307 0.36017,0.1052 1.36219,-0.26495 1.77441,-0.43029 0.38818,-0.1557 0.11735,-0.0461 0.47703,-0.16797 0.38151,-0.12923 0.93334,-0.23774 1.31496,-0.3682 0.50368,-0.0926 0.61026,-0.49196 0.94308,-0.60693 0.31556,-0.39193 0.7429,-0.28195 1.11439,-0.41011 0.37977,-0.15644 0.72225,-0.32556 1.1023,-0.45641 0.35005,-0.19704 0.86773,-0.29563 1.25609,-0.4286 0.44545,-0.14996 0.71501,-0.0944 1.06872,-0.21504 0.40457,0.0121 0.83203,-0.26759 1.2292,-0.40418 0.41148,-0.12463 0.64868,-0.33941 1.02249,-0.46909 0.30636,-0.22233 0.45341,-0.29827 0.86053,-0.4391 0.12792,-0.18514 0.99982,-0.26243 1.49704,-0.43088 0.40656,-0.0565 0.77886,-0.0719 1.17012,-0.2045 0.40688,0.0541 1.08892,-0.32149 1.49668,-0.46468 0.58035,-0.15005 0.39999,-0.26962 0.69835,-0.37756 0.23715,-0.21537 0.93546,-0.20396 1.37732,-0.36364 0.43952,-0.0245 0.91847,-0.43802 1.3007,-0.58224 0.48177,-0.28185 0.59651,-0.24095 0.91782,-0.3604 0.34974,-0.1466 0.89516,-0.29397 1.3007,-0.44111 0.45471,-0.12929 0.84854,-0.28377 1.20987,-0.41859 0.48425,-0.15282 0.92844,-0.26484 1.27468,-0.40151 0.3715,-0.14664 0.88347,-0.27761 1.30291,-0.43187 0.50926,-0.1873 1.05779,-0.18244 1.55863,-0.36922 0.55304,0.002 1.14094,-0.46323 1.64176,-0.6538 0.57264,-0.252707 0.8907,-0.201718 1.32971,-0.371511 0.50218,-0.05561 1.16594,-0.400846 1.65724,-0.595264 0.59622,-0.182047 0.51694,-0.302855 0.93574,-0.472063 0.23675,-0.194896 1.18673,-0.537074 1.74631,-0.767974 0.49033,-0.256956 1.19654,-0.04387 1.6269,-0.223733 0.72814,0.148452 0.82915,-0.42879 1.22237,-0.598942 0.45975,-0.277658 0.83054,-0.12057 1.2502,-0.307423 0.45824,0.03732 1.50764,-0.694842 1.97765,-0.914359 0.79979,-0.379418 0.45483,-0.201188 0.69546,-0.315981 0.40882,-0.182868 1.05494,-0.406901 1.48246,-0.618104 0.55375,-0.170094 0.74138,-0.376474 1.1048,-0.562717 0.40973,-0.216465 0.80974,-0.397588 1.21176,-0.609677 0.39918,-0.189647 0.80733,-0.4459 1.2116,-0.663603 0.38639,-0.225073 0.53041,-0.281482 0.92686,-0.494629 0.1969,-0.100902 0.91678,-0.509581 1.41562,-0.773548 0.36106,-0.208291 0.78671,-0.24235 1.19388,-0.449783 0.39844,-0.03291 0.69611,-0.44763 1.10502,-0.69159 0.38815,-0.231573 0.70116,-0.32102 1.07378,-0.49592 0.38739,-0.181832 1.02773,-0.378869 1.40569,-0.559072 0.56262,-0.161385 0.65763,-0.287899 0.95552,-0.432081 0.40666,-0.169702 0.70988,-0.200925 1.05499,-0.371068 0.38206,-0.04406 0.32127,-0.424178 0.68683,-0.608998 0.0282,-0.283046 0.66071,-0.248237 1.10339,-0.475491 0.18597,-0.0098 1.08512,-0.481909 1.50619,-0.702436 0.48822,-0.175908 0.67075,-0.392026 0.92618,-0.527923 0.4119,-0.257519 0.61098,-0.29974 0.86444,-0.436396 0.37328,-0.174346 0.52529,-0.162333 0.79562,-0.310486 0.29573,-0.0402 0.63262,-0.222259 0.94492,-0.398812 0.29688,-0.0407 0.70175,-0.44326 0.99822,-0.618228 0.32654,-0.232987 0.42727,-0.09687 0.65489,-0.234603 0.25887,-1.38e-4 0.29175,-0.364606 0.57822,-0.548372 0.0113,-0.200331 0.5369,-0.649712 0.85078,-0.849652 0.12938,-0.388084 0.5512,-0.373245 0.77545,-0.502436 0.30057,-0.20962 0.35115,-0.231968 0.54195,-0.3331 0.19986,-0.139081 0.56941,-0.103189 0.80168,-0.2157 0.30931,0.03682 0.52296,-0.17995 0.71756,-0.299712 0.2929,-0.07704 0.71534,-0.102744 0.86977,-0.2333 0.1669,-0.141089 -0.0291,-0.461992 0.154,-0.576917 z"
       id="path10"
       sodipodi:nodetypes="cc"
       inkscape:path-effect="#path-effect12;#path-effect14"
       inkscape:original-d="M 186.35337,80.891053 C 136.59322,116.24192 50.471759,131.92722 21.307822,139.87857"
       transform="rotate(7.9951355,-391.36231,146.84233)" /><path
       style="font-variation-settings:normal;opacity:1;vector-effect:none;fill:#800000;fill-opacity:0.647059;fill-rule:nonzero;stroke:none;stroke-width:0.264583px;stroke-linecap:butt;stroke-linejoin:miter;stroke-miterlimit:4;stroke-dasharray:none;stroke-dashoffset:0;stroke-opacity:1;-inkscape-stroke:none;paint-order:stroke markers fill;stop-color:#000000;stop-opacity:1"
       d="m 174.84557,129.18789 c -0.48047,0.22222 -1.31803,0.43271 -1.81766,0.66457 -0.59306,0.25209 -1.02884,0.35756 -1.50449,0.57848 -0.60251,0.15968 -0.76444,0.48049 -1.28288,0.72148 -0.35441,0.29002 -1.31796,0.54886 -1.94442,0.83827 -0.63466,0.23036 -1.03742,0.3672 -1.58672,0.61949 -0.56615,0.14845 -1.22355,0.52916 -1.846,0.81352 -0.60651,0.24481 -1.41854,0.54157 -2.03388,0.82072 -0.77492,0.24652 -1.1733,0.69037 -1.74516,0.94846 -0.64969,0.45189 -1.2062,0.50092 -1.82031,0.77392 -0.65978,0.25175 -1.32203,0.29645 -1.99892,0.59255 -0.70422,0.0189 -1.72761,0.58177 -2.45681,0.90032 -0.91675,0.22633 -1.2387,0.40262 -1.86475,0.67734 -0.72761,0.17962 -1.30211,0.59822 -2.04344,0.92605 -0.61313,0.29611 -1.56664,0.78172 -2.36199,1.13013 -0.74102,0.41409 -1.50961,0.58234 -2.2571,0.89934 -0.80416,0.26745 -1.12664,0.58059 -1.90362,0.90233 -0.48145,0.30096 -1.8389,0.73644 -2.7909,1.10349 -0.83323,0.31155 -1.5903,0.66329 -2.41191,0.9651 -0.81876,0.35798 -1.51765,0.26095 -2.37122,0.54473 -0.87107,0.2896 -2.17682,0.93278 -3.04105,1.21745 -0.30989,0.10208 -0.37541,0.20322 -0.68326,0.3036 -0.13769,0.12414 -0.84248,0.0714 -1.22243,0.19307 -0.37908,-0.0803 -0.33957,0.0987 -0.63651,0.19353 -0.1328,0.0323 -0.30698,0.21461 -0.69654,0.33846 0.0281,0.10722 -0.89435,0.53134 -1.34521,0.67175 -0.27828,0.33516 -0.48646,0.3632 -0.76333,0.44652 -0.23749,0.28401 -0.5025,0.23392 -0.80674,0.32024 -0.224,0.14727 -0.58865,0.19381 -0.91838,0.28102 -0.25237,0.0957 -0.35641,0.0313 -0.67781,0.11091 -0.11039,-0.0375 -0.81131,0.20542 -1.21337,0.30013 -0.30824,0.0801 -1.05421,-0.31875 -1.34467,-0.25239 -0.65637,-0.4126 -0.22021,-0.0753 -0.39624,-0.0311 -0.21778,-0.07 -0.80612,0.24365 -1.15335,0.34801 -0.35618,0.13336 -0.15143,0.2451 -0.40032,0.32595 -0.0191,0.21087 -0.73935,0.23697 -1.12656,0.35639 -0.26861,0.0825 -0.60439,0.18171 -0.8953,0.26798 -0.30223,0.087 -1.09901,0.25543 -1.37168,0.33332 -0.66184,0.12597 0.15943,0.12711 0.0615,0.15631 -0.0119,0.18025 -0.87524,0.1861 -1.28269,0.25639 -0.28687,0.0495 -0.28235,0.11552 -0.56602,0.18265 -0.27634,0.0654 -0.78916,0.19887 -1.06934,0.26349 -0.43665,0.11508 -0.42963,0.0626 -0.63306,0.10861 -0.30351,0.0327 -0.6438,-0.0913 -0.92493,-0.029 -0.36149,-0.15582 -0.28531,0.0909 -0.56353,0.1526 -0.10791,0.0517 -0.74462,0.0507 -1.12766,0.13524 -0.29378,-0.0494 -0.37082,0.27694 -0.68024,0.34585 -0.11881,0.22168 -0.69909,0.15491 -1.0685,0.23489 -0.28081,0.061 -0.89528,0.14626 -1.20865,0.21259 -0.49224,0.0587 -0.42858,0.14606 -0.64431,0.19134 -0.302,0.1189 -0.92621,-0.001 -1.23155,0.0614 -0.53645,-0.0832 -0.44822,-0.031 -0.66477,0.0143 -0.332,-0.0539 -0.99113,0.17731 -1.3075,0.24766 -0.55602,0.0866 -0.23601,-0.14796 -0.4334,-0.10238 -0.22615,-0.14776 -0.59013,0.17286 -0.97742,0.27625 -0.17904,0.0823 -0.7725,0.10647 -1.15463,0.21201 -0.3407,-0.009 -0.38205,0.039 -0.70184,0.13294 -0.13321,-0.0275 -0.70846,0.21247 -1.13166,0.34266 -0.24763,0.074 -0.75149,0.20359 -1.104806,0.3056 -0.381431,0.0849 -0.541128,0.14804 -0.83139,0.22578 -0.334504,0.0896 -0.907942,0.29892 -1.232644,0.35369 -0.550256,0.0928 -0.992899,0.0947 -1.5461,0.18598 -0.483676,0.008 -1.54279,0.20488 -2.139276,0.30167 -0.795874,0.0813 -0.904747,0.15948 -1.345895,0.23049 -0.573328,0.10529 -1.069749,0.35103 -1.620394,0.43885 -0.530577,0.26386 -1.142664,0.23626 -1.704725,0.32392 -0.572402,0.14446 -0.520828,-0.0479 -1.074151,0.0364 -0.174478,-0.10357 -1.784116,0.2629 -2.554005,0.3795 -0.736482,0.10336 -0.956892,0.24374 -1.435833,0.31626 -0.559689,0.18361 -1.055416,0.17569 -1.615617,0.25946 -0.520924,0.0943 -1.160399,-0.1919 -1.746606,-0.10517 -0.575727,-0.27966 -1.108047,0.47258 -1.694731,0.56604 -0.504134,0.38608 -1.150019,0.18911 -1.719896,0.27831 -0.570757,0.0963 -1.162904,0.13205 -1.721488,0.21847 -0.595962,0.043 -1.232145,0.0263 -1.780126,0.11243 -0.661548,-0.0613 -1.085247,0.27125 -1.606194,0.36145 -0.577813,0.1954 -1.246829,0.2252 -1.784006,0.31899 -0.671509,0.12595 -1.083085,0.20054 -1.576185,0.28669 -0.612158,0.11845 -1.034077,-0.0473 -1.554801,0.0427 -0.533618,-0.13474 -0.991549,0.34128 -1.569552,0.50181 -0.528407,0.14675 -1.40679,0.25546 -1.956179,0.35527 -0.766753,0.13929 -1.659409,0.22948 -2.403134,0.36962 -0.839257,0.0827 -1.506638,0.27349 -2.187598,0.40661 -0.797435,0.14223 -1.318775,0.23802 -1.981441,0.37244 -0.676129,0.11515 -1.406992,0.23354 -2.097554,0.37936 -0.675425,0.0879 -1.219721,0.33964 -1.881995,0.48545 -0.558752,0.20328 -1.412258,0.38425 -2.08648,0.53839 -0.648524,0.21842 -1.279082,0.36241 -1.878969,0.50367 -0.642326,0.21879 -1.218462,0.45346 -1.791465,0.59171 -0.611182,0.31209 -1.30959,0.51576 -1.858042,0.64953 -0.683528,0.36537 -0.439831,0.1721 -0.92145,0.2888 -0.189428,0.11038 -1.67302,0.35501 -2.389608,0.52671 -0.679808,0.11474 -0.744879,0.24781 -1.204078,0.35882 -0.387015,0.16297 -1.152603,0.52153 -1.718479,0.65878 -0.486274,0.3611 -0.984376,0.0844 -1.460747,0.19357 -0.507873,-0.0336 -0.982223,0.0282 -1.462189,0.14238 -0.485495,-0.0831 -0.953318,0.0948 -1.423087,0.22605 -0.457214,-0.0149 -0.859901,0.13703 -1.312158,0.29237 -0.388924,0.0166 -1.182406,0.40434 -1.63362,0.59368 -0.618901,0.21154 -0.78886,0.21068 -1.074856,0.34302 -0.38087,0.17625 -0.372063,0.42026 -0.789915,0.56732 0.382487,-0.1717 1.037494,-0.30354 1.431497,-0.48003 0.594342,-0.10434 0.718744,-0.43268 1.0536,-0.58268 0.434051,-0.30507 0.757389,-0.3585 1.140786,-0.52922 0.420852,-0.20706 0.799838,-0.37435 1.22766,-0.56303 0.405911,-0.19783 1.233491,-0.39179 1.691052,-0.59096 0.696312,-0.15401 0.733304,-0.5754 1.096641,-0.73252 0.446291,-0.44967 0.65924,-0.22685 1.098802,-0.41288 0.348825,-0.0895 0.842145,-0.50985 1.416408,-0.74702 0.293977,-0.27486 1.131623,-0.38539 1.725545,-0.62203 0.514043,-0.12694 1.03597,-0.4722 1.586471,-0.68622 0.506636,-0.2587 1.095167,-0.46056 1.654925,-0.67191 0.557249,-0.24842 1.050835,-0.30271 1.61982,-0.51093 0.546417,-0.10864 1.193618,-0.33656 1.820531,-0.56184 0.590022,-0.11356 1.239559,-0.19514 1.875791,-0.42306 0.6437,0.0198 1.539713,-0.0439 2.20297,-0.29129 0.869306,0.19379 1.297414,-0.7688 1.922057,-1.03575 0.658165,-0.54063 1.307192,-0.41628 1.913181,-0.66561 0.765823,-0.17781 1.441583,-0.40884 2.103181,-0.68251 0.811738,-0.14389 1.341994,-0.64665 2.022515,-0.94913 0.687926,-0.30577 1.274618,-0.37854 2.060274,-0.61977 0.543916,-0.16701 1.122275,-0.14043 1.669155,-0.30569 0.587263,0.0252 1.122778,-0.45595 1.679731,-0.62269 0.547004,-0.28122 1.016897,-0.34807 1.553286,-0.50651 0.512191,-0.19579 0.919856,-0.32335 1.487278,-0.48831 0.407025,-0.17032 1.173098,-0.35842 1.795974,-0.53596 0.509015,-0.1639 1.202853,-0.61166 1.781898,-0.77366 0.568284,-0.42961 1.068779,-0.064 1.588944,-0.20493 0.599801,0.0698 1.257396,-0.30894 1.827356,-0.46109 0.643381,-0.1416 1.420859,-0.27664 1.944092,-0.41479 0.820642,-0.11587 1.10382,-0.0882 1.546663,-0.20499 0.723205,0.0124 0.963746,-0.29155 1.466948,-0.42684 0.524431,-0.17717 1.190815,-0.67494 1.762059,-0.83003 0.558825,-0.50539 1.063701,-0.33679 1.578881,-0.46869 0.577617,-0.20064 1.089797,-0.20186 1.636521,-0.33255 0.561162,-0.062 1.420922,-0.47759 1.990245,-0.60965 0.745115,-0.31507 0.892929,-0.25142 1.345544,-0.34774 0.543364,-0.16455 1.549757,0.11114 2.117472,0.003 0.888446,0.25357 0.96659,-0.007 1.400702,-0.13938 0.589742,0.0361 0.880714,-0.43238 1.433346,-0.67069 0.488511,-0.21066 1.119516,-0.31424 1.700718,-0.4484 0.310934,-0.0718 0.747043,-0.021 1.060523,-0.0933 0.407527,0.0574 0.268731,-0.20155 0.553613,-0.26791 0.10396,-0.16406 0.888909,-0.19528 1.296478,-0.28992 0.370647,-0.0745 0.585195,0.26169 0.877231,0.19399 0.34907,0.31659 0.64154,-0.1045 0.98876,-0.18827 0.28647,-0.0236 0.80015,-0.43983 1.13907,-0.52462 0.37904,-0.33886 0.449,-0.0776 0.70434,-0.14139 0.27609,-0.0343 1.22461,-0.48717 1.56244,-0.57166 0.66404,-0.34712 0.49732,-0.16031 0.61345,-0.18901 0.48724,-0.15731 0.45595,-0.22656 0.67364,-0.27889 0.31474,-0.19037 0.60113,-0.38147 0.89334,-0.44733 0.29948,-0.30684 0.43399,-0.20342 0.72301,-0.25994 0.20296,-0.14532 0.73837,-0.1927 1.09265,-0.24754 0.31868,-0.10685 0.61956,-0.0565 0.91448,-0.0929 0.3172,-0.006 0.6192,-0.11528 0.90915,-0.14697 0.31494,-0.0766 0.57932,-0.027 0.85709,-0.0538 0.29815,0.004 0.66398,0.0608 0.94166,0.03 0.35904,0.0879 0.53555,-0.12102 0.77778,-0.17123 0.29267,-0.104 0.50923,0.0693 0.76351,0.0177 0.25007,-0.0507 0.37404,-0.25286 0.65043,-0.30984 0.28036,-0.0578 0.55948,-0.12331 0.843,-0.18121 0.28106,-0.0657 0.96662,-0.11853 1.25356,-0.1766 0.55769,-0.035 0.28713,0.0341 0.44775,0.002 0.27355,0.0369 0.6242,-0.17019 0.93256,-0.23321 0.29567,-0.10396 0.24315,-0.0624 0.53076,-0.12141 0.0705,-0.0273 0.83954,-0.31655 1.24761,-0.40025 0.30924,-0.20786 1.16838,-0.0959 1.44679,-0.15181 0.71942,-0.004 -0.11542,-0.0819 -0.0118,-0.10272 0.0797,-0.12122 1.1859,-0.2001 1.58898,-0.27964 0.56047,-0.0744 0.35012,0.0119 0.52861,-0.0233 0.30659,0.0206 0.5126,-0.20475 0.82419,-0.26748 0.22238,-0.14831 0.67711,-0.14408 1.01628,-0.21088 0.30657,-0.069 0.69081,-0.12246 0.99968,-0.18216 0.36067,-0.057 0.74868,-0.30415 1.03408,-0.35905 0.42322,-0.24119 0.45388,-0.0876 0.69509,-0.12884 0.29123,-0.0523 0.58202,0.0188 0.90772,-0.0308 0.2662,0.0749 0.84822,-0.0935 1.19687,-0.15814 0.43714,-0.0327 0.92895,-0.14584 1.18302,-0.20298 0.62584,-0.0915 0.45823,0.25613 0.61204,0.21076 0.26155,-0.0771 0.49054,-0.51317 0.9228,-0.59983 0.89838,-0.1801 1.76034,-0.71 2.63871,-0.88989 0.83705,-0.52672 1.72202,-0.37865 2.56633,-0.55347 0.86008,-0.20316 1.64189,-0.31877 2.47765,-0.49386 0.80152,-0.14588 1.72898,-0.39253 2.5692,-0.57111 0.82937,-0.20531 1.73716,-0.52744 2.52939,-0.69822 0.87148,-0.34456 1.48362,-0.43448 2.21314,-0.59298 0.77225,-0.28188 1.64392,-0.45449 2.3984,-0.61913 0.82573,-0.2772 1.42959,-0.3215 2.13117,-0.4748 0.74239,-0.17182 1.25931,-0.17398 1.98273,-0.33289 0.58617,-0.0276 1.35782,-0.40521 2.14139,-0.58123 0.5347,-0.22646 1.37357,-0.24285 2.13382,-0.41587 0.57237,-0.0642 1.38914,-0.67409 2.12064,-0.84562 0.57611,-0.49133 1.36348,-0.18186 2.02306,-0.33129 0.67479,-0.0187 1.32013,-0.1222 1.95318,-0.26849 0.6631,0.0248 1.24345,-0.31785 1.85624,-0.47223 0.60092,-0.1753 1.19569,-0.2876 1.78697,-0.44652 0.58042,-0.13744 1.26693,-0.2548 1.84317,-0.42105 0.63987,-0.0911 1.42471,-0.79974 1.94754,-0.97292 0.79708,-0.62385 0.68254,-0.30519 1.05994,-0.36417 0.51765,-0.0809 1.39448,-0.002 1.98118,-0.19921 z"
       id="path18"
       sodipodi:nodetypes="cc"
       inkscape:path-effect="#path-effect20;#path-effect22"
       inkscape:original-d="M 174.63114,129.13253 C 114.72676,152.98658 75.945061,150.18685 30.099493,168.50786"
       transform="rotate(1.6057697,1897.4211,-213.4223)" /><rect
       style="font-variation-settings:normal;opacity:1;vector-effect:none;fill:#e0d1d1;fill-opacity:0.659664;stroke:none;stroke-width:0.324466px;stroke-linecap:butt;stroke-linejoin:miter;stroke-miterlimit:4;stroke-dasharray:none;stroke-dashoffset:0;stroke-opacity:1;-inkscape-stroke:none;paint-order:stroke markers fill"
       id="rect22"
       width="177.73244"
       height="46.893265"
       x="-256.47665"
       y="105.25398"
       ry="5.2602434"
       rx="5.2602439" /><path
       style="font-variation-settings:normal;opacity:1;vector-effect:none;fill:#800000;fill-opacity:0.647059;fill-rule:nonzero;stroke:none;stroke-width:0.264583px;stroke-linecap:butt;stroke-linejoin:miter;stroke-miterlimit:4;stroke-dasharray:none;stroke-dashoffset:0;stroke-opacity:1;-inkscape-stroke:none;paint-order:stroke markers fill;stop-color:#000000;stop-opacity:1"
       d="m 169.37753,148.81768 c -0.0913,0.15323 -0.40619,0.30084 -0.50719,0.47186 -0.29978,0.16646 -0.38616,0.2631 -0.47119,0.40835 -0.31925,0.15029 -0.13133,0.45679 -0.23217,0.63149 -0.0457,0.31143 -0.22206,0.35678 -0.33707,0.55461 -0.13587,0.20601 -0.26144,0.42419 -0.40466,0.66633 -0.13863,0.20998 -0.30344,0.39187 -0.46277,0.65441 -0.17225,0.16555 -0.57121,0.55294 -0.75423,0.84632 -0.37656,0.22869 -0.4113,0.55434 -0.56578,0.80033 -0.2699,0.32606 -0.36727,0.45311 -0.52998,0.70931 -0.24266,0.25186 -0.22697,0.58591 -0.42745,0.89639 -0.0582,0.31549 -0.90407,0.64892 -1.14174,0.99439 -0.64212,0.23655 -0.36062,0.40347 -0.53685,0.6691 -0.24671,0.24369 -0.34362,0.63405 -0.59206,1.01504 -0.11285,0.28224 -0.54269,0.96509 -0.8299,1.37045 -0.25318,0.50615 -0.55128,0.58218 -0.79911,0.88361 -0.37825,0.30763 -0.24056,0.58599 -0.54268,0.94352 -0.29942,0.35434 -0.99768,0.85774 -1.36212,1.21778 -0.0158,0.0156 -0.0157,0.0398 -0.0312,0.0553 -0.001,0.0254 0.13546,-0.25073 0.11884,-0.23429 0.0947,-0.21057 -0.36705,0.19093 -0.46492,0.30248 -0.20201,0.0166 0.0337,-0.006 0.0337,-0.006 0.0313,-0.003 -0.0641,-0.038 -0.0665,-0.0353 -0.0776,-0.0223 0.47021,0.0307 0.45484,0.053 0.44591,0.0736 -0.1183,0.17799 -0.24576,0.27057 0.0251,0.0194 -0.0638,0.0514 -0.097,0.0731 -0.0181,0.0185 0.0173,0.12076 2.1e-4,0.13142 0.0272,0.11387 0.21048,0.0414 0.18506,0.0526 0.17866,0.0493 -0.15703,0.19114 -0.29474,0.20612 -0.003,0.1467 0.0853,-0.12535 0.0115,-0.15023 0.21403,-0.1174 -0.10797,0.005 -0.18131,0.019 -0.0218,0.0105 -0.2359,-0.26574 -0.25121,-0.26258 -0.26768,-0.25884 0.10136,0.0967 0.13037,0.18494 0.11996,-0.0558 -0.0215,0.0573 -0.0483,0.0868 -0.0244,0.0269 0.025,0.27023 0.0239,0.2713 -0.22269,0.21229 -0.42827,0.41713 -0.66255,0.63312 -0.21681,0.21173 -0.63463,0.60021 -0.88667,0.82528 -0.34356,0.32992 -0.39233,0.48161 -0.5934,0.65699 -0.23687,0.33997 -0.37661,0.53789 -0.62266,0.74593 -0.16894,0.35287 -0.76736,0.55249 -1.05036,0.78217 -0.44633,0.27835 -0.42005,0.41369 -0.65252,0.59762 -0.26104,0.28103 -0.77484,0.54519 -1.08249,0.78048 -0.43801,0.27605 -0.82496,0.26654 -1.09277,0.46706 -0.5792,0.0763 -0.63145,0.32699 -0.9144,0.54087 -0.40027,0.15505 -0.35359,0.46546 -0.6885,0.72421 -0.0892,0.26876 -0.80069,0.32439 -1.22624,0.64659 -0.37834,-0.005 -0.58384,0.74523 -0.99541,1.06892 -0.15905,0.42606 -0.7141,0.53461 -1.11069,0.82754 -0.34493,0.23704 -1.01846,0.5963 -1.42159,0.88445 -0.58484,0.27356 -0.60254,0.5102 -0.92193,0.75136 -0.33718,0.32695 -0.8979,0.40462 -1.31308,0.69796 -0.4026,0.28446 -0.74642,0.65413 -1.17139,0.94833 -0.42051,0.29111 -0.88695,0.62767 -1.31091,0.91772 -0.45118,0.32442 -0.69546,0.53759 -1.10509,0.81464 -0.33716,0.29051 -0.89803,0.58984 -1.35917,0.8973 -0.42007,0.26463 -1.02277,0.58107 -1.46454,0.87196 -0.54412,0.26049 -0.64864,0.4507 -1.04967,0.71283 -0.32861,0.2386 -0.81374,0.61764 -1.29785,0.93087 -0.32189,0.29463 -0.96995,0.60484 -1.4465,0.90864 -0.45654,0.27091 -0.80566,0.5002 -1.24073,0.77448 -0.39936,0.23951 -1.00598,0.58234 -1.46939,0.87155 -0.50353,0.26442 -0.83341,0.38779 -1.25245,0.64824 -0.45504,0.15096 -1.1692,0.62203 -1.62868,0.91095 -0.62303,0.28307 -0.75522,0.49312 -1.11967,0.727 -0.44325,0.29958 -0.51545,0.72441 -0.93575,0.99632 -0.1405,0.48433 -1.01825,0.66677 -1.52864,0.95135 -0.46799,0.30221 -0.36165,0.28634 -0.79362,0.50809 -0.0142,0.0847 -1.22971,0.82562 -1.87525,1.14093 -0.48984,0.23926 -0.94666,0.37064 -1.31764,0.5864 -0.3877,0.22548 -0.75502,0.47734 -1.14658,0.7029 -0.37068,0.25278 -0.69092,0.19326 -1.08633,0.41882 -0.35671,-6.2e-4 -0.90647,0.73908 -1.36124,0.9982 -0.35804,0.42615 -0.74301,0.473 -1.10266,0.67593 -0.39665,0.27464 -0.79274,0.38083 -1.16463,0.58827 -0.42337,0.17124 -0.87534,0.42089 -1.24944,0.6282 -0.4659,0.192 -0.7667,0.63694 -1.10707,0.82541 -0.38785,0.42694 -0.76872,0.37424 -1.07475,0.54083 -0.46165,0.20277 -0.7814,0.4306 -1.08724,0.59527 -0.44567,0.2471 -0.51964,0.21663 -0.8003,0.36621 -0.29972,0.0971 -0.41468,0.52337 -0.75538,0.70554 -0.0707,0.34042 -0.77728,0.42797 -1.14085,0.60398 -0.31412,0.17744 -0.65673,0.12325 -0.92776,0.24613 -0.36222,-0.0222 -0.80927,0.26279 -1.05309,0.3868 -0.46093,0.10672 -0.0576,0.1663 -0.19903,0.25539 0.0277,0.14274 -0.51778,0.3096 -0.79643,0.45617 -0.1956,0.10289 -0.41538,0.24946 -0.56786,0.33557 0.17523,-0.10876 0.32801,-0.18997 0.5265,-0.31411 0.17609,-0.0962 0.29079,-0.25211 0.5262,-0.40042 0.11047,-0.13995 0.47912,-0.14879 0.76116,-0.32685 0.23231,0.006 0.4031,-0.26412 0.70369,-0.45618 0.14688,-0.1035 0.72915,-0.40379 1.06308,-0.61902 0.35593,-0.16577 0.31741,-0.33316 0.58583,-0.50777 0.13708,-0.2181 0.74999,-0.41479 1.10964,-0.64842 0.36343,-0.16327 0.63798,-0.11848 0.95043,-0.32257 0.38836,0.043 0.65621,-0.55969 1.02645,-0.81031 0.26949,-0.31004 0.67566,-0.69705 1.02074,-0.93245 0.31017,-0.4502 0.64329,-0.47067 0.9591,-0.68044 0.36907,-0.28058 0.81014,-0.62082 1.163,-0.84883 0.43792,-0.37151 0.24081,-0.38467 0.56389,-0.58575 0.0621,-0.26277 0.68125,-0.79529 1.20226,-1.08424 0.143,-0.45736 0.988,-0.44892 1.48363,-0.65948 0.47446,-0.16605 0.91181,-0.31436 1.29625,-0.49804 0.43225,-0.20652 0.79158,-0.53368 1.16693,-0.7836 0.41926,-0.27916 0.85217,-0.59774 1.27191,-0.87849 0.42418,-0.31342 0.8081,-0.55545 1.21913,-0.83151 0.40886,-0.28904 1.2758,-0.56473 1.69852,-0.84988 0.75432,-0.21486 0.72689,-0.58557 1.04818,-0.80479 0.46091,-0.40784 0.62645,-0.35774 1.00285,-0.61709 0.34314,-0.16633 0.82009,-0.69119 1.29202,-1.02138 0.3124,-0.34347 0.87507,-0.43716 1.31565,-0.74741 0.43989,-0.13375 0.85804,-0.66802 1.30419,-0.98802 0.38168,-0.33491 0.84661,-0.61741 1.26332,-0.91937 0.42155,-0.31392 0.74436,-0.54087 1.15181,-0.83859 0.3639,-0.26652 0.86305,-0.61719 1.3001,-0.93914 0.40771,-0.28558 0.84194,-0.49069 1.25883,-0.80064 0.43612,-0.19312 0.96469,-0.56819 1.39028,-0.89608 0.50846,-0.23262 0.80426,-0.72029 1.18871,-1.03638 0.3996,-0.41488 0.80317,-0.56367 1.17463,-0.86392 0.44973,-0.26962 0.80952,-0.58236 1.19685,-0.91061 0.38677,-0.32777 0.77236,-0.75848 1.18275,-1.07122 0.41428,-0.3157 0.77167,-0.58279 1.17015,-0.88962 0.36739,-0.27639 0.84578,-0.50894 1.2459,-0.82046 0.42135,-0.18378 0.81906,-0.69902 1.20327,-1.00279 0.37634,-0.35613 0.59956,-0.56759 0.93594,-0.83669 0.27807,-0.31522 0.45469,-0.5594 0.81128,-0.84716 0.12396,-0.29638 0.69003,-0.64425 1.08104,-0.95946 0.24238,-0.28299 0.78976,-0.56969 1.13366,-0.84554 0.39028,-0.24731 0.71059,-0.26347 1.00259,-0.49819 0.43671,-0.0442 0.67709,-0.51632 0.98657,-0.77326 0.32937,-0.23994 0.70121,-0.47249 0.97918,-0.71019 0.39145,-0.21803 0.72178,-0.43597 0.97122,-0.65782 0.44456,-0.20228 0.37889,-0.46725 0.60172,-0.67851 0.17672,-0.29556 0.56784,-0.51807 0.82377,-0.76517 0.27959,-0.24581 0.51152,-0.47817 0.74205,-0.70362 0.27001,-0.24529 0.40369,-0.43752 0.62787,-0.65754 0.18243,-0.21965 0.58866,-0.5919 0.84472,-0.82443 0.23809,-0.2162 0.36994,-0.31985 0.60536,-0.52807 0.0136,-0.0121 0.46229,0.0457 0.47711,0.0328 0.43439,0.0703 0.01,0.15703 0.01,0.15703 0.01,0.15704 -0.043,-0.0385 -0.043,-0.0385 -0.01,-0.0673 -0.19135,-0.008 -0.16709,-0.047 -0.21474,-0.005 0.16675,0.0172 0.21536,-0.0615 0.11623,0.0992 -0.16692,-0.17417 -0.13894,-0.23892 -0.21611,-0.0896 0.10335,-0.19026 0.12009,-0.21696 0.0771,-0.13618 0.0285,0.001 0.0285,0.001 0.0285,0.001 -0.0276,0.0294 -0.0276,0.0294 -0.0125,0.005 0.18534,-0.26616 0.20165,-0.28706 0.15437,-0.21962 -0.0137,0.0275 -0.0137,0.0275 -0.0137,0.0275 0.48524,-0.0211 0.48524,-0.0211 0.59259,-0.15871 -0.15468,-0.13689 -0.17864,-0.16643 0.0992,-0.0986 -0.0189,-0.14185 -0.0189,-0.14181 0.0747,-0.21921 -0.15964,0.17844 -0.15941,0.1787 -0.0853,-0.0399 -0.25545,-0.059 -0.23019,-0.0472 0.0119,0.006 0.37167,-0.0761 0.37167,-0.0761 0.37551,-0.33223 0.74532,-0.6087 1.10271,-0.92458 0.36836,-0.27508 0.90678,-0.65525 1.25325,-0.96182 0.4866,-0.28408 0.69714,-0.42914 0.98271,-0.68324 0.42313,-0.18758 0.70641,-0.49866 1.00682,-0.76961 0.3786,-0.20875 0.9364,-0.55059 1.21849,-0.81009 0.56516,-0.21709 0.43435,-0.37505 0.64153,-0.57101 0.27575,-0.23348 0.5132,-0.50912 0.76675,-0.75837 0.23047,-0.2462 0.50317,-0.50241 0.74004,-0.74395 0.23199,-0.23965 0.53511,-0.58268 0.74997,-0.80936 0.26261,-0.30715 0.3404,-0.22989 0.51057,-0.4138 0.21258,-0.0986 0.45475,-0.50637 0.66622,-0.74774 0.18392,-0.21725 0.34492,-0.24752 0.51426,-0.44781 0.18529,-0.0693 0.40218,-0.64739 0.58687,-0.88464 0.13584,-0.33234 0.82824,-0.27739 0.9451,-0.42107 0.70106,-0.11134 0.0651,-0.28675 0.11905,-0.42076 -0.0408,-0.21533 0.19286,-0.42859 0.28474,-0.62025 0.0822,-0.17147 0.14093,-0.26778 0.28645,-0.4342 z"
       id="path14"
       sodipodi:nodetypes="cc"
       inkscape:path-effect="#path-effect16;#path-effect18"
       inkscape:original-d="m 169.37872,148.77129 c -13.29893,18.32542 -40.14644,35.25841 -66.44585,50.83658"
       transform="translate(17.808769,76.194478)" /><rect
       style="font-variation-settings:normal;opacity:1;vector-effect:none;fill:#e0d1d1;fill-opacity:0.659664;stroke:none;stroke-width:0.280484px;stroke-linecap:butt;stroke-linejoin:miter;stroke-miterlimit:4;stroke-dasharray:none;stroke-dashoffset:0;stroke-opacity:1;-inkscape-stroke:none;paint-order:stroke markers fill"
       id="rect23"
       width="149.32536"
       height="41.708435"
       x="-246.56642"
       y="165.02307"
       ry="5.2916665"
       rx="5.2916665" /></g></svg>
