<?xml version="1.0" encoding="UTF-8" standalone="no"?>
<svg
   width="300"
   height="300"
   viewBox="0 0 300 300"
   version="1.1"
   id="svg21608"
   inkscape:version="1.2.2 (732a01da63, 2022-12-09)"
   sodipodi:docname="place-bet.svg"
   xmlns:inkscape="http://www.inkscape.org/namespaces/inkscape"
   xmlns:sodipodi="http://sodipodi.sourceforge.net/DTD/sodipodi-0.dtd"
   xmlns="http://www.w3.org/2000/svg"
   xmlns:svg="http://www.w3.org/2000/svg"
   xmlns:rdf="http://www.w3.org/1999/02/22-rdf-syntax-ns#"
   xmlns:cc="http://creativecommons.org/ns#"
   xmlns:dc="http://purl.org/dc/elements/1.1/">
  <defs
     id="defs21602" />
  <sodipodi:namedview
     id="base"
     pagecolor="#ffffff"
     bordercolor="#666666"
     borderopacity="1.0"
     inkscape:pageopacity="0.0"
     inkscape:pageshadow="2"
     inkscape:zoom="0.98994949"
     inkscape:cx="633.23103"
     inkscape:cy="308.38281"
     inkscape:document-units="px"
     inkscape:current-layer="layer1"
     inkscape:document-rotation="0"
     showgrid="false"
     units="px"
     width="300px"
     inkscape:showpageshadow="2"
     inkscape:pagecheckerboard="0"
     inkscape:deskcolor="#d1d1d1" />
  <metadata
     id="metadata21605">
    <rdf:RDF>
      <cc:Work
         rdf:about="">
        <dc:format>image/svg+xml</dc:format>
        <dc:type
           rdf:resource="http://purl.org/dc/dcmitype/StillImage" />
        <dc:title />
      </cc:Work>
    </rdf:RDF>
  </metadata>
  <g
     inkscape:label="Layer 1"
     inkscape:groupmode="layer"
     id="layer1">
    <g
       class=""
       transform="matrix(0.60080891,0,0,0.60080891,-3.8410254,-1.8572373)"
       id="g166548"
       style="stroke-width:37.5857">
      <path
         d="m 255.76,44.764 c -6.176,0 -12.353,1.384 -17.137,4.152 L 85.87,137.276 c -9.57,5.536 -9.57,14.29 0,19.826 l 152.753,88.36 c 9.57,5.536 24.703,5.536 34.272,0 l 152.753,-88.36 c 9.57,-5.535 9.57,-14.29 0,-19.825 L 272.895,48.917 c -4.785,-2.77 -10.96,-4.153 -17.135,-4.153 z m 0.926,82.855 a 31.953,18.96 0 0 1 22.127,32.362 31.953,18.96 0 1 1 -45.188,-26.812 31.953,18.96 0 0 1 23.06,-5.55 z M 75.67,173.84 c -5.753,-0.155 -9.664,4.336 -9.664,12.28 v 157.696 c 0,11.052 7.57,24.163 17.14,29.69 l 146.93,84.848 c 9.57,5.526 17.14,1.156 17.14,-9.895 V 290.76 c 0,-11.052 -7.57,-24.16 -17.14,-29.688 L 83.146,176.225 c -2.69,-1.555 -5.225,-2.327 -7.476,-2.387 z m 360.773,0.002 c -2.25,0.06 -4.783,0.83 -7.474,2.385 l -146.935,84.847 c -9.57,5.527 -17.14,18.638 -17.14,29.69 v 157.7 c 0,11.05 7.57,15.418 17.14,9.89 L 428.97,373.51 c 9.57,-5.527 17.137,-18.636 17.137,-29.688 v -157.7 c 0,-7.942 -3.91,-12.432 -9.664,-12.278 z M 89.297,195.77 a 31.236,18.008 58.094 0 1 33.818,41.183 31.236,18.008 58.094 1 1 -45,-25.98 31.236,18.008 58.094 0 1 11.182,-15.203 z m 221.52,64.664 a 18.008,31.236 31.906 0 1 11.183,15.203 18.008,31.236 31.906 0 1 -45,25.98 18.008,31.236 31.906 0 1 33.818,-41.183 z M 145.296,289.1 a 31.236,18.008 58.094 0 1 33.818,41.183 31.236,18.008 58.094 0 1 -45,-25.98 31.236,18.008 58.094 0 1 11.182,-15.203 z m 277.523,29.38 a 18.008,31.236 31.906 0 1 11.181,15.204 18.008,31.236 31.906 0 1 -45,25.98 18.008,31.236 31.906 0 1 33.818,-41.184 z m -221.52,64.663 a 31.236,18.008 58.094 0 1 33.817,41.183 31.236,18.008 58.094 1 1 -45,-25.98 31.236,18.008 58.094 0 1 11.182,-15.203 z"
         fill="#000000"
         fill-opacity="1"
         id="path166546"
         style="stroke-width:416.736" />
    </g>
  </g>
</svg>
