<?xml version="1.0" encoding="UTF-8" standalone="no"?>
<svg
   width="300"
   height="300"
   viewBox="0 0 300 300"
   version="1.1"
   id="svg21608"
   inkscape:version="1.2 (dc2aeda, 2022-05-15)"
   sodipodi:docname="burning.svg"
   xmlns:inkscape="http://www.inkscape.org/namespaces/inkscape"
   xmlns:sodipodi="http://sodipodi.sourceforge.net/DTD/sodipodi-0.dtd"
   xmlns="http://www.w3.org/2000/svg"
   xmlns:svg="http://www.w3.org/2000/svg"
   xmlns:rdf="http://www.w3.org/1999/02/22-rdf-syntax-ns#"
   xmlns:cc="http://creativecommons.org/ns#"
   xmlns:dc="http://purl.org/dc/elements/1.1/">
  <defs
     id="defs21602" />
  <sodipodi:namedview
     id="base"
     pagecolor="#ffffff"
     bordercolor="#666666"
     borderopacity="1.0"
     inkscape:pageopacity="0.0"
     inkscape:pageshadow="2"
     inkscape:zoom="0.34918338"
     inkscape:cx="-147.48697"
     inkscape:cy="200.46773"
     inkscape:document-units="px"
     inkscape:current-layer="layer1"
     inkscape:document-rotation="0"
     showgrid="false"
     units="px"
     width="300px"
     inkscape:showpageshadow="2"
     inkscape:pagecheckerboard="0"
     inkscape:deskcolor="#d1d1d1"
     inkscape:window-width="1436"
     inkscape:window-height="456"
     inkscape:window-x="35"
     inkscape:window-y="119"
     inkscape:window-maximized="0" />
  <metadata
     id="metadata21605">
    <rdf:RDF>
      <cc:Work
         rdf:about="">
        <dc:format>image/svg+xml</dc:format>
        <dc:type
           rdf:resource="http://purl.org/dc/dcmitype/StillImage" />
        <dc:title />
      </cc:Work>
    </rdf:RDF>
  </metadata>
  <g
     inkscape:label="Layer 1"
     inkscape:groupmode="layer"
     id="layer1">
    <g
       id="g6519"
       transform="matrix(0.49658207,0,0,0.49865809,-320.13414,-19.767006)"
       style="stroke:none;stroke-width:1.27358">
      <path
         style="font-variation-settings:normal;display:inline;fill:#aa0000;fill-opacity:1;stroke:none;stroke-width:12.3528px;stroke-linecap:butt;stroke-linejoin:miter;stroke-miterlimit:4;stroke-dasharray:none;stroke-dashoffset:0;stroke-opacity:1;paint-order:stroke markers fill;stop-color:#000000"
         d="m 1020.8813,336.03846 c -23.20132,0.17239 -47.55799,12.41449 -63.93191,40.1873 l -8.16207,13.8288 -8.10521,-13.85811 c -20.40062,-34.87166 -56.98526,-45.70107 -86.06188,-37.45296 h -0.01 c -25.65283,7.27794 -45.45239,28.24109 -44.32273,65.00373 1.24696,40.44913 32.05877,74.22708 66.39836,104.67781 17.17132,15.22527 34.95,29.46269 49.67094,43.49776 8.75508,8.34781 16.5287,16.59676 22.3489,25.29212 5.83785,-8.08557 13.5385,-15.86437 22.22759,-23.94909 15.06757,-14.02143 33.37361,-28.6664 50.95711,-44.32955 35.1664,-31.3243 66.0479,-66.12164 64.9009,-104.13302 -1.1737,-38.73525 -23.8047,-61.16119 -50.9344,-67.18186 a 66.744943,66.744943 0 0 0 -14.9844,-1.58443 z"
         id="path12677" />
      <path
         id="path17882"
         style="font-variation-settings:normal;fill:#aa0000;fill-opacity:1;stroke:none;stroke-width:12.3526px;stroke-linecap:butt;stroke-linejoin:miter;stroke-miterlimit:4;stroke-dasharray:none;stroke-dashoffset:0;stroke-opacity:1;paint-order:stroke markers fill;stop-color:#000000"
         d="m 993.16016,164.24805 c 5.12762,28.5983 -10.30964,45.22501 -23.39844,18.39648 13.44503,50.03677 57.72288,56.20961 23.39844,-18.39648 z" />
      <path
         id="path6462"
         style="font-variation-settings:normal;fill:#aa0000;fill-opacity:1;stroke:none;stroke-width:12.3526px;stroke-linecap:butt;stroke-linejoin:miter;stroke-miterlimit:4;stroke-dasharray:none;stroke-dashoffset:0;stroke-opacity:1;paint-order:stroke markers fill;stop-color:#000000"
         d="m 861.58594,137.34375 c -3.82749,0.0964 -7.81605,1.34516 -11.82617,3.96484 22.90765,4.4226 34.7789,37.18118 31.88085,73.58789 20.72268,-35.69965 3.33939,-78.14346 -20.05468,-77.55273 z" />
      <path
         id="path6460"
         style="font-variation-settings:normal;fill:#aa0000;fill-opacity:1;stroke:none;stroke-width:12.3526px;stroke-linecap:butt;stroke-linejoin:miter;stroke-miterlimit:4;stroke-dasharray:none;stroke-dashoffset:0;stroke-opacity:1;paint-order:stroke markers fill;stop-color:#000000"
         d="m 815.30469,344.60156 c 0.81879,-1.28224 1.64949,-2.55328 2.54492,-3.75586 1.10414,-1.48286 2.26561,-2.90445 3.47851,-4.26562 1.21291,-1.36118 2.47792,-2.66153 3.79102,-3.90039 1.31311,-1.23887 2.6734,-2.41727 4.07813,-3.53321 1.03252,-0.82025 2.1134,-1.57067 3.1914,-2.32421 9.11361,-13.92255 20.76635,-26.98142 -5.21484,-58.41211 10.42104,29.11871 -40.00902,33.2029 -11.86914,76.1914 z" />
      <path
         id="path6448"
         style="font-variation-settings:normal;fill:#aa0000;fill-opacity:1;stroke:none;stroke-width:12.3526px;stroke-linecap:butt;stroke-linejoin:miter;stroke-miterlimit:4;stroke-dasharray:none;stroke-dashoffset:0;stroke-opacity:1;paint-order:stroke markers fill;stop-color:#000000"
         d="m 961.43555,134.46484 c -48.18413,23.43007 5.43299,92.13723 -44.84571,115.47266 13.22804,-26.1293 18.64264,-71.40129 -23.92382,-102.07617 v 0.002 c 34.60408,55.5474 -23.85569,60.92495 6.4375,141.67578 -10.28057,-24.36436 -35.17489,-41.85781 -28.85743,-88.34179 -34.81336,52.42599 -11.56659,81.52609 7.55469,113.20117 0.25452,0.0133 0.50705,-1.4e-4 0.76172,0.0156 2.10141,0.13009 4.20773,0.34467 6.3125,0.64453 2.10477,0.29986 4.20868,0.6847 6.30469,1.15625 2.096,0.47156 4.18464,1.03062 6.25976,1.67578 2.07513,0.64517 4.13561,1.37658 6.17774,2.19727 2.04212,0.82069 4.06548,1.73038 6.0625,2.72852 1.99701,0.99813 3.96842,2.08617 5.9082,3.26367 1.93978,1.17749 3.84832,2.44396 5.71875,3.80273 1.87044,1.35878 3.70322,2.80959 5.49219,4.35157 1.78897,1.54197 3.53312,3.17525 5.22851,4.90234 1.69539,1.72709 3.34195,3.54681 4.93164,5.46094 1.58969,1.91412 3.12188,3.92231 4.59375,6.02539 1.47188,2.10307 2.88267,4.30176 4.22461,6.5957 l 3.03516,4.30557 3.05859,-4.29776 c 4.51966,-7.82829 5.80861,-8.65475 6.89063,-10.25772 1.21314,-1.58889 2.45655,-3.11715 3.72851,-4.58594 1.27196,-1.46879 2.5727,-2.87868 3.89844,-4.22851 1.32574,-1.34984 2.67631,-2.64102 4.05078,-3.87305 1.37448,-1.23203 2.77325,-2.40416 4.19141,-3.51953 1.41816,-1.11537 2.85569,-2.17397 4.3125,-3.17383 1.45681,-0.99986 2.93146,-1.94067 4.42187,-2.82617 1.49041,-0.8855 2.99666,-1.71404 4.51563,-2.48633 1.51897,-0.77228 3.05127,-1.48822 4.59375,-2.14844 1.54248,-0.66022 3.0953,-1.26515 4.65625,-1.81445 1.56095,-0.5493 3.13074,-1.04289 4.70504,-1.48242 1.5744,-0.43953 3.1536,-0.82534 4.7364,-1.15625 1.5827,-0.33091 3.1678,-0.6086 4.7539,-0.83203 1.5861,-0.22344 3.1734,-0.39266 4.7578,-0.50977 1.5844,-0.11711 3.1665,-0.18142 4.7441,-0.19336 0,-2e-5 0.01,3e-5 0.01,0 1.3701,-0.0105 2.7387,0.0172 4.1055,0.084 1.3667,0.0667 2.7316,0.1727 4.0918,0.3164 1.3601,0.14371 2.7159,0.32643 4.0664,0.54688 0.05,0.008 0.099,0.0211 0.1484,0.0293 12.7477,-16.98633 25.1281,-35.59609 21.6992,-69.5957 -11.6905,40.86488 -44.2212,39.49601 -55.88084,33.34766 41.56834,-19.64943 55.34424,-75.3718 10.33784,-97.19727 13.8832,17.26061 9.5128,74.60054 -20.03901,51.23438 -10.9659,-8.67099 -42.3025,-36.3079 -27.93164,-98.43946 z m 94.31445,86.37305 c 21.4677,21.97375 15.2472,63.13453 -8.5176,96.47852 48.9057,-22.01354 48.9787,-92.71295 8.5176,-96.47852 z"
         sodipodi:nodetypes="cccccccssssssssssssccccsssssssssssssscssscccccccccc" />
    </g>
    <path
       style="color:#000000;font-variation-settings:normal;opacity:1;vector-effect:none;fill:#aa0000;fill-opacity:1;stroke:none;stroke-width:6.14689px;stroke-linecap:butt;stroke-linejoin:miter;stroke-miterlimit:4;stroke-dasharray:none;stroke-dashoffset:0;stroke-opacity:1;-inkscape-stroke:none;paint-order:stroke markers fill;stop-color:#000000;stop-opacity:1"
       d="M 150.00001,6.8873068 C 71.109593,6.8873068 6.8873033,71.10959 6.8873033,150 c 0,78.89041 64.2222897,143.11269 143.1127067,143.11269 78.89041,0 143.11269,-64.22228 143.11269,-143.11269 0,-78.89041 -64.22228,-143.1126932 -143.11269,-143.1126932 z m 0,25.0024592 c 65.37943,0 118.11024,52.730808 118.11024,118.110234 0,65.37942 -52.73081,118.11761 -118.11024,118.11761 -65.379437,0 -118.117637,-52.73819 -118.117637,-118.11761 0,-65.379426 52.7382,-118.110234 118.117637,-118.110234 z"
       id="path4013" />
  </g>
</svg>
