<?xml version="1.0" encoding="UTF-8" standalone="no"?>
<svg
   width="300"
   height="300"
   viewBox="0 0 300 300"
   version="1.1"
   id="svg21608"
   inkscape:version="1.3 (0e150ed6c4, 2023-07-21)"
   sodipodi:docname="card prestige.svg"
   xmlns:inkscape="http://www.inkscape.org/namespaces/inkscape"
   xmlns:sodipodi="http://sodipodi.sourceforge.net/DTD/sodipodi-0.dtd"
   xmlns="http://www.w3.org/2000/svg"
   xmlns:svg="http://www.w3.org/2000/svg"
   xmlns:rdf="http://www.w3.org/1999/02/22-rdf-syntax-ns#"
   xmlns:cc="http://creativecommons.org/ns#"
   xmlns:dc="http://purl.org/dc/elements/1.1/">
  <defs
     id="defs21602" />
  <sodipodi:namedview
     id="base"
     pagecolor="#ffffff"
     bordercolor="#666666"
     borderopacity="1.0"
     inkscape:pageopacity="0.0"
     inkscape:pageshadow="2"
     inkscape:zoom="1.2194127"
     inkscape:cx="47.973912"
     inkscape:cy="221.41806"
     inkscape:document-units="px"
     inkscape:current-layer="layer1"
     inkscape:document-rotation="0"
     showgrid="false"
     units="px"
     width="300px"
     inkscape:showpageshadow="2"
     inkscape:pagecheckerboard="0"
     inkscape:deskcolor="#d1d1d1"
     inkscape:window-width="1512"
     inkscape:window-height="840"
     inkscape:window-x="0"
     inkscape:window-y="38"
     inkscape:window-maximized="1" />
  <metadata
     id="metadata21605">
    <rdf:RDF>
      <cc:Work
         rdf:about="">
        <dc:format>image/svg+xml</dc:format>
        <dc:type
           rdf:resource="http://purl.org/dc/dcmitype/StillImage" />
        <dc:title />
      </cc:Work>
    </rdf:RDF>
  </metadata>
  <g
     inkscape:label="Layer 1"
     inkscape:groupmode="layer"
     id="layer1">
    <path
       id="path45"
       style="stroke-width:0.978108;paint-order:fill markers stroke"
       d="m 215.52734,102.34961 c -0.14868,-0.10088 -0.28144,-0.2141 -0.43554,-0.31055 -0.49744,-0.31131 -1.02317,-0.59875 -1.57618,-0.86133 -0.44992,-0.21364 -0.9301,-0.399 -1.41601,-0.57812 0.0495,0.25136 0.1569,0.48117 0.18945,0.73828 0.1079,0.8522 0.0924,1.74141 0.01,2.64453 0.61313,0.34521 1.24114,0.67744 1.76172,1.09766 0.3504,0.28285 0.60489,0.63162 0.91211,0.94531 0.17394,-0.70665 0.39898,-1.41982 0.47461,-2.11133 0.0577,-0.52753 0.0784,-1.04901 0.0801,-1.56445 z m -3.88476,4.78711 c -0.017,0.0516 -0.0175,0.10072 -0.0352,0.15234 -0.10532,0.30832 -0.30037,0.6216 -0.42773,0.93164 l 1.94726,0.45508 c -0.42879,-0.55637 -0.91538,-1.07849 -1.48437,-1.53906 z m -66.0625,-31.296876 c -1.3786,-0.05378 -2.7758,0.01382 -4.17383,0.195312 -1.39803,0.181492 -2.79732,0.476797 -4.17578,0.875 -1.37848,0.398203 -2.73672,0.89974 -4.05664,1.496094 -1.31993,0.596354 -2.59987,1.286556 -3.82227,2.0625 -1.22239,0.775944 -2.38678,1.637246 -3.47265,2.574219 -1.08588,0.936973 -2.09354,1.949856 -3.00391,3.029297 -0.91037,1.07944 -1.72405,2.22634 -2.41992,3.429687 L 75.5,167.24023 c -0.695874,1.20336 -1.24436,2.41047 -1.650391,3.60743 -0.40603,1.19695 -0.669876,2.38257 -0.796875,3.54296 -0.0635,0.58021 -0.09212,1.1553 -0.08789,1.72071 0.0042,0.56541 0.04267,1.12112 0.113281,1.66797 0.07061,0.54684 0.172953,1.08291 0.308594,1.60742 0.13564,0.52451 0.304588,1.03871 0.503906,1.53711 0.199318,0.4984 0.429762,0.98265 0.691406,1.45117 0.261644,0.46852 0.554335,0.92059 0.876953,1.35547 0.322619,0.43488 0.674399,0.85254 1.056641,1.25 0.382242,0.39746 0.79386,0.77459 1.234375,1.13086 0.30417,0.246 0.641248,0.46657 0.972656,0.6914 0.148554,0.10079 0.281586,0.2142 0.435547,0.31055 0.497435,0.31131 1.023168,0.59875 1.576172,0.86133 0.449935,0.21364 0.930106,0.39901 1.416016,0.57812 0.111309,0.041 0.211045,0.0937 0.324218,0.13282 0.607221,0.21008 1.242257,0.39306 1.902344,0.54687 L 85.525391,189.5 c 0.04104,-0.0951 0.08801,-0.18995 0.130859,-0.28516 -0.276393,-0.7002 -0.465388,-1.44032 -0.560547,-2.21289 -0.02096,-0.17017 0.01191,-0.35618 0,-0.52929 -0.825242,-0.23476 -1.648184,-0.47569 -2.367187,-0.81641 -0.288446,-0.13669 -0.506494,-0.33383 -0.777344,-0.48633 -0.61313,-0.34521 -1.241141,-0.67744 -1.761719,-1.09765 -0.350223,-0.28271 -0.605027,-0.6318 -0.912109,-0.94532 -0.351008,-0.35836 -0.747783,-0.68694 -1.041016,-1.08203 -0.54977,-0.74073 -0.996848,-1.54182 -1.335937,-2.39258 -0.339089,-0.85074 -0.570954,-1.74964 -0.689454,-2.68554 -0.118498,-0.93592 -0.123714,-1.90808 -0.01172,-2.9043 0.111997,-0.99622 0.340956,-2.01716 0.693359,-3.04883 0.352403,-1.03166 0.826971,-2.07493 1.429688,-3.11719 L 123.27734,90.158203 c 0.60272,-1.042252 1.30315,-2.031512 2.08594,-2.962891 0.78279,-0.931377 1.64815,-1.803755 2.57813,-2.609375 0.92996,-0.805618 1.92448,-1.545962 2.96875,-2.210937 1.04425,-0.664975 2.138,-1.25618 3.26367,-1.765625 1.12566,-0.509445 2.28481,-0.93636 3.45898,-1.275391 1.17418,-0.33903 2.36294,-0.588457 3.55274,-0.742187 1.18979,-0.153731 2.3802,-0.21247 3.55273,-0.166016 1.17253,0.04645 2.32881,0.197459 3.45117,0.458985 l 54.48242,12.695312 c 1.12238,0.261525 2.15821,0.622242 3.09961,1.068359 0.94142,0.446119 1.78852,0.978133 2.53907,1.583985 0.75053,0.605852 1.40335,1.284661 1.95312,2.02539 0.54977,0.740731 0.99685,1.541829 1.33594,2.392579 0.24594,0.617036 0.36939,1.285586 0.5,1.949219 0.48591,0.17912 0.96609,0.36449 1.41601,0.57812 0.55301,0.26258 1.07874,0.55002 1.57618,0.86133 0.1541,0.0964 0.28686,0.20967 0.43554,0.31055 1.7e-4,-0.0515 0.008,-0.10491 0.008,-0.15625 -0.004,-0.56542 -0.0426,-1.12111 -0.11329,-1.66797 -0.0707,-0.546853 -0.17484,-1.084855 -0.31054,-1.609374 -0.1357,-0.52452 -0.30258,-1.036743 -0.50196,-1.535157 -0.19936,-0.498412 -0.4297,-0.982635 -0.6914,-1.451172 -0.2617,-0.468535 -0.55429,-0.920581 -0.87695,-1.355468 -0.32268,-0.434889 -0.6763,-0.852531 -1.0586,-1.25 -0.38229,-0.39747 -0.79381,-0.774581 -1.23437,-1.13086 -0.44056,-0.356279 -0.91073,-0.692588 -1.40821,-1.003906 -0.49746,-0.311318 -1.02314,-0.598742 -1.57617,-0.861328 -0.55303,-0.262586 -1.13299,-0.498902 -1.74023,-0.708984 -0.60724,-0.210084 -1.24031,-0.393067 -1.90039,-0.546875 L 149.63867,76.376953 c -1.32017,-0.307617 -2.68,-0.483326 -4.05859,-0.537109 z M 85.65625,189.21484 c 0.0019,0.005 0.0019,0.0107 0.0039,0.0156 0.04889,0.12319 0.139016,0.22511 0.19336,0.3457 l 2.492187,0.58008 2.818359,0.6582 47.695304,11.11328 c 1.32018,0.30762 2.67996,0.48332 4.0586,0.53711 1.37863,0.0538 2.77768,-0.0138 4.17578,-0.19531 1.3981,-0.18147 2.79526,-0.47682 4.17383,-0.875 1.37856,-0.39817 2.73856,-0.89977 4.05859,-1.49609 1.32003,-0.59632 2.59977,-1.28659 3.82227,-2.0625 1.22249,-0.77591 2.38671,-1.63728 3.47265,-2.57422 1.08596,-0.93695 2.0935,-1.94988 3.00391,-3.0293 0.91041,-1.07941 1.72406,-2.22634 2.41992,-3.42969 l 43.28711,-74.85351 1.44922,-2.50781 L 213,111.06445 c 0.28592,-0.49443 0.4413,-0.98756 0.67773,-1.48242 0.1122,-0.23481 0.22109,-0.46856 0.32227,-0.70312 0.20454,-0.47419 0.49038,-0.95011 0.65039,-1.42188 0.16406,-0.48368 0.20431,-0.95246 0.32227,-1.43164 -0.30722,-0.31368 -0.56172,-0.66247 -0.91211,-0.94531 -0.52057,-0.42021 -1.1486,-0.75245 -1.76172,-1.09766 -0.008,0.0887 0.0119,0.17066 0.002,0.25977 -0.10639,0.94635 -0.33509,1.91563 -0.6582,2.89453 0.56898,0.46056 1.05559,0.9827 1.48437,1.53906 l -1.94726,-0.45508 c -0.29881,0.72739 -0.58133,1.45479 -1.00391,2.18555 l -0.21875,0.37695 -1.44922,2.50782 -43.28515,74.85351 c -0.60272,1.04225 -1.30511,2.03348 -2.08789,2.96484 -0.78279,0.93138 -1.64621,1.80377 -2.57618,2.60938 -0.92995,0.80561 -1.92644,1.54402 -2.9707,2.20898 -1.04426,0.66498 -2.13606,1.25619 -3.26172,1.76563 -1.12565,0.50944 -2.28482,0.93832 -3.45898,1.27734 -1.17417,0.33903 -2.36491,0.58846 -3.55469,0.74219 -1.18978,0.15373 -2.37827,0.21052 -3.55078,0.16406 -1.17252,-0.0464 -2.32882,-0.1955 -3.45117,-0.45703 l -47.921878,-11.16601 -2.822266,-0.65821 -2.822265,-0.6582 -0.21875,0.37695 c -0.366564,0.63389 -0.583731,1.2663 -0.869141,1.90039 z m 0,0 c 0.285413,-0.6341 0.502574,-1.2665 0.869141,-1.90039 l 0.21875,-0.37695 -0.916016,-0.21289 c -0.265156,-0.0618 -0.477155,-0.17934 -0.732422,-0.25195 0.01191,0.17311 -0.02096,0.35912 0,0.52929 0.09516,0.77257 0.284152,1.51268 0.560547,2.21289 z m 129.87109,-86.86523 c -0.002,0.51544 -0.0224,1.03692 -0.0801,1.56445 -0.0756,0.69151 -0.30067,1.40468 -0.47461,2.11133 0.35083,0.35823 0.74791,0.68517 1.04101,1.08008 0.54977,0.74073 0.99685,1.54378 1.33594,2.39453 0.0444,0.11134 0.0492,0.23858 0.0898,0.35156 0.46231,0.17253 0.92205,0.34684 1.35157,0.55078 0.553,0.26258 1.07873,0.55197 1.57617,0.86329 0.2959,0.18517 0.56203,0.39434 0.83789,0.5957 -0.015,-0.1616 -0.0126,-0.32839 -0.0332,-0.48828 -0.0706,-0.54685 -0.1749,-1.08293 -0.31054,-1.60742 -0.13564,-0.52451 -0.30264,-1.03676 -0.50196,-1.53516 -0.1993,-0.4984 -0.42976,-0.9846 -0.6914,-1.45313 -0.26165,-0.46852 -0.55433,-0.9206 -0.87695,-1.35546 -0.32262,-0.43488 -0.67636,-0.85256 -1.0586,-1.25 -0.38224,-0.39746 -0.79386,-0.77459 -1.23437,-1.13086 -0.30405,-0.2459 -0.63945,-0.46665 -0.97071,-0.69141 z M 218.04492,113.5 c 0.43181,0.26843 0.90923,0.49845 1.29102,0.80664 0.61127,0.49343 1.11113,1.06596 1.58984,1.65039 0.0742,-0.39684 0.22668,-0.80377 0.26953,-1.19531 0.0635,-0.5802 0.0941,-1.15334 0.0898,-1.71875 -0.003,-0.40008 -0.0437,-0.79058 -0.0801,-1.18164 -0.27586,-0.20136 -0.54199,-0.41053 -0.83789,-0.5957 -0.49744,-0.31132 -1.02317,-0.60071 -1.57617,-0.86329 -0.42952,-0.20394 -0.88926,-0.37825 -1.35157,-0.55078 0.27011,0.75033 0.49662,1.52056 0.59961,2.33399 0.0536,0.42358 -0.001,0.87712 0.006,1.31445 z m -0.44531,3.57031 c 0.31118,0.31179 0.65672,0.60071 0.91406,0.94727 0.45419,0.61166 0.82214,1.27387 1.10156,1.97851 0.002,0.005 0.002,0.0107 0.004,0.0156 0.2562,-0.56926 0.58728,-1.14098 0.7793,-1.70703 0.26903,-0.79309 0.38161,-1.56839 0.52734,-2.34766 -0.47871,-0.58443 -0.97857,-1.15696 -1.58984,-1.65039 -0.38179,-0.30819 -0.85921,-0.53821 -1.29102,-0.80664 0.008,0.52896 0.0671,1.0445 0.006,1.58984 -0.0728,0.64719 -0.27769,1.31649 -0.45117,1.98047 z m 0,0 c -0.0936,0.3581 -0.11872,0.70691 -0.24219,1.06836 -0.3524,1.03166 -0.82892,2.07494 -1.43164,3.11719 l -44.95312,77.73633 c -0.60272,1.04224 -1.30316,2.03347 -2.08594,2.96484 -0.78279,0.93137 -1.64815,1.80375 -2.57813,2.60938 -0.92996,0.80561 -1.92448,1.54401 -2.96875,2.20898 -1.04425,0.66498 -2.13801,1.25618 -3.26367,1.76563 -1.12566,0.50943 -2.28481,0.93831 -3.45898,1.27734 -1.17417,0.33903 -2.36295,0.58846 -3.55274,0.74219 -1.18979,0.15373 -2.38021,0.21051 -3.55273,0.16406 -1.17252,-0.0465 -2.32881,-0.19551 -3.45117,-0.45703 L 91.578125,197.57227 c -0.343818,-0.0801 -0.62206,-0.22988 -0.949219,-0.32813 -0.740826,-0.22247 -1.497367,-0.43079 -2.15039,-0.74023 -0.462531,-0.21919 -0.830982,-0.51808 -1.248047,-0.77735 -0.431806,-0.26843 -0.909228,-0.49845 -1.291016,-0.80664 -0.611635,-0.49372 -1.112886,-1.06556 -1.591797,-1.65039 -0.108765,-0.13282 -0.259577,-0.23791 -0.361328,-0.375 -0.54977,-0.74073 -0.996848,-1.54378 -1.335937,-2.39453 -0.245874,-0.61688 -0.369391,-1.28381 -0.5,-1.94727 -0.485911,-0.17912 -0.96608,-0.36448 -1.416016,-0.57812 -0.553005,-0.26258 -1.078736,-0.55002 -1.576172,-0.86133 -0.153961,-0.0964 -0.286993,-0.20976 -0.435547,-0.31055 -1.65e-4,0.0515 -0.0082,0.10486 -0.0078,0.15625 0.0043,0.56542 0.04261,1.12307 0.113281,1.66993 0.07067,0.54684 0.172894,1.0829 0.308594,1.60742 0.135698,0.52452 0.304529,1.03675 0.503906,1.53515 0.199377,0.49842 0.429704,0.98264 0.691406,1.45118 0.261703,0.46852 0.554279,0.92059 0.876953,1.35546 0.322675,0.43489 0.676301,0.85254 1.058594,1.25 0.382294,0.39748 0.793816,0.77459 1.234375,1.13086 0.177682,0.1437 0.381356,0.26774 0.568359,0.4043 0.276671,0.20204 0.543008,0.41385 0.839844,0.59961 0.497471,0.31132 1.021189,0.59874 1.574219,0.86133 0.4289,0.20365 0.889968,0.3765 1.351562,0.54883 0.133593,0.0499 0.254329,0.113 0.390625,0.16015 0.607235,0.21009 1.240304,0.39307 1.900391,0.54688 l 2.023438,0.4707 52.460937,12.22461 c 1.32017,0.30762 2.68,0.48528 4.05859,0.53906 1.37859,0.0538 2.77581,-0.0158 4.17383,-0.19726 1.39802,-0.18149 2.79536,-0.47485 4.17383,-0.87305 1.37846,-0.3982 2.73867,-0.90169 4.05859,-1.49805 1.31992,-0.59634 2.59988,-1.28655 3.82227,-2.0625 1.22239,-0.77593 2.38679,-1.63724 3.47265,-2.57422 1.08588,-0.93696 2.09355,-1.94986 3.00391,-3.02929 0.91036,-1.07944 1.72406,-2.22438 2.41992,-3.42774 L 218.75,121.91406 c 0.36679,-0.63426 0.58359,-1.26787 0.86914,-1.90234 -0.002,-0.005 -0.002,-0.0106 -0.004,-0.0156 -0.27941,-0.70463 -0.64737,-1.36686 -1.10156,-1.97851 -0.25734,-0.34656 -0.60288,-0.63548 -0.91406,-0.94727 z m 3.60547,-5.20898 c 0.0364,0.39106 0.0771,0.78156 0.0801,1.18164 0.004,0.56541 -0.0263,1.13855 -0.0898,1.71875 -0.0429,0.39154 -0.19533,0.79847 -0.26953,1.19531 0.10907,0.13316 0.26127,0.23755 0.36328,0.375 0.54978,0.74073 0.99685,1.54378 1.33594,2.39453 0.33909,0.85075 0.57095,1.74963 0.68945,2.68555 0.1185,0.93591 0.12374,1.90808 0.0117,2.9043 -0.112,0.99622 -0.34095,2.01717 -0.69336,3.04882 -0.3524,1.03167 -0.82697,2.07494 -1.42969,3.11719 L 176.2481,208.2207 c -0.60272,1.04226 -1.30315,2.03151 -2.08594,2.96289 -0.78279,0.93139 -1.64815,1.80376 -2.57813,2.60938 -0.92996,0.80562 -1.92448,1.54596 -2.96875,2.21094 -1.04425,0.66497 -2.138,1.25422 -3.26367,1.76367 -1.12567,0.50944 -2.2848,0.93831 -3.45898,1.27734 -1.17418,0.33903 -2.36293,0.58846 -3.55274,0.74219 -1.1898,0.15373 -2.3802,0.21247 -3.55273,0.16601 -1.17253,-0.0465 -2.3288,-0.19745 -3.45117,-0.45898 L 96.853516,206.79883 c -1.122373,-0.26153 -2.158196,-0.62224 -3.09961,-1.06836 -0.941413,-0.44612 -1.788516,-0.97813 -2.539062,-1.58399 -0.750547,-0.60585 -1.403354,-1.28465 -1.953125,-2.02539 -0.549773,-0.74073 -0.996847,-1.54378 -1.335938,-2.39453 -0.04461,-0.11192 -0.04898,-0.23993 -0.08984,-0.35351 -0.461596,-0.17233 -0.92266,-0.34518 -1.351562,-0.54883 -0.553032,-0.26259 -1.076746,-0.55001 -1.574219,-0.86133 -0.296837,-0.18576 -0.563172,-0.39757 -0.839844,-0.59961 0.01508,0.16244 0.01243,0.32951 0.0332,0.49024 0.07067,0.54685 0.174848,1.08485 0.310546,1.60937 0.1357,0.52452 0.302576,1.03674 0.501954,1.53516 0.199377,0.49841 0.429702,0.98263 0.691406,1.45117 0.261703,0.46854 0.554277,0.92058 0.876953,1.35547 0.322676,0.43489 0.676299,0.85253 1.058594,1.25 0.382293,0.39747 0.793814,0.77458 1.234375,1.13086 0.440559,0.35628 0.91073,0.69063 1.408203,1.00195 0.497472,0.31132 1.023139,0.60069 1.576172,0.86328 0.553031,0.26259 1.132996,0.4989 1.740234,0.70899 0.607239,0.21008 1.240299,0.39306 1.900391,0.54687 l 54.484376,12.69531 c 1.32018,0.30762 2.67999,0.48333 4.05859,0.53711 1.37861,0.0538 2.7758,-0.0138 4.17383,-0.19531 1.39803,-0.18149 2.79731,-0.4768 4.17578,-0.875 1.37848,-0.3982 2.73671,-0.89974 4.05664,-1.49609 1.31993,-0.59636 2.59987,-1.28656 3.82227,-2.0625 1.2224,-0.77595 2.38679,-1.63725 3.47265,-2.57422 1.08588,-0.93698 2.09354,-1.94986 3.00391,-3.0293 0.91037,-1.07944 1.72405,-2.22634 2.41992,-3.42969 l 44.95508,-77.73828 c 0.69588,-1.20335 1.24436,-2.41046 1.65039,-3.60742 0.40603,-1.19696 0.66988,-2.38256 0.79688,-3.54297 0.0635,-0.5802 0.0921,-1.15529 0.0879,-1.7207 -0.004,-0.56541 -0.0427,-1.12113 -0.11328,-1.66797 -0.0706,-0.54684 -0.17296,-1.08487 -0.3086,-1.60938 -0.13564,-0.5245 -0.30459,-1.03675 -0.5039,-1.53515 -0.19932,-0.4984 -0.42977,-0.98265 -0.69141,-1.45117 -0.26165,-0.46853 -0.55433,-0.9206 -0.87695,-1.35547 -0.32262,-0.43488 -0.6744,-0.85254 -1.05664,-1.25 -0.38225,-0.39746 -0.79386,-0.77459 -1.23438,-1.13086 -0.17847,-0.14434 -0.38243,-0.26911 -0.57031,-0.40625 z M 158.31836,7.9472656 135.14062,42.962891 103.31641,15.578125 95.314453,56.787109 55.431641,43.677734 63.791016,84.792969 21.957031,87.966797 45.40625,122.74805 7.9492187,141.69336 l 35.0117183,23.16797 -27.371093,31.81836 41.195312,8.01758 -13.109375,39.875 41.128906,-8.39454 3.166016,41.87696 34.791017,-23.47657 18.92969,37.47461 23.16796,-35.01171 31.82422,27.36718 8.01563,-41.19531 39.88476,13.10938 -8.375,-41.14454 41.84766,-3.14453 -23.47656,-34.79687 37.4707,-18.92969 -34.99805,-23.16797 27.35157,-31.81836 -41.17578,-8.017576 13.09179,-39.888672 -41.14453,8.375 -3.14648,-41.84375 -34.77539,23.458985 z M 145.58008,75.839844 c 1.3786,0.05378 2.73841,0.229491 4.05859,0.537109 l 54.48438,12.695313 c 0.66009,0.153808 1.29315,0.336791 1.90039,0.546875 0.60724,0.210082 1.1872,0.446397 1.74023,0.708984 0.55303,0.262587 1.0787,0.550009 1.57617,0.861328 0.49748,0.311319 0.96765,0.647627 1.40821,1.003906 0.44056,0.35628 0.85208,0.733389 1.23437,1.13086 0.3823,0.397469 0.73592,0.81511 1.0586,1.25 0.32267,0.434888 0.61525,0.886932 0.87695,1.355468 0.2617,0.468538 0.49204,0.952759 0.6914,1.451172 0.19938,0.498415 0.36626,1.010636 0.50196,1.535157 0.1357,0.52452 0.23985,1.06252 0.31054,1.609374 0.0707,0.54686 0.10929,1.10255 0.11329,1.66797 0,0.0513 -0.008,0.10475 -0.008,0.15625 0.33126,0.22476 0.66666,0.44551 0.97071,0.69141 0.44051,0.35627 0.85213,0.7334 1.23437,1.13086 0.38224,0.39744 0.73598,0.81512 1.0586,1.25 0.32262,0.43486 0.6153,0.88694 0.87695,1.35546 0.26164,0.46853 0.4921,0.95473 0.6914,1.45313 0.19932,0.4984 0.36632,1.01065 0.50196,1.53516 0.13564,0.52449 0.23995,1.06057 0.31054,1.60742 0.0206,0.15989 0.0182,0.32668 0.0332,0.48828 0.18788,0.13714 0.39184,0.26191 0.57031,0.40625 0.44052,0.35627 0.85213,0.7334 1.23438,1.13086 0.38224,0.39746 0.73402,0.81512 1.05664,1.25 0.32262,0.43487 0.6153,0.88694 0.87695,1.35547 0.26164,0.46852 0.49209,0.95277 0.69141,1.45117 0.19931,0.4984 0.36826,1.01065 0.5039,1.53515 0.13564,0.52451 0.238,1.06254 0.3086,1.60938 0.0706,0.54684 0.10928,1.10256 0.11328,1.66797 0.004,0.56541 -0.0244,1.1405 -0.0879,1.7207 -0.127,1.16041 -0.39085,2.34601 -0.79688,3.54297 -0.40603,1.19696 -0.95451,2.40407 -1.65039,3.60742 l -44.95508,77.73828 c -0.69587,1.20335 -1.50955,2.35025 -2.41992,3.42969 -0.91037,1.07944 -1.91803,2.09232 -3.00391,3.0293 -1.08586,0.93697 -2.25025,1.79827 -3.47265,2.57422 -1.2224,0.77594 -2.50234,1.46614 -3.82227,2.0625 -1.31993,0.59635 -2.67816,1.09789 -4.05664,1.49609 -1.37847,0.3982 -2.77775,0.69351 -4.17578,0.875 -1.39803,0.18151 -2.79522,0.24911 -4.17383,0.19531 -1.3786,-0.0538 -2.73841,-0.22949 -4.05859,-0.53711 L 95.402344,209.30664 c -0.660092,-0.15381 -1.293152,-0.33679 -1.900391,-0.54687 -0.607238,-0.21009 -1.187203,-0.4464 -1.740234,-0.70899 -0.553033,-0.26259 -1.0787,-0.55196 -1.576172,-0.86328 -0.497473,-0.31132 -0.967644,-0.64567 -1.408203,-1.00195 -0.440561,-0.35628 -0.852082,-0.73339 -1.234375,-1.13086 -0.382295,-0.39747 -0.735918,-0.81511 -1.058594,-1.25 -0.322676,-0.43489 -0.61525,-0.88693 -0.876953,-1.35547 -0.261704,-0.46854 -0.492029,-0.95276 -0.691406,-1.45117 -0.199378,-0.49842 -0.366254,-1.01064 -0.501954,-1.53516 -0.135698,-0.52452 -0.239876,-1.06252 -0.310546,-1.60937 -0.02077,-0.16073 -0.01812,-0.3278 -0.0332,-0.49024 -0.187003,-0.13656 -0.390677,-0.2606 -0.568359,-0.4043 -0.440559,-0.35628 -0.85208,-0.73338 -1.234375,-1.13086 -0.382293,-0.39746 -0.735918,-0.81511 -1.058594,-1.25 -0.322674,-0.43487 -0.615249,-0.88693 -0.876953,-1.35546 -0.261702,-0.46854 -0.492028,-0.95276 -0.691406,-1.45118 -0.199378,-0.49841 -0.368207,-1.01063 -0.503906,-1.53515 -0.1357,-0.52452 -0.237924,-1.06057 -0.308594,-1.60742 -0.07067,-0.54686 -0.108981,-1.10451 -0.113281,-1.66993 -4e-4,-0.0514 0.0076,-0.10475 0.0078,-0.15625 -0.331408,-0.22484 -0.668485,-0.4454 -0.972656,-0.6914 -0.440516,-0.35627 -0.852132,-0.7334 -1.234375,-1.13086 -0.382243,-0.39746 -0.734021,-0.81512 -1.056641,-1.25 -0.322618,-0.43488 -0.615308,-0.88695 -0.876953,-1.35547 -0.261644,-0.46852 -0.492087,-0.95277 -0.691406,-1.45117 -0.199319,-0.4984 -0.368265,-1.0126 -0.503906,-1.53711 -0.135641,-0.52451 -0.237984,-1.06058 -0.308594,-1.60742 -0.07061,-0.54685 -0.109081,-1.10256 -0.113281,-1.66797 -0.0042,-0.56541 0.02439,-1.1405 0.08789,-1.72071 0.126999,-1.16039 0.390844,-2.346 0.796875,-3.54296 0.406032,-1.19696 0.954516,-2.40407 1.650391,-3.60743 L 120.45507,89.501953 c 0.69587,-1.20335 1.50955,-2.350244 2.41992,-3.429687 0.91037,-1.079443 1.91803,-2.092322 3.00391,-3.029297 1.08588,-0.936975 2.25025,-1.798274 3.47265,-2.574219 1.2224,-0.775945 2.50234,-1.466145 3.82227,-2.0625 1.31993,-0.596355 2.67816,-1.09789 4.05664,-1.496094 1.37847,-0.398203 2.77775,-0.693508 4.17578,-0.875 1.39803,-0.181492 2.79523,-0.249092 4.17383,-0.195312 z" />
  </g>
</svg>
