<?xml version="1.0" encoding="UTF-8" standalone="no"?>
<svg
   width="300"
   height="300"
   viewBox="0 0 300 300"
   version="1.1"
   id="svg21608"
   inkscape:version="1.2.2 (732a01da63, 2022-12-09)"
   sodipodi:docname="confuse.svg"
   xmlns:inkscape="http://www.inkscape.org/namespaces/inkscape"
   xmlns:sodipodi="http://sodipodi.sourceforge.net/DTD/sodipodi-0.dtd"
   xmlns="http://www.w3.org/2000/svg"
   xmlns:svg="http://www.w3.org/2000/svg"
   xmlns:rdf="http://www.w3.org/1999/02/22-rdf-syntax-ns#"
   xmlns:cc="http://creativecommons.org/ns#"
   xmlns:dc="http://purl.org/dc/elements/1.1/">
  <defs
     id="defs21602" />
  <sodipodi:namedview
     id="base"
     pagecolor="#ffffff"
     bordercolor="#666666"
     borderopacity="1.0"
     inkscape:pageopacity="0.0"
     inkscape:pageshadow="2"
     inkscape:zoom="1.979899"
     inkscape:cx="645.49276"
     inkscape:cy="312.77216"
     inkscape:document-units="px"
     inkscape:current-layer="layer1"
     inkscape:document-rotation="0"
     showgrid="false"
     units="px"
     width="300px"
     inkscape:showpageshadow="2"
     inkscape:pagecheckerboard="0"
     inkscape:deskcolor="#d1d1d1" />
  <metadata
     id="metadata21605">
    <rdf:RDF>
      <cc:Work
         rdf:about="">
        <dc:format>image/svg+xml</dc:format>
        <dc:type
           rdf:resource="http://purl.org/dc/dcmitype/StillImage" />
        <dc:title />
      </cc:Work>
    </rdf:RDF>
  </metadata>
  <g
     inkscape:label="Layer 1"
     inkscape:groupmode="layer"
     id="layer1">
    <g
       class=""
       id="g57462"
       transform="matrix(0.5762532,0,0,0.5762532,2.2434612,-0.24908998)"
       style="display:inline;fill:#0000ff;stroke-width:26.5533">
      <path
         d="m 436.406,29.625 -18.094,42.22 -48.562,5.905 42.156,25.656 1.375,13.47 C 367.938,90.74 302.435,75.36 214.78,82.31 l -20.186,-3.343 -24.125,-38.407 0.5,39.78 -49.22,16.438 55.063,4.564 7.843,33.78 17.094,-37.78 17.906,-2.75 c 203.993,22.03 277.475,204.75 77.875,207.625 l 5.22,-37.595 36.75,-43.72 -51.344,-24.968 -30.22,-48.468 -39.623,41.124 -4.125,1.03 C -8.4,163.078 -31.708,304.485 98.844,376.125 L 86.906,388.813 39.844,374.5 l 33.03,39.406 -15.124,42.53 36.375,-31.155 47.03,18.095 -30.374,-43.875 4.69,-15.03 c 62.43,28.648 153.852,42.16 270.5,20.717 C 144.929,438.568 21.829,267.248 166.688,209.501 l 23.032,43.25 -4,56.97 56.218,-9.97 19.25,7.813 c 218.255,102.608 297.46,-83.917 171.843,-177.75 l 14.376,-22.22 46.47,-16.5 L 451.97,76.282 436.406,29.627 Z M 34.53,79.03 l 4.845,26.095 -19.47,22 27.22,-3.25 17.563,23.344 0.687,-29.47 L 90.155,99.843 56.937,98.123 34.531,79.03 Z m 358.564,298.5 14.25,51.658 -31.375,41.062 49.592,-12.688 33.688,34.282 -2.53,-51.406 35.217,-30.375 -51.593,1.562 -47.25,-34.094 z"
         fill="#ffffff"
         fill-opacity="1"
         id="path57460"
         style="fill:#0000ff;stroke-width:89.8584" />
    </g>
  </g>
</svg>
