<?xml version="1.0" encoding="UTF-8" standalone="no"?>
<svg
   width="600"
   height="300"
   viewBox="0 0 600 300"
   version="1.1"
   id="svg21608"
   inkscape:version="1.3 (0e150ed6c4, 2023-07-21)"
   sodipodi:docname="controlled-burns.svg"
   xmlns:inkscape="http://www.inkscape.org/namespaces/inkscape"
   xmlns:sodipodi="http://sodipodi.sourceforge.net/DTD/sodipodi-0.dtd"
   xmlns="http://www.w3.org/2000/svg"
   xmlns:svg="http://www.w3.org/2000/svg"
   xmlns:rdf="http://www.w3.org/1999/02/22-rdf-syntax-ns#"
   xmlns:cc="http://creativecommons.org/ns#"
   xmlns:dc="http://purl.org/dc/elements/1.1/">
  <defs
     id="defs21602" />
  <sodipodi:namedview
     id="base"
     pagecolor="#ffffff"
     bordercolor="#666666"
     borderopacity="1.0"
     inkscape:pageopacity="0.0"
     inkscape:pageshadow="2"
     inkscape:zoom="0.49869066"
     inkscape:cx="127.33345"
     inkscape:cy="194.50936"
     inkscape:document-units="px"
     inkscape:current-layer="layer1"
     inkscape:document-rotation="0"
     showgrid="false"
     units="px"
     width="300px"
     inkscape:showpageshadow="2"
     inkscape:pagecheckerboard="0"
     inkscape:deskcolor="#d1d1d1"
     inkscape:window-width="1436"
     inkscape:window-height="456"
     inkscape:window-x="0"
     inkscape:window-y="38"
     inkscape:window-maximized="0" />
  <metadata
     id="metadata21605">
    <rdf:RDF>
      <cc:Work
         rdf:about="">
        <dc:format>image/svg+xml</dc:format>
        <dc:type
           rdf:resource="http://purl.org/dc/dcmitype/StillImage" />
        <dc:title />
      </cc:Work>
    </rdf:RDF>
  </metadata>
  <g
     inkscape:label="Layer 1"
     inkscape:groupmode="layer"
     id="layer1">
    <g
       id="g1"
       transform="translate(8.8551684)">
      <g
         id="g31824"
         transform="matrix(22.585864,0,0,22.657772,-3066.4002,-4171.7287)"
         style="display:inline;stroke-width:0.167075">
        <path
           id="path5240"
           style="font-variation-settings:normal;opacity:1;vector-effect:none;fill:#e9ddaf;fill-opacity:1;stroke:#5e501a;stroke-width:0.0293179;stroke-linecap:butt;stroke-linejoin:miter;stroke-miterlimit:4;stroke-dasharray:none;stroke-dashoffset:0;stroke-opacity:1;paint-order:fill markers stroke;stop-color:#000000;stop-opacity:1"
           d="m 138.64986,190.89666 h 9.58987 l 1.0822,2.94032 -1.0822,2.94033 h -9.58987 z"
           sodipodi:nodetypes="cccccc" />
        <path
           d="m 147.10972,191.32666 c -0.72865,0.17354 -1.6737,0.80967 -1.62874,1.63418 l -0.006,0.003 c -0.12858,-0.35021 -0.30944,-0.50598 -0.65024,-0.6607 -0.44952,-0.19507 -0.93773,0 -1.64139,-0.39046 0.46845,0.58595 0.46845,1.36791 1.15214,1.5634 0.46521,0.15472 0.95446,0.0638 1.14681,-0.0784 0.22267,0.76105 0.19027,1.51479 -0.15263,2.27375 -0.0136,-0.36589 -0.11708,-0.81332 -0.2603,-1.13112 -0.0585,0.39098 -0.0199,0.9764 -0.41085,1.36738 0.0199,-0.19549 -0.13695,-0.58542 -0.29271,-0.78091 0,0.38993 0.0387,0.78091 -0.21535,1.17189 h 2.52047 c 0.0544,-0.18294 0.0753,-0.36589 0.0941,-0.38889 -0.0784,0.0491 -0.15367,0.11604 -0.29376,0.14218 0.0387,0 0.0241,-0.33976 0.004,-0.53525 -0.15577,0.39098 -0.38994,0.58647 -0.64397,0.58647 0.27285,-0.39098 0.23417,-0.58647 0.19549,-0.9764 -0.1359,0.33871 -0.25717,0.53106 -0.55616,0.70355 0.39412,-0.82377 0.43803,-1.65592 0.20177,-2.47969 0.26239,0.11917 0.55824,0.0753 0.89068,-0.26554 0.3868,-0.39621 0.0983,-1.17242 0.54675,-1.75858 z m -0.34499,4.58326 c 0.002,0 0.003,-0.001 0.004,-0.002 -0.001,0 -0.002,0.001 -0.004,0.002 z"
           fill="#d0021b"
           fill-opacity="1"
           id="path4497-0"
           style="font-variation-settings:normal;vector-effect:none;fill:#008000;fill-opacity:1;stroke-width:0.232884;stroke-linecap:butt;stroke-linejoin:miter;stroke-miterlimit:4;stroke-dasharray:none;stroke-dashoffset:0;stroke-opacity:1;stop-color:#000000" />
        <path
           d="m 143.18324,191.32666 c -0.72865,0.17354 -1.6737,0.80967 -1.62874,1.63418 l -0.006,0.003 c -0.12858,-0.35021 -0.30944,-0.50598 -0.65024,-0.6607 -0.44952,-0.19507 -0.93773,0 -1.64139,-0.39046 0.46845,0.58595 0.46845,1.36791 1.15214,1.5634 0.46521,0.15472 0.95446,0.0638 1.14681,-0.0784 0.22267,0.76105 0.19027,1.51479 -0.15263,2.27375 -0.0136,-0.36589 -0.11708,-0.81332 -0.2603,-1.13112 -0.0585,0.39098 -0.0199,0.9764 -0.41085,1.36738 0.0199,-0.19549 -0.13695,-0.58542 -0.29271,-0.78091 0,0.38993 0.0387,0.78091 -0.21535,1.17189 h 2.52047 c 0.0544,-0.18294 0.0753,-0.36589 0.0941,-0.38889 -0.0784,0.0491 -0.15367,0.11604 -0.29376,0.14218 0.0387,0 0.0241,-0.33976 0.004,-0.53525 -0.15577,0.39098 -0.38994,0.58647 -0.64397,0.58647 0.27285,-0.39098 0.23417,-0.58647 0.19549,-0.9764 -0.1359,0.33871 -0.25717,0.53106 -0.55616,0.70355 0.39412,-0.82377 0.43803,-1.65592 0.20177,-2.47969 0.26239,0.11917 0.55824,0.0753 0.89068,-0.26554 0.3868,-0.39621 0.0983,-1.17242 0.54675,-1.75858 z m -0.34499,4.58326 c 0.002,0 0.003,-0.001 0.004,-0.002 -0.001,0 -0.002,0.001 -0.004,0.002 z"
           fill="#d0021b"
           fill-opacity="1"
           id="path31803"
           style="font-variation-settings:normal;vector-effect:none;fill:#008000;fill-opacity:1;stroke-width:0.232884;stroke-linecap:butt;stroke-linejoin:miter;stroke-miterlimit:4;stroke-dasharray:none;stroke-dashoffset:0;stroke-opacity:1;stop-color:#000000" />
        <path
           d="m 151.9178,191.4964 c -0.77874,0.37865 0.0878,1.48902 -0.72479,1.86614 0.21379,-0.42227 0.30131,-1.15391 -0.38664,-1.64964 v 3e-5 c 0.55926,0.89769 -0.38554,0.9846 0.10405,2.28961 0.009,0.0205 0.0167,0.041 0.024,0.0622 -0.008,-0.0211 -0.0163,-0.0418 -0.024,-0.0622 -0.16616,-0.39375 -0.56848,-0.67647 -0.46638,-1.4277 -0.90008,1.35539 0.6013,1.74601 0.38935,2.88568 -0.19698,-0.50969 -0.93585,-0.37093 -0.64177,-0.92137 -0.79508,0.62816 0.66241,0.97191 -0.24628,1.63842 h 3.39982 c -0.43731,-0.34799 -0.37731,-1.05683 -0.0905,-0.90313 -0.14253,-0.41645 -0.53106,-0.10114 -0.55017,0.2202 -0.15148,-0.99233 0.84001,-1.05968 0.72465,-2.20349 -0.18894,0.66041 -0.7147,0.63827 -0.90314,0.53892 0.67181,-0.31757 0.89444,-1.21807 0.16707,-1.5708 0.22438,0.27895 0.15377,1.20563 -0.32383,0.82801 -0.17723,-0.14013 -0.68368,-0.58678 -0.45143,-1.59088 z m -1.61373,0.0465 c -0.0619,0.002 -0.12633,0.0217 -0.19113,0.0641 0.37022,0.0715 0.56208,0.60088 0.51524,1.18924 0.33491,-0.57693 0.054,-1.26286 -0.32411,-1.25331 z m 2.12646,0.43479 c 0.0829,0.46217 -0.16662,0.73089 -0.37817,0.29731 0.21729,0.80864 0.93291,0.90839 0.37817,-0.29731 z m 1.01155,0.91453 c 0.34695,0.35512 0.2464,1.02031 -0.13767,1.55919 0.79038,-0.35576 0.79159,-1.49833 0.13767,-1.55919 z m -3.69415,0.76877 c 0.19047,0.53198 -0.87715,0.54626 0.0548,1.53688 -0.37946,-0.66821 0.65667,-0.67629 -0.0548,-1.53687 z"
           fill="#d0021b"
           fill-opacity="1"
           id="path31716-7"
           style="stroke-width:1.46618" />
      </g>
      <g
         id="g31957"
         transform="matrix(22.585864,0,0,22.657772,-3018.5934,-4316.9609)"
         style="display:inline;stroke-width:0.167075">
        <g
           id="g31968"
           transform="translate(-2.1166667)"
           style="stroke-width:0.167075">
          <path
             id="path31949"
             style="font-variation-settings:normal;opacity:1;vector-effect:none;fill:#e9ddaf;fill-opacity:1;stroke:#5e501a;stroke-width:0.0293179;stroke-linecap:butt;stroke-linejoin:miter;stroke-miterlimit:4;stroke-dasharray:none;stroke-dashoffset:0;stroke-opacity:1;paint-order:fill markers stroke;stop-color:#000000;stop-opacity:1"
             d="m 138.64986,190.89666 h 9.58987 l 1.0822,2.94032 -1.0822,2.94033 h -9.58987 z"
             sodipodi:nodetypes="cccccc" />
          <path
             d="m 143.18324,191.32666 c -0.72865,0.17354 -1.6737,0.80967 -1.62874,1.63418 l -0.006,0.003 c -0.12858,-0.35021 -0.30944,-0.50598 -0.65024,-0.6607 -0.44952,-0.19507 -0.93773,0 -1.64139,-0.39046 0.46845,0.58595 0.46845,1.36791 1.15214,1.5634 0.46521,0.15472 0.95446,0.0638 1.14681,-0.0784 0.22267,0.76105 0.19027,1.51479 -0.15263,2.27375 -0.0136,-0.36589 -0.11708,-0.81332 -0.2603,-1.13112 -0.0585,0.39098 -0.0199,0.9764 -0.41085,1.36738 0.0199,-0.19549 -0.13695,-0.58542 -0.29271,-0.78091 0,0.38993 0.0387,0.78091 -0.21535,1.17189 h 2.52047 c 0.0544,-0.18294 0.0753,-0.36589 0.0941,-0.38889 -0.0784,0.0491 -0.15367,0.11604 -0.29376,0.14218 0.0387,0 0.0241,-0.33976 0.004,-0.53525 -0.15577,0.39098 -0.38994,0.58647 -0.64397,0.58647 0.27285,-0.39098 0.23417,-0.58647 0.19549,-0.9764 -0.1359,0.33871 -0.25717,0.53106 -0.55616,0.70355 0.39412,-0.82377 0.43803,-1.65592 0.20177,-2.47969 0.26239,0.11917 0.55824,0.0753 0.89068,-0.26554 0.3868,-0.39621 0.0983,-1.17242 0.54675,-1.75858 z m -0.34499,4.58326 c 0.002,0 0.003,-0.001 0.004,-0.002 -0.001,0 -0.002,0.001 -0.004,0.002 z"
             fill="#d0021b"
             fill-opacity="1"
             id="path31953"
             style="font-variation-settings:normal;vector-effect:none;fill:#008000;fill-opacity:1;stroke-width:0.232884;stroke-linecap:butt;stroke-linejoin:miter;stroke-miterlimit:4;stroke-dasharray:none;stroke-dashoffset:0;stroke-opacity:1;stop-color:#000000" />
          <path
             d="m 151.9178,191.4964 c -0.77874,0.37865 0.0878,1.48902 -0.72479,1.86614 0.21379,-0.42227 0.30131,-1.15391 -0.38664,-1.64964 v 3e-5 c 0.55926,0.89769 -0.38554,0.9846 0.10405,2.28961 0.009,0.0205 0.0167,0.041 0.024,0.0622 -0.008,-0.0211 -0.0163,-0.0418 -0.024,-0.0622 -0.16616,-0.39375 -0.56848,-0.67647 -0.46638,-1.4277 -0.90008,1.35539 0.6013,1.74601 0.38935,2.88568 -0.19698,-0.50969 -0.93585,-0.37093 -0.64177,-0.92137 -0.79508,0.62816 0.66241,0.97191 -0.24628,1.63842 h 3.39982 c -0.43731,-0.34799 -0.37731,-1.05683 -0.0905,-0.90313 -0.14253,-0.41645 -0.53106,-0.10114 -0.55017,0.2202 -0.15148,-0.99233 0.84001,-1.05968 0.72465,-2.20349 -0.18894,0.66041 -0.7147,0.63827 -0.90314,0.53892 0.67181,-0.31757 0.89444,-1.21807 0.16707,-1.5708 0.22438,0.27895 0.15377,1.20563 -0.32383,0.82801 -0.17723,-0.14013 -0.68368,-0.58678 -0.45143,-1.59088 z m -1.61373,0.0465 c -0.0619,0.002 -0.12633,0.0217 -0.19113,0.0641 0.37022,0.0715 0.56208,0.60088 0.51524,1.18924 0.33491,-0.57693 0.054,-1.26286 -0.32411,-1.25331 z m 2.12646,0.43479 c 0.0829,0.46217 -0.16662,0.73089 -0.37817,0.29731 0.21729,0.80864 0.93291,0.90839 0.37817,-0.29731 z m 1.01155,0.91453 c 0.34695,0.35512 0.2464,1.02031 -0.13767,1.55919 0.79038,-0.35576 0.79159,-1.49833 0.13767,-1.55919 z m -3.69415,0.76877 c 0.19047,0.53198 -0.87715,0.54626 0.0548,1.53688 -0.37946,-0.66821 0.65667,-0.67629 -0.0548,-1.53687 z"
             fill="#d0021b"
             fill-opacity="1"
             id="path31955"
             style="stroke-width:1.46618" />
          <path
             d="m 145.8296,191.4964 c -0.77874,0.37865 0.0878,1.48902 -0.72479,1.86614 0.21379,-0.42227 0.30131,-1.15391 -0.38664,-1.64964 v 3e-5 c 0.55926,0.89769 -0.38554,0.9846 0.10405,2.28961 0.009,0.0205 0.0167,0.041 0.024,0.0622 -0.008,-0.0211 -0.0163,-0.0418 -0.024,-0.0622 -0.16616,-0.39375 -0.56848,-0.67647 -0.46638,-1.4277 -0.90008,1.35539 0.6013,1.74601 0.38935,2.88568 -0.19698,-0.50969 -0.93585,-0.37093 -0.64177,-0.92137 -0.79508,0.62816 0.66241,0.97191 -0.24628,1.63842 h 3.39982 c -0.43731,-0.34799 -0.37731,-1.05683 -0.0905,-0.90313 -0.14253,-0.41645 -0.53106,-0.10114 -0.55017,0.2202 -0.15148,-0.99233 0.84001,-1.05968 0.72465,-2.20349 -0.18894,0.66041 -0.7147,0.63827 -0.90314,0.53892 0.67181,-0.31757 0.89444,-1.21807 0.16707,-1.5708 0.22438,0.27895 0.15377,1.20563 -0.32383,0.82801 -0.17723,-0.14013 -0.68368,-0.58678 -0.45143,-1.59088 z m -1.61373,0.0465 c -0.0619,0.002 -0.12633,0.0217 -0.19113,0.0641 0.37022,0.0715 0.56208,0.60088 0.51524,1.18924 0.33491,-0.57693 0.054,-1.26286 -0.32411,-1.25331 z m 2.12646,0.43479 c 0.0829,0.46217 -0.16662,0.73089 -0.37817,0.29731 0.21729,0.80864 0.93291,0.90839 0.37817,-0.29731 z m 1.01155,0.91453 c 0.34695,0.35512 0.2464,1.02031 -0.13767,1.55919 0.79038,-0.35576 0.79159,-1.49833 0.13767,-1.55919 z m -3.69415,0.76877 c 0.19047,0.53198 -0.87715,0.54626 0.0548,1.53688 -0.37946,-0.66821 0.65667,-0.67629 -0.0548,-1.53687 z"
             fill="#d0021b"
             fill-opacity="1"
             id="path31959"
             style="stroke-width:1.46618" />
          <path
             d="m 156.68033,191.4964 c -0.77874,0.37865 0.0878,1.48902 -0.72479,1.86614 0.21379,-0.42227 0.30131,-1.15391 -0.38664,-1.64964 v 3e-5 c 0.55926,0.89769 -0.38554,0.9846 0.10405,2.28961 0.009,0.0205 0.0167,0.041 0.024,0.0622 -0.008,-0.0211 -0.0163,-0.0418 -0.024,-0.0622 -0.16616,-0.39375 -0.56848,-0.67647 -0.46638,-1.4277 -0.90008,1.35539 0.6013,1.74601 0.38935,2.88568 -0.19698,-0.50969 -0.93585,-0.37093 -0.64177,-0.92137 -0.79508,0.62816 0.66241,0.97191 -0.24628,1.63842 h 3.39982 c -0.43731,-0.34799 -0.37731,-1.05683 -0.0905,-0.90313 -0.14253,-0.41645 -0.53106,-0.10114 -0.55017,0.2202 -0.15148,-0.99233 0.84001,-1.05968 0.72465,-2.20349 -0.18894,0.66041 -0.7147,0.63827 -0.90314,0.53892 0.67181,-0.31757 0.89444,-1.21807 0.16707,-1.5708 0.22438,0.27895 0.15377,1.20563 -0.32383,0.82801 -0.17723,-0.14013 -0.68368,-0.58678 -0.45143,-1.59088 z m -1.61373,0.0465 c -0.0619,0.002 -0.12633,0.0217 -0.19113,0.0641 0.37022,0.0715 0.56208,0.60088 0.51524,1.18924 0.33491,-0.57693 0.054,-1.26286 -0.32411,-1.25331 z m 2.12646,0.43479 c 0.0829,0.46217 -0.16662,0.73089 -0.37817,0.29731 0.21729,0.80864 0.93291,0.90839 0.37817,-0.29731 z m 1.01155,0.91453 c 0.34695,0.35512 0.2464,1.02031 -0.13767,1.55919 0.79038,-0.35576 0.79159,-1.49833 0.13767,-1.55919 z m -3.69415,0.76877 c 0.19047,0.53198 -0.87715,0.54626 0.0548,1.53688 -0.37946,-0.66821 0.65667,-0.67629 -0.0548,-1.53687 z"
             fill="#d0021b"
             fill-opacity="1"
             id="path31961"
             style="stroke-width:1.46618" />
        </g>
      </g>
    </g>
  </g>
</svg>
