<?xml version="1.0" encoding="UTF-8" standalone="no"?>
<svg
   xmlns:dc="http://purl.org/dc/elements/1.1/"
   xmlns:cc="http://creativecommons.org/ns#"
   xmlns:rdf="http://www.w3.org/1999/02/22-rdf-syntax-ns#"
   xmlns:svg="http://www.w3.org/2000/svg"
   xmlns="http://www.w3.org/2000/svg"
   xmlns:sodipodi="http://sodipodi.sourceforge.net/DTD/sodipodi-0.dtd"
   xmlns:inkscape="http://www.inkscape.org/namespaces/inkscape"
   width="300"
   height="300"
   viewBox="0 0 300 300"
   version="1.1"
   id="svg21608"
   inkscape:version="1.0.1 (3bc2e813f5, 2020-09-07)"
   sodipodi:docname="decipher.svg">
  <defs
     id="defs21602" />
  <sodipodi:namedview
     id="base"
     pagecolor="#ffffff"
     bordercolor="#666666"
     borderopacity="1.0"
     inkscape:pageopacity="0.0"
     inkscape:pageshadow="2"
     inkscape:zoom="0.98994949"
     inkscape:cx="633.23103"
     inkscape:cy="308.38281"
     inkscape:document-units="px"
     inkscape:current-layer="layer1"
     inkscape:document-rotation="0"
     showgrid="false"
     units="px"
     width="300px" />
  <metadata
     id="metadata21605">
    <rdf:RDF>
      <cc:Work
         rdf:about="">
        <dc:format>image/svg+xml</dc:format>
        <dc:type
           rdf:resource="http://purl.org/dc/dcmitype/StillImage" />
        <dc:title />
      </cc:Work>
    </rdf:RDF>
  </metadata>
  <g
     inkscape:label="Layer 1"
     inkscape:groupmode="layer"
     id="layer1">
    <path
       d="m 194.68053,14.623914 c -23.23257,0 -46.47674,8.842291 -64.17292,26.537483 -34.10009,34.100187 -35.33753,88.768563 -3.72354,124.370043 l -9.17327,9.15344 7.70152,7.70162 9.15472,-9.17228 c 35.6003,31.61429 90.26798,30.37615 124.36876,-3.72404 35.39048,-35.38998 35.39108,-92.9383 0,-128.32789 C 241.1414,23.466205 217.91468,14.623518 194.68043,14.623518 Z m 0,10.789287 c 20.43086,0 40.853,7.81178 56.47299,23.431868 31.23918,31.239285 31.23859,81.723641 0,112.961441 -29.94949,29.94939 -77.57354,31.17989 -108.98426,3.706 l 0.12592,-0.13485 c -1.36595,-1.19194 -2.71336,-2.42423 -4.01406,-3.72404 -1.28276,-1.28177 -2.49255,-2.61312 -3.66961,-3.95785 l -0.12592,0.13485 C 107.0099,126.42 108.241,78.794752 138.19029,48.845466 153.81078,33.225377 174.24917,25.413498 194.68013,25.413498 Z m 0,10.934945 c -17.61775,0 -35.24116,6.742696 -48.71455,20.215696 -26.94788,26.948081 -26.94788,70.467438 0,97.413738 5.89383,5.89542 12.57357,10.50729 19.70723,13.82331 -14.47892,-11.09409 -23.81381,-28.55825 -23.81381,-48.20857 0,-8.90654 1.91378,-17.37234 5.3592,-24.993845 -2.42106,11.906855 0.25581,23.761555 8.41067,31.914725 14.28884,14.29013 39.95733,11.80969 57.32512,-5.5576 17.36768,-17.36789 19.84733,-43.035984 5.55671,-57.326115 -1.38033,-1.380725 -2.873,-2.59963 -4.44946,-3.670002 26.23179,5.026533 46.47327,26.937769 48.97028,53.983917 2.58079,-20.384361 -3.9641,-41.690656 -19.65369,-57.380946 -13.4734,-13.473396 -31.07945,-20.215697 -48.6972,-20.215697 z m -91.18238,139.572204 -78.359928,78.35943 20.089076,20.08977 78.360622,-78.35983 -20.09036,-20.08977 z m -79.577147,92.49121 -9.299889,9.28075 7.684069,7.68417 9.281446,-9.29969 -7.665626,-7.66562 z"
       fill="#000000"
       fill-opacity="1"
       id="path14802"
       style="fill:#333333;stroke-width:0.0488452" />
  </g>
</svg>
