<?xml version="1.0" encoding="UTF-8" standalone="no"?>
<svg
   width="300"
   height="300"
   viewBox="0 0 300 300"
   version="1.1"
   id="svg21608"
   inkscape:version="1.2.2 (732a01da63, 2022-12-09)"
   sodipodi:docname="expand-farm.svg"
   xmlns:inkscape="http://www.inkscape.org/namespaces/inkscape"
   xmlns:sodipodi="http://sodipodi.sourceforge.net/DTD/sodipodi-0.dtd"
   xmlns="http://www.w3.org/2000/svg"
   xmlns:svg="http://www.w3.org/2000/svg"
   xmlns:rdf="http://www.w3.org/1999/02/22-rdf-syntax-ns#"
   xmlns:cc="http://creativecommons.org/ns#"
   xmlns:dc="http://purl.org/dc/elements/1.1/">
  <defs
     id="defs21602" />
  <sodipodi:namedview
     id="base"
     pagecolor="#ffffff"
     bordercolor="#666666"
     borderopacity="1.0"
     inkscape:pageopacity="0.0"
     inkscape:pageshadow="2"
     inkscape:zoom="0.98994949"
     inkscape:cx="633.23103"
     inkscape:cy="308.38281"
     inkscape:document-units="px"
     inkscape:current-layer="layer1"
     inkscape:document-rotation="0"
     showgrid="false"
     units="px"
     width="300px"
     inkscape:showpageshadow="2"
     inkscape:pagecheckerboard="0"
     inkscape:deskcolor="#d1d1d1" />
  <metadata
     id="metadata21605">
    <rdf:RDF>
      <cc:Work
         rdf:about="">
        <dc:format>image/svg+xml</dc:format>
        <dc:type
           rdf:resource="http://purl.org/dc/dcmitype/StillImage" />
        <dc:title />
      </cc:Work>
    </rdf:RDF>
  </metadata>
  <g
     inkscape:label="Layer 1"
     inkscape:groupmode="layer"
     id="layer1">
    <path
       id="path21984"
       style="font-weight:800;font-size:8.64306px;line-height:1.25;font-family:'Open Sans';-inkscape-font-specification:'Open Sans Ultra-Bold';font-variation-settings:normal;letter-spacing:0px;word-spacing:0px;display:inline;vector-effect:none;fill:#008000;fill-opacity:1;stroke-width:24.3118;stroke-linecap:butt;stroke-linejoin:miter;stroke-miterlimit:4;stroke-dasharray:none;stroke-dashoffset:0;stroke-opacity:1;-inkscape-stroke:none;paint-order:stroke fill markers;stop-color:#000000"
       d="M 55.145234,166.92745 H 13.515867 V 136.93632 H 55.145234 V 95.866578 h 30.102927 v 41.069742 h 41.629229 v 29.99113 H 85.248161 V 207.3255 H 55.145234 Z M 195.85322,45.419895 105.22281,97.710011 v 32.571599 h 28.28253 v 43.30093 h -28.28253 v 28.70745 l 90.63041,52.29012 90.63091,-52.29012 V 97.710011 Z m 51.23494,40.19054 c -0.34094,0.486297 -0.69988,0.958443 -1.03051,1.439211 -0.34094,0.486301 -0.6278,0.962305 -0.91856,1.453881 -0.29205,0.491444 -0.57379,0.981603 -0.83624,1.478193 -0.24312,0.495303 -0.49659,1.006048 -0.72429,1.50727 -0.24316,0.505595 -0.43743,1.011191 -0.65611,1.521933 -0.19427,0.510742 -0.38854,1.021487 -0.57379,1.536603 -0.19427,0.515888 -0.34093,1.030489 -0.49143,1.546249 -0.14538,0.515888 -0.29205,1.030492 -0.43743,1.551012 -0.14538,0.519747 -0.29205,1.049787 -0.38851,1.575453 -0.10293,0.524894 -0.19427,1.04078 -0.29205,1.56079 -0.10293,0.52489 -0.19427,1.04978 -0.29204,1.57545 -0.1029,0.52489 -0.14538,1.04078 -0.24313,1.56079 -0.14538,1.04593 -0.29205,2.1006 -0.38854,3.13624 -0.10293,1.03564 -0.19427,2.06162 -0.34094,3.08272 -0.10289,1.02535 -0.19423,2.0422 -0.29201,3.04387 -0.10293,1.00219 -0.19427,1.97414 -0.34094,2.94661 -0.0515,0.4863 -0.14538,0.97775 -0.19426,1.45388 -0.1029,0.4863 -0.14539,0.94301 -0.24313,1.41001 -0.10293,0.4863 -0.14538,0.92886 -0.24316,1.38583 -0.10293,0.43741 -0.19427,0.89926 -0.29205,1.34208 -0.10289,0.43741 -0.24314,0.88511 -0.34091,1.31275 -0.14538,0.43741 -0.24315,0.85552 -0.38852,1.27364 -0.14538,0.43741 -0.29204,0.83108 -0.48631,1.23504 -0.14537,0.38853 -0.33963,0.80278 -0.54933,1.19131 -0.19426,0.38852 -0.38853,0.76289 -0.61238,1.13726 -0.19426,0.38853 -0.43741,0.73846 -0.69986,1.09353 -0.24315,0.34093 -0.50045,0.70501 -0.77833,1.04079 -0.14538,0.14537 -0.29204,0.34092 -0.43741,0.50559 -0.14538,0.14538 -0.29204,0.34093 -0.43742,0.4863 -0.29203,0.29204 -0.53004,0.54934 -0.79763,0.80664 -0.24315,0.24315 -0.53004,0.51074 -0.79763,0.75389 -0.24315,0.24315 -0.53519,0.4863 -0.79763,0.7153 -0.24315,0.24315 -0.51975,0.43741 -0.7822,0.67155 -0.24315,0.19427 -0.51975,0.43742 -0.78219,0.63168 -0.24315,0.19426 -0.51075,0.38852 -0.76805,0.58793 -0.24315,0.19426 -0.51074,0.38853 -0.76804,0.54934 -0.24315,0.19426 -0.51589,0.34092 -0.76804,0.50559 -0.24315,0.14538 -0.50046,0.34093 -0.75389,0.4863 -0.24316,0.14538 -0.5056,0.29204 -0.7539,0.43742 -0.24315,0.14537 -0.50559,0.24314 -0.75389,0.38852 -0.24315,0.14537 -0.49144,0.24315 -0.73974,0.34093 -0.24315,0.10292 -0.4863,0.19426 -0.7243,0.29203 -0.24315,0.10293 -0.4863,0.19427 -0.72431,0.29204 -0.24315,0.10292 -0.4863,0.14538 -0.7243,0.24315 -0.24315,0.10292 -0.4863,0.14537 -0.7243,0.19426 -0.24315,0.0515 -0.4863,0.14538 -0.7153,0.19427 -0.24315,0.0515 -0.4863,0.10291 -0.71529,0.14537 -0.24315,0.0257 -0.4863,0.10292 -0.69986,0.10292 -0.24315,0.0257 -0.4863,0.0515 -0.69986,0.10292 -0.24315,0.0129 -0.4863,0.0257 -0.69472,0.0515 -0.24314,0.007 -0.43741,0.003 -0.6857,0 -0.24315,-0.004 -0.43741,-0.0128 -0.68571,-0.0257 -0.24315,-0.0129 -0.43741,-0.0257 -0.67027,-0.0515 -0.19426,-0.0257 -0.43741,-0.0515 -0.67155,-0.10293 -0.19427,-0.0257 -0.43742,-0.10291 -0.67156,-0.10291 -0.19426,-0.0515 -0.43741,-0.10293 -0.65612,-0.14538 -0.19426,-0.0515 -0.43741,-0.10292 -0.65611,-0.14537 -0.19427,-0.0515 -0.43741,-0.14538 -0.64712,-0.19427 -0.19426,-0.10291 -0.43741,-0.14537 -0.65611,-0.19426 -0.43742,-0.14537 -0.85038,-0.34092 -1.27364,-0.53519 0.19426,0.66642 0.38852,1.33707 0.54934,1.99833 0.19426,0.66641 0.33963,1.3372 0.50559,2.00335 0.14538,0.66641 0.33964,1.32253 0.4863,1.98392 0.14537,0.66641 0.29204,1.33217 0.43741,2.00321 0.14538,0.66641 0.24315,1.33231 0.38852,1.99846 0.10293,0.66641 0.24316,1.33231 0.34093,2.00335 0.10292,0.66641 0.19426,1.3323 0.29204,2.00321 0.10292,0.66641 0.14537,1.33231 0.24315,1.99846 0.10292,0.66641 0.14537,1.3323 0.19426,1.99846 0.0515,0.66641 0.10292,1.3323 0.14537,2.00334 0.0515,0.67156 0.10292,1.33231 0.10292,2.00322 0.0257,0.66641 0.0515,1.3323 0.10292,2.00335 0.0129,0.6664 0.0129,1.3323 0.0129,1.99845 -0.002,0.66641 -0.01,1.33231 -0.0257,1.99846 -0.0129,0.66641 -0.0515,1.34684 -0.10292,2.01299 -0.0257,0.66641 -0.10292,1.33231 -0.14537,1.99846 -0.0515,0.67156 -0.10292,1.3323 -0.19427,2.00322 -0.0514,0.6664 -0.14537,1.3323 -0.19426,2.00334 -0.10292,0.66641 -0.14537,1.33231 -0.24315,2.00335 -0.10292,0.67155 -0.19426,1.34684 -0.29203,2.01299 -0.10292,0.66641 -0.24315,1.3323 -0.38853,2.00334 -0.14537,0.67027 -0.24315,1.33231 -0.38852,1.99846 -0.14538,0.66641 -0.29204,1.33218 -0.4863,1.99833 -0.14538,0.66641 -0.34093,1.3323 -0.51975,2.00334 -0.19426,0.66641 -0.38852,1.33231 -0.56349,2.00335 -0.19426,0.66641 -0.38852,1.3323 -0.61237,2.00322 -0.19427,0.66641 -0.43742,1.3323 -0.67028,1.99845 -0.24314,0.66641 -0.48629,1.33231 -0.71529,1.99846 -0.24315,0.66641 -0.50045,1.32253 -0.76805,1.98868 -0.24314,0.66641 -0.54033,1.33719 -0.82207,2.00335 -0.29204,0.6664 -0.57893,1.33719 -0.87482,1.99845 -0.29204,0.66641 -0.60337,1.32253 -0.91857,1.98379 0.4863,-0.29203 0.934,-0.55448 1.38582,-0.83623 0.43742,-0.29203 0.88512,-0.57378 1.3031,-0.86581 0.43742,-0.29204 0.80664,-0.57893 1.19131,-0.87997 0.38853,-0.29204 0.75389,-0.59823 1.10897,-0.90442 0.34092,-0.29203 0.71015,-0.62652 1.04078,-0.94815 0.34092,-0.34092 0.65226,-0.64197 0.9623,-0.9726 0.29204,-0.34092 0.61238,-0.66641 0.90442,-1.01119 0.29204,-0.34092 0.57378,-0.696 0.84652,-1.05494 0.29203,-0.34092 0.53904,-0.73459 0.79763,-1.11411 0.24315,-0.38852 0.51074,-0.76804 0.75389,-1.16171 0.24315,-0.38853 0.4863,-0.80278 0.7153,-1.2209 0.24315,-0.43741 0.43741,-0.86067 0.68571,-1.3031 0.24314,-0.43741 0.43741,-0.89026 0.67155,-1.35661 0.19426,-0.4863 0.43741,-0.93401 0.65612,-1.42468 0.19426,-0.49144 0.43741,-1.00219 0.65612,-1.52194 0.19426,-0.51589 0.43741,-1.04078 0.65611,-1.58999 0.14538,1.25434 0.24315,2.44089 0.33964,3.56414 0.0515,0.55962 0.10292,1.09867 0.14538,1.62897 0.0514,0.53518 0.10292,1.06522 0.10292,1.57532 0.0257,0.51074 0.0515,1.0112 0.10292,1.5074 0.0129,0.49144 0.008,0.9726 0,1.45388 -0.008,0.4863 -0.0257,0.96231 -0.0515,1.43921 -0.0257,0.4863 -0.10293,0.9533 -0.14538,1.42468 -0.0515,0.4863 -0.14537,0.934 -0.24315,1.41014 -0.10292,0.48629 -0.19426,0.95844 -0.34092,1.43921 -0.10292,0.24315 -0.14538,0.4863 -0.19427,0.7243 -0.10291,0.24315 -0.14537,0.49145 -0.24314,0.73845 -0.10292,0.24315 -0.19427,0.50046 -0.29204,0.7539 -0.10292,0.24315 -0.19426,0.4953 -0.29204,0.75389 -0.19426,0.51074 -0.43741,1.04078 -0.7243,1.57545 -0.29203,0.53519 -0.56863,1.07938 -0.89026,1.64338 -0.34092,0.56478 -0.67542,1.13341 -1.05493,1.72624 -0.38853,0.59307 -0.77834,1.20545 -1.2209,1.83314 0.19426,0 0.43742,-0.004 0.61753,-0.0129 0.19426,-0.01 0.38852,-0.0257 0.60337,-0.0515 0.19426,-0.0257 0.38852,-0.0515 0.60337,-0.10292 0.19426,-0.0257 0.38852,-0.0515 0.60337,-0.10293 0.19426,-0.0257 0.38852,-0.10291 0.60337,-0.14537 0.19426,-0.0515 0.38852,-0.10292 0.58793,-0.14538 0.19426,-0.0514 0.38853,-0.14537 0.58793,-0.19426 0.19427,-0.10292 0.38853,-0.14537 0.57379,-0.19426 0.19426,-0.10292 0.38852,-0.14537 0.58793,-0.24315 0.19426,-0.10292 0.38852,-0.19426 0.56349,-0.29203 0.19426,-0.10293 0.38852,-0.19427 0.57378,-0.29204 0.19426,-0.10292 0.38852,-0.19426 0.56349,-0.34093 0.19426,-0.10291 0.34092,-0.24314 0.54933,-0.38852 0.19427,-0.14537 0.38853,-0.24315 0.54934,-0.38852 0.19426,-0.14538 0.38853,-0.29204 0.54934,-0.43741 0.19426,-0.14538 0.33964,-0.29204 0.53519,-0.43742 0.34092,-0.29203 0.69471,-0.66126 1.04078,-1.01119 0.34092,-0.34092 0.68056,-0.7153 1.01119,-1.11411 0.34092,-0.38853 0.65097,-0.81179 0.9726,-1.24534 0.33963,-0.43741 0.63682,-0.88512 0.94815,-1.35662 0.29204,-0.4863 0.60723,-0.96745 0.90442,-1.47806 0.29203,-0.51075 0.58278,-1.04979 0.86581,-1.60466 0.29204,-0.54934 0.55449,-1.12312 0.82208,-1.71157 0.24315,-0.59308 0.53004,-1.20545 0.77833,-1.8379 0.0515,0.63167 0.14538,1.32253 0.19427,2.0422 0.0515,0.7243 0.10292,1.48295 0.14537,2.24636 0.0515,0.76805 0.10292,1.54137 0.10292,2.29989 0.0257,0.7629 0.0515,1.51216 0.0515,2.21729 0.009,0.70501 0.0128,1.37116 0,1.97414 -0.009,0.29204 -0.0257,0.58279 -0.0515,0.85038 -0.0129,0.24315 -0.0515,0.51589 -0.10292,0.73974 -0.0257,0.19426 -0.0515,0.43741 -0.10292,0.60337 -0.0257,0.19426 -0.10292,0.34093 -0.10292,0.43741 -0.0515,0.14538 -0.10292,0.19427 -0.14537,0.29204 -0.0257,0.0257 -0.0515,0.0515 -0.10292,0.10292 0.19426,-0.0257 0.38852,-0.10292 0.56349,-0.14537 0.19426,-0.0515 0.43741,-0.10293 0.63167,-0.14538 0.19426,-0.0515 0.38852,-0.14537 0.57378,-0.19426 0.19426,-0.0515 0.38852,-0.14538 0.56349,-0.19426 0.34092,-0.14538 0.705,-0.29204 1.03049,-0.43741 0.34092,-0.14538 0.63167,-0.34093 0.92886,-0.49145 0.29203,-0.14537 0.57378,-0.34092 0.84652,-0.51975 0.29203,-0.19426 0.54419,-0.33963 0.80663,-0.51974 0.51975,-0.34093 1.01634,-0.69472 1.52195,-1.0112 h 0.0129 c 0.0514,-0.0257 0.1029,-0.0515 0.1029,-0.0515 -0.0129,0.0129 -0.0258,0.0257 -0.0515,0.0515 -0.0129,0.008 -0.0258,0.0116 -0.0514,0.0129 -0.0258,0.0257 -0.0515,0.10292 -0.10293,0.14537 -0.0258,0.10292 -0.0515,0.14537 -0.10293,0.24315 -0.0514,0.19426 -0.14535,0.43741 -0.19424,0.73845 -0.14538,0.59823 -0.29204,1.39059 -0.48631,2.31455 -0.10292,0.43741 -0.19426,0.94816 -0.29203,1.46842 -0.10292,0.51589 -0.24315,1.05494 -0.33964,1.6192 -0.14538,0.55448 -0.24315,1.14241 -0.38853,1.7261 -0.14537,0.57893 -0.29203,1.16171 -0.48629,1.75531 h -64.9518 c 0.19426,-0.29204 0.38852,-0.63168 0.58793,-0.94301 0.19426,-0.29204 0.38852,-0.63168 0.54934,-0.94816 0.19426,-0.29203 0.34092,-0.63167 0.50559,-0.94815 0.14538,-0.29204 0.29204,-0.63167 0.4863,-0.94815 0.14537,-0.29204 0.29204,-0.63168 0.43742,-0.94816 0.14537,-0.29203 0.29203,-0.63167 0.38852,-0.94815 0.14537,-0.29204 0.24315,-0.63168 0.34092,-0.94816 0.10292,-0.29203 0.24315,-0.63167 0.34093,-0.94815 0.10291,-0.29204 0.19425,-0.63167 0.29203,-0.94816 0.10292,-0.29203 0.19426,-0.63167 0.24315,-0.94815 0.14538,-0.63167 0.33964,-1.25948 0.43741,-1.89142 0.14538,-0.63167 0.24315,-1.25949 0.34092,-1.89155 0.10293,-0.63167 0.19427,-1.25948 0.24316,-1.89141 0.10291,-0.63168 0.10291,-1.26464 0.14537,-1.89143 0.0515,-0.63167 0.10292,-1.26463 0.14538,-1.89154 0.0257,-0.63168 0.0515,-1.26464 0.0515,-1.89142 0.0128,-0.63168 0.0257,-1.26464 0.0257,-1.89155 0.005,-1.25949 -0.0126,-2.52348 -0.0257,-3.78284 -0.0128,-1.25949 -0.0257,-2.50907 -0.0257,-3.76843 0.24315,0.29204 0.5056,0.64711 0.75389,1.00219 0.24315,0.34092 0.49145,0.7243 0.73974,1.11411 0.24315,0.38853 0.49531,0.7822 0.73974,1.19131 0.24315,0.38852 0.4863,0.82593 0.71401,1.25948 0.24315,0.43741 0.43742,0.87997 0.68571,1.32742 0.19426,0.43741 0.43741,0.90956 0.65612,1.37129 0.19427,0.43741 0.38852,0.92885 0.60337,1.39547 0.19426,0.4863 0.38852,0.93786 0.57378,1.41001 0.19426,0.48629 0.34092,0.9533 0.52103,1.42467 0.14538,0.4863 0.29204,0.93401 0.43742,1.3956 0.14537,0.43741 0.24314,0.91857 0.38852,1.37116 0.10292,0.43741 0.19426,0.88511 0.29204,1.31288 0.10292,0.43741 0.14537,0.86581 0.24315,1.27364 0.0515,0.38852 0.10292,0.80664 0.14537,1.1913 0.0257,0.38852 0.0515,0.75904 0.10292,1.11283 10e-4,0.19426 -0.006,0.34092 -0.0129,0.50559 -0.007,0.14538 -0.0257,0.34093 -0.0515,0.49659 0.29204,-0.29203 0.62781,-0.63167 0.91856,-0.9623 0.29204,-0.34093 0.57379,-0.65097 0.84653,-0.98675 0.29203,-0.34092 0.54033,-0.67156 0.79763,-1.01119 0.24315,-0.34093 0.49144,-0.69086 0.7243,-1.04079 0.24315,-0.34092 0.4863,-0.69471 0.68571,-1.05493 0.19426,-0.34092 0.43741,-0.71916 0.61752,-1.07938 0.19426,-0.34092 0.38852,-0.7243 0.57378,-1.09353 0.19426,-0.38852 0.38853,-0.74874 0.53519,-1.12311 0.14537,-0.38853 0.34092,-0.7436 0.48629,-1.12312 0.14538,-0.38853 0.29204,-0.76805 0.43742,-1.15271 0.14537,-0.38853 0.29203,-0.7629 0.38852,-1.15271 0.14538,-0.38852 0.24315,-0.77833 0.38853,-1.16171 0.10291,-0.38853 0.19426,-0.77319 0.33963,-1.16172 0.10292,-0.38852 0.19426,-0.78348 0.29204,-1.17715 0.10292,-0.38852 0.19426,-0.7822 0.29203,-1.17715 0.10293,-0.38853 0.14538,-0.78348 0.24316,-1.17715 0.14537,-0.78735 0.29203,-1.57057 0.38852,-2.35817 0.14538,-0.78219 0.24315,-1.56567 0.34092,-2.34375 0.10292,-0.77834 0.19427,-1.55101 0.24315,-2.31443 0.10292,-0.76804 0.14538,-1.52682 0.19426,-2.27556 0.14538,-1.49762 0.24316,-2.96128 0.38853,-4.35675 0.10292,-0.69986 0.14538,-1.38582 0.19426,-2.05674 0.10292,-0.67155 0.14538,-1.31777 0.24315,-1.94494 0.24315,0.51075 0.43741,1.04079 0.68571,1.57533 0.19426,0.53905 0.43741,1.08452 0.64196,1.64351 0.19427,0.55963 0.43742,1.13341 0.63168,1.71156 0.19426,0.57893 0.38852,1.17201 0.58793,1.76985 0.19426,0.59822 0.38852,1.19645 0.57378,1.80883 0.19426,0.60723 0.34093,1.22475 0.51975,1.85256 0.14538,0.62267 0.34092,1.24534 0.50559,1.87688 0.14538,0.63168 0.29204,1.26978 0.43742,1.90609 0.14537,0.63682 0.29203,1.26464 0.43741,1.90609 0.14537,0.63682 0.24315,1.29332 0.38852,1.93027 0.10292,0.64197 0.24315,1.27878 0.33964,1.91586 0.10292,0.63682 0.19426,1.2685 0.29204,1.9012 0.10292,0.63167 0.19426,1.27878 0.24315,1.90596 0.10292,0.62781 0.14537,1.24533 0.19426,1.86234 0.0515,0.61752 0.10292,1.2299 0.14537,1.83314 0.0257,0.60337 0.0515,1.2016 0.10293,1.79416 0.29203,-0.61238 0.54933,-1.22475 0.80663,-1.83301 0.24315,-0.61238 0.51975,-1.22475 0.76805,-1.83803 0.24315,-0.61238 0.48629,-1.22475 0.71529,-1.83314 0.24315,-0.61238 0.43742,-1.22475 0.65612,-1.83314 0.19426,-0.61238 0.43741,-1.22476 0.61238,-1.8379 0.19426,-0.61238 0.38852,-1.21061 0.57378,-1.8235 0.19426,-0.60723 0.38852,-1.22475 0.53519,-1.83301 0.14537,-0.60723 0.34092,-1.22475 0.48629,-1.83314 0.14538,-0.61238 0.29204,-1.22475 0.43741,-1.83314 0.14538,-0.60723 0.29204,-1.2106 0.38853,-1.82336 0.14538,-0.60723 0.24315,-1.22476 0.34092,-1.83803 0.10292,-0.60723 0.19427,-1.22476 0.29204,-1.83314 0.10292,-0.60723 0.19426,-1.2106 0.24315,-1.82337 0.10292,-0.60723 0.14537,-1.22475 0.19426,-1.83314 0.0515,-0.60723 0.14538,-1.2106 0.19426,-1.82336 0.0515,-0.60723 0.10292,-1.22475 0.14538,-1.83314 0.0257,-0.60723 0.0515,-1.22476 0.10292,-1.8379 0.0257,-0.60723 0.0515,-1.2106 0.0515,-1.8235 0.009,-0.60722 0.005,-1.22475 0,-1.83301 -0.005,-0.60723 -0.008,-1.22475 -0.0257,-1.83314 -0.0129,-0.61237 -0.0515,-1.22604 -0.10293,-1.83314 -0.0257,-0.61237 -0.10291,-1.2106 -0.14537,-1.82336 -0.0515,-0.61238 -0.10292,-1.22604 -0.14537,-1.83803 -0.0515,-0.61238 -0.14538,-1.22475 -0.19427,-1.83314 -0.10292,-0.61238 -0.14537,-1.22475 -0.24315,-1.83314 -0.10292,-0.61238 -0.19426,-1.22475 -0.29203,-1.83301 -0.10292,-0.61238 -0.19427,-1.22476 -0.34093,-1.83803 -0.10292,-0.61238 -0.24315,-1.2209 -0.34092,-1.83314 -0.14538,-0.61238 -0.24315,-1.2209 -0.38852,-1.83314 -0.14538,-0.61238 -0.29204,-1.2209 -0.43742,-1.83791 -0.14537,-0.61237 -0.29203,-1.23504 -0.4863,-1.85256 -0.14537,-0.61238 -0.34092,-1.22089 -0.51974,-1.83803 -0.14538,0.10292 -0.29204,0.24315 -0.4863,0.34092 -0.14538,0.10292 -0.33964,0.19426 -0.53519,0.34092 -0.19426,0.10293 -0.34092,0.19427 -0.56349,0.34093 -0.19426,0.10292 -0.38852,0.19426 -0.61752,0.29204 -0.43741,0.19426 -0.87482,0.38852 -1.34208,0.58793 -0.4863,0.19426 -0.96231,0.38852 -1.4782,0.53518 -0.51588,0.14538 -1.06008,0.33964 -1.61906,0.4863 -0.55963,0.14538 -1.12827,0.29204 -1.72623,0.38853 -0.59823,0.14537 -1.20546,0.24315 -1.8379,0.34092 -0.62782,0.10292 -1.27365,0.19426 -1.93041,0.24315 -0.65611,0.10292 -1.34208,0.10292 -2.02766,0.14538 -0.6857,0.0257 -1.37604,0.0515 -2.08593,0.10292 -0.34093,0.002 -0.696,-0.006 -1.05494,-0.0129 -0.33964,-0.007 -0.71915,-0.0112 -1.08452,-0.0257 -0.34093,-0.0129 -0.72945,-0.0515 -1.09353,-0.10292 -0.38852,-0.0257 -0.7243,-0.0515 -1.09353,-0.10292 -0.38852,-0.0257 -0.73974,-0.10292 -1.11283,-0.14537 -0.38852,-0.0515 -0.73974,-0.10292 -1.11282,-0.14538 -0.38853,-0.0515 -0.74875,-0.10292 -1.12312,-0.19426 -0.38853,-0.10292 -0.74875,-0.14538 -1.12312,-0.19426 -0.38853,-0.10293 -0.74875,-0.14538 -1.12312,-0.24315 -0.38852,-0.10292 -0.7629,-0.19426 -1.13727,-0.29204 -0.38852,-0.10292 -0.74875,-0.19426 -1.12312,-0.29204 -0.38852,-0.10292 -0.74874,-0.24315 -1.12312,-0.34092 -0.29203,-0.10292 -0.53904,-0.14538 -0.80664,-0.24315 -0.29203,-0.10292 -0.53518,-0.19426 -0.79763,-0.29204 -0.24315,-0.10292 -0.51589,-0.19426 -0.76804,-0.29203 -0.24315,-0.10292 -0.49531,-0.19427 -0.73974,-0.29204 -0.24315,-0.10292 -0.4863,-0.19426 -0.71401,-0.34092 -0.24315,-0.10292 -0.4863,-0.24315 -0.69986,-0.33964 -0.24315,-0.14537 -0.43741,-0.24315 -0.67156,-0.38852 -0.19426,-0.14538 -0.43741,-0.24316 -0.64196,-0.38853 -0.43741,-0.24315 -0.84652,-0.54419 -1.24534,-0.83623 -0.38852,-0.29204 -0.78734,-0.59308 -1.16171,-0.90441 -0.38853,-0.29204 -0.7436,-0.63682 -1.09353,-0.9726 -0.34093,-0.34093 -0.69471,-0.68571 -1.03049,-1.04078 -0.34092,-0.34093 -0.65612,-0.71015 -0.9726,-1.07938 -0.29204,-0.38853 -0.62267,-0.75904 -0.91856,-1.15271 -0.29204,-0.38853 -0.57893,-0.79763 -0.86582,-1.20545 -0.29204,-0.38853 -0.55449,-0.82208 -0.82208,-1.24534 -0.29203,-0.43741 -0.54033,-0.85038 -0.79763,-1.28856 -0.24315,-0.43742 -0.5056,-0.87997 -0.75389,-1.32742 -0.24315,-0.43741 -0.4863,-0.90441 -0.72431,-1.37116 -0.24315,-0.43741 -0.48629,-0.93915 -0.69985,-1.41013 -0.4863,-0.94816 -0.91857,-1.91098 -1.37116,-2.8931 -0.43741,-0.9816 -0.89412,-1.96925 -1.34208,-2.97092 -0.43741,-1.00605 -0.90956,-2.02278 -1.37116,-3.04387 -0.4863,-1.01634 -0.92886,-2.0422 -1.42467,-3.06819 -0.24315,-0.51074 -0.49531,-1.02534 -0.7539,-1.53647 -0.24315,-0.51074 -0.52489,-1.02663 -0.79763,-1.53647 -0.29204,-0.51075 -0.54033,-1.01634 -0.82208,-1.52194 -0.29203,-0.5056 -0.57892,-1.01634 -0.87482,-1.52194 -0.29204,-0.50045 -0.58793,-0.99704 -0.90441,-1.49273 -0.29204,-0.49659 -0.64197,-0.98674 -0.9726,-1.47819 -0.34092,-0.49145 -0.68571,-0.9726 -1.04078,-1.45388 -0.34093,-0.4863 -0.71916,-0.9623 -1.09353,-1.43921 0.56863,0.29204 1.12826,0.61752 1.68725,0.90441 0.55448,0.29204 1.11411,0.54934 1.65805,0.80664 0.54419,0.24315 1.08452,0.50559 1.61919,0.73845 0.53519,0.24315 1.06523,0.43741 1.58999,0.67156 0.5249,0.19426 1.04593,0.38852 1.56079,0.58793 0.51589,0.19426 1.03049,0.38852 1.53647,0.53519 0.5056,0.14537 1.01119,0.34092 1.5074,0.4863 0.4953,0.14537 0.9919,0.29203 1.4782,0.38852 0.48629,0.14538 0.97259,0.24315 1.45374,0.34092 0.48631,0.10293 0.9533,0.19427 1.42468,0.29204 0.4863,0.10292 0.94815,0.19426 1.41014,0.29204 0.4863,0.10292 0.9147,0.14537 1.37115,0.24315 0.43742,0.10292 0.91857,0.14537 1.37129,0.19426 0.43741,0.0515 0.89026,0.10292 1.32742,0.14537 0.88511,0.10293 1.76019,0.19427 2.61598,0.29204 0.85552,0.10292 1.70179,0.14538 2.53325,0.19426 0.83109,0.0515 1.65316,0.14538 2.4652,0.19426 0.81179,0.0515 1.60942,0.14538 2.39715,0.19427 0.78734,0.10292 1.57056,0.14537 2.34362,0.24314 0.38853,0.0515 0.76804,0.10293 1.15271,0.14538 0.38853,0.0515 0.77319,0.10292 1.15271,0.19426 0.38852,0.10292 0.74874,0.14538 1.12312,0.19427 0.38852,0.10292 0.74874,0.14537 1.12312,0.24315 0.38852,0.10291 0.73974,0.19426 1.11282,0.29203 0.38853,0.10292 0.72945,0.19426 1.09353,0.34092 0.38853,0.14538 0.7346,0.24316 1.09353,0.38853 0.33964,0.14538 0.7346,0.29204 1.09353,0.43741 0.54934,0.24315 1.08967,0.50045 1.60453,0.75389 0.51589,0.24315 1.02148,0.51075 1.5074,0.76805 0.4863,0.24315 0.9533,0.50559 1.41001,0.76804 0.43741,0.24315 0.89926,0.52489 1.32741,0.79763 0.43742,0.29204 0.85553,0.54034 1.26464,0.82208 0.38852,0.29204 0.79763,0.56863 1.17715,0.86582 0.38852,0.29203 0.73845,0.60723 1.09353,0.91856 0.34092,0.29204 0.71015,0.63167 1.04078,0.95845 0.34092,0.34092 0.65612,0.66126 0.9726,1.01119 0.29204,0.33964 0.62267,0.71015 0.91856,1.07938 0.29204,0.38852 0.57378,0.76804 0.84652,1.16171 0.29204,0.38853 0.54934,0.80664 0.80664,1.23505 0.24315,0.43741 0.51074,0.87096 0.75389,1.32741 0.24315,0.43741 0.4863,0.93401 0.7153,1.42468 0.24315,0.49144 0.43741,0.99189 0.67155,1.52193 0.19427,0.53004 0.43742,1.07938 0.64197,1.64351 l 0.14537,-0.10292 c -0.0129,-0.33964 -0.0257,-0.65611 -0.0257,-0.98675 -0.006,-0.34092 -0.007,-0.66126 0,-0.98675 0.006,-0.34092 0.009,-0.66126 0.0257,-0.98674 0.0129,-0.34093 0.0515,-0.65226 0.10293,-0.9726 0.0257,-0.34093 0.10292,-0.63682 0.10292,-0.96231 0.0514,-0.34092 0.10292,-0.64196 0.14537,-0.95844 0.0515,-0.34093 0.10292,-0.63168 0.14538,-0.94816 0.0515,-0.29204 0.14537,-0.63167 0.19426,-0.94815 0.10292,-0.29204 0.14537,-0.62267 0.24315,-0.93401 0.10292,-0.29203 0.14537,-0.61237 0.24315,-0.91856 0.10292,-0.29204 0.19426,-0.61752 0.29203,-0.91856 0.10293,-0.29204 0.19427,-0.60337 0.34093,-0.90442 0.10292,-0.29203 0.24315,-0.59307 0.33964,-0.89026 0.14537,-0.29203 0.24315,-0.59822 0.38852,-0.89026 0.14537,-0.29204 0.24315,-0.58793 0.38852,-0.87997 0.14538,-0.29204 0.29204,-0.57378 0.43741,-0.86582 0.14538,-0.29203 0.29204,-0.57892 0.48631,-0.86581 0.14537,-0.29204 0.29203,-0.56864 0.48629,-0.84652 0.34093,-0.56349 0.68571,-1.11283 1.05494,-1.65805 0.38852,-0.54934 0.75389,-1.09353 1.15271,-1.62897 0.38852,-0.53519 0.80663,-1.05494 1.23504,-1.57533 0.43741,-0.51975 0.86582,-1.03049 1.31777,-1.5366 0.43741,-0.5056 0.90955,-1.00605 1.38569,-1.49273 0.4863,-0.49145 0.96745,-0.97774 1.46855,-1.45388 0.4953,-0.4863 1.00218,-0.93786 1.5218,-1.39547 0.51589,-0.437414 1.04979,-0.89927 1.59012,-1.341957 0.53519,-0.437411 1.07423,-0.879969 1.62885,-1.303228 0.55448,-0.437412 1.11797,-0.841373 1.68725,-1.245338 0.56863,-0.388522 1.14756,-0.802777 1.7261,-1.191302 0.57893,-0.388526 1.16172,-0.768043 1.75055,-1.13727 0.59308,-0.388525 1.1913,-0.734596 1.79416,-1.079378 0.60337,-0.339639 1.20031,-0.694712 1.80882,-1.030493 0.60723,-0.34092 1.2209,-0.64711 1.83314,-0.958443 0.61238,-0.292038 1.2209,-0.627815 1.83302,-0.918565 0.61752,-0.292038 1.24533,-0.578926 1.86234,-0.84652 0.61752,-0.292038 1.23505,-0.53004 1.85256,-0.783482 0.61753,-0.243148 1.23505,-0.4863 1.85258,-0.715298 0.61237,-0.243148 1.22474,-0.437411 1.83315,-0.656115 0.60722,-0.194262 1.21573,-0.437411 1.82335,-0.603371 0.60336,-0.194262 1.21061,-0.339639 1.80881,-0.51975 0.59823,-0.145373 1.18101,-0.292035 1.76985,-0.437411 z" />
  </g>
</svg>
