<?xml version="1.0" encoding="UTF-8" standalone="no"?>
<svg
   width="300"
   height="300"
   viewBox="0 0 300 300"
   version="1.1"
   id="svg21608"
   inkscape:version="1.2 (dc2aeda, 2022-05-15)"
   sodipodi:docname="controlled-burns.svg"
   xmlns:inkscape="http://www.inkscape.org/namespaces/inkscape"
   xmlns:sodipodi="http://sodipodi.sourceforge.net/DTD/sodipodi-0.dtd"
   xmlns="http://www.w3.org/2000/svg"
   xmlns:svg="http://www.w3.org/2000/svg"
   xmlns:rdf="http://www.w3.org/1999/02/22-rdf-syntax-ns#"
   xmlns:cc="http://creativecommons.org/ns#"
   xmlns:dc="http://purl.org/dc/elements/1.1/">
  <defs
     id="defs21602" />
  <sodipodi:namedview
     id="base"
     pagecolor="#ffffff"
     bordercolor="#666666"
     borderopacity="1.0"
     inkscape:pageopacity="0.0"
     inkscape:pageshadow="2"
     inkscape:zoom="0.49869066"
     inkscape:cx="127.33345"
     inkscape:cy="194.50936"
     inkscape:document-units="px"
     inkscape:current-layer="layer1"
     inkscape:document-rotation="0"
     showgrid="false"
     units="px"
     width="300px"
     inkscape:showpageshadow="2"
     inkscape:pagecheckerboard="0"
     inkscape:deskcolor="#d1d1d1"
     inkscape:window-width="1436"
     inkscape:window-height="456"
     inkscape:window-x="0"
     inkscape:window-y="38"
     inkscape:window-maximized="0" />
  <metadata
     id="metadata21605">
    <rdf:RDF>
      <cc:Work
         rdf:about="">
        <dc:format>image/svg+xml</dc:format>
        <dc:type
           rdf:resource="http://purl.org/dc/dcmitype/StillImage" />
        <dc:title />
      </cc:Work>
    </rdf:RDF>
  </metadata>
  <g
     inkscape:label="Layer 1"
     inkscape:groupmode="layer"
     id="layer1">
    <path
       id="path31653"
       style="font-variation-settings:normal;display:inline;vector-effect:none;fill:#d0021b;fill-opacity:1;stroke:none;stroke-width:32.8807;stroke-linecap:butt;stroke-linejoin:miter;stroke-miterlimit:4;stroke-dasharray:none;stroke-dashoffset:0;stroke-opacity:1;paint-order:fill markers stroke;stop-color:#000000"
       inkscape:transform-center-x="9.124125e-05"
       inkscape:transform-center-y="-9.2825625e-05"
       d="M 158.32651,7.8530104 135.13,42.889296 103.28724,15.486434 95.280052,56.723132 55.367649,43.605802 l 8.365723,41.143216 -41.859881,3.178054 23.46148,34.802498 -37.4819606,18.95913 35.0362056,23.18112 -27.387148,31.84244 41.220745,8.02314 -13.117011,39.89669 41.15853,-8.39691 3.162421,41.90654 34.818217,-23.4925 18.94381,37.49759 23.18072,-35.03621 31.84276,27.38715 8.02282,-41.22098 39.91241,13.11733 -8.38136,-41.17433 41.87551,-3.14702 -23.4925,-34.81822 37.49767,-18.94341 -35.02081,-23.18104 27.37143,-31.84252 -41.20535,-8.023142 13.1017,-39.912322 -41.17401,8.381356 -3.14702,-41.875196 -34.80258,23.476795 z m -0.79603,72.1910606 c -1.73651,7.502295 -2.08315,13.967758 -1.55864,19.504547 0.52484,5.536632 1.93536,10.152722 3.72347,13.958342 3.57807,7.61165 8.6772,11.98893 11.32539,14.08318 3.56841,2.82167 6.37477,3.21147 8.47476,2.07103 2.10118,-1.13949 3.50061,-3.81081 4.23738,-7.08833 0.73541,-3.27752 0.81692,-7.1724 0.3015,-10.76466 -0.52165,-3.59226 -1.65802,-6.87368 -3.33383,-8.95772 5.43477,2.6348 9.09722,6.28401 11.21683,10.43756 2.11929,4.15362 2.70714,8.81271 1.97763,13.42872 -0.72664,4.61617 -2.76441,9.18847 -5.87347,13.21089 -3.10714,4.02202 -7.28757,7.48866 -12.30694,9.86119 2.81569,1.48621 8.15308,2.39662 13.4911,0.46741 2.66797,-0.96465 5.34081,-2.64381 7.6958,-5.31234 2.35442,-2.66797 4.38358,-6.32899 5.79537,-11.26333 0.86216,8.54582 -0.33181,15.08921 -2.55343,20.54839 -2.22178,5.45894 -5.47186,9.84133 -8.67736,14.08294 -3.20541,4.2416 -6.37174,8.33302 -8.45904,13.22612 -2.08914,4.89335 -3.09486,10.57921 -1.96256,17.99337 0.2712,-4.8017 3.3324,-9.55873 6.839,-11.55925 1.75453,-1.00094 3.6315,-1.30834 5.32813,-0.59104 1.69726,0.71786 3.21929,2.46602 4.28412,5.57715 -2.14346,-1.14858 -3.86266,-0.69314 -5.03206,0.81094 -1.16971,1.50129 -1.78468,4.04619 -1.73044,7.05722 0.0638,3.01167 0.78406,6.50024 2.32132,9.87691 1.53447,3.37666 3.86776,6.63823 7.13507,9.23808 H 98.585805 c 3.394525,-2.4901 5.680525,-4.81773 7.135065,-7.04159 1.45304,-2.22481 2.08013,-4.3429 2.13437,-6.37174 0.12044,-4.05743 -2.05293,-7.7947 -4.31547,-11.49695 -2.26095,-3.70234 -4.636191,-7.36447 -4.953965,-11.27905 -0.150751,-1.95657 0.211371,-3.97448 1.338494,-6.09114 1.136531,-2.11625 3.058971,-4.33644 6.029001,-6.68313 -2.19769,4.11255 -2.46896,6.93518 -1.54348,9.09786 0.92548,2.16156 3.04509,3.66349 5.62381,5.12522 2.57752,1.4622 5.62078,2.89713 8.38128,4.90722 2.76145,2.01081 5.24278,4.60468 6.71456,8.4127 0.79283,-4.25764 0.78645,-8.16639 0.21137,-11.82438 -0.56711,-3.6579 -1.7003,-7.0699 -3.14671,-10.32844 -2.8941,-6.51707 -7.07748,-12.43448 -10.60912,-18.55425 -3.53164,-6.11946 -6.42088,-12.44621 -6.74559,-19.76912 -0.15075,-3.66158 0.32224,-7.56196 1.68219,-11.8243 1.35955,-4.26203 3.60127,-8.87932 6.9635,-13.94279 -0.76253,5.61272 -0.58785,10.35499 0.18106,14.48812 0.77449,4.13305 2.14641,7.6635 3.76981,10.85846 3.24522,6.38953 7.48746,11.43961 9.9703,17.32328 -3.65798,-9.75023 -4.62805,-17.22078 -4.29975,-23.36799 0.32862,-6.14714 1.96551,-10.96814 3.53643,-15.40723 1.57068,-4.43902 3.07891,-8.50723 3.14702,-13.13257 0.0638,-4.625663 -1.30539,-9.806472 -5.48398,-16.513455 0,0 0,0 0,0 5.13455,3.701694 8.8281,7.839291 11.37245,12.166881 2.54737,4.330544 3.94345,8.856424 4.50243,13.304294 0.55754,4.44771 0.27119,8.82747 -0.54558,12.88323 -0.82299,4.05632 -2.17361,7.78154 -3.77013,10.9363 3.03544,-1.4078 5.28673,-3.16385 6.94811,-5.17219 1.66113,-2.00778 2.71926,-4.26243 3.39636,-6.69853 1.35054,-4.87285 1.12138,-10.43971 0.85609,-15.99931 -0.27119,-5.5596 -0.55435,-11.120713 0.66921,-15.999303 0.61177,-2.438895 1.59477,-4.701995 3.16234,-6.714241 1.56765,-2.013762 3.71198,-3.773162 6.62108,-5.187908 z m -48.23162,1.38675 c 2.82478,-0.06381 5.47633,1.166685 7.69603,3.318197 2.21876,2.149438 4.0107,5.226513 5.14085,8.848605 1.13048,3.622171 1.59788,7.778117 1.15169,12.120057 -0.44348,4.34203 -1.79673,8.86919 -4.29975,13.17947 0.69952,-8.79158 -0.37967,-17.14996 -3.0222,-23.570278 -1.32047,-3.210039 -3.03815,-5.933368 -5.10982,-7.991797 -2.07111,-2.058987 -4.49366,-3.453872 -7.25958,-3.988041 1.93839,-1.266149 3.85364,-1.857029 5.70158,-1.91733 z m 63.56076,12.992502 c 4.14486,9.008047 5.91319,15.577287 6.13812,19.987347 0.21137,4.41015 -1.10335,6.67261 -3.14703,7.04135 -2.04391,0.3677 -4.80289,-1.15464 -7.46209,-4.26849 -2.65896,-3.11496 -5.21567,-7.82318 -6.83907,-13.86494 1.57969,3.23955 3.23325,5.15991 4.78279,6.01337 1.54947,0.85314 3.00258,0.6357 4.17485,-0.41875 2.34541,-2.11323 3.59138,-7.58214 2.35156,-14.488052 z m 30.22239,27.340407 c 4.88584,0.45544 8.54503,2.92114 10.92083,6.54299 2.37556,3.62297 3.46871,8.39787 3.20908,13.44436 -0.27119,5.04657 -1.87202,10.37071 -4.89151,15.09552 -3.01981,4.72488 -7.44558,8.85466 -13.35095,11.51267 5.73898,-8.0521 9.36068,-17.05233 10.25058,-25.3619 0.44588,-4.15483 0.21138,-8.13864 -0.79602,-11.7463 -0.99783,-3.60781 -2.75237,-6.8342 -5.34345,-9.48734 z M 92.676765,144.74225 c 5.315369,6.42965 7.369255,11.26876 7.633345,15.22003 0.27119,3.95159 -1.251074,7.00689 -3.084573,9.89253 -1.832861,2.88501 -3.977832,5.60028 -4.953965,8.83321 -0.97677,3.23262 -0.796029,6.98735 2.040802,11.97992 -6.962862,-7.40131 -10.186779,-12.98078 -11.201198,-17.43248 -1.012903,-4.45178 0.181061,-7.7742 2.089138,-10.67157 1.893241,-2.89705 4.475869,-5.36243 6.231599,-8.10067 1.754534,-2.73729 2.667974,-5.74649 1.245171,-9.72097 z" />
  </g>
</svg>
