<?xml version="1.0" encoding="UTF-8" standalone="no"?>
<svg
   xmlns:dc="http://purl.org/dc/elements/1.1/"
   xmlns:cc="http://creativecommons.org/ns#"
   xmlns:rdf="http://www.w3.org/1999/02/22-rdf-syntax-ns#"
   xmlns:svg="http://www.w3.org/2000/svg"
   xmlns="http://www.w3.org/2000/svg"
   xmlns:sodipodi="http://sodipodi.sourceforge.net/DTD/sodipodi-0.dtd"
   xmlns:inkscape="http://www.inkscape.org/namespaces/inkscape"
   width="300"
   height="300"
   viewBox="0 0 300 300"
   version="1.1"
   id="svg21608"
   inkscape:version="1.0.1 (3bc2e813f5, 2020-09-07)"
   sodipodi:docname="fire.svg">
  <defs
     id="defs21602" />
  <sodipodi:namedview
     id="base"
     pagecolor="#ffffff"
     bordercolor="#666666"
     borderopacity="1.0"
     inkscape:pageopacity="0.0"
     inkscape:pageshadow="2"
     inkscape:zoom="1.979899"
     inkscape:cx="535.36915"
     inkscape:cy="280.61954"
     inkscape:document-units="px"
     inkscape:current-layer="layer1"
     inkscape:document-rotation="0"
     showgrid="false"
     units="px"
     width="300px" />
  <metadata
     id="metadata21605">
    <rdf:RDF>
      <cc:Work
         rdf:about="">
        <dc:format>image/svg+xml</dc:format>
        <dc:type
           rdf:resource="http://purl.org/dc/dcmitype/StillImage" />
        <dc:title></dc:title>
      </cc:Work>
    </rdf:RDF>
  </metadata>
  <g
     inkscape:label="Layer 1"
     inkscape:groupmode="layer"
     id="layer1">
    <g
       class=""
       transform="matrix(0.60277744,0,0,0.60277695,-9.643881,-2.9043192)"
       id="g17884"
       style="stroke-width:1.65899">
      <path
         d="m 290.72,13.396 c -79.94,38.87 9.013,152.854 -74.402,191.567 21.946,-43.348 30.93,-118.453 -39.69,-169.342 v 0.003 c 57.41,92.152 -39.578,101.073 10.68,235.037 0.884,2.098 1.724,4.216 2.467,6.383 -0.86,-2.16 -1.682,-4.286 -2.468,-6.383 -17.056,-40.42 -58.356,-69.442 -47.875,-146.558 -92.397,139.136 61.726,179.234 39.968,296.226 -20.22,-52.322 -96.068,-38.077 -65.88,-94.582 -81.617,64.483 68,99.77 -25.282,168.19 h 349.006 c -44.892,-35.722 -38.733,-108.488 -9.29,-92.71 -14.63,-42.75 -54.515,-10.383 -56.477,22.604 -15.55,-101.866 86.23,-108.78 74.388,-226.197 -19.395,67.794 -73.366,65.522 -92.71,55.322 68.964,-32.598 91.818,-125.04 17.15,-161.248 23.033,28.635 15.785,123.762 -33.243,84.998 -18.193,-14.385 -70.182,-60.235 -46.34,-163.31 z m -165.656,4.778 c -6.35,0.16 -12.967,2.232 -19.62,6.578 38.005,7.337 57.7,61.682 52.892,122.08 34.38,-59.225 5.54,-129.638 -33.272,-128.658 z m 218.29,44.633 c 8.507,47.444 -17.105,75.028 -38.82,30.52 22.306,83.01 95.766,93.25 38.82,-30.52 z m 103.84,93.88 c 35.616,36.454 25.294,104.74 -14.133,160.057 81.137,-36.52 81.26,-153.81 14.133,-160.057 z m -379.22,78.917 c 19.553,54.61 -90.043,56.077 5.62,157.767 -38.953,-68.595 67.41,-69.424 -5.62,-157.766 z"
         fill="#d0021b"
         fill-opacity="1"
         id="path17882"
         style="stroke-width:54.5486" />
    </g>
  </g>
</svg>
