<?xml version="1.0" encoding="UTF-8" standalone="no"?>
<svg
   width="600"
   height="300"
   viewBox="0 0 600 300"
   version="1.1"
   id="svg21608"
   inkscape:version="1.3 (0e150ed6c4, 2023-07-21)"
   sodipodi:docname="foreign-expertise.svg"
   xml:space="preserve"
   xmlns:inkscape="http://www.inkscape.org/namespaces/inkscape"
   xmlns:sodipodi="http://sodipodi.sourceforge.net/DTD/sodipodi-0.dtd"
   xmlns="http://www.w3.org/2000/svg"
   xmlns:svg="http://www.w3.org/2000/svg"
   xmlns:rdf="http://www.w3.org/1999/02/22-rdf-syntax-ns#"
   xmlns:cc="http://creativecommons.org/ns#"
   xmlns:dc="http://purl.org/dc/elements/1.1/"><defs
     id="defs21602" /><sodipodi:namedview
     id="base"
     pagecolor="#ffffff"
     bordercolor="#666666"
     borderopacity="1.0"
     inkscape:pageopacity="0.0"
     inkscape:pageshadow="2"
     inkscape:zoom="0.49869066"
     inkscape:cx="127.33345"
     inkscape:cy="194.50936"
     inkscape:document-units="px"
     inkscape:current-layer="layer1"
     inkscape:document-rotation="0"
     showgrid="false"
     units="px"
     width="300px"
     inkscape:showpageshadow="2"
     inkscape:pagecheckerboard="0"
     inkscape:deskcolor="#d1d1d1"
     inkscape:window-width="1436"
     inkscape:window-height="456"
     inkscape:window-x="0"
     inkscape:window-y="38"
     inkscape:window-maximized="0" /><metadata
     id="metadata21605"><rdf:RDF><cc:Work
         rdf:about=""><dc:format>image/svg+xml</dc:format><dc:type
           rdf:resource="http://purl.org/dc/dcmitype/StillImage" /><dc:title /></cc:Work></rdf:RDF></metadata><g
     inkscape:label="Layer 1"
     inkscape:groupmode="layer"
     id="layer1"><path
       id="path7590"
       style="font-variation-settings:normal;vector-effect:none;fill:#e9ddaf;fill-opacity:1;stroke:#5e501a;stroke-width:4.25301;stroke-linecap:butt;stroke-linejoin:miter;stroke-miterlimit:4;stroke-dasharray:none;stroke-dashoffset:0;stroke-opacity:1;paint-order:fill markers stroke;stop-color:#000000"
       d="m 119.5989,87.737165 h 143.2598 l 26.34143,71.263685 -26.34143,71.26368 H 119.5989 Z"
       sodipodi:nodetypes="cccccc" /><path
       id="path8053"
       style="font-variation-settings:normal;display:inline;vector-effect:none;fill:#800080;fill-opacity:1;stroke-width:140.67;stroke-linecap:butt;stroke-linejoin:miter;stroke-miterlimit:4;stroke-dasharray:none;stroke-dashoffset:0;stroke-opacity:1;stop-color:#000000;opacity:1;-inkscape-stroke:none;stop-opacity:1"
       d="m 375.69943,99.937706 c -7.93929,0 -13.6502,4.205204 -16.9475,9.477144 -2.94582,4.71428 -4.16455,10.18411 -4.40426,14.97365 -8.99998,4.44659 -18.98402,8.92226 -27.01182,13.5057 -4.21037,2.40503 -7.87136,4.8225 -10.63486,7.4217 -2.76109,2.59747 -4.81159,5.51907 -4.81159,8.97083 0,1.47051 0.7258,2.67994 1.53378,3.55708 0.81089,0.87685 1.78388,1.54752 2.8864,2.18242 2.20991,1.27269 4.99297,2.34736 8.05747,3.26079 4.55319,1.36607 9.64347,2.37209 14.0771,2.80582 -4.4097,7.59187 -10.27021,14.57293 -15.41437,21.25386 -5.9448,7.72134 -11.14067,15.13125 -11.14067,23.35722 0,1.17365 -0.007,2.08075 0.10982,3.00183 0.10981,0.92077 0.37381,2.07245 1.30287,2.98726 0.92907,0.9098 2.06155,1.1599 2.98866,1.25612 0.92353,0.10982 1.8526,0.10982 3.05127,0.10982 h 32.80251 c 2.37754,0 4.12768,0.13744 5.92065,-1.01155 1.79211,-1.15167 2.44081,-2.72116 3.71896,-5.07318 l 0.0291,-0.0291 0.0146,-0.0822 c 0,0 2.85338,-5.8008 6.26362,-11.56429 1.70417,-2.88334 3.56064,-5.7472 5.17056,-7.78067 0.8026,-1.017 1.56127,-1.82781 2.10547,-2.28409 0.13745,-0.10982 0.2749,-0.13746 0.33236,-0.21963 0.10981,0.0822 0.19272,0.10981 0.36872,0.21963 0.54398,0.45599 1.28091,1.26986 2.08896,2.28409 1.61072,2.03129 3.46449,4.89929 5.17085,7.78067 3.41249,5.76349 6.27963,11.56429 6.27963,11.56429 l 0.0145,0.0822 0.0291,0.0291 c 1.27539,2.35013 1.91581,3.91794 3.70275,5.07318 1.78119,1.15445 3.52384,1.01155 5.872,1.01155 h 32.93274 c 1.17641,0 2.09726,0.007 3.01498,-0.10982 0.91809,-0.10982 2.06977,-0.37091 2.98865,-1.27262 0.91809,-0.91809 1.17096,-2.0505 1.27263,-2.96858 0.10981,-0.91809 0.10981,-1.82788 0.10981,-3.00211 0,-8.22597 -5.17929,-15.63561 -11.12387,-23.35716 -5.14386,-6.68092 -11.0211,-13.66205 -15.43081,-21.25386 4.43335,-0.43708 9.54042,-1.44309 14.09303,-2.8056 3.06451,-0.91809 5.84837,-1.9873 8.05798,-3.26101 1.10223,-0.6378 2.08075,-1.30564 2.8864,-2.18518 0.81089,-0.87685 1.51727,-2.09181 1.51727,-3.55707 0,-3.45322 -2.03122,-6.37228 -4.7953,-8.9709 -2.76109,-2.59747 -6.44041,-5.0177 -10.65115,-7.42171 -8.0275,-4.58287 -17.99532,-9.05933 -26.9956,-13.50533 -0.27491,-4.78934 -1.45408,-10.26003 -4.40368,-14.97395 -3.29899,-5.27201 -9.00852,-9.476926 -16.94751,-9.476926 z m -5.08918,38.657934 h 10.19487 v 15.29998 h 15.29969 v 10.21101 h -15.29969 v 15.28347 h -10.19487 v -15.28347 h -15.29998 v -10.21101 h 15.29998 z" /><g
       id="g1"
       transform="matrix(7.8060353,0,0,7.8060353,-901.94038,-532.15795)"><path
         style="display:inline;fill:#552200;stroke-width:1.37545"
         d="m 139.30029,95.076973 v 1.569525 h 2.31276 v -1.569525 z"
         id="path284159" /><path
         style="display:inline;fill:#666666;stroke-width:1.37545"
         d="m 140.83885,93.115058 v 1.319849 h 0.7742 v -1.319849 z"
         id="path284161" /><path
         style="display:inline;fill:#666666;stroke-width:1.37545"
         d="m 139.30029,93.115058 v 1.319849 h 0.77419 v -1.319849 z"
         id="path284163" /><path
         style="display:inline;fill:#5599ff;stroke-width:1.37545"
         d="m 143.65478,80.859309 c 0.98317,1.422073 1.3008,2.720935 1.17302,4.046177 -0.10658,1.102488 -0.50094,2.21125 -1.02414,3.459401 0.10507,-0.117165 0.20976,-0.233574 0.31106,-0.348094 1.00172,-1.130079 1.79863,-2.151836 1.79863,-4.354496 0,-0.980927 -0.76811,-1.901129 -1.87079,-2.581406 -0.12548,-0.07748 -0.25511,-0.151181 -0.38778,-0.22148 z"
         id="path284165" /><path
         style="display:inline;fill:#5599ff;stroke-width:1.37545"
         d="m 137.25856,80.859309 c -0.13255,0.0703 -0.26223,0.144 -0.38776,0.22148 -1.10268,0.680353 -1.8708,1.600479 -1.8708,2.581433 0,2.202697 0.79692,3.224454 1.79864,4.354495 0.10144,0.11452 0.20606,0.230929 0.31105,0.348095 -0.52318,-1.248114 -0.91769,-2.356876 -1.02411,-3.459364 -0.12783,-1.325242 0.18981,-2.624168 1.173,-4.046241 z"
         id="path284167" /><path
         style="display:inline;fill:#5599ff;stroke-width:1.37545"
         d="m 141.64177,80.125173 c 0.901,1.893419 1.00588,3.894138 0.87398,5.912017 -0.10243,1.568919 -0.34432,3.155841 -0.48042,4.737006 0.11792,-0.225637 0.24189,-0.437858 0.2744,-0.551584 l 0.16063,-0.408756 c 0.86876,-2.000969 1.57281,-3.550575 1.70963,-4.969285 0.13682,-1.418608 -0.25172,-2.732133 -1.66061,-4.401199 l -0.0866,-0.102803 c -0.26495,-0.08731 -0.53057,-0.159496 -0.79106,-0.215433 z"
         id="path284169" /><path
         style="display:inline;fill:#5599ff;stroke-width:1.37545"
         d="m 139.27156,80.125173 c -0.26056,0.05594 -0.52622,0.128126 -0.79115,0.215433 l -0.0866,0.102804 c -1.40904,1.669028 -1.79755,2.982515 -1.66066,4.401199 0.13685,1.41871 0.8409,2.968316 1.70963,4.969323 l 0.16078,0.408718 c 0.0325,0.113764 0.1564,0.326173 0.2744,0.551584 -0.13588,-1.581127 -0.37788,-3.168087 -0.48041,-4.737006 -0.1319,-2.017879 -0.0268,-4.01856 0.87397,-5.912017 z"
         id="path284171" /><path
         style="display:inline;fill:#5599ff;stroke-width:1.37545"
         d="m 140.13143,79.999995 c -0.0234,0.0016 -0.0465,0.0035 -0.07,0.0038 -1.02065,1.870779 -1.15321,3.873502 -1.01487,5.990404 0.13621,2.083918 0.53902,4.264225 0.57587,6.477176 h 1.66836 c 0.0378,-2.212951 0.43968,-4.393258 0.57589,-6.477176 0.13833,-2.11694 0.008,-4.119625 -1.01488,-5.990404 -0.0227,-0.0019 -0.0469,-0.0038 -0.0699,-0.0038 v 11.652526 h -0.65046 z"
         id="path284173" /></g></g></svg>
