<?xml version="1.0" encoding="UTF-8" standalone="no"?>
<svg
   width="300"
   height="300"
   viewBox="0 0 300 300"
   version="1.1"
   id="svg21608"
   inkscape:version="1.2 (dc2aeda, 2022-05-15)"
   sodipodi:docname="gamble.svg"
   xmlns:inkscape="http://www.inkscape.org/namespaces/inkscape"
   xmlns:sodipodi="http://sodipodi.sourceforge.net/DTD/sodipodi-0.dtd"
   xmlns="http://www.w3.org/2000/svg"
   xmlns:svg="http://www.w3.org/2000/svg"
   xmlns:rdf="http://www.w3.org/1999/02/22-rdf-syntax-ns#"
   xmlns:cc="http://creativecommons.org/ns#"
   xmlns:dc="http://purl.org/dc/elements/1.1/">
  <defs
     id="defs21602" />
  <sodipodi:namedview
     id="base"
     pagecolor="#ffffff"
     bordercolor="#666666"
     borderopacity="1.0"
     inkscape:pageopacity="0.0"
     inkscape:pageshadow="2"
     inkscape:zoom="0.98994949"
     inkscape:cx="117.1777"
     inkscape:cy="176.7767"
     inkscape:document-units="px"
     inkscape:current-layer="layer1"
     inkscape:document-rotation="0"
     showgrid="false"
     units="px"
     width="300px"
     inkscape:showpageshadow="2"
     inkscape:pagecheckerboard="0"
     inkscape:deskcolor="#d1d1d1"
     inkscape:window-width="765"
     inkscape:window-height="840"
     inkscape:window-x="757"
     inkscape:window-y="38"
     inkscape:window-maximized="0" />
  <metadata
     id="metadata21605">
    <rdf:RDF>
      <cc:Work
         rdf:about="">
        <dc:format>image/svg+xml</dc:format>
        <dc:type
           rdf:resource="http://purl.org/dc/dcmitype/StillImage" />
        <dc:title />
      </cc:Work>
    </rdf:RDF>
  </metadata>
  <g
     inkscape:label="Layer 1"
     inkscape:groupmode="layer"
     id="layer1">
    <path
       d="m 59.014212,10.423142 c -4.578733,0.124901 -9.470461,1.60692 -12.923349,3.254453 C 38.150146,17.524789 30.114389,24.77243 23.67116,33.520039 17.226938,42.268226 12.368378,52.492973 10.292295,61.894947 8.2289488,71.244313 8.9666908,79.500837 12.558789,85.207153 l 54.593664,72.152987 c -0.219197,-1.02543 -0.387937,-2.05706 -0.553368,-3.09812 -2.810517,-18.55687 0.588109,-39.47876 10.625257,-58.749721 10.03566,-19.27096 24.902008,-33.425369 41.176088,-40.716766 5.66918,-2.538547 11.54183,-4.235215 17.43111,-4.988921 L 68.463582,12.811643 C 65.374891,11.23599 62.224825,10.466899 58.996015,10.423142 Z m 84.577068,50.168783 c -6.75185,-0.124901 -13.76217,1.478711 -20.69806,4.584357 -13.87218,6.213775 -27.165681,18.679706 -36.15499,35.940508 -8.989552,17.26105 -11.876664,35.86796 -9.479147,51.68588 2.400991,15.81798 9.872709,28.63446 21.674096,35.59979 6.854921,4.04663 14.510251,5.72509 22.441301,5.20523 -3.18192,-7.78852 -5.69043,-15.71237 -6.02469,-24.0698 6.3079,-12.22399 12.73484,-24.4483 21.85203,-36.67329 14.04754,-4.42364 28.84886,-2.7761 45.9358,-2.0727 2.27898,-10.16568 2.65417,-20.19596 1.27547,-29.30123 -2.40099,-15.818325 -9.87304,-28.634393 -21.6741,-35.600717 -5.90053,-3.481094 -12.39281,-5.210847 -19.14457,-5.2996 z m 43.75988,80.996545 -41.32051,2.36658 11.24554,37.85282 40.56358,-2.27279 c -1.49121,-13.04842 -6.26407,-25.44122 -10.48861,-37.94314 z m -49.38249,9.30255 c -4.8507,5.97614 -8.89303,12.43814 -10.88912,20.1269 1.08796,11.76567 2.5292,23.49104 8.68384,34.69374 l 11.25803,-18.44563 z m 106.36027,36.70042 c -15.06263,6.89254 -26.75177,14.34739 -38.45904,21.79916 l 43.43199,34.0929 41.5431,-29.61044 c -13.90568,-9.29412 -29.1746,-18.13295 -46.51605,-26.2822 z m -50.41825,3.76374 -38.02165,1.78508 -11.28334,18.19524 c 12.06245,-0.60962 23.46672,0.44418 36.55799,-2.75426 6.34877,-5.74231 9.07491,-11.48468 12.747,-17.22731 z m 9.11842,29.75303 c -3.07,11.74663 -3.22071,24.07939 -3.50897,36.38254 10.52774,14.49644 24.72218,22.39406 37.9204,32.08611 l 5.2996,-38.09797 z m 87.14745,5.64601 -36.10304,26.01677 -5.43815,34.5862 c 11.89734,-7.08883 23.15248,-14.94765 32.20366,-25.45065 5.06113,-11.71753 7.03754,-23.4348 9.33538,-35.15232 z"
       fill="#000000"
       fill-opacity="1"
       id="path3680"
       style="display:inline;stroke-width:24.0204" />
  </g>
</svg>
