<?xml version="1.0" encoding="UTF-8" standalone="no"?>
<svg
   width="300"
   height="300"
   viewBox="0 0 300 300"
   version="1.1"
   id="svg21608"
   inkscape:version="1.2 (dc2aeda, 2022-05-15)"
   sodipodi:docname="gate.svg"
   xmlns:inkscape="http://www.inkscape.org/namespaces/inkscape"
   xmlns:sodipodi="http://sodipodi.sourceforge.net/DTD/sodipodi-0.dtd"
   xmlns="http://www.w3.org/2000/svg"
   xmlns:svg="http://www.w3.org/2000/svg"
   xmlns:rdf="http://www.w3.org/1999/02/22-rdf-syntax-ns#"
   xmlns:cc="http://creativecommons.org/ns#"
   xmlns:dc="http://purl.org/dc/elements/1.1/">
  <defs
     id="defs21602" />
  <sodipodi:namedview
     id="base"
     pagecolor="#ffffff"
     bordercolor="#666666"
     borderopacity="1.0"
     inkscape:pageopacity="0.0"
     inkscape:pageshadow="2"
     inkscape:zoom="0.54094192"
     inkscape:cx="181.16547"
     inkscape:cy="197.80312"
     inkscape:document-units="px"
     inkscape:current-layer="layer1"
     inkscape:document-rotation="0"
     showgrid="false"
     units="px"
     width="300px"
     inkscape:showpageshadow="2"
     inkscape:pagecheckerboard="0"
     inkscape:deskcolor="#d1d1d1"
     inkscape:window-width="1436"
     inkscape:window-height="456"
     inkscape:window-x="69"
     inkscape:window-y="72"
     inkscape:window-maximized="0" />
  <metadata
     id="metadata21605">
    <rdf:RDF>
      <cc:Work
         rdf:about="">
        <dc:format>image/svg+xml</dc:format>
        <dc:type
           rdf:resource="http://purl.org/dc/dcmitype/StillImage" />
        <dc:title />
      </cc:Work>
    </rdf:RDF>
  </metadata>
  <g
     inkscape:label="Layer 1"
     inkscape:groupmode="layer"
     id="layer1">
    <g
       class=""
       id="g3665"
       transform="matrix(0.57630868,0,0,0.57630868,2.1392255,2.997622)"
       style="display:inline;fill:#803300;stroke-width:12.049">
      <path
         d="M 25,25 V 487 H 167 V 156.271 l 48,-48 V 25 H 185 V 73 H 135 V 25 H 105 V 73 H 55 V 25 Z m 167.38,131.348 -7.38,7.38 v 10.418 c 4.551,-0.619 9.936,1.222 13.258,3.102 3.798,2.819 11.29,7.973 9.474,13.572 -4.443,3.557 -12.158,0.989 -16.488,-1.455 -2.554,-1.478 -4.656,-3.285 -6.244,-5.09 v 22.153 c 7.553,3.05 14.707,4.827 21.854,3.879 3.51,7.926 10.723,15.014 16.917,18.681 8.36,3.946 16.533,6.437 24.627,5.364 3.506,7.927 10.725,15.013 16.918,18.68 8.36,3.944 16.532,6.436 24.625,5.363 3.51,7.926 10.724,15.014 16.918,18.681 8.36,3.946 16.533,6.435 24.627,5.361 3.506,7.928 10.724,15.015 16.918,18.682 8.36,3.945 16.532,6.437 24.625,5.363 1.285,3.252 3.345,6.525 5.31,8.95 L 185,363.232 v 37.086 l 276.902,-68.463 -8.64,-34.947 -20.823,5.149 c -3.111,-8.604 -10.869,-16.274 -17.447,-20.168 -8.36,-3.946 -16.533,-6.435 -24.627,-5.362 -3.506,-7.927 -10.722,-15.016 -16.916,-18.683 -8.36,-3.946 -16.532,-6.433 -24.627,-5.36 -3.51,-7.926 -10.723,-15.016 -16.918,-18.683 -8.36,-3.943 -16.533,-6.44 -24.627,-5.36 -3.505,-7.926 -10.722,-15.016 -16.916,-18.683 -8.36,-3.945 -16.533,-6.435 -24.627,-5.362 -3.51,-7.926 -10.722,-15.016 -16.918,-18.683 -8.36,-3.945 -16.533,-6.433 -24.627,-5.36 -3.505,-7.927 -10.721,-15.016 -16.916,-18.683 -4.816,-2.788 -9.868,-4.587 -14.892,-5.322 z m 47.42,44.945 c 3.801,2.82 11.292,7.97 9.477,13.572 -4.444,3.554 -12.16,0.988 -16.488,-1.455 -3.8,-2.82 -11.295,-7.97 -9.476,-13.572 4.317,-3.522 11.902,-1.141 16.488,1.455 z m 41.546,24.043 c 3.798,2.819 11.29,7.973 9.474,13.572 -4.443,3.557 -12.158,0.989 -16.488,-1.455 -3.802,-2.82 -11.29,-7.968 -9.477,-13.572 4.32,-3.522 11.905,-1.141 16.49,1.455 z m 41.543,24.045 c 3.798,2.819 11.292,7.97 9.476,13.57 -4.444,3.557 -12.159,0.989 -16.488,-1.455 -3.802,-2.82 -11.294,-7.967 -9.477,-13.572 4.318,-3.52 11.904,-1.139 16.489,1.457 z m 41.545,24.043 c 3.8,2.82 11.289,7.97 9.474,13.572 -4.444,3.554 -12.16,0.988 -16.488,-1.455 -3.8,-2.82 -11.291,-7.97 -9.477,-13.572 4.335,-3.473 11.76,-1.223 16.49,1.455 z m 41.543,24.043 c 3.48,2.414 7.061,5.386 8.863,8.941 l -14.914,3.688 c -4.09,-3.23 -12.418,-7.978 -10.438,-14.084 4.334,-3.472 11.759,-1.223 16.489,1.455 z M 425,405 v 18 h 62 v -18 z m -75.129,35.988 C 327.917,441.483 307.51,460.65 288,461 c -23.065,-2.608 -43.13,-19.673 -64,-20 -14.073,1.314 -26.678,4.405 -39,8.736 v 19.51 c 12.73,-5.24 26.302,-10.001 39,-10.246 23.065,2.608 43.13,19.673 64,20 22.767,0.773 43.861,-19.639 64,-20 5.556,0 14.283,1.97 23.24,4.68 5.96,-4.151 11.487,-8.612 16.446,-13.537 C 378.966,445.47 364.568,441 352,441 a 37.607,37.607 0 0 0 -2.129,-0.012 z M 421.332,441 c -11.844,20.648 -29.735,34.582 -49.146,46 H 487 v -46 z"
         fill="#ffffff"
         fill-opacity="1"
         id="path3663"
         style="fill:#803300;stroke-width:145.179" />
    </g>
  </g>
</svg>
