<?xml version="1.0" encoding="UTF-8" standalone="no"?>
<svg
   width="300"
   height="300"
   viewBox="0 0 300 300"
   version="1.1"
   id="svg21608"
   inkscape:version="1.2.2 (732a01da63, 2022-12-09)"
   sodipodi:docname="grow.svg"
   xmlns:inkscape="http://www.inkscape.org/namespaces/inkscape"
   xmlns:sodipodi="http://sodipodi.sourceforge.net/DTD/sodipodi-0.dtd"
   xmlns="http://www.w3.org/2000/svg"
   xmlns:svg="http://www.w3.org/2000/svg"
   xmlns:rdf="http://www.w3.org/1999/02/22-rdf-syntax-ns#"
   xmlns:cc="http://creativecommons.org/ns#"
   xmlns:dc="http://purl.org/dc/elements/1.1/">
  <defs
     id="defs21602" />
  <sodipodi:namedview
     id="base"
     pagecolor="#ffffff"
     bordercolor="#666666"
     borderopacity="1.0"
     inkscape:pageopacity="0.0"
     inkscape:pageshadow="2"
     inkscape:zoom="0.98994949"
     inkscape:cx="633.23103"
     inkscape:cy="308.38281"
     inkscape:document-units="px"
     inkscape:current-layer="layer1"
     inkscape:document-rotation="0"
     showgrid="false"
     units="px"
     width="300px"
     inkscape:showpageshadow="2"
     inkscape:pagecheckerboard="0"
     inkscape:deskcolor="#d1d1d1" />
  <metadata
     id="metadata21605">
    <rdf:RDF>
      <cc:Work
         rdf:about="">
        <dc:format>image/svg+xml</dc:format>
        <dc:type
           rdf:resource="http://purl.org/dc/dcmitype/StillImage" />
        <dc:title />
      </cc:Work>
    </rdf:RDF>
  </metadata>
  <g
     inkscape:label="Layer 1"
     inkscape:groupmode="layer"
     id="layer1">
    <path
       id="path58142"
       style="display:inline;vector-effect:none;fill:#008000;stroke-width:52.9594;paint-order:fill markers stroke;stop-color:#000000"
       d="M 149.99973,28.150699 A 121.85434,121.85434 0 0 0 28.150407,150.00049 121.85434,121.85434 0 0 0 149.99973,271.8493 121.85434,121.85434 0 0 0 271.84959,150.00049 121.85434,121.85434 0 0 0 149.99973,28.150699 Z m 36.55003,36.841754 c -15.51555,20.278195 -5.52473,47.120267 -18.90708,60.827297 -11.50069,11.79198 -21.73725,13.31034 -30.81451,9.18584 8.17377,28.49903 6.63583,57.28628 -6.99913,85.78544 10.34352,-5.96752 14.54427,-12.60805 19.24708,-24.3259 1.33984,13.48984 2.68506,20.25269 -6.75605,33.7791 8.78864,0 16.89622,-6.76552 22.28486,-20.29193 0.69374,6.76342 1.19692,18.51841 -0.1589,18.51841 4.8458,-0.90519 7.44452,-3.23585 10.15817,-4.93581 -0.65143,0.7945 -1.37166,7.13362 -3.25172,13.4628 H 84.157237 c 8.79076,-13.52641 7.46094,-27.0454 7.46094,-40.53524 5.38917,6.76342 10.796333,20.2363 10.109453,26.9993 13.52692,-13.52641 12.1897,-33.76537 14.21698,-47.29178 4.95702,10.9944 8.54556,26.46809 9.01584,39.12588 11.86241,-26.25679 12.9772,-52.33506 5.27477,-78.66443 -6.6549,4.91997 -23.59083,8.07412 -39.685233,2.72215 -23.65333,-6.76299 -23.64909,-33.8238 -39.85472,-54.095543 24.3434,13.508899 41.24173,6.762859 56.793303,13.512119 11.79038,5.352524 18.05444,10.751704 22.50357,22.867924 l 0.21186,-0.11209 c -1.55701,-28.516674 31.12697,-50.539813 56.33149,-56.550773 z m 1.94363,41.215797 h 28.06909 v 38.29987 h 38.83418 v 27.97048 h -38.83418 v 37.69299 H 188.49339 V 172.4786 h -38.83418 v -27.97048 h 38.83418 z" />
  </g>
</svg>
