<?xml version="1.0" encoding="UTF-8" standalone="no"?>
<svg
   xmlns:dc="http://purl.org/dc/elements/1.1/"
   xmlns:cc="http://creativecommons.org/ns#"
   xmlns:rdf="http://www.w3.org/1999/02/22-rdf-syntax-ns#"
   xmlns:svg="http://www.w3.org/2000/svg"
   xmlns="http://www.w3.org/2000/svg"
   xmlns:sodipodi="http://sodipodi.sourceforge.net/DTD/sodipodi-0.dtd"
   xmlns:inkscape="http://www.inkscape.org/namespaces/inkscape"
   width="300"
   height="300"
   viewBox="0 0 300 300"
   version="1.1"
   id="svg21608"
   inkscape:version="1.0.1 (3bc2e813f5, 2020-09-07)"
   sodipodi:docname="hike.svg">
  <defs
     id="defs21602" />
  <sodipodi:namedview
     id="base"
     pagecolor="#ffffff"
     bordercolor="#666666"
     borderopacity="1.0"
     inkscape:pageopacity="0.0"
     inkscape:pageshadow="2"
     inkscape:zoom="0.98994949"
     inkscape:cx="633.23103"
     inkscape:cy="308.38281"
     inkscape:document-units="px"
     inkscape:current-layer="layer1"
     inkscape:document-rotation="0"
     showgrid="false"
     units="px"
     width="300px" />
  <metadata
     id="metadata21605">
    <rdf:RDF>
      <cc:Work
         rdf:about="">
        <dc:format>image/svg+xml</dc:format>
        <dc:type
           rdf:resource="http://purl.org/dc/dcmitype/StillImage" />
        <dc:title />
      </cc:Work>
    </rdf:RDF>
  </metadata>
  <g
     inkscape:label="Layer 1"
     inkscape:groupmode="layer"
     id="layer1">
    <path
       d="m 108.36393,31.258518 c -8.932203,-0.225835 -17.864412,7.789841 -19.710413,19.878999 -1.965091,12.891922 5.240243,23.773957 14.767933,25.201111 9.52769,1.427118 19.59133,-6.838455 21.49687,-19.742279 1.9651,-12.915688 -5.18069,-23.750153 -14.76793,-25.183222 -0.59549,-0.08908 -1.19097,-0.142671 -1.78646,-0.154498 z m 67.46805,45.912592 -10.24227,3.092156 4.94248,16.709557 11.25461,0.29717 z m -86.106619,4.51931 c -1.607785,41.92253 -0.238031,83.78559 -2.143725,120.4158 -9.408604,21.2883 -21.854144,41.74412 -30.000331,58.98884 l 15.291939,7.37362 c 12.386032,-20.03956 25.129332,-40.4359 32.870566,-61.18904 l 6.72894,-37.70058 31.56051,27.29427 9.64682,52.38828 17.4476,-3.44895 -10.48049,-59.82136 -34.59744,-31.87302 -5.538,-51.3774 28.64266,18.61243 c 15.89936,0.53517 26.85621,-1.12983 41.44551,-3.38951 l 0.59548,-9.69272 -42.16008,-1.24874 -27.68987,-24.975131 c -5.6571,3.984146 -12.44558,5.946465 -19.53182,4.876099 -4.585174,-0.713577 -8.634445,-2.556991 -12.088269,-5.232888 z m -9.884963,7.730408 -24.099143,6.95736 -3.549073,50.842202 c 8.056851,3.98411 18.477792,6.89789 25.74267,2.02179 z m 210.026262,38.830372 -56.98757,46.44184 -19.05542,30.86213 -22.68781,-76.82828 c -3.75155,0.53521 -7.26488,1.07037 -10.71867,1.5461 l 25.90342,87.47239 -13.45788,21.8235 -11.55233,2.02183 2.20327,12.66594 -38.40853,7.61146 -2.50103,-13.49846 -50.199082,8.80078 c -5.657057,9.27646 -10.182725,16.59061 -15.482512,25.09403 l -29.48823,-14.21204 -37.30095,20.69371 H 289.86666 Z"
       fill="#000000"
       fill-opacity="1"
       id="path2269"
       style="fill:#552200;stroke-width:19.7854" />
  </g>
</svg>
