<?xml version="1.0" encoding="UTF-8" standalone="no"?>
<svg
   width="300"
   height="300"
   viewBox="0 0 300 300"
   version="1.1"
   id="svg21608"
   inkscape:version="1.2.2 (732a01da63, 2022-12-09)"
   sodipodi:docname="hospital.svg"
   xmlns:inkscape="http://www.inkscape.org/namespaces/inkscape"
   xmlns:sodipodi="http://sodipodi.sourceforge.net/DTD/sodipodi-0.dtd"
   xmlns="http://www.w3.org/2000/svg"
   xmlns:svg="http://www.w3.org/2000/svg"
   xmlns:rdf="http://www.w3.org/1999/02/22-rdf-syntax-ns#"
   xmlns:cc="http://creativecommons.org/ns#"
   xmlns:dc="http://purl.org/dc/elements/1.1/">
  <defs
     id="defs21602" />
  <sodipodi:namedview
     id="base"
     pagecolor="#ffffff"
     bordercolor="#666666"
     borderopacity="1.0"
     inkscape:pageopacity="0.0"
     inkscape:pageshadow="2"
     inkscape:zoom="0.98994949"
     inkscape:cx="633.23103"
     inkscape:cy="308.38281"
     inkscape:document-units="px"
     inkscape:current-layer="layer1"
     inkscape:document-rotation="0"
     showgrid="false"
     units="px"
     width="300px"
     inkscape:showpageshadow="2"
     inkscape:pagecheckerboard="0"
     inkscape:deskcolor="#d1d1d1" />
  <metadata
     id="metadata21605">
    <rdf:RDF>
      <cc:Work
         rdf:about="">
        <dc:format>image/svg+xml</dc:format>
        <dc:type
           rdf:resource="http://purl.org/dc/dcmitype/StillImage" />
        <dc:title />
      </cc:Work>
    </rdf:RDF>
  </metadata>
  <g
     inkscape:label="Layer 1"
     inkscape:groupmode="layer"
     id="layer1">
    <path
       id="path12058"
       style="font-variation-settings:normal;display:inline;vector-effect:none;fill:#aa0000;fill-opacity:1;stroke:none;stroke-width:19.9138px;stroke-linecap:butt;stroke-linejoin:miter;stroke-miterlimit:4;stroke-dasharray:none;stroke-dashoffset:0;stroke-opacity:1;-inkscape-stroke:none;paint-order:stroke markers fill;stop-color:#000000"
       d="m 201.42131,51.461194 c -18.25907,0.170194 -37.42524,9.769849 -50.31149,31.625295 L 144.68833,93.96927 138.30804,83.062972 C 122.25423,55.621157 93.464271,47.098657 70.581527,53.590375 h -0.0082 c -20.187639,5.732688 -35.768982,22.223581 -34.879571,51.154105 0.984481,31.83206 25.228934,58.41313 52.252783,82.37678 13.512461,11.98132 27.504001,23.18603 39.088551,34.23021 6.89216,6.56478 13.00721,13.06147 17.58665,19.90364 4.59634,-6.36306 10.65428,-12.48403 17.49288,-18.84624 11.85704,-11.03487 26.26264,-22.55987 40.1004,-34.88585 27.6742,-24.65115 51.97673,-52.03417 51.07381,-81.9481 -0.92336,-30.48216 -18.7333,-48.13059 -40.08205,-52.868019 A 52.525119,52.525119 0 0 0 201.41423,51.454422 Z M 149.48705,-1.4740615 139.14886,69.545918 c 0.48581,0.672407 1.07618,1.3868 1.60541,2.084783 0.60807,0.840187 1.25795,1.647639 1.86649,2.521929 0.60806,0.865764 1.16144,1.790517 1.73893,2.689723 0.36517,-0.504626 0.67402,-1.050595 1.03917,-1.563747 0.36517,-0.504627 0.67402,-1.034189 1.03919,-1.52112 0.36515,-0.504628 0.75445,-0.958101 1.0826,-1.428784 0.36516,-0.504628 0.75444,-0.941209 1.12443,-1.3868 0.36517,-0.419531 0.75928,-0.90775 1.12443,-1.344813 0.42628,-0.419531 0.75445,-0.840188 1.17913,-1.261005 0.42628,-0.419531 0.8397,-0.840188 1.21612,-1.21902 0.42629,-0.41953 0.83971,-0.756378 1.21613,-1.168508 0.42629,-0.41953 0.83969,-0.756377 1.25795,-1.126684 0.42628,-0.334433 0.83969,-0.756377 1.25795,-1.084054 0.8574,-0.672408 1.72058,-1.353341 2.60823,-2.000266 0.18177,-0.170194 0.42628,-0.249337 0.60806,-0.419531 z m 13.031,85.1372285 c -0.24289,0.334428 -0.48579,0.672405 -0.67561,1.042077 -0.36516,0.589711 -0.75444,1.118158 -1.08261,1.698106 -0.36517,0.589727 -0.75928,1.134571 -1.08261,1.740056 L 144.73467,113.59728 131.44289,90.965975 116.97825,72.896451 c -0.36515,-0.249338 -0.67402,-0.504628 -0.96035,-0.756378 -0.60807,-0.419529 -1.14856,-0.882816 -1.73892,-1.302989 -0.60807,-0.419531 -1.18556,-0.840188 -1.7814,-1.21902 -0.60806,-0.41953 -1.17913,-0.84083 -1.7814,-1.168508 -0.60806,-0.334434 -1.20969,-0.672407 -1.82386,-1.000085 -0.60807,-0.334433 -1.20969,-0.672407 -1.82402,-0.958099 -0.60807,-0.334435 -1.24669,-0.589723 -1.8665,-0.865764 -0.60807,-0.249337 -1.27726,-0.504627 -1.90911,-0.756377 -0.60808,-0.249337 -1.23382,-0.504627 -1.8665,-0.672407 -0.67402,-0.249339 -1.27726,-0.419531 -1.909121,-0.589725 -0.675625,-0.170192 -1.270823,-0.334433 -1.908953,-0.504625 -0.675626,-0.170194 -1.270823,-0.334435 -1.915244,-0.504628 -0.67402,-0.170193 -1.270823,-0.249337 -1.909118,-0.334433 -0.67402,-0.08526 -1.270823,-0.249339 -1.908954,-0.334435 -0.365168,-0.04342 -0.675625,-0.05148 -1.039188,-0.08526 L 110.25162,110.53664 47.919001,86.212453 c -0.01441,0.04341 -0.03217,0.08518 -0.04826,0.170192 -0.181775,0.589727 -0.365158,1.10964 -0.485805,1.698106 -0.181776,0.589726 -0.36516,1.219012 -0.424679,1.823956 -0.181775,0.589726 -0.242902,1.235425 -0.426287,1.865921 -0.06434,0.672399 -0.242903,1.252477 -0.365158,1.90784 -0.06434,0.672415 -0.181775,1.311365 -0.242903,2.000291 -0.03217,0.249326 -0.06434,0.504615 -0.06434,0.756365 l 49.866371,39.355166 -36.704734,5.60626 c 0.424677,0.67239 0.918526,1.36186 1.386637,2.04283 0.608063,0.75638 1.076173,1.57163 1.647719,2.345 0.608062,0.75636 1.18556,1.52963 1.781397,2.30305 0.608061,0.75638 1.203255,1.57163 1.823862,2.345 0.608063,0.75638 1.227384,1.53816 1.866493,2.30303 0.675624,0.75638 1.294946,1.53818 1.957702,2.30306 0.675624,0.75639 1.362509,1.49619 2.042966,2.2611 1.362505,1.52112 2.729841,3.05147 4.170692,4.55565 0.03211,0.029 0.06438,0.058 0.06438,0.0853 l 20.024694,2.90859 -9.425126,7.5566 c 1.034356,0.96678 2.073364,1.94191 3.125083,2.90861 1.611207,1.4793 3.252817,2.95846 4.906482,4.42978 1.653682,1.47076 3.319567,2.93353 4.991579,4.38785 1.677954,1.45435 3.356084,2.90008 5.034034,4.34586 1.03436,0.88282 2.04893,1.77351 3.08263,2.64779 l 2.90614,-1.16851 -1.03917,2.74021 c 1.72059,1.46289 3.46547,2.92501 5.16788,4.38782 1.67185,1.42879 3.30138,2.83261 4.94896,4.25347 1.64772,1.42878 3.29527,2.87457 4.90646,4.30393 1.61121,1.4288 3.21018,2.8241 4.77266,4.26138 0.42628,0.33444 0.83969,0.75638 1.21611,1.12653 l 5.21052,-6.64887 2.17051,14.11724 c 0.48581,0.58973 1.08262,1.23544 1.60541,1.86592 0.87511,1.05913 1.69631,2.1097 2.56561,3.16882 0.86384,1.05913 1.751,2.13525 2.65086,3.16882 0.8751,-0.94973 1.751,-1.94191 2.60823,-2.9086 0.8574,-0.96679 1.6963,-1.94191 2.56578,-2.90861 0.86382,-0.96663 1.73876,-1.91636 2.65085,-2.86605 0.42628,-0.50463 0.91853,-0.96662 1.38663,-1.43731 0.48581,-0.50463 0.98448,-0.93318 1.47673,-1.3868 1.53142,-1.42879 3.09468,-2.87456 4.68754,-4.30393 1.40434,-1.26099 2.85757,-2.5134 4.30454,-3.78228 l 0.42628,-2.82409 1.17912,1.42878 c 1.31908,-1.14293 2.61435,-2.27812 3.95192,-3.42965 1.68425,-1.43731 3.38037,-2.89158 5.08278,-4.34588 3.41079,-2.90009 6.89282,-5.82511 10.33706,-8.77464 1.72654,-1.47913 3.45325,-2.94203 5.16788,-4.42978 1.71449,-1.49619 3.42896,-3.00893 5.12526,-4.51368 1.6963,-1.50472 3.35608,-3.04297 4.99158,-4.56415 1.64755,-1.52112 3.27709,-3.03445 4.86384,-4.56415 1.09387,-1.05912 2.14012,-2.10971 3.21018,-3.16882 l -4.38963,-3.47159 9.12093,-1.38681 c 0.42629,-0.41952 0.75444,-0.84083 1.17912,-1.21902 1.4526,-1.5467 2.88187,-3.09342 4.25581,-4.64805 0.6756,-0.75638 1.33677,-1.52113 2.00032,-2.30304 0.67402,-0.75639 1.31264,-1.56376 1.9577,-2.34502 0.67402,-0.75637 1.29495,-1.56374 1.90912,-2.34498 0.60805,-0.75638 1.22738,-1.56376 1.82386,-2.345 0.60807,-0.75638 1.16787,-1.56376 1.73894,-2.34502 0.60805,-0.75638 1.10672,-1.52112 1.64755,-2.30303 0.48581,-0.75638 1.09387,-1.56376 1.60541,-2.34502 0.36515,-0.41953 0.60806,-0.9248 0.86384,-1.3868 l -28.19107,-4.08505 39.09403,-31.31936 c -0.01,-0.17019 -0.0321,-0.33444 -0.0483,-0.50463 -0.0483,-0.84019 -0.0644,-1.60574 -0.18177,-2.38695 -0.0644,-0.75638 -0.18177,-1.546705 -0.36517,-2.303036 -0.0644,-0.756381 -0.18177,-1.487667 -0.36515,-2.210648 -0.0644,-0.756381 -0.24291,-1.470779 -0.42628,-2.168698 -0.18179,-0.672398 -0.36517,-1.403848 -0.48581,-2.084781 -0.18178,-0.672398 -0.36517,-1.344813 -0.48581,-2.000258 -0.0483,-0.170192 -0.0644,-0.334438 -0.18178,-0.50463 L 189.3791,110.32696 208.23142,62.024861 c -0.674,-0.08526 -1.42203,-0.170193 -2.12789,-0.249338 -0.75445,-0.07882 -1.5861,-0.170192 -2.38929,-0.170192 -0.75445,-0.03378 -1.58612,-0.04826 -2.38946,-0.04342 -0.92336,0.0085 -1.84831,0.06757 -2.78454,0.170192 -0.92978,0.06757 -1.89095,0.170194 -2.82106,0.334433 -0.93622,0.170194 -1.89093,0.249339 -2.82715,0.419531 -0.92979,0.170193 -1.84832,0.419532 -2.78454,0.672407 -0.0321,0.0067 -0.0644,-0.0075 -0.0644,-8.52e-4 L 164.19644,95.95298 Z M 202.69807,47.17521 c 0.24291,-8.51e-4 0.42468,0 0.67402,0 0.67563,7.9e-4 1.40434,0.02573 2.08542,0.04505 0.67563,0.0193 1.31908,0.04826 2.00018,0.08526 0.67563,0.037 1.36734,0.07882 2.04296,0.170194 0.67563,0.05469 1.33677,0.170192 2.00016,0.249337 0.67402,0.07239 1.30139,0.170193 1.9577,0.249338 0.18178,0.01769 0.24291,0.02413 0.4263,0.04505 l 11.46727,-29.40792 z m 55.85933,35.489351 c 0.0321,0.08526 0.0644,0.170194 0.18177,0.249338 0.36517,0.756377 0.67563,1.605739 0.96035,2.429493 0.36517,0.840199 0.60808,1.656171 0.83971,2.52194 0.18177,0.58971 0.36517,1.269529 0.48581,1.907856 l 19.9803,-16.029552 z m -4.5661,59.855599 c -0.0147,0.029 -0.0321,0.058 -0.0483,0.0853 -0.48581,0.96662 -1.01504,1.94981 -1.56198,2.90799 -0.4858,0.95811 -1.118,1.91636 -1.69629,2.86667 -0.60807,0.94973 -1.16787,1.88291 -1.7814,2.82409 -0.60806,0.9412 -1.22899,1.84948 -1.8665,2.78213 -0.67562,0.93334 -1.29495,1.85739 -1.9577,2.78214 -0.36515,0.50463 -0.75445,0.98368 -1.08261,1.4793 l 57.51122,-8.81744 z m -29.40702,37.83451 c -0.0321,0.029 -0.0644,0.0578 -0.0644,0.0853 -1.67797,1.67257 -3.40466,3.31169 -5.12526,4.95083 -1.72059,1.63914 -3.46563,3.26124 -5.21052,4.86694 -1.75098,1.60572 -3.48976,3.20225 -5.25297,4.78301 -0.4858,0.41953 -1.01505,0.85723 -1.52015,1.30299 l 74.14686,28.92876 z m -28.18994,25.49681 c -2.86352,2.43742 -5.72109,4.85841 -8.51414,7.21206 -1.70838,1.43729 -3.38039,2.89156 -5.03422,4.30393 -1.50085,1.28594 -3.01553,2.5219 -4.4686,3.78226 l 47.91173,59.76903 z m -36.6621,32.83907 c -0.67402,0.6724 -1.29495,1.42878 -1.90912,2.12673 -0.67402,0.67242 -1.23382,1.4288 -1.82387,2.12675 -0.60806,0.6724 -1.14856,1.39531 -1.69631,2.08478 -0.48579,0.6724 -1.06973,1.36187 -1.56196,2.04283 l -8.38049,11.64177 -0.42628,-0.58973 6.64895,43.35038 z m -41.6992,-12.03264 c -0.75445,-0.67241 -1.47673,-1.42026 -2.26174,-2.12674 -1.47189,-1.34482 -2.97308,-2.71527 -4.51124,-4.08504 -1.53786,-1.36187 -3.09468,-2.74021 -4.68771,-4.12703 -1.57484,-1.36186 -3.16756,-2.69824 -4.78471,-4.08505 L 74.76991,281.47288 Z M 86.758223,199.29258 c -0.06438,-0.0724 -0.181773,-0.17019 -0.242904,-0.24933 -1.714469,-1.49618 -3.447285,-2.9925 -5.16788,-4.5137 -1.72058,-1.52963 -3.410773,-3.0849 -5.125407,-4.64804 -1.714486,-1.55522 -3.435065,-3.14389 -5.125259,-4.73256 -0.06437,-0.0852 -0.242904,-0.17019 -0.365151,-0.33442 L 19.128239,226.1668 Z M 45.796254,157.41994 c -0.06434,-0.0853 -0.181775,-0.17019 -0.242903,-0.24934 -0.675624,-0.90776 -1.312641,-1.81546 -1.951749,-2.74018 -0.674016,-0.91629 -1.294947,-1.84951 -1.915073,-2.78216 -0.608061,-0.93334 -1.233818,-1.87441 -1.824025,-2.82409 -0.608061,-0.94122 -1.179125,-1.90786 -1.738766,-2.86605 -0.242903,-0.41953 -0.485806,-0.8907 -0.754448,-1.34481 l -38.8770265,5.95096 z M 28.552715,82.577133 c 0.242903,-0.756378 0.485806,-1.571631 0.754446,-2.345012 0.181777,-0.419531 0.242903,-0.756377 0.426288,-1.12604 L 18.527095,74.718256 Z M 82.848782,41.789665 c 0.06437,-0.0025 0.181774,0.0016 0.242888,0 0.863836,-0.01425 1.738942,-0.02252 2.608233,0 0.863836,0.02252 1.738942,0.07238 2.608232,0.170194 0.863836,0.05791 1.732816,0.08526 2.608396,0.249338 0.48581,0.0563 1.008606,0.170192 1.520149,0.249337 L 73.802648,19.175782 Z" />
  </g>
</svg>
