<?xml version="1.0" encoding="UTF-8" standalone="no"?>
<svg
   xmlns:dc="http://purl.org/dc/elements/1.1/"
   xmlns:cc="http://creativecommons.org/ns#"
   xmlns:rdf="http://www.w3.org/1999/02/22-rdf-syntax-ns#"
   xmlns:svg="http://www.w3.org/2000/svg"
   xmlns="http://www.w3.org/2000/svg"
   xmlns:sodipodi="http://sodipodi.sourceforge.net/DTD/sodipodi-0.dtd"
   xmlns:inkscape="http://www.inkscape.org/namespaces/inkscape"
   width="300"
   height="300"
   viewBox="0 0 300 300"
   version="1.1"
   id="svg21608"
   inkscape:version="1.0.1 (3bc2e813f5, 2020-09-07)"
   sodipodi:docname="apprentice.svg">
  <defs
     id="defs21602" />
  <sodipodi:namedview
     id="base"
     pagecolor="#ffffff"
     bordercolor="#666666"
     borderopacity="1.0"
     inkscape:pageopacity="0.0"
     inkscape:pageshadow="2"
     inkscape:zoom="0.98994949"
     inkscape:cx="633.23103"
     inkscape:cy="308.38281"
     inkscape:document-units="px"
     inkscape:current-layer="layer1"
     inkscape:document-rotation="0"
     showgrid="false"
     units="px"
     width="300px" />
  <metadata
     id="metadata21605">
    <rdf:RDF>
      <cc:Work
         rdf:about="">
        <dc:format>image/svg+xml</dc:format>
        <dc:type
           rdf:resource="http://purl.org/dc/dcmitype/StillImage" />
        <dc:title />
      </cc:Work>
    </rdf:RDF>
  </metadata>
  <g
     inkscape:label="Layer 1"
     inkscape:groupmode="layer"
     id="layer1">
    <rect
       style="fill:#ffffff;stroke:#000000;stroke-width:0.94488;stroke-linecap:round;stroke-linejoin:round;stroke-miterlimit:4;stroke-dasharray:none;stroke-opacity:1;stop-color:#000000"
       id="rect6519"
       width="38.43652"
       height="20.411676"
       x="783.0611"
       y="255.10516" />
    <path
       d="m 783.92303,255.96712 h 18.68777 v 18.68776 h -18.68777 z"
       fill="#ffffff"
       fill-opacity="1"
       id="path6521"
       style="stroke-width:32.8807" />
    <path
       d="m 800.23103,256.59418 c -2.54401,0.60589 -5.84357,2.82689 -5.68663,5.70561 l -0.0219,0.011 c -0.44894,-1.22274 -1.08038,-1.76658 -2.27027,-2.30677 -1.56948,-0.68108 -3.27401,0 -5.7308,-1.36326 1.63555,2.0458 1.63555,4.77596 4.02262,5.4585 1.62423,0.5402 3.33241,0.22265 4.004,-0.27374 0.77744,2.65716 0.6643,5.28878 -0.53289,7.93865 -0.0475,-1.27749 -0.4088,-2.83967 -0.90884,-3.94925 -0.2044,1.36508 -0.0693,3.40905 -1.43443,4.77414 0.0693,-0.68255 -0.47815,-2.04398 -1.02199,-2.72652 0,1.36143 0.13505,2.72652 -0.75189,4.0916 h 8.80004 c 0.1898,-0.63874 0.2628,-1.27749 0.3285,-1.35778 -0.27375,0.17154 -0.53654,0.40514 -1.02564,0.49639 0.13505,0 0.084,-1.18624 0.0146,-1.86878 -0.54384,1.36509 -1.36143,2.04763 -2.24837,2.04763 0.95264,-1.36509 0.81759,-2.04763 0.68254,-3.40906 -0.47449,1.18259 -0.89789,1.85418 -1.94178,2.45642 1.37604,-2.87616 1.52934,-5.78153 0.70445,-8.65769 0.91613,0.4161 1.94907,0.2628 3.10976,-0.92709 1.35048,-1.38333 0.34309,-4.09342 1.90892,-6.13995 z m -1.20448,16.00213 c 0.007,0 0.0109,-0.004 0.0146,-0.007 -0.004,0 -0.007,0.004 -0.0146,0.007 z"
       fill="#d0021b"
       fill-opacity="1"
       id="path6523"
       style="font-variation-settings:normal;vector-effect:none;fill:#008000;fill-opacity:1;stroke-width:5.96512;stroke-linecap:butt;stroke-linejoin:miter;stroke-miterlimit:4;stroke-dasharray:none;stroke-dashoffset:0;stroke-opacity:1;stop-color:#000000" />
    <path
       d="m 802.6108,255.96712 h 18.68777 v 18.68776 H 802.6108 Z"
       fill="#ffffff"
       fill-opacity="1"
       id="path6537"
       style="stroke-width:32.8807" />
    <path
       d="m 818.9188,256.59418 c -2.54401,0.60589 -5.84357,2.82689 -5.68663,5.70561 l -0.0219,0.011 c -0.44894,-1.22274 -1.08038,-1.76658 -2.27027,-2.30677 -1.56948,-0.68108 -3.27401,0 -5.7308,-1.36326 1.63555,2.0458 1.63555,4.77596 4.02262,5.4585 1.62423,0.5402 3.33241,0.22265 4.004,-0.27374 0.77744,2.65716 0.6643,5.28878 -0.53289,7.93865 -0.0475,-1.27749 -0.4088,-2.83967 -0.90884,-3.94925 -0.2044,1.36508 -0.0693,3.40905 -1.43443,4.77414 0.0693,-0.68255 -0.47815,-2.04398 -1.02199,-2.72652 0,1.36143 0.13505,2.72652 -0.75189,4.0916 h 8.80004 c 0.1898,-0.63874 0.2628,-1.27749 0.3285,-1.35778 -0.27375,0.17154 -0.53654,0.40514 -1.02564,0.49639 0.13505,0 0.084,-1.18624 0.0146,-1.86878 -0.54384,1.36509 -1.36143,2.04763 -2.24837,2.04763 0.95264,-1.36509 0.81759,-2.04763 0.68254,-3.40906 -0.47449,1.18259 -0.89789,1.85418 -1.94178,2.45642 1.37604,-2.87616 1.52934,-5.78153 0.70445,-8.65769 0.91613,0.4161 1.94907,0.2628 3.10976,-0.92709 1.35048,-1.38333 0.34309,-4.09342 1.90892,-6.13995 z m -1.20448,16.00213 c 0.007,0 0.0109,-0.004 0.0146,-0.007 -0.004,0 -0.007,0.004 -0.0146,0.007 z"
       fill="#d0021b"
       fill-opacity="1"
       id="path6539"
       style="font-variation-settings:normal;vector-effect:none;fill:#008000;fill-opacity:1;stroke-width:5.96512;stroke-linecap:butt;stroke-linejoin:miter;stroke-miterlimit:4;stroke-dasharray:none;stroke-dashoffset:0;stroke-opacity:1;stop-color:#000000" />
    <rect
       style="fill:#ffffff;stroke:#000000;stroke-width:0.94488;stroke-linecap:round;stroke-linejoin:round;stroke-miterlimit:4;stroke-dasharray:none;stroke-opacity:1;stop-color:#000000"
       id="rect6296"
       width="20.411697"
       height="20.411676"
       x="721.82599"
       y="255.10516" />
    <rect
       style="fill:#ffffff;stroke:#000000;stroke-width:0.94488;stroke-linecap:round;stroke-linejoin:round;stroke-miterlimit:4;stroke-dasharray:none;stroke-opacity:1;stop-color:#000000"
       id="rect6442"
       width="20.411697"
       height="20.411676"
       x="742.23767"
       y="255.10516" />
    <path
       style="fill:#552200;stroke-width:1.37545"
       d="m 751.35496,271.65434 v 1.47415 h 2.1772 v -1.47415 z"
       id="path6489" />
    <path
       style="fill:#666666;stroke-width:1.37545"
       d="m 752.80334,269.81166 v 1.23962 h 0.72882 v -1.23962 z"
       id="path6491" />
    <path
       style="fill:#666666;stroke-width:1.37545"
       d="m 751.35496,269.81166 v 1.23962 h 0.72882 v -1.23962 z"
       id="path6493" />
    <path
       style="fill:#5599ff;stroke-width:1.37545"
       d="m 755.45423,258.30063 c 0.92555,1.33568 1.22458,2.55564 1.10425,3.80036 -0.10018,1.03548 -0.47157,2.07687 -0.96409,3.24915 0.0988,-0.11022 0.19731,-0.21944 0.2928,-0.32699 0.943,-1.06139 1.69322,-2.02106 1.69322,-4.08989 0,-0.92134 -0.72311,-1.7856 -1.76116,-2.42454 -0.11818,-0.0728 -0.24027,-0.14205 -0.36502,-0.20806 z"
       id="path6495" />
    <path
       style="fill:#5599ff;stroke-width:1.37545"
       d="m 749.43289,258.30063 c -0.12475,0.066 -0.24684,0.13535 -0.36502,0.20806 -1.03805,0.63901 -1.76116,1.50323 -1.76116,2.42457 0,2.06883 0.75022,3.0285 1.69322,4.08989 0.0955,0.10755 0.19398,0.21677 0.29284,0.32699 -0.49253,-1.17228 -0.86391,-2.21367 -0.9641,-3.24915 -0.12032,-1.24472 0.1787,-2.46468 1.10425,-3.80036 z"
       id="path6497" />
    <path
       style="fill:#5599ff;stroke-width:1.37545"
       d="m 753.55921,257.61113 c 0.84819,1.77836 0.94691,3.6575 0.82274,5.55278 -0.0965,1.47358 -0.32433,2.96405 -0.45224,4.44915 0.11114,-0.21187 0.22779,-0.41125 0.25837,-0.51806 l 0.15138,-0.38395 c 0.81782,-1.87934 1.48061,-3.33479 1.60944,-4.66729 0.12893,-1.33243 -0.23684,-2.56612 -1.5633,-4.13378 l -0.0816,-0.0965 c -0.24936,-0.0819 -0.49947,-0.14986 -0.74467,-0.20236 z"
       id="path6499" />
    <path
       style="fill:#5599ff;stroke-width:1.37545"
       d="m 751.32791,257.61113 c -0.24527,0.0525 -0.49538,0.12045 -0.74477,0.20236 l -0.0816,0.0965 c -1.32646,1.56762 -1.6922,2.80132 -1.56334,4.13378 0.12883,1.3325 0.79162,2.78795 1.60943,4.66736 l 0.15139,0.38388 c 0.0306,0.10681 0.1472,0.30622 0.25834,0.51806 -0.12791,-1.48507 -0.35574,-2.97557 -0.45225,-4.44915 -0.12417,-1.89528 -0.0254,-3.77439 0.82275,-5.55278 z"
       id="path6501" />
    <path
       style="fill:#5599ff;stroke-width:1.37545"
       d="m 752.13739,257.49353 c -0.0218,0.002 -0.0438,0.003 -0.0659,0.005 -0.96083,1.75711 -1.08561,3.63813 -0.95539,5.62642 0.12826,1.95727 0.50743,4.00506 0.54213,6.08354 h 1.57058 c 0.0347,-2.07848 0.41391,-4.12627 0.54213,-6.08354 0.13022,-1.98832 0.005,-3.86931 -0.95539,-5.62642 -0.022,-0.002 -0.044,-0.004 -0.0659,-0.005 v 10.94449 h -0.61234 z"
       id="path6503" />
    <rect
       style="fill:#ffffff;stroke:#000000;stroke-width:0.94488;stroke-linecap:round;stroke-linejoin:round;stroke-miterlimit:4;stroke-dasharray:none;stroke-opacity:1;stop-color:#000000"
       id="rect6556"
       width="20.411697"
       height="20.411676"
       x="762.64941"
       y="255.10516" />
    <rect
       style="fill:#ffffff;stroke:#000000;stroke-width:0.94488;stroke-linecap:round;stroke-linejoin:round;stroke-miterlimit:4;stroke-dasharray:none;stroke-opacity:1;stop-color:#000000"
       id="rect6580"
       width="38.43652"
       height="20.411676"
       x="821.49762"
       y="255.10516" />
    <path
       id="path6298"
       style="font-variation-settings:normal;vector-effect:none;fill:#cccccc;fill-opacity:1;stroke:#000000;stroke-width:0.377952;stroke-linecap:round;stroke-linejoin:round;stroke-miterlimit:4;stroke-dasharray:none;stroke-dashoffset:0;stroke-opacity:1;paint-order:fill markers stroke;stop-color:#000000"
       d="m 672.48127,256.31279 h 41.54236 l 4.10774,11.11303 -4.10774,11.11302 h -41.54236 z"
       sodipodi:nodetypes="cccccc" />
    <path
       d="m 700.3549,258.63242 c -0.15476,-7.3e-4 -0.31098,-3e-4 -0.46895,10e-4 13.02936,1.25073 5.46282,10.82598 -4.85517,8.23704 v 1.06841 c 7.618,1.899 14.85167,-3.03227 12.23556,-6.80045 2.71017,1.98923 0.39883,8.34989 -7.93646,9.53631 2.92186,-0.64951 5.53881,-2.11745 6.89086,-4.11642 v -1.1e-4 c -2.80233,2.74732 -7.29612,3.6401 -11.19113,3.04822 v 1.40695 l 10e-4,1.1e-4 v 1.09437 c 3.78151,0.65516 8.41206,-0.39529 11.57219,-3.58397 -2.3482,3.35614 -7.26283,5.45741 -11.57219,5.2063 v 2.29735 c 13.85546,-0.004 20.85114,-9.39761 15.71467,-14.37735 3.31774,5.68094 -4.37502,12.36831 -11.24624,12.38276 9.18672,-1.38625 13.94334,-11.71518 6.61759,-14.74238 -1.59449,-0.41098 -3.50776,-0.64823 -5.76182,-0.6583 z"
       fill="#48baff"
       fill-opacity="1"
       id="path6261"
       style="stroke-width:32.8807" />
    <path
       d="m 841.04729,255.96712 h 18.68777 v 18.68776 h -18.68777 z"
       fill="#ffffff"
       fill-opacity="1"
       id="path6590"
       style="stroke-width:32.8807" />
    <path
       d="m 857.35529,256.59418 c -2.54401,0.60589 -5.84357,2.82689 -5.68663,5.70561 l -0.0219,0.011 c -0.44894,-1.22274 -1.08038,-1.76658 -2.27027,-2.30677 -1.56948,-0.68108 -3.27401,0 -5.7308,-1.36326 1.63555,2.0458 1.63555,4.77596 4.02262,5.4585 1.62423,0.5402 3.33241,0.22265 4.004,-0.27374 0.77744,2.65716 0.6643,5.28878 -0.53289,7.93865 -0.0475,-1.27749 -0.4088,-2.83967 -0.90884,-3.94925 -0.2044,1.36508 -0.0693,3.40905 -1.43443,4.77414 0.0693,-0.68255 -0.47815,-2.04398 -1.02199,-2.72652 0,1.36143 0.13505,2.72652 -0.75189,4.0916 h 8.80004 c 0.1898,-0.63874 0.2628,-1.27749 0.3285,-1.35778 -0.27375,0.17154 -0.53654,0.40514 -1.02564,0.49639 0.13505,0 0.0839,-1.18624 0.0146,-1.86878 -0.54384,1.36509 -1.36143,2.04763 -2.24837,2.04763 0.95264,-1.36509 0.81759,-2.04763 0.68254,-3.40906 -0.47449,1.18259 -0.89789,1.85418 -1.94178,2.45642 1.37604,-2.87616 1.52934,-5.78153 0.70445,-8.65769 0.91613,0.4161 1.94907,0.2628 3.10976,-0.92709 1.35048,-1.38333 0.34309,-4.09342 1.90892,-6.13995 z m -1.20448,16.00213 c 0.007,0 0.0109,-0.004 0.0146,-0.007 -0.004,0 -0.007,0.004 -0.0146,0.007 z"
       fill="#d0021b"
       fill-opacity="1"
       id="path6592"
       style="font-variation-settings:normal;vector-effect:none;fill:#008000;fill-opacity:1;stroke-width:5.96512;stroke-linecap:butt;stroke-linejoin:miter;stroke-miterlimit:4;stroke-dasharray:none;stroke-dashoffset:0;stroke-opacity:1;stop-color:#000000" />
    <path
       style="fill:#552200;stroke-width:1.37545"
       d="m 831.12537,271.01786 v 1.47415 h 2.1772 v -1.47415 z"
       id="path6619" />
    <path
       style="fill:#666666;stroke-width:1.37545"
       d="m 832.57375,269.17518 v 1.23962 h 0.72882 v -1.23962 z"
       id="path6621" />
    <path
       style="fill:#666666;stroke-width:1.37545"
       d="m 831.12537,269.17518 v 1.23962 h 0.72882 v -1.23962 z"
       id="path6623" />
    <path
       style="fill:#5599ff;stroke-width:1.37545"
       d="m 835.22464,257.66415 c 0.92555,1.33568 1.22458,2.55564 1.10425,3.80036 -0.10018,1.03548 -0.47157,2.07687 -0.96409,3.24915 0.0988,-0.11022 0.19731,-0.21944 0.2928,-0.32699 0.943,-1.06139 1.69322,-2.02106 1.69322,-4.08989 0,-0.92134 -0.72311,-1.7856 -1.76116,-2.42454 -0.11818,-0.0728 -0.24027,-0.14205 -0.36502,-0.20806 z"
       id="path6625" />
    <path
       style="fill:#5599ff;stroke-width:1.37545"
       d="m 829.2033,257.66415 c -0.12475,0.066 -0.24684,0.13535 -0.36502,0.20806 -1.03805,0.63901 -1.76116,1.50323 -1.76116,2.42457 0,2.06883 0.75022,3.0285 1.69322,4.08989 0.0955,0.10755 0.19398,0.21677 0.29284,0.32699 -0.49253,-1.17228 -0.86391,-2.21367 -0.9641,-3.24915 -0.12032,-1.24472 0.1787,-2.46468 1.10425,-3.80036 z"
       id="path6627" />
    <path
       style="fill:#5599ff;stroke-width:1.37545"
       d="m 833.32962,256.97465 c 0.84819,1.77836 0.94691,3.6575 0.82274,5.55278 -0.0965,1.47358 -0.32433,2.96405 -0.45224,4.44915 0.11114,-0.21187 0.22779,-0.41125 0.25837,-0.51806 l 0.15138,-0.38395 c 0.81782,-1.87934 1.48061,-3.33479 1.60944,-4.66729 0.12893,-1.33243 -0.23684,-2.56612 -1.5633,-4.13378 l -0.0817,-0.0965 c -0.24936,-0.0819 -0.49947,-0.14986 -0.74467,-0.20236 z"
       id="path6629" />
    <path
       style="fill:#5599ff;stroke-width:1.37545"
       d="m 831.09832,256.97465 c -0.24527,0.0525 -0.49538,0.12045 -0.74477,0.20236 l -0.0816,0.0965 c -1.32646,1.56762 -1.6922,2.80132 -1.56334,4.13378 0.12883,1.3325 0.79162,2.78795 1.60943,4.66736 l 0.15139,0.38388 c 0.0305,0.10681 0.1472,0.30622 0.25834,0.51806 -0.12791,-1.48507 -0.35574,-2.97557 -0.45225,-4.44915 -0.12417,-1.89528 -0.0254,-3.77439 0.82275,-5.55278 z"
       id="path6631" />
    <path
       style="fill:#5599ff;stroke-width:1.37545"
       d="m 831.9078,256.85705 c -0.0218,0.002 -0.0438,0.003 -0.0659,0.005 -0.96083,1.75711 -1.08561,3.63813 -0.95539,5.62642 0.12826,1.95727 0.50743,4.00506 0.54213,6.08354 h 1.57058 c 0.0347,-2.07848 0.41391,-4.12627 0.54213,-6.08354 0.13022,-1.98832 0.005,-3.86931 -0.95539,-5.62642 -0.022,-0.002 -0.044,-0.004 -0.0659,-0.005 v 10.94449 h -0.61234 z"
       id="path6633" />
    <path
       d="m 700.3549,258.63242 c -0.15476,-7.3e-4 -0.31098,-3e-4 -0.46895,10e-4 13.02936,1.25073 5.46282,10.82598 -4.85517,8.23704 v 1.06841 c 7.618,1.899 14.85167,-3.03227 12.23556,-6.80045 2.71017,1.98923 0.39883,8.34989 -7.93646,9.53631 2.92186,-0.64951 5.53881,-2.11745 6.89086,-4.11642 v -1.1e-4 c -2.80233,2.74732 -7.29612,3.6401 -11.19113,3.04822 v 1.40695 l 10e-4,1.1e-4 v 1.09437 c 3.78151,0.65516 8.41206,-0.39529 11.57219,-3.58397 -2.3482,3.35614 -7.26283,5.45741 -11.57219,5.2063 v 2.29735 c 13.85546,-0.004 20.85114,-9.39761 15.71467,-14.37735 3.31774,5.68094 -4.37502,12.36831 -11.24624,12.38276 9.18672,-1.38625 13.94334,-11.71518 6.61759,-14.74238 -1.59449,-0.41098 -3.50776,-0.64823 -5.76182,-0.6583 z"
       fill="#48baff"
       fill-opacity="1"
       id="path8175"
       style="stroke-width:32.8807" />
    <text
       xml:space="preserve"
       style="font-size:12.8014px;line-height:1.25;font-family:'Archivo Narrow';-inkscape-font-specification:'Archivo Narrow';letter-spacing:0px;word-spacing:0px;stroke-width:1"
       x="643.82428"
       y="270.26926"
       id="text8561"><tspan
         sodipodi:role="line"
         id="tspan8559"
         x="643.82428"
         y="270.26926"
         style="font-size:12.8014px;stroke-width:1">Pilots</tspan></text>
    <path
       d="m 150.00255,18.179445 c -17.85739,0 -30.70019,9.441145 -38.11768,21.298179 -6.63363,10.604082 -9.39371,22.903917 -9.93199,33.676571 -20.243698,10.001486 -42.669284,20.084995 -60.725149,30.393715 -9.47103,5.40746 -17.728408,10.8467 -23.944147,16.69225 -6.21573,5.84431 -10.8017673,12.42599 -10.8017673,20.19064 0,3.30399 1.6137251,5.99692 3.4326438,7.97266 1.8214305,1.97592 4.0039435,3.51028 6.4894865,4.94292 4.970296,2.86542 11.236899,5.2536 18.129885,7.31935 10.240185,3.07014 21.708727,5.35253 31.68032,6.32858 -9.918055,17.07557 -23.117409,32.75937 -34.687691,47.78703 -13.371209,17.36764 -25.0446443,34.02358 -25.0446443,52.52646 0,2.64331 -0.031332,4.70703 0.2050432,6.77999 0.2347766,2.07295 0.8311235,4.66069 2.9167526,6.71127 2.0865685,2.05119 4.6408255,2.60231 6.7215995,2.82833 2.080782,0.22851 4.176591,0.20033 6.865134,0.20033 H 96.9627 c 5.35519,0 9.27665,0.32556 13.31033,-2.26656 4.03446,-2.5904 5.50544,-6.12902 8.37978,-11.41565 l 0.0625,-0.10953 0.0469,-0.10953 c 0,0 6.43064,-13.06443 14.10342,-26.02838 3.83599,-6.48134 8.00085,-12.93608 11.6232,-17.51039 1.81218,-2.28629 3.50792,-4.09957 4.72893,-5.12385 0.37252,-0.31146 0.54313,-0.37095 0.7826,-0.50242 0.23947,0.12522 0.41009,0.19096 0.78261,0.50242 1.22085,1.02365 2.91675,2.83756 4.72893,5.12385 3.62235,4.57431 7.78705,11.02905 11.6232,17.51039 7.67199,12.96395 14.10342,26.02759 14.10342,26.02759 l 0.0469,0.10953 0.0625,0.10953 c 2.87434,5.28647 4.33201,8.80395 8.34001,11.4017 4.00662,2.597 7.91947,2.27972 13.1992,2.27972 h 74.09713 c 2.64552,0 4.70908,0.0314 6.77515,-0.20034 2.0656,-0.23009 4.62845,-0.79982 6.69326,-2.8626 2.06357,-2.06309 2.63503,-4.62376 2.86385,-6.68747 0.23009,-2.0631 0.20192,-4.1262 0.20192,-6.7695 0,-18.50288 -11.67343,-35.15883 -25.0448,-52.52709 -11.56951,-15.02704 -24.76885,-30.71083 -34.6877,-47.78703 9.97176,-0.97668 21.44015,-3.25781 31.68048,-6.32796 6.893,-2.06512 13.1596,-4.45394 18.12989,-7.31857 2.48555,-1.43216 4.66806,-2.96715 6.48824,-4.9429 1.8208,-1.97591 3.43389,-4.66869 3.43389,-7.97282 0,-7.76451 -4.58603,-14.34633 -10.80177,-20.19066 -6.21574,-5.84555 -14.47312,-11.28478 -23.94416,-16.69224 -18.05583,-10.308725 -40.48142,-20.392852 -60.72511,-30.393557 -0.53844,-10.771404 -3.29898,-23.07249 -9.932,-33.67532 -7.41749,-11.857665 -20.26028,-21.29818 -38.11767,-21.29818 z"
       fill="#000000"
       fill-opacity="1"
       id="path8565"
       style="fill:#800080;stroke-width:9.03106" />
  </g>
</svg>
