<?xml version="1.0" encoding="UTF-8" standalone="no"?>
<svg
   width="300"
   height="300"
   viewBox="0 0 300 300"
   version="1.1"
   id="svg21608"
   inkscape:version="1.2 (dc2aeda, 2022-05-15)"
   sodipodi:docname="mage-income.svg"
   xmlns:inkscape="http://www.inkscape.org/namespaces/inkscape"
   xmlns:sodipodi="http://sodipodi.sourceforge.net/DTD/sodipodi-0.dtd"
   xmlns="http://www.w3.org/2000/svg"
   xmlns:svg="http://www.w3.org/2000/svg"
   xmlns:rdf="http://www.w3.org/1999/02/22-rdf-syntax-ns#"
   xmlns:cc="http://creativecommons.org/ns#"
   xmlns:dc="http://purl.org/dc/elements/1.1/">
  <defs
     id="defs21602" />
  <sodipodi:namedview
     id="base"
     pagecolor="#ffffff"
     bordercolor="#666666"
     borderopacity="1.0"
     inkscape:pageopacity="0.0"
     inkscape:pageshadow="2"
     inkscape:zoom="0.98994949"
     inkscape:cx="160.10918"
     inkscape:cy="119.70308"
     inkscape:document-units="px"
     inkscape:current-layer="layer1"
     inkscape:document-rotation="0"
     showgrid="false"
     units="px"
     width="300px"
     inkscape:showpageshadow="2"
     inkscape:pagecheckerboard="0"
     inkscape:deskcolor="#d1d1d1"
     inkscape:window-width="886"
     inkscape:window-height="839"
     inkscape:window-x="550"
     inkscape:window-y="38"
     inkscape:window-maximized="0" />
  <metadata
     id="metadata21605">
    <rdf:RDF>
      <cc:Work
         rdf:about="">
        <dc:format>image/svg+xml</dc:format>
        <dc:type
           rdf:resource="http://purl.org/dc/dcmitype/StillImage" />
        <dc:title />
      </cc:Work>
    </rdf:RDF>
  </metadata>
  <g
     inkscape:label="Layer 1"
     inkscape:groupmode="layer"
     id="layer1">
    <path
       id="path268822"
       style="font-variation-settings:normal;display:inline;vector-effect:none;fill:#800080;fill-opacity:1;stroke-width:6.23788;stroke-linecap:butt;stroke-linejoin:miter;stroke-miterlimit:4;stroke-dasharray:none;stroke-dashoffset:0;stroke-opacity:1;stop-color:#000000"
       d="m 149.96288,22.230844 c -17.1748,0 -29.52901,9.096982 -36.66195,20.501751 -6.37259,10.198078 -9.00903,22.030932 -9.52758,32.392003 -19.469382,9.61914 -41.067514,19.300577 -58.433621,29.215632 -9.108308,5.20288 -17.028015,10.4325 -23.006189,16.05512 -5.972985,5.61916 -10.408757,11.93936 -10.408757,19.40644 0,3.18112 1.570102,5.79742 3.317982,7.69491 1.754171,1.89671 3.859004,3.34771 6.244047,4.72115 4.780618,2.75303 10.801123,5.07797 17.430451,7.05396 9.849772,2.95518 20.861394,5.13145 30.452519,6.06973 -9.539364,16.42327 -22.217204,31.52454 -33.345402,45.9773 -12.860166,16.70314 -24.100225,32.73279 -24.100225,50.52839 0,2.5389 -0.01576,4.50122 0.237559,6.49373 0.237572,1.99188 0.808651,4.48328 2.818471,6.46226 2.00982,1.96813 4.459678,2.50916 6.465258,2.71731 1.997854,0.23755 4.007674,0.23755 6.600859,0.23755 h 70.960426 c 5.143252,0 8.929272,0.29734 12.807952,-2.18822 3.87679,-2.4914 5.28013,-5.88661 8.04511,-10.9748 l 0.0629,-0.0629 0.0315,-0.17778 c 0,0 6.17264,-12.54867 13.5499,-25.01711 3.68658,-6.2376 7.70261,-12.43287 11.1853,-16.83167 1.73622,-2.20018 3.37744,-3.9542 4.55469,-4.94125 0.29735,-0.23756 0.59469,-0.29734 0.71898,-0.47512 0.23756,0.17778 0.41534,0.23756 0.79606,0.47512 1.17679,0.98642 2.77096,2.74704 4.519,4.94125 3.48457,4.39407 7.49462,10.59832 11.18592,16.83167 7.38214,12.46844 13.58449,25.01711 13.58449,25.01711 l 0.0315,0.17778 0.0629,0.0629 c 2.75899,5.08394 4.14455,8.4757 8.01002,10.9748 3.8532,2.49736 7.623,2.18822 12.70269,2.18822 H 272.098 c 2.54488,0 4.53692,0.0158 6.52221,-0.23755 1.98606,-0.23756 4.47744,-0.80236 6.46524,-2.75303 1.98607,-1.98606 2.53309,-4.43576 2.75303,-6.42183 0.23756,-1.98606 0.23756,-3.95419 0.23756,-6.49435 0,-17.7956 -11.20419,-33.82446 -24.06389,-50.52838 -11.12756,-14.45262 -23.84158,-29.55404 -33.38096,-45.97714 9.59051,-0.94552 20.63847,-3.1218 30.48697,-6.06927 6.62934,-1.98607 12.65158,-4.29906 17.43157,-7.05443 2.3844,-1.37974 4.5012,-2.82445 6.24404,-4.72729 1.75417,-1.89671 3.28227,-4.52497 3.28227,-7.69474 0,-7.47024 -4.39407,-13.78494 -10.37351,-19.40645 -5.97298,-5.61901 -13.93235,-10.8546 -23.04127,-16.05512 C 237.29567,94.424534 215.73262,84.741214 196.2626,75.123509 195.66792,64.762899 193.11705,52.928316 186.73629,42.730699 179.59974,31.326096 167.2485,22.229742 150.07433,22.229742 Z m -11.00926,83.626936 h 22.05423 v 33.09793 h 33.0973 v 22.08915 h -33.0973 V 194.1066 H 138.95362 V 161.04486 H 105.8557 v -22.08915 h 33.09792 z" />
  </g>
</svg>
