<?xml version="1.0" encoding="UTF-8" standalone="no"?>
<svg
   xmlns:dc="http://purl.org/dc/elements/1.1/"
   xmlns:cc="http://creativecommons.org/ns#"
   xmlns:rdf="http://www.w3.org/1999/02/22-rdf-syntax-ns#"
   xmlns:svg="http://www.w3.org/2000/svg"
   xmlns="http://www.w3.org/2000/svg"
   xmlns:sodipodi="http://sodipodi.sourceforge.net/DTD/sodipodi-0.dtd"
   xmlns:inkscape="http://www.inkscape.org/namespaces/inkscape"
   width="300"
   height="300"
   viewBox="0 0 300 300"
   version="1.1"
   id="svg21608"
   inkscape:version="1.0.1 (3bc2e813f5, 2020-09-07)"
   sodipodi:docname="meeple.svg">
  <defs
     id="defs21602" />
  <sodipodi:namedview
     id="base"
     pagecolor="#ffffff"
     bordercolor="#666666"
     borderopacity="1.0"
     inkscape:pageopacity="0.0"
     inkscape:pageshadow="2"
     inkscape:zoom="0.98994949"
     inkscape:cx="633.23103"
     inkscape:cy="308.38281"
     inkscape:document-units="px"
     inkscape:current-layer="layer1"
     inkscape:document-rotation="0"
     showgrid="false"
     units="px"
     width="300px" />
  <metadata
     id="metadata21605">
    <rdf:RDF>
      <cc:Work
         rdf:about="">
        <dc:format>image/svg+xml</dc:format>
        <dc:type
           rdf:resource="http://purl.org/dc/dcmitype/StillImage" />
        <dc:title />
      </cc:Work>
    </rdf:RDF>
  </metadata>
  <g
     inkscape:label="Layer 1"
     inkscape:groupmode="layer"
     id="layer1">
    <g
       id="g4026"
       transform="matrix(72.130286,0,0,72.130215,-9281.7861,-9542.2075)"
       style="stroke-width:0.0523986">
      <path
         d="m 130.75628,132.50016 v 2.85347 c 0.003,0.002 0.006,0.003 0.011,0.007 0.0172,0.0144 0.0411,0.04 0.0666,0.0722 0.051,0.0644 0.10968,0.15535 0.16371,0.24664 0.10806,0.1826 0.19865,0.3666 0.19865,0.3666 l 7.5e-4,0.002 8.2e-4,0.001 c 0.0405,0.0745 0.061,0.124 0.11747,0.16059 0.0564,0.0366 0.11154,0.0321 0.18591,0.0321 h 1.04367 c 0.0373,0 0.0663,4e-4 0.0954,-0.003 0.0291,-0.003 0.0652,-0.0113 0.0943,-0.0403 0.0291,-0.0291 0.0371,-0.0651 0.0403,-0.0942 0.003,-0.0291 0.003,-0.0581 0.003,-0.0953 0,-0.26062 -0.16443,-0.49522 -0.35276,-0.73985 -0.16296,-0.21166 -0.34888,-0.43257 -0.48859,-0.67309 0.14046,-0.0138 0.30199,-0.0459 0.44623,-0.0891 0.0971,-0.0291 0.18535,-0.0627 0.25536,-0.10308 0.035,-0.0202 0.0658,-0.0418 0.0914,-0.0696 0.0256,-0.0278 0.0484,-0.0658 0.0484,-0.1123 0,-0.10937 -0.0646,-0.20207 -0.15215,-0.28439 -0.0876,-0.0823 -0.20386,-0.15895 -0.33726,-0.23511 -0.25432,-0.1452 -0.57019,-0.28724 -0.85532,-0.4281 -0.008,-0.15172 -0.0465,-0.32498 -0.1399,-0.47433 -0.10447,-0.16702 -0.28537,-0.29999 -0.53689,-0.29999 z"
         fill="#000000"
         fill-opacity="1"
         id="path3990"
         style="fill:#c87137;stroke-width:0.125206"
         sodipodi:nodetypes="ccsssccssssssssscsssssscsc" />
      <path
         d="m 130.76455,132.50016 v 2.85347 c -0.003,0.002 -0.006,0.003 -0.011,0.007 -0.0172,0.0144 -0.0411,0.04 -0.0666,0.0722 -0.051,0.0644 -0.10968,0.15535 -0.16371,0.24664 -0.10807,0.1826 -0.19865,0.3666 -0.19865,0.3666 l -7.5e-4,0.002 -8.2e-4,0.001 c -0.0405,0.0745 -0.061,0.124 -0.11747,0.16059 -0.0564,0.0366 -0.11154,0.0321 -0.18591,0.0321 h -1.04367 c -0.0373,0 -0.0663,4e-4 -0.0954,-0.003 -0.0291,-0.003 -0.0652,-0.0113 -0.0943,-0.0403 -0.0291,-0.0291 -0.0371,-0.0651 -0.0403,-0.0942 -0.003,-0.0291 -0.003,-0.0581 -0.003,-0.0953 0,-0.26062 0.16443,-0.49522 0.35276,-0.73985 0.16296,-0.21166 0.34888,-0.43257 0.48859,-0.67309 -0.14046,-0.0138 -0.30199,-0.0459 -0.44623,-0.0891 -0.0971,-0.0291 -0.18535,-0.0627 -0.25536,-0.10308 -0.035,-0.0202 -0.0657,-0.0418 -0.0914,-0.0696 -0.0257,-0.0278 -0.0484,-0.0658 -0.0484,-0.1123 0,-0.10937 0.0646,-0.20207 0.15215,-0.28439 0.0875,-0.0823 0.20385,-0.15895 0.33726,-0.23511 0.25432,-0.1452 0.57018,-0.28724 0.85532,-0.4281 0.008,-0.15172 0.0465,-0.32498 0.1399,-0.47433 0.10447,-0.16702 0.28536,-0.29999 0.53689,-0.29999 z"
         fill="#000000"
         fill-opacity="1"
         id="path4001"
         style="font-variation-settings:normal;opacity:1;vector-effect:none;fill:#800080;fill-opacity:1;stroke-width:0.125206;stroke-linecap:butt;stroke-linejoin:miter;stroke-miterlimit:4;stroke-dasharray:none;stroke-dashoffset:0;stroke-opacity:1;stop-color:#000000;stop-opacity:1"
         sodipodi:nodetypes="ccsssccssssssssscsssssscsc" />
    </g>
  </g>
</svg>
