<?xml version="1.0" encoding="UTF-8" standalone="no"?>
<svg
   xmlns:dc="http://purl.org/dc/elements/1.1/"
   xmlns:cc="http://creativecommons.org/ns#"
   xmlns:rdf="http://www.w3.org/1999/02/22-rdf-syntax-ns#"
   xmlns:svg="http://www.w3.org/2000/svg"
   xmlns="http://www.w3.org/2000/svg"
   xmlns:sodipodi="http://sodipodi.sourceforge.net/DTD/sodipodi-0.dtd"
   xmlns:inkscape="http://www.inkscape.org/namespaces/inkscape"
   width="300"
   height="300"
   viewBox="0 0 300 300"
   version="1.1"
   id="svg21608"
   inkscape:version="1.0.1 (3bc2e813f5, 2020-09-07)"
   sodipodi:docname="mine.svg">
  <defs
     id="defs21602" />
  <sodipodi:namedview
     id="base"
     pagecolor="#ffffff"
     bordercolor="#666666"
     borderopacity="1.0"
     inkscape:pageopacity="0.0"
     inkscape:pageshadow="2"
     inkscape:zoom="1.979899"
     inkscape:cx="645.49276"
     inkscape:cy="312.77216"
     inkscape:document-units="px"
     inkscape:current-layer="layer1"
     inkscape:document-rotation="0"
     showgrid="false"
     units="px"
     width="300px" />
  <metadata
     id="metadata21605">
    <rdf:RDF>
      <cc:Work
         rdf:about="">
        <dc:format>image/svg+xml</dc:format>
        <dc:type
           rdf:resource="http://purl.org/dc/dcmitype/StillImage" />
        <dc:title />
      </cc:Work>
    </rdf:RDF>
  </metadata>
  <g
     inkscape:label="Layer 1"
     inkscape:groupmode="layer"
     id="layer1">
    <g
       id="g6743"
       transform="matrix(0.60005429,0,0,0.59698748,296.98486,-362.18695)"
       style="stroke-width:1.67078">
      <g
         class=""
         transform="translate(3,-1)"
         id="g6741"
         style="stroke-width:1.67078">
        <g
           id="g6739"
           transform="translate(-519.21841,603.06108)"
           style="stroke-width:1.67078">
          <path
             d="m 286.031,211.595 c -0.745,0.007 -1.525,0.022 -2.31,0.062 -8.694,0.44 -19.32,2.508 -29.626,5.594 -10.308,3.086 -20.344,7.183 -28.063,11.313 -5.254,2.81 -8.667,5.522 -10.905,7.53 5.213,15.886 19.636,48.602 36.22,77 9.044,15.492 18.7,29.674 27.218,39 4.258,4.664 8.254,8.075 11.218,9.813 2.965,1.74 4.307,1.64 4.595,1.563 0.288,-0.077 1.42,-0.62 3.094,-3.564 1.67,-2.944 3.424,-7.837 4.75,-13.97 2.648,-12.262 3.823,-29.34 3.81,-47.217 -0.02,-33.398 -4.27,-69.712 -7.842,-85.564 -2.73,-0.895 -6.933,-1.61 -12.157,-1.562 z"
             id="path6733"
             style="font-variation-settings:normal;opacity:1;vector-effect:none;fill:#333333;fill-opacity:1;stroke-width:1.67078;stroke-linecap:butt;stroke-linejoin:miter;stroke-miterlimit:4;stroke-dasharray:none;stroke-dashoffset:0;stroke-opacity:1;stop-color:#000000;stop-opacity:1" />
          <path
             d="m 413.874,199.531 c -13.045,15.41 -48.86,31.746 -91.874,45.845 1.64,16.418 2.707,35.075 2.72,53.344 0.01,18.658 -1.105,36.594 -4.25,51.155 -1.574,7.28 -3.61,13.75 -6.75,19.28 -3.143,5.53 -7.815,10.59 -14.564,12.376 -6.75,1.786 -13.316,-0.275 -18.812,-3.5 -5.497,-3.223 -10.55,-7.79 -15.594,-13.31 -10.087,-11.045 -20.125,-26.058 -29.563,-42.22 -9.477,-16.23 -18.235,-33.37 -25.218,-48.688 -45.532,8.43 -85.193,11.69 -102.126,6.313 27.59,101.65 71.632,175.738 120.312,216.094 H 388.75 c 47.247,-52.587 62.203,-160.075 25.125,-296.69 z"
             id="path6735"
             style="font-variation-settings:normal;opacity:1;vector-effect:none;fill:#333333;fill-opacity:1;stroke-width:1.67078;stroke-linecap:butt;stroke-linejoin:miter;stroke-miterlimit:4;stroke-dasharray:none;stroke-dashoffset:0;stroke-opacity:1;stop-color:#000000;stop-opacity:1" />
          <path
             d="m 173.844,15.563 v 0.03 l 52.22,192.157 c 7.035,-3.16 14.752,-6.03 22.686,-8.406 8.894,-2.663 18.006,-4.683 26.72,-5.72 L 227,15.565 Z"
             id="path6737"
             style="font-variation-settings:normal;opacity:1;vector-effect:none;fill:#552200;fill-opacity:1;stroke-width:1.67078;stroke-linecap:butt;stroke-linejoin:miter;stroke-miterlimit:4;stroke-dasharray:none;stroke-dashoffset:0;stroke-opacity:1;stop-color:#000000;stop-opacity:1" />
        </g>
      </g>
    </g>
  </g>
</svg>
