<?xml version="1.0" encoding="UTF-8" standalone="no"?>
<svg
   width="300"
   height="300"
   viewBox="0 0 300 300"
   version="1.1"
   id="svg21608"
   inkscape:version="1.3 (0e150ed6c4, 2023-07-21)"
   sodipodi:docname="plink.svg"
   xml:space="preserve"
   xmlns:inkscape="http://www.inkscape.org/namespaces/inkscape"
   xmlns:sodipodi="http://sodipodi.sourceforge.net/DTD/sodipodi-0.dtd"
   xmlns="http://www.w3.org/2000/svg"
   xmlns:svg="http://www.w3.org/2000/svg"
   xmlns:rdf="http://www.w3.org/1999/02/22-rdf-syntax-ns#"
   xmlns:cc="http://creativecommons.org/ns#"
   xmlns:dc="http://purl.org/dc/elements/1.1/"><defs
     id="defs21602" /><sodipodi:namedview
     id="base"
     pagecolor="#ffffff"
     bordercolor="#666666"
     borderopacity="1.0"
     inkscape:pageopacity="0.0"
     inkscape:pageshadow="2"
     inkscape:zoom="0.98994949"
     inkscape:cx="633.23103"
     inkscape:cy="308.38281"
     inkscape:document-units="px"
     inkscape:current-layer="layer1"
     inkscape:document-rotation="0"
     showgrid="false"
     units="px"
     width="300px"
     inkscape:showpageshadow="2"
     inkscape:pagecheckerboard="0"
     inkscape:deskcolor="#d1d1d1" /><metadata
     id="metadata21605"><rdf:RDF><cc:Work
         rdf:about=""><dc:format>image/svg+xml</dc:format><dc:type
           rdf:resource="http://purl.org/dc/dcmitype/StillImage" /></cc:Work></rdf:RDF></metadata><g
     inkscape:label="Layer 1"
     inkscape:groupmode="layer"
     id="layer1"><path
       d="m 116.20664,16 c -1.85,32.582 5.535,54.595 29.22,88.75 3.503,5.053 7.998,11.39 13.218,18.5 27.253,-31.716 53.06,-65.5 72.283,-95.875 9.52,26.452 -16.487,79.21 -51.032,123.75 14.97,18.868 32.62,39.58 51.033,57.97 l 17.78,-17.78 13.22,13.217 -23.657,23.657 42.03,42.03 -13.217,13.22 -42.033,-42.03 -23.656,23.655 -13.217,-13.22 18.187,-18.188 c -17.205,-16.823 -34.137,-35.352 -49.97,-54.937 -12.22,12.986 -24.73,24.26 -36.56,32.563 5.864,14.06 3.938,31.497 -11.75,47.187 l -23.657,-23.688 -48.657,48.657 -13.22,-13.22 48.626,-48.624 -23.625,-23.656 c 15.812,-15.81 35.026,-16.877 50.094,-9.688 12.003,-11.6 24.51,-24.447 37.032,-38.062 -12.025,-16.877 -23,-34.274 -32.468,-51.844 -23.307,-43.25 -21.733,-65.31 14,-82.344 z"
       fill="#4a90e2"
       fill-opacity="1"
       id="path1"
       style="fill:#d40000"
       sodipodi:nodetypes="cccccccccccccccccccccccccccc" /></g></svg>
