<?xml version="1.0" encoding="UTF-8" standalone="no"?>
<!-- Created with Inkscape (http://www.inkscape.org/) -->

<svg
   width="300"
   height="300"
   viewBox="0 0 79.374998 79.375"
   version="1.1"
   id="svg2503"
   inkscape:version="1.2 (dc2aeda, 2022-05-15)"
   sodipodi:docname="potent.svg"
   xml:space="preserve"
   xmlns:inkscape="http://www.inkscape.org/namespaces/inkscape"
   xmlns:sodipodi="http://sodipodi.sourceforge.net/DTD/sodipodi-0.dtd"
   xmlns="http://www.w3.org/2000/svg"
   xmlns:svg="http://www.w3.org/2000/svg"><sodipodi:namedview
     id="namedview2505"
     pagecolor="#ffffff"
     bordercolor="#000000"
     borderopacity="0.25"
     inkscape:showpageshadow="2"
     inkscape:pageopacity="0.0"
     inkscape:pagecheckerboard="0"
     inkscape:deskcolor="#d1d1d1"
     inkscape:document-units="px"
     showgrid="false"
     inkscape:zoom="0.61286804"
     inkscape:cx="-99.532029"
     inkscape:cy="161.53559"
     inkscape:window-width="1436"
     inkscape:window-height="456"
     inkscape:window-x="0"
     inkscape:window-y="38"
     inkscape:window-maximized="0"
     inkscape:current-layer="layer1"
     showguides="false" /><defs
     id="defs2500" /><g
     inkscape:label="Layer 1"
     inkscape:groupmode="layer"
     id="layer1"><path
       d="m 39.129405,13.521883 c -1.070857,0.595823 -1.570339,1.824488 -1.234293,3.212322 l -1.87e-4,1.08e-4 c -2.692889,0.607599 -5.597087,2.721519 -5.314967,5.543126 -2.59219,-1.103048 -5.22834,1.276344 -4.62732,3.899128 0.600913,2.622598 3.928063,3.897769 6.796078,2.126767 1.545994,3.342135 7.092271,2.720949 9.754012,-0.754705 0.997666,1.830109 3.035444,3.463365 5.265362,2.564373 0.379555,2.037799 2.559136,3.762537 4.943499,2.385924 2.941434,-1.698237 1.594278,-5.446292 -0.902735,-6.101934 0.324829,-1.482383 -0.158727,-3.044766 -1.074482,-4.256176 2.268486,0.198735 2.88121,-2.476013 2.072538,-3.699025 -1.48917,-2.252083 -3.844637,-2.263014 -4.467538,-0.449024 -2.312777,-2.106327 -5.208238,-0.981854 -5.795324,1.307961 -0.274498,-0.76685 -0.688505,-1.235686 -1.531271,-1.51792 1.80514,-1.752803 -0.266564,-4.544165 -2.093679,-4.636565 -0.698257,-0.03516 -1.30307,0.104907 -1.789788,0.375695 z m 6.667228,-3.210005 c -2.121719,1.224973 -0.268618,4.473921 1.870111,3.239126 2.138732,-1.234798 0.251608,-4.4641014 -1.870111,-3.239126 z M 24.604504,28.901101 c -2.121719,1.224975 -0.268672,4.473828 1.870057,3.239032 2.138732,-1.234797 0.251665,-4.464009 -1.870057,-3.239032 z m 9.251262,2.058938 c -0.155178,0.0971 -0.306129,0.288288 -0.393514,0.586985 -0.199624,0.68279 -0.01311,1.727875 1.137232,2.361308 0.24938,0.137295 0.507251,0.2662 0.772053,0.385744 l 0.09722,3.235684 1.33e-4,7.432109 -9.626884,16.485344 -2.88e-4,0.0011 c -0.687679,1.191509 -0.745059,2.272848 -0.342022,3.193047 0.403109,0.920535 1.321079,1.757168 2.92313,2.238978 6.831111,2.054694 13.651526,1.802799 20.545764,-0.0096 1.69257,-0.445434 2.615154,-1.184094 2.985698,-1.985501 0.370648,-0.801222 0.310396,-1.846925 -0.500732,-3.251839 l -3.94e-4,-6.83e-4 -9.56449,-16.612363 -1.2e-5,-8.204223 c -1.52275,0.392255 -3.019184,0.417379 -4.417513,0.191075 l -0.06145,-2.042001 c 1.923939,0.40364 4.081692,0.215668 6.267893,-1.045913 1.076648,-0.625298 1.313945,-1.687926 1.142881,-2.347497 -0.08575,-0.329847 -0.244453,-0.512766 -0.419631,-0.596444 -0.175015,-0.0834 -0.453677,-0.137364 -1.015723,0.130304 -3.030383,1.444016 -5.87757,1.428848 -8.526311,-0.02664 -0.514138,-0.282663 -0.759446,-0.236122 -0.936634,-0.155134 -0.022,0.01028 -0.04449,0.02222 -0.06648,0.03596 z m 23.99747,-8.956608 c -2.121719,1.224975 -0.268622,4.473926 1.870111,3.239128 2.138732,-1.234798 0.251608,-4.464103 -1.870111,-3.239128 z m 0.46704,10.450738 c -3.296608,1.903298 -0.417817,6.950597 2.905242,5.032027 3.323062,-1.91857 0.391318,-6.935421 -2.905296,-5.03212 z m -21.53897,13.474519 1.748212,1.006084 -8.492549,14.755931 -1.92e-4,4.82e-4 c -0.249214,0.431766 -0.234399,0.620618 -0.194684,0.751349 0.03944,0.130891 0.172853,0.326791 0.552306,0.556859 0.104066,0.06305 0.225077,0.124783 0.359162,0.185204 l -0.04931,0.0044 c 3.149949,1.555812 8.409921,2.867092 12.71791,2.743613 -2.766022,0.294642 -6.115634,0.396575 -8.997914,0.11578 -2.015248,-0.196138 -3.785248,-0.5421 -5.075447,-1.324092 -0.644807,-0.390916 -1.207454,-0.940434 -1.436722,-1.695637 -0.229226,-0.755352 -0.05628,-1.593352 0.378043,-2.345591 l 8.491434,-14.754399 z m -3.435772,13.058957 c 2.079196,-0.402834 6.307011,-0.493354 9.974849,-0.02467 1.833842,0.234206 3.492236,0.586527 4.725738,1.259305 0.549689,0.299776 1.048004,0.678932 1.360404,1.233848 l -2.439871,0.226233 C 45.452659,61.109585 43.512484,60.838196 42.032332,60.852673 38.815955,60.55615 35.155424,60.691778 33.72924,60.968089 L 33.345642,58.98783 Z"
       fill="#000000"
       fill-opacity="1"
       id="path4001"
       style="fill:#8800aa;stroke-width:0.264583" /><path
       style="color:#000000;fill:#8800aa;-inkscape-stroke:none;paint-order:stroke fill markers"
       d="m 40.478516,1.7597656 c -20.873088,0 -37.8652347,16.9921464 -37.8652347,37.8652344 0,20.873088 16.9921467,37.865234 37.8652347,37.865234 20.873088,0 37.865234,-16.992146 37.865234,-37.865234 0,-20.873088 -16.992146,-37.8652344 -37.865234,-37.8652344 z m 0,6.6152344 c 17.298307,0 31.25,13.951693 31.25,31.25 0,17.298307 -13.951693,31.251953 -31.25,31.251953 -17.298307,0 -31.2519535,-13.953646 -31.2519535,-31.251953 0,-17.298307 13.9536465,-31.25 31.2519535,-31.25 z"
       id="path4013" /></g></svg>
