<?xml version="1.0" encoding="UTF-8" standalone="no"?>
<svg
   width="600"
   height="300"
   viewBox="0 0 600 300"
   version="1.1"
   id="svg21608"
   inkscape:version="1.3 (0e150ed6c4, 2023-07-21)"
   sodipodi:docname="precious-metals.svg"
   xml:space="preserve"
   xmlns:inkscape="http://www.inkscape.org/namespaces/inkscape"
   xmlns:sodipodi="http://sodipodi.sourceforge.net/DTD/sodipodi-0.dtd"
   xmlns="http://www.w3.org/2000/svg"
   xmlns:svg="http://www.w3.org/2000/svg"
   xmlns:rdf="http://www.w3.org/1999/02/22-rdf-syntax-ns#"
   xmlns:cc="http://creativecommons.org/ns#"
   xmlns:dc="http://purl.org/dc/elements/1.1/"><defs
     id="defs21602" /><sodipodi:namedview
     id="base"
     pagecolor="#ffffff"
     bordercolor="#666666"
     borderopacity="1.0"
     inkscape:pageopacity="0.0"
     inkscape:pageshadow="2"
     inkscape:zoom="0.49869066"
     inkscape:cx="127.33345"
     inkscape:cy="194.50936"
     inkscape:document-units="px"
     inkscape:current-layer="layer1"
     inkscape:document-rotation="0"
     showgrid="false"
     units="px"
     width="300px"
     inkscape:showpageshadow="2"
     inkscape:pagecheckerboard="0"
     inkscape:deskcolor="#d1d1d1"
     inkscape:window-width="1436"
     inkscape:window-height="456"
     inkscape:window-x="0"
     inkscape:window-y="38"
     inkscape:window-maximized="0" /><metadata
     id="metadata21605"><rdf:RDF><cc:Work
         rdf:about=""><dc:format>image/svg+xml</dc:format><dc:type
           rdf:resource="http://purl.org/dc/dcmitype/StillImage" /><dc:title /></cc:Work></rdf:RDF></metadata><g
     inkscape:label="Layer 1"
     inkscape:groupmode="layer"
     id="layer1"><path
       id="path7590"
       style="font-variation-settings:normal;vector-effect:none;fill:#e9ddaf;fill-opacity:1;stroke:#5e501a;stroke-width:4.25301;stroke-linecap:butt;stroke-linejoin:miter;stroke-miterlimit:4;stroke-dasharray:none;stroke-dashoffset:0;stroke-opacity:1;paint-order:fill markers stroke;stop-color:#000000"
       d="m 119.5989,87.737165 h 143.2598 l 26.34143,71.263685 -26.34143,71.26368 H 119.5989 Z"
       sodipodi:nodetypes="cccccc" /><g
       id="g6739"
       transform="matrix(0.22241387,0,0,0.22127714,133.21878,102.3412)"
       style="stroke-width:2.87668"><path
         d="m 286.031,211.595 c -0.745,0.007 -1.525,0.022 -2.31,0.062 -8.694,0.44 -19.32,2.508 -29.626,5.594 -10.308,3.086 -20.344,7.183 -28.063,11.313 -5.254,2.81 -8.667,5.522 -10.905,7.53 5.213,15.886 19.636,48.602 36.22,77 9.044,15.492 18.7,29.674 27.218,39 4.258,4.664 8.254,8.075 11.218,9.813 2.965,1.74 4.307,1.64 4.595,1.563 0.288,-0.077 1.42,-0.62 3.094,-3.564 1.67,-2.944 3.424,-7.837 4.75,-13.97 2.648,-12.262 3.823,-29.34 3.81,-47.217 -0.02,-33.398 -4.27,-69.712 -7.842,-85.564 -2.73,-0.895 -6.933,-1.61 -12.157,-1.562 z"
         id="path6733"
         style="font-variation-settings:normal;opacity:1;vector-effect:none;fill:#333333;fill-opacity:1;stroke-width:2.87668;stroke-linecap:butt;stroke-linejoin:miter;stroke-miterlimit:4;stroke-dasharray:none;stroke-dashoffset:0;stroke-opacity:1;stop-color:#000000;stop-opacity:1" /><path
         d="m 413.874,199.531 c -13.045,15.41 -48.86,31.746 -91.874,45.845 1.64,16.418 2.707,35.075 2.72,53.344 0.01,18.658 -1.105,36.594 -4.25,51.155 -1.574,7.28 -3.61,13.75 -6.75,19.28 -3.143,5.53 -7.815,10.59 -14.564,12.376 -6.75,1.786 -13.316,-0.275 -18.812,-3.5 -5.497,-3.223 -10.55,-7.79 -15.594,-13.31 -10.087,-11.045 -20.125,-26.058 -29.563,-42.22 -9.477,-16.23 -18.235,-33.37 -25.218,-48.688 -45.532,8.43 -85.193,11.69 -102.126,6.313 27.59,101.65 71.632,175.738 120.312,216.094 H 388.75 c 47.247,-52.587 62.203,-160.075 25.125,-296.69 z"
         id="path6735"
         style="font-variation-settings:normal;opacity:1;vector-effect:none;fill:#333333;fill-opacity:1;stroke-width:2.87668;stroke-linecap:butt;stroke-linejoin:miter;stroke-miterlimit:4;stroke-dasharray:none;stroke-dashoffset:0;stroke-opacity:1;stop-color:#000000;stop-opacity:1" /><path
         d="m 173.844,15.563 v 0.03 l 52.22,192.157 c 7.035,-3.16 14.752,-6.03 22.686,-8.406 8.894,-2.663 18.006,-4.683 26.72,-5.72 L 227,15.565 Z"
         id="path6737"
         style="font-variation-settings:normal;opacity:1;vector-effect:none;fill:#552200;fill-opacity:1;stroke-width:2.87668;stroke-linecap:butt;stroke-linejoin:miter;stroke-miterlimit:4;stroke-dasharray:none;stroke-dashoffset:0;stroke-opacity:1;stop-color:#000000;stop-opacity:1" /></g><path
       id="path8053"
       style="font-variation-settings:normal;display:inline;vector-effect:none;fill:#c87137;fill-opacity:1;stroke-width:5.7635;stroke-linecap:butt;stroke-linejoin:miter;stroke-miterlimit:4;stroke-dasharray:none;stroke-dashoffset:0;stroke-opacity:1;stop-color:#000000"
       d="m 375.69943,99.937706 c -7.93929,0 -13.6502,4.205204 -16.9475,9.477144 -2.94582,4.71428 -4.16455,10.18411 -4.40426,14.97365 -8.99998,4.44659 -18.98402,8.92226 -27.01182,13.5057 -4.21037,2.40503 -7.87136,4.8225 -10.63486,7.4217 -2.76109,2.59747 -4.81159,5.51907 -4.81159,8.97083 0,1.47051 0.7258,2.67994 1.53378,3.55708 0.81089,0.87685 1.78388,1.54752 2.8864,2.18242 2.20991,1.27269 4.99297,2.34736 8.05747,3.26079 4.55319,1.36607 9.64347,2.37209 14.0771,2.80582 -4.4097,7.59187 -10.27021,14.57293 -15.41437,21.25386 -5.9448,7.72134 -11.14067,15.13125 -11.14067,23.35722 0,1.17365 -0.007,2.08075 0.10982,3.00183 0.10981,0.92077 0.37381,2.07245 1.30287,2.98726 0.92907,0.9098 2.06155,1.1599 2.98866,1.25612 0.92353,0.10982 1.8526,0.10982 3.05127,0.10982 h 32.80251 c 2.37754,0 4.12768,0.13744 5.92065,-1.01155 1.79211,-1.15167 2.44081,-2.72116 3.71896,-5.07318 l 0.0291,-0.0291 0.0146,-0.0822 c 0,0 2.85338,-5.8008 6.26362,-11.56429 1.70417,-2.88334 3.56064,-5.7472 5.17056,-7.78067 0.8026,-1.017 1.56127,-1.82781 2.10547,-2.28409 0.13745,-0.10982 0.2749,-0.13746 0.33236,-0.21963 0.10981,0.0822 0.19272,0.10981 0.36872,0.21963 0.54398,0.45599 1.28091,1.26986 2.08896,2.28409 1.61072,2.03129 3.46449,4.89929 5.17085,7.78067 3.41249,5.76349 6.27963,11.56429 6.27963,11.56429 l 0.0145,0.0822 0.0291,0.0291 c 1.27539,2.35013 1.91581,3.91794 3.70275,5.07318 1.78119,1.15445 3.52384,1.01155 5.872,1.01155 h 32.93274 c 1.17641,0 2.09726,0.007 3.01498,-0.10982 0.91809,-0.10982 2.06977,-0.37091 2.98865,-1.27262 0.91809,-0.91809 1.17096,-2.0505 1.27263,-2.96858 0.10981,-0.91809 0.10981,-1.82788 0.10981,-3.00211 0,-8.22597 -5.17929,-15.63561 -11.12387,-23.35716 -5.14386,-6.68092 -11.0211,-13.66205 -15.43081,-21.25386 4.43335,-0.43708 9.54042,-1.44309 14.09303,-2.8056 3.06451,-0.91809 5.84837,-1.9873 8.05798,-3.26101 1.10223,-0.6378 2.08075,-1.30564 2.8864,-2.18518 0.81089,-0.87685 1.51727,-2.09181 1.51727,-3.55707 0,-3.45322 -2.03122,-6.37228 -4.7953,-8.9709 -2.76109,-2.59747 -6.44041,-5.0177 -10.65115,-7.42171 -8.0275,-4.58287 -17.99532,-9.05933 -26.9956,-13.50533 -0.27491,-4.78934 -1.45408,-10.26003 -4.40368,-14.97395 -3.29899,-5.27201 -9.00852,-9.476926 -16.94751,-9.476926 z m -5.08918,38.657934 h 10.19487 v 15.29998 h 15.29969 v 10.21101 h -15.29969 v 15.28347 h -10.19487 v -15.28347 h -15.29998 v -10.21101 h 15.29998 z" /></g></svg>
