<?xml version="1.0" encoding="UTF-8" standalone="no"?>
<svg
   width="600"
   height="300"
   viewBox="0 0 600 300"
   version="1.1"
   id="svg21608"
   inkscape:version="1.3 (0e150ed6c4, 2023-07-21)"
   sodipodi:docname="prospecting.svg"
   xml:space="preserve"
   xmlns:inkscape="http://www.inkscape.org/namespaces/inkscape"
   xmlns:sodipodi="http://sodipodi.sourceforge.net/DTD/sodipodi-0.dtd"
   xmlns="http://www.w3.org/2000/svg"
   xmlns:svg="http://www.w3.org/2000/svg"
   xmlns:rdf="http://www.w3.org/1999/02/22-rdf-syntax-ns#"
   xmlns:cc="http://creativecommons.org/ns#"
   xmlns:dc="http://purl.org/dc/elements/1.1/"><defs
     id="defs21602" /><sodipodi:namedview
     id="base"
     pagecolor="#ffffff"
     bordercolor="#666666"
     borderopacity="1.0"
     inkscape:pageopacity="0.0"
     inkscape:pageshadow="2"
     inkscape:zoom="0.49869066"
     inkscape:cx="127.33345"
     inkscape:cy="194.50936"
     inkscape:document-units="px"
     inkscape:current-layer="layer1"
     inkscape:document-rotation="0"
     showgrid="false"
     units="px"
     width="300px"
     inkscape:showpageshadow="2"
     inkscape:pagecheckerboard="0"
     inkscape:deskcolor="#d1d1d1"
     inkscape:window-width="1436"
     inkscape:window-height="456"
     inkscape:window-x="0"
     inkscape:window-y="38"
     inkscape:window-maximized="0" /><metadata
     id="metadata21605"><rdf:RDF><cc:Work
         rdf:about=""><dc:format>image/svg+xml</dc:format><dc:type
           rdf:resource="http://purl.org/dc/dcmitype/StillImage" /><dc:title /></cc:Work></rdf:RDF></metadata><g
     inkscape:label="Layer 1"
     inkscape:groupmode="layer"
     id="layer1"><path
       id="path31949"
       style="font-variation-settings:normal;vector-effect:none;fill:#e9ddaf;fill-opacity:1;stroke:#5e501a;stroke-width:0.663223;stroke-linecap:butt;stroke-linejoin:miter;stroke-miterlimit:4;stroke-dasharray:none;stroke-dashoffset:0;stroke-opacity:1;paint-order:fill markers stroke;stop-color:#000000"
       d="m 149.58772,33.399024 h 165.24342 l 18.64743,50.790438 -18.64743,50.790598 H 149.58772 Z"
       sodipodi:nodetypes="cccccc" /><path
       id="path1"
       style="font-variation-settings:normal;vector-effect:none;fill:#e9ddaf;fill-opacity:1;stroke:#5e501a;stroke-width:0.663223;stroke-linecap:butt;stroke-linejoin:miter;stroke-miterlimit:4;stroke-dasharray:none;stroke-dashoffset:0;stroke-opacity:1;paint-order:fill markers stroke;stop-color:#000000"
       d="m 149.58772,162.73772 h 165.24342 l 18.64743,50.79044 -18.64743,50.7906 H 149.58772 Z"
       sodipodi:nodetypes="cccccc" /><path
       d="m 205.12838,165.26224 c -3.31771,-0.0781 -6.63533,2.88804 -7.32099,7.37022 -0.72985,4.77979 1.94631,8.8144 5.48523,9.34348 3.53878,0.52818 7.27676,-2.53449 7.98455,-7.31953 0.72976,-4.78866 -1.92419,-8.8055 -5.48525,-9.33694 -0.22192,-0.0276 -0.44245,-0.0553 -0.66367,-0.0553 z m 25.05948,17.02259 -3.80426,1.14706 1.83583,6.19518 4.18027,0.10443 z m -31.98241,1.67483 c -0.5973,15.54316 -0.0884,31.06437 -0.79614,44.64548 -3.49461,7.89286 -8.11727,15.47704 -11.14296,21.87054 l 5.67985,2.73395 c 4.60054,-7.42983 9.33375,-14.99211 12.20906,-22.68663 l 2.49924,-13.97777 11.72251,10.11958 3.58302,19.42356 6.48055,-1.27774 -3.89275,-22.17938 -12.85041,-11.81715 -2.05691,-19.0489 10.63869,6.90095 c 5.90549,0.20877 9.97517,-0.41825 15.39402,-1.25677 l 0.22194,-3.59383 -15.65944,-0.4625 -10.28481,-9.25983 c -2.1013,1.47628 -4.62259,2.20528 -7.25463,1.8081 -1.7031,-0.26408 -3.20709,-0.9485 -4.48993,-1.93875 z m -3.67152,2.86612 -8.9511,2.57895 -1.31823,18.85027 c 2.99257,1.47635 6.86321,2.55807 9.56154,0.74997 z m 78.00964,14.39655 -21.16679,17.21883 -7.07772,11.44253 -8.42687,-28.4847 c -1.39345,0.20877 -2.69839,0.39751 -3.98123,0.57243 l 9.62127,32.43113 -4.99862,8.09138 -4.29088,0.74993 0.81839,4.6959 -14.26605,2.82222 -0.92887,-5.00477 -18.64536,3.26303 c -2.10131,3.43936 -3.78215,6.15096 -5.75064,9.30373 l -10.95272,-5.26934 -13.85464,7.67234 h 103.90079 z"
       fill="#000000"
       fill-opacity="1"
       id="path13002-0"
       style="display:inline;fill:#552200;stroke-width:19.7854" /><path
       id="path55117"
       style="font-variation-settings:normal;display:inline;vector-effect:none;fill:#552200;fill-opacity:1;stroke-width:0.0687067;stroke-linecap:butt;stroke-linejoin:miter;stroke-miterlimit:4;stroke-dasharray:none;stroke-dashoffset:0;stroke-opacity:1;-inkscape-stroke:none;stop-color:#000000"
       d="m 200.20411,41.085053 c -2.29413,0 -4.84878,1.478635 -6.78149,5.343922 l -1.71878,3.452038 c 0.62773,-0.05032 1.25044,-0.07108 1.88044,-0.07108 4.56868,0 9.13498,1.350324 13.15739,4.041907 v -7.850079 c -1.90189,-3.528647 -4.33502,-4.926458 -6.53567,-4.926458 z m 35.27026,0 c -2.20141,0 -4.63436,1.385923 -6.53568,4.913877 v 7.862411 c 4.57963,-3.057661 9.86456,-4.384204 15.04921,-3.967939 l -1.73305,-3.464427 c -1.93271,-3.865287 -4.48831,-5.343922 -6.78124,-5.343922 z m -41.89198,13.157142 c -4.82972,0 -9.65372,1.954089 -13.62404,5.83529 l -9.47163,16.584709 c 3.67432,-1.709287 7.76447,-2.665671 12.07616,-2.665671 10.13087,0 19.0581,5.274984 24.17684,13.218718 V 59.610834 c -3.87736,-3.578778 -8.52021,-5.368639 -13.15733,-5.368639 z m 48.79611,0.01257 c -4.73135,-0.07107 -9.48307,1.704504 -13.43981,5.356311 v 27.604408 c 5.11881,-7.942983 14.04622,-13.218719 24.17684,-13.218719 4.31263,0 8.40183,0.955691 12.07616,2.665672 l -9.47156,-16.584713 c -3.89165,-3.803642 -8.61009,-5.745217 -13.34163,-5.822959 z m -24.79117,3.366052 c -1.2695,0.09498 -2.9859,0.803476 -6.28987,2.432441 v 33.722367 c 1.83767,-1.347932 4.09682,-2.137193 6.53568,-2.137193 2.43886,0 4.69851,0.789261 6.53542,2.137193 V 60.053268 c -3.52412,-1.737843 -5.23932,-2.432441 -6.53542,-2.432441 -0.071,0 -0.16605,-0.0055 -0.24469,0 z M 182.56288,78.55451 c -13.37798,0 -24.17709,10.799111 -24.17709,24.1769 0,13.37799 10.79911,24.17684 24.17709,24.17684 13.37729,0 24.17684,-10.79885 24.17684,-24.17684 0,-13.377789 -10.7993,-24.1769 -24.17684,-24.1769 z m 0.14278,4.63146 a 19.610766,19.610766 0 0 1 0.81065,0.01257 19.610766,19.610766 0 0 1 0.81064,0.05031 19.610766,19.610766 0 0 1 0.79876,0.09498 19.610766,19.610766 0 0 1 0.81071,0.118881 19.610766,19.610766 0 0 1 0.79875,0.142779 19.610766,19.610766 0 0 1 0.78687,0.189957 19.610766,19.610766 0 0 1 0.77498,0.213859 19.610766,19.610766 0 0 1 0.77505,0.244676 19.610766,19.610766 0 0 1 0.76071,0.283046 19.610766,19.610766 0 0 1 0.74887,0.30695 19.610766,19.610766 0 0 1 0.73693,0.344689 19.610766,19.610766 0 0 1 0.7251,0.368588 19.610766,19.610766 0 0 1 0.70127,0.404443 19.610766,19.610766 0 0 1 0.68705,0.430229 19.610766,19.610766 0 0 1 0.66327,0.454134 19.610766,19.610766 0 0 1 0.65138,0.479921 19.610766,19.610766 0 0 1 0.6395,0.515775 19.610766,19.610766 0 0 1 0.60132,0.539675 19.610766,19.610766 0 0 1 0.58936,0.554144 19.610766,19.610766 0 0 1 0.55415,0.589364 19.610766,19.610766 0 0 1 0.53967,0.601316 19.610766,19.610766 0 0 1 0.51577,0.639437 19.610766,19.610766 0 0 1 0.47993,0.651384 19.610766,19.610766 0 0 1 0.45413,0.663272 19.610766,19.610766 0 0 1 0.43023,0.687049 19.610766,19.610766 0 0 1 0.40633,0.698936 19.610766,19.610766 0 0 1 0.36859,0.725041 19.610766,19.610766 0 0 1 0.34469,0.736991 19.610766,19.610766 0 0 1 0.30632,0.748878 19.610766,19.610766 0 0 1 0.28304,0.760704 19.610766,19.610766 0 0 1 0.24468,0.774982 19.610766,19.610766 0 0 1 0.21386,0.775044 19.610766,19.610766 0 0 1 0.18995,0.798757 19.610766,19.610766 0 0 1 0.14279,0.786872 19.610766,19.610766 0 0 1 0.11888,0.810647 19.610766,19.610766 0 0 1 0.095,0.79876 19.610766,19.610766 0 0 1 0.0503,0.8107 19.610766,19.610766 0 0 1 0.0126,0.81065 19.610766,19.610766 0 0 1 -0.0126,0.81064 19.610766,19.610766 0 0 1 -0.0503,0.81066 19.610766,19.610766 0 0 1 -0.095,0.81064 19.610766,19.610766 0 0 1 -0.11888,0.79883 19.610766,19.610766 0 0 1 -0.14279,0.79875 19.610766,19.610766 0 0 1 -0.18995,0.78687 19.610766,19.610766 0 0 1 -0.21386,0.78687 19.610766,19.610766 0 0 1 -0.24468,0.76077 19.610766,19.610766 0 0 1 -0.28304,0.7607 19.610766,19.610766 0 0 1 -0.30632,0.74888 19.610766,19.610766 0 0 1 -0.34469,0.73692 19.610766,19.610766 0 0 1 -0.36859,0.72511 19.610766,19.610766 0 0 1 -0.40633,0.70126 19.610766,19.610766 0 0 1 -0.43023,0.68705 19.610766,19.610766 0 0 1 -0.45413,0.67517 19.610766,19.610766 0 0 1 -0.47993,0.65138 19.610766,19.610766 0 0 1 -0.51577,0.62773 19.610766,19.610766 0 0 1 -0.53967,0.60132 19.610766,19.610766 0 0 1 -0.55415,0.58937 19.610766,19.610766 0 0 1 -0.58936,0.56609 19.610766,19.610766 0 0 1 -0.60132,0.52772 19.610766,19.610766 0 0 1 -0.6395,0.51577 19.610766,19.610766 0 0 1 -0.65138,0.47993 19.610766,19.610766 0 0 1 -0.66327,0.45413 19.610766,19.610766 0 0 1 -0.68705,0.43023 19.610766,19.610766 0 0 1 -0.70127,0.40633 19.610766,19.610766 0 0 1 -0.7251,0.36859 19.610766,19.610766 0 0 1 -0.73693,0.34469 19.610766,19.610766 0 0 1 -0.74887,0.30694 19.610766,19.610766 0 0 1 -0.76071,0.28306 19.610766,19.610766 0 0 1 -0.77505,0.24467 19.610766,19.610766 0 0 1 -0.77498,0.21386 19.610766,19.610766 0 0 1 -0.79875,0.16668 19.610766,19.610766 0 0 1 -0.78687,0.16668 19.610766,19.610766 0 0 1 -0.81071,0.11889 19.610766,19.610766 0 0 1 -0.79876,0.095 19.610766,19.610766 0 0 1 -0.81064,0.0503 19.610766,19.610766 0 0 1 -0.81065,0.0126 19.610766,19.610766 0 0 1 -2.37017,-0.14279 19.610766,19.610766 0 0 1 -2.32262,-0.43023 19.610766,19.610766 0 0 1 -2.26079,-0.70126 19.610766,19.610766 0 0 1 -2.16096,-0.96997 19.610766,19.610766 0 0 1 -2.02788,-1.22906 19.610766,19.610766 0 0 1 -1.86855,-1.46202 19.610766,19.610766 0 0 1 -1.67123,-1.67124 19.610766,19.610766 0 0 1 -1.46203,-1.86854 19.610766,19.610766 0 0 1 -1.22905,-2.02788 19.610766,19.610766 0 0 1 -0.96991,-2.16328 19.610766,19.610766 0 0 1 -0.70132,-2.26086 19.610766,19.610766 0 0 1 -0.43024,-2.32262 19.610766,19.610766 0 0 1 -0.14277,-2.37011 19.610766,19.610766 0 0 1 0.14277,-2.35828 19.610766,19.610766 0 0 1 0.43024,-2.33451 19.610766,19.610766 0 0 1 0.70132,-2.260851 19.610766,19.610766 0 0 1 0.96991,-2.160968 19.610766,19.610766 0 0 1 1.22905,-2.027809 19.610766,19.610766 0 0 1 1.46203,-1.85427 19.610766,19.610766 0 0 1 1.67124,-1.683121 19.610766,19.610766 0 0 1 1.86854,-1.462032 19.610766,19.610766 0 0 1 2.02788,-1.217224 19.610766,19.610766 0 0 1 2.16096,-0.969907 19.610766,19.610766 0 0 1 2.26079,-0.713215 19.610766,19.610766 0 0 1 2.32262,-0.430233 19.610766,19.610766 0 0 1 2.37017,-0.14278 z m 35.12288,13.009768 c -3.63727,0 -6.53567,2.898652 -6.53567,6.535672 0,3.63721 2.8984,6.53561 6.53567,6.53561 3.63703,0 6.53543,-2.8984 6.53543,-6.53561 0,-3.63702 -2.8984,-6.535672 -6.53543,-6.535672 z M 253.11088,78.55451 c -13.37748,0 -24.17685,10.799111 -24.17685,24.1769 0,13.37799 10.79912,24.17684 24.17685,24.17684 13.37804,0 24.16476,-10.79885 24.16476,-24.17684 0,-13.377789 -10.78672,-24.1769 -24.16476,-24.1769 z m -0.11888,4.63146 a 19.610766,19.610766 0 0 1 0.81064,0.01257 19.610766,19.610766 0 0 1 0.81064,0.05031 19.610766,19.610766 0 0 1 0.79876,0.09498 19.610766,19.610766 0 0 1 0.81066,0.118881 19.610766,19.610766 0 0 1 0.78692,0.142779 19.610766,19.610766 0 0 1 0.79876,0.189957 19.610766,19.610766 0 0 1 0.77499,0.213859 19.610766,19.610766 0 0 1 0.77498,0.244676 19.610766,19.610766 0 0 1 0.76076,0.283046 19.610766,19.610766 0 0 1 0.74882,0.30695 19.610766,19.610766 0 0 1 0.73699,0.344689 19.610766,19.610766 0 0 1 0.72504,0.368588 19.610766,19.610766 0 0 1 0.70132,0.404443 19.610766,19.610766 0 0 1 0.68706,0.430229 19.610766,19.610766 0 0 1 0.66327,0.454134 19.610766,19.610766 0 0 1 0.65138,0.479921 19.610766,19.610766 0 0 1 0.6395,0.515775 19.610766,19.610766 0 0 1 0.60132,0.539675 19.610766,19.610766 0 0 1 0.58936,0.554144 19.610766,19.610766 0 0 1 0.55163,0.589364 19.610766,19.610766 0 0 1 0.53967,0.601316 19.610766,19.610766 0 0 1 0.51578,0.639437 19.610766,19.610766 0 0 1 0.47992,0.651384 19.610766,19.610766 0 0 1 0.45413,0.663272 19.610766,19.610766 0 0 1 0.43023,0.687049 19.610766,19.610766 0 0 1 0.40633,0.698936 19.610766,19.610766 0 0 1 0.36859,0.725041 19.610766,19.610766 0 0 1 0.34469,0.736991 19.610766,19.610766 0 0 1 0.30695,0.748878 19.610766,19.610766 0 0 1 0.28305,0.760704 19.610766,19.610766 0 0 1 0.24467,0.774982 19.610766,19.610766 0 0 1 0.21386,0.775044 19.610766,19.610766 0 0 1 0.18996,0.798757 19.610766,19.610766 0 0 1 0.14278,0.786872 19.610766,19.610766 0 0 1 0.11888,0.810647 19.610766,19.610766 0 0 1 0.095,0.79876 19.610766,19.610766 0 0 1 0.0503,0.8107 19.610766,19.610766 0 0 1 0.0126,0.81065 19.610766,19.610766 0 0 1 -0.0126,0.81064 19.610766,19.610766 0 0 1 -0.0503,0.81066 19.610766,19.610766 0 0 1 -0.095,0.81064 19.610766,19.610766 0 0 1 -0.11888,0.79883 19.610766,19.610766 0 0 1 -0.14278,0.79875 19.610766,19.610766 0 0 1 -0.18996,0.78687 19.610766,19.610766 0 0 1 -0.21386,0.78687 19.610766,19.610766 0 0 1 -0.24467,0.76077 19.610766,19.610766 0 0 1 -0.28305,0.7607 19.610766,19.610766 0 0 1 -0.30695,0.74888 19.610766,19.610766 0 0 1 -0.34469,0.73692 19.610766,19.610766 0 0 1 -0.36859,0.72511 19.610766,19.610766 0 0 1 -0.40633,0.70126 19.610766,19.610766 0 0 1 -0.43023,0.68705 19.610766,19.610766 0 0 1 -0.45413,0.67517 19.610766,19.610766 0 0 1 -0.47992,0.65138 19.610766,19.610766 0 0 1 -0.51578,0.62773 19.610766,19.610766 0 0 1 -0.53967,0.60132 19.610766,19.610766 0 0 1 -0.55163,0.58937 19.610766,19.610766 0 0 1 -0.58936,0.56609 19.610766,19.610766 0 0 1 -0.60132,0.52772 19.610766,19.610766 0 0 1 -0.6395,0.51577 19.610766,19.610766 0 0 1 -0.65138,0.47993 19.610766,19.610766 0 0 1 -0.66327,0.45413 19.610766,19.610766 0 0 1 -0.68706,0.43023 19.610766,19.610766 0 0 1 -0.70132,0.40633 19.610766,19.610766 0 0 1 -0.72504,0.36859 19.610766,19.610766 0 0 1 -0.73699,0.34469 19.610766,19.610766 0 0 1 -0.74882,0.30694 19.610766,19.610766 0 0 1 -0.76076,0.28306 19.610766,19.610766 0 0 1 -0.77498,0.24467 19.610766,19.610766 0 0 1 -0.77499,0.21386 19.610766,19.610766 0 0 1 -0.79876,0.16668 19.610766,19.610766 0 0 1 -0.78692,0.16668 19.610766,19.610766 0 0 1 -0.81066,0.11889 19.610766,19.610766 0 0 1 -0.79876,0.095 19.610766,19.610766 0 0 1 -0.81064,0.0503 19.610766,19.610766 0 0 1 -0.81064,0.0126 19.610766,19.610766 0 0 1 -2.37018,-0.14279 19.610766,19.610766 0 0 1 -2.32261,-0.43023 19.610766,19.610766 0 0 1 -2.26085,-0.70126 19.610766,19.610766 0 0 1 -2.16091,-0.96997 19.610766,19.610766 0 0 1 -2.02786,-1.22906 19.610766,19.610766 0 0 1 -1.86856,-1.46202 19.610766,19.610766 0 0 1 -1.67123,-1.67124 19.610766,19.610766 0 0 1 -1.46203,-1.86854 19.610766,19.610766 0 0 1 -1.22905,-2.02788 19.610766,19.610766 0 0 1 -0.96997,-2.16328 19.610766,19.610766 0 0 1 -0.69894,-2.26086 19.610766,19.610766 0 0 1 -0.43023,-2.32262 19.610766,19.610766 0 0 1 -0.14278,-2.37011 19.610766,19.610766 0 0 1 0.14278,-2.35828 19.610766,19.610766 0 0 1 0.43023,-2.33451 19.610766,19.610766 0 0 1 0.69894,-2.260851 19.610766,19.610766 0 0 1 0.96997,-2.160968 19.610766,19.610766 0 0 1 1.22905,-2.027809 19.610766,19.610766 0 0 1 1.46203,-1.85427 19.610766,19.610766 0 0 1 1.67123,-1.683121 19.610766,19.610766 0 0 1 1.86856,-1.462032 19.610766,19.610766 0 0 1 2.02786,-1.217224 19.610766,19.610766 0 0 1 2.16091,-0.969907 19.610766,19.610766 0 0 1 2.26085,-0.713215 19.610766,19.610766 0 0 1 2.32261,-0.430233 19.610766,19.610766 0 0 1 2.37018,-0.14278 z" /><path
       d="m 388.26034,34.896717 -40.39793,23.678069 26.55277,12.07809 32.92734,2.606413 9.31598,-5.406752 3.8493,2.571312 -10.24504,5.948961 v 33.10832 l 11.88928,-3.25226 -14.34464,11.55768 -24.61061,-13.2603 -0.47859,-0.34 -15.82179,1.45885 16.85524,-7.109186 22.36319,11.592176 V 77.32533 l -32.38618,-2.557544 -0.36064,-0.03044 -0.33336,-0.152951 -26.87852,-12.231505 v 49.78121 l 5.28547,7.05338 18.20129,4.66358 4.85548,-4.73293 2.47626,6.60945 29.1402,7.47063 v -11.60577 l 0.94332,0.50694 1.21412,0.65385 1.06819,-0.86911 0.92229,-0.74323 v 11.59882 l 40.48113,-23.65022 V 87.649806 l -5.45935,-2.647595 5.45935,-8.617687 V 52.873279 l -20.03256,11.626662 -0.24269,7.582439 -19.53294,-13.051701 18.8604,1.195326 17.64615,-10.243792 -41.04998,-10.466429 0.36064,0.125563 -14.29607,1.285449 1.18643,-4.656026 -5.38265,-1.37617 z"
       fill="#d0021b"
       fill-opacity="1"
       id="path2060"
       style="font-variation-settings:normal;vector-effect:none;fill:#666666;fill-opacity:1;stroke-width:5.94575;stroke-linecap:butt;stroke-linejoin:miter;stroke-miterlimit:4;stroke-dasharray:none;stroke-dashoffset:0;stroke-opacity:1;stop-color:#000000" /><path
       d="m 388.26034,167.24329 -40.39793,23.67807 26.55277,12.07809 32.92734,2.60641 9.31598,-5.40675 3.8493,2.57131 -10.24504,5.94896 v 33.10832 l 11.88928,-3.25226 -14.34464,11.55768 -24.61061,-13.2603 -0.47859,-0.34 -15.82179,1.45885 16.85524,-7.10918 22.36319,11.59217 V 209.6719 l -32.38618,-2.55754 -0.36064,-0.0304 -0.33336,-0.15295 -26.87852,-12.23151 v 49.78121 l 5.28547,7.05338 18.20129,4.66358 4.85548,-4.73293 2.47626,6.60945 29.1402,7.47063 v -11.60577 l 0.94332,0.50694 1.21412,0.65385 1.06819,-0.86911 0.92229,-0.74323 v 11.59882 l 40.48113,-23.65022 v -21.43968 l -5.45935,-2.6476 5.45935,-8.61768 v -23.51125 l -20.03256,11.62666 -0.24269,7.58244 -19.53294,-13.0517 18.8604,1.19533 17.64615,-10.24379 -41.04998,-10.46643 0.36064,0.12556 -14.29607,1.28545 1.18643,-4.65603 -5.38265,-1.37617 z"
       fill="#d0021b"
       fill-opacity="1"
       id="path2"
       style="font-variation-settings:normal;vector-effect:none;fill:#666666;fill-opacity:1;stroke-width:5.94575;stroke-linecap:butt;stroke-linejoin:miter;stroke-miterlimit:4;stroke-dasharray:none;stroke-dashoffset:0;stroke-opacity:1;stop-color:#000000" /></g></svg>
