<?xml version="1.0" encoding="UTF-8" standalone="no"?>
<svg
   width="300"
   height="300"
   viewBox="0 0 300 300"
   version="1.1"
   id="svg21608"
   inkscape:version="1.2.2 (732a01da63, 2022-12-09)"
   sodipodi:docname="recruit-worker.svg"
   xmlns:inkscape="http://www.inkscape.org/namespaces/inkscape"
   xmlns:sodipodi="http://sodipodi.sourceforge.net/DTD/sodipodi-0.dtd"
   xmlns="http://www.w3.org/2000/svg"
   xmlns:svg="http://www.w3.org/2000/svg"
   xmlns:rdf="http://www.w3.org/1999/02/22-rdf-syntax-ns#"
   xmlns:cc="http://creativecommons.org/ns#"
   xmlns:dc="http://purl.org/dc/elements/1.1/">
  <defs
     id="defs21602" />
  <sodipodi:namedview
     id="base"
     pagecolor="#ffffff"
     bordercolor="#666666"
     borderopacity="1.0"
     inkscape:pageopacity="0.0"
     inkscape:pageshadow="2"
     inkscape:zoom="0.98994949"
     inkscape:cx="633.23103"
     inkscape:cy="308.38281"
     inkscape:document-units="px"
     inkscape:current-layer="layer1"
     inkscape:document-rotation="0"
     showgrid="false"
     units="px"
     width="300px"
     inkscape:showpageshadow="2"
     inkscape:pagecheckerboard="0"
     inkscape:deskcolor="#d1d1d1" />
  <metadata
     id="metadata21605">
    <rdf:RDF>
      <cc:Work
         rdf:about="">
        <dc:format>image/svg+xml</dc:format>
        <dc:type
           rdf:resource="http://purl.org/dc/dcmitype/StillImage" />
        <dc:title />
      </cc:Work>
    </rdf:RDF>
  </metadata>
  <g
     inkscape:label="Layer 1"
     inkscape:groupmode="layer"
     id="layer1">
    <path
       id="path8525"
       style="font-variation-settings:normal;display:inline;opacity:1;vector-effect:none;fill:#c87137;fill-opacity:1;stroke-width:9.03113;stroke-linecap:butt;stroke-linejoin:miter;stroke-miterlimit:4;stroke-dasharray:none;stroke-dashoffset:0;stroke-opacity:1;-inkscape-stroke:none;stop-color:#000000;stop-opacity:1"
       d="m 150.05563,17.169798 c -17.86385,0 -30.71398,9.456827 -38.13311,21.312453 -6.62715,10.602336 -9.36965,22.903474 -9.90964,33.6746 -20.24962,9.99949 -42.71484,20.06472 -60.7767,30.372339 -9.47273,5.41058 -17.71003,10.84521 -23.9281,16.69035 -6.21316,5.84334 -10.82599,12.41169 -10.82599,20.17463 0,3.30389 1.63634,6.02684 3.45103,7.99926 1.82451,1.97258 4.01393,3.47954 6.49461,4.91127 4.97118,2.86377 11.23343,5.27761 18.12894,7.33312 10.24508,3.07099 21.69778,5.33518 31.67287,6.30945 -9.92109,17.07339 -23.10666,32.77294 -34.68209,47.79769 -13.37539,17.36467 -25.06699,34.02836 -25.06699,52.52823 0,2.63889 0,4.67804 0.24545,6.75088 0.24545,2.07252 0.83453,4.6607 2.93067,6.71752 2.09123,2.04716 4.63901,2.60536 6.72533,2.82174 2.07815,0.2535 4.17429,0.2535 6.86606,0.2535 h 73.80519 c 5.34917,0 9.28782,0.33364 13.32139,-2.27237 4.03192,-2.58934 5.49153,-6.11844 8.3682,-11.40881 v -0.0818 -0.16355 c 0,0 6.42098,-13.04529 14.09375,-26.00733 3.83393,-6.48446 8.01149,-12.92443 11.63269,-17.49764 1.80652,-2.28954 3.51321,-4.11182 4.73882,-5.13614 0.31091,-0.25351 0.62181,-0.33365 0.75272,-0.49393 0.24545,0.16356 0.42545,0.25351 0.83453,0.49393 1.22725,1.02383 2.88322,2.85526 4.70119,5.13614 3.62447,4.56994 7.79385,11.0176 11.63432,17.49764 7.67768,12.96204 14.12811,26.00733 14.12811,26.00733 v 0.16355 0.0818 c 2.87667,5.2858 4.31174,8.81097 8.33221,11.40881 4.00738,2.59751 7.92804,2.27237 13.21176,2.27237 h 74.09809 c 2.65413,0 4.71919,0.0164 6.78424,-0.2535 2.06505,-0.25351 4.65046,-0.83248 6.72533,-2.86378 2.06505,-2.06466 2.63449,-4.61147 2.86358,-6.67597 0.24545,-2.06467 0.24545,-4.11199 0.24545,-6.75088 0,-18.49988 -11.65396,-35.16356 -25.02936,-52.52823 -11.57378,-15.02475 -24.79699,-30.72431 -34.71972,-47.79769 9.97509,-0.9813 21.46706,-3.24648 31.71051,-6.30945 6.89387,-2.0645 13.15776,-4.46968 18.12894,-7.33312 2.48068,-1.43108 4.68155,-2.93869 6.49624,-4.91127 1.82451,-1.97242 3.41339,-4.70339 3.41339,-7.99927 0,-7.7662 -4.57027,-14.33047 -10.78998,-20.17462 -6.21152,-5.84334 -14.49137,-11.28402 -23.96574,-16.69035 C 240.70197,92.222061 218.27438,82.155031 198.02475,72.156351 197.40294,61.386051 194.75372,49.083279 188.11512,38.48176 180.69435,26.626134 167.84749,17.169307 149.98364,17.169307 Z m -11.45106,86.936672 h 22.93813 v 34.40779 h 34.42519 V 161.4776 H 161.5427 v 34.37115 H 138.60458 V 161.4776 h -34.42519 v -22.96334 h 34.42519 z" />
  </g>
</svg>
