<?xml version="1.0" encoding="UTF-8" standalone="no"?>
<svg
   width="300"
   height="300"
   viewBox="0 0 300 300"
   version="1.1"
   id="svg21608"
   inkscape:version="1.2.2 (732a01da63, 2022-12-09)"
   sodipodi:docname="recruit-mage.svg"
   xmlns:inkscape="http://www.inkscape.org/namespaces/inkscape"
   xmlns:sodipodi="http://sodipodi.sourceforge.net/DTD/sodipodi-0.dtd"
   xmlns="http://www.w3.org/2000/svg"
   xmlns:svg="http://www.w3.org/2000/svg"
   xmlns:rdf="http://www.w3.org/1999/02/22-rdf-syntax-ns#"
   xmlns:cc="http://creativecommons.org/ns#"
   xmlns:dc="http://purl.org/dc/elements/1.1/">
  <defs
     id="defs21602" />
  <sodipodi:namedview
     id="base"
     pagecolor="#ffffff"
     bordercolor="#666666"
     borderopacity="1.0"
     inkscape:pageopacity="0.0"
     inkscape:pageshadow="2"
     inkscape:zoom="0.98994949"
     inkscape:cx="633.23103"
     inkscape:cy="308.38281"
     inkscape:document-units="px"
     inkscape:current-layer="layer1"
     inkscape:document-rotation="0"
     showgrid="false"
     units="px"
     width="300px"
     inkscape:showpageshadow="2"
     inkscape:pagecheckerboard="0"
     inkscape:deskcolor="#d1d1d1" />
  <metadata
     id="metadata21605">
    <rdf:RDF>
      <cc:Work
         rdf:about="">
        <dc:format>image/svg+xml</dc:format>
        <dc:type
           rdf:resource="http://purl.org/dc/dcmitype/StillImage" />
        <dc:title />
      </cc:Work>
    </rdf:RDF>
  </metadata>
  <g
     inkscape:label="Layer 1"
     inkscape:groupmode="layer"
     id="layer1">
    <path
       id="path16618"
       style="font-variation-settings:normal;display:inline;vector-effect:none;fill:#800080;fill-opacity:1;stroke-width:3.71392;stroke-linecap:butt;stroke-linejoin:miter;stroke-miterlimit:4;stroke-dasharray:none;stroke-dashoffset:0;stroke-opacity:1;stop-color:#000000"
       d="m 149.96168,17.169802 c -17.85193,0 -30.6934,9.45683 -38.10756,21.31261 -6.62366,10.60218 -9.36405,22.90331 -9.90303,33.67444 -20.236976,9.99949 -42.687306,20.06488 -60.737596,30.372338 -9.46741,5.41058 -17.69985,10.84538 -23.91324,16.69034 -6.20831,5.84334 -10.81895,12.4117 -10.81895,20.17464 0,3.30405 1.632,6.02684 3.44878,7.99943 1.82316,1.97242 4.01116,3.47953 6.49007,4.9111 4.96927,2.86377 11.22647,5.27777 18.11718,7.33328 10.23811,3.07083 21.68436,5.33519 31.65297,6.30946 -9.91547,17.07322 -23.09298,32.77294 -34.65991,47.79752 -13.36721,17.36467 -25.04975,34.02836 -25.04975,52.52823 0,2.63889 -0.0163,4.67805 0.24692,6.75088 0.24693,2.07268 0.84054,4.66087 2.92959,6.71752 2.08907,2.04733 4.63535,2.60552 6.72016,2.82174 2.07663,0.2535 4.16569,0.2535 6.86094,0.2535 h 73.75747 c 5.346186,0 9.281956,0.33365 13.312906,-2.27237 4.0298,-2.58933 5.48846,-6.11826 8.36229,-11.40864 l 0.0654,-0.0818 0.0327,-0.16356 c 0,0 6.41615,-13.04529 14.08426,-26.00717 3.83194,-6.48462 8.00629,-12.9246 11.62629,-17.4978 1.80469,-2.28955 3.51061,-4.11183 4.73428,-5.13614 0.30907,-0.25351 0.61814,-0.33365 0.74732,-0.49393 0.24693,0.16355 0.43335,0.25351 0.82745,0.49393 1.22318,1.02382 2.8802,2.85526 4.69716,5.13614 3.6218,4.56994 7.78994,11.01759 11.62694,17.4978 7.67319,12.96188 14.12008,26.00717 14.12008,26.00717 l 0.0327,0.16356 0.0654,0.0818 c 2.86778,5.28563 4.3078,8.8108 8.32583,11.40864 4.00494,2.59752 7.92355,2.27237 13.20351,2.27237 h 74.05051 c 2.64522,0 4.71579,0.0163 6.77951,-0.2535 2.0642,-0.25351 4.65382,-0.83247 6.71999,-2.86377 2.06436,-2.06466 2.63295,-4.61131 2.86172,-6.67598 0.24693,-2.06466 0.24693,-4.11199 0.24693,-6.75088 0,-18.49987 -11.64592,-35.16356 -25.01263,-52.52823 -11.56562,-15.02458 -24.78091,-30.7243 -34.69638,-47.79752 9.96861,-0.98294 21.45199,-3.24665 31.68895,-6.30946 6.89071,-2.06466 13.15037,-4.46984 18.11881,-7.33329 2.47842,-1.43107 4.67868,-2.93868 6.49023,-4.9111 1.82333,-1.97258 3.41167,-4.70355 3.41167,-7.99942 0,-7.76621 -4.56748,-14.33048 -10.78266,-20.17463 -6.20831,-5.84334 -14.48164,-11.28402 -23.94953,-16.69035 -18.0503,-10.306638 -40.46349,-20.373668 -60.70113,-30.372348 -0.61814,-10.7703 -3.26956,-23.07308 -9.9019,-33.67442 -7.41792,-11.8558 -20.25611,-21.31263 -38.10739,-21.31263 z m -11.4433,86.936668 h 22.92357 v 34.40796 h 34.40219 v 22.96317 h -34.40219 v 34.37116 H 138.51838 V 161.4776 h -34.40285 v -22.96317 h 34.40285 z" />
  </g>
</svg>
