<?xml version="1.0" encoding="UTF-8" standalone="no"?>
<svg
   width="300"
   height="300"
   viewBox="0 0 300 300"
   version="1.1"
   id="svg21608"
   inkscape:version="1.2 (dc2aeda, 2022-05-15)"
   sodipodi:docname="roads.svg"
   xml:space="preserve"
   xmlns:inkscape="http://www.inkscape.org/namespaces/inkscape"
   xmlns:sodipodi="http://sodipodi.sourceforge.net/DTD/sodipodi-0.dtd"
   xmlns="http://www.w3.org/2000/svg"
   xmlns:svg="http://www.w3.org/2000/svg"
   xmlns:rdf="http://www.w3.org/1999/02/22-rdf-syntax-ns#"
   xmlns:cc="http://creativecommons.org/ns#"
   xmlns:dc="http://purl.org/dc/elements/1.1/"><defs
     id="defs21602" /><sodipodi:namedview
     id="base"
     pagecolor="#ffffff"
     bordercolor="#666666"
     borderopacity="1.0"
     inkscape:pageopacity="0.0"
     inkscape:pageshadow="2"
     inkscape:zoom="0.52104237"
     inkscape:cx="-45.101898"
     inkscape:cy="136.26531"
     inkscape:document-units="px"
     inkscape:current-layer="svg21608"
     inkscape:document-rotation="0"
     showgrid="false"
     units="px"
     width="300px"
     inkscape:showpageshadow="2"
     inkscape:pagecheckerboard="0"
     inkscape:deskcolor="#d1d1d1"
     inkscape:window-width="1436"
     inkscape:window-height="456"
     inkscape:window-x="0"
     inkscape:window-y="38"
     inkscape:window-maximized="0" /><metadata
     id="metadata21605"><rdf:RDF><cc:Work
         rdf:about=""><dc:format>image/svg+xml</dc:format><dc:type
           rdf:resource="http://purl.org/dc/dcmitype/StillImage" /></cc:Work></rdf:RDF></metadata><g
     inkscape:label="Layer 1"
     inkscape:groupmode="layer"
     id="layer1" /><path
     id="path32502-9"
     style="font-variation-settings:normal;display:inline;fill:#666666;fill-opacity:1;stroke:none;stroke-width:48.1119;stroke-linecap:butt;stroke-linejoin:miter;stroke-miterlimit:4;stroke-dasharray:none;stroke-dashoffset:0;stroke-opacity:1;paint-order:fill markers stroke;stop-color:#000000"
     inkscape:transform-center-x="3.1810936e-05"
     inkscape:transform-center-y="-1.7166024e-05"
     d="m 158.19906,10.032454 -22.84083,34.498879 -31.354,-26.98241 -7.884999,40.603908 -39.300126,-12.915944 8.236973,40.512492 -41.21741,3.129583 23.1011,34.268588 -36.907008,18.66865 34.498884,22.82617 -26.966831,31.35399 40.588648,7.90027 -12.915965,39.28488 40.527145,-8.2685 3.113078,41.2642 34.284491,-23.13259 18.65307,36.92291 22.82584,-34.49888 31.35462,26.96712 7.89967,-40.58862 39.30076,12.91594 -8.25291,-40.54336 41.23332,-3.09625 -23.13259,-34.2848 36.92322,-18.65245 -34.4842,-22.82616 26.95214,-31.35399 -40.57395,-7.900274 12.90097,-39.300164 -40.54306,8.252597 -3.09658,-41.233326 -34.26889,23.116999 z m -21.35265,76.59129 6.94913,1.7616 -1.53527,6.013303 18.46895,-1.654574 -0.49546,-0.152868 53.01431,13.483555 -22.77934,13.20772 -24.3596,-1.5353 25.21868,16.82787 0.33029,-9.78698 25.86277,-14.98704 v 30.31142 l -7.04119,11.10571 7.04119,3.42136 v 27.62651 L 165.2427,212.76125 V 197.8054 l -1.18358,0.95421 -1.3793,1.11629 -1.5781,-0.84106 -1.20803,-0.6453 V 213.346 l -37.62849,-9.63343 -3.20665,-8.51378 -6.25857,6.10534 -23.515811,-6.01358 -6.826183,-9.09609 v -64.16592 l 34.713274,15.76907 0.4404,0.21407 0.49545,0.0262 41.81593,3.30024 v 42.29151 l -28.88471,-14.94116 -21.76736,9.15786 20.43271,-1.88699 0.62695,0.4404 31.78431,17.08841 18.51483,-14.89436 -15.35496,4.18563 v -42.67503 l 13.23828,-7.66998 -4.97253,-3.31094 -12.02658,6.97941 -42.53739,-3.3605 -34.283881,-15.56996 52.170201,-30.526113 z" /></svg>
