<?xml version="1.0" encoding="UTF-8" standalone="no"?>
<!-- Created with Inkscape (http://www.inkscape.org/) -->

<svg
   width="300"
   height="300"
   viewBox="0 0 79.374998 79.375"
   version="1.1"
   id="svg2503"
   inkscape:version="1.2 (dc2aeda, 2022-05-15)"
   sodipodi:docname="rooted.svg"
   xml:space="preserve"
   xmlns:inkscape="http://www.inkscape.org/namespaces/inkscape"
   xmlns:sodipodi="http://sodipodi.sourceforge.net/DTD/sodipodi-0.dtd"
   xmlns="http://www.w3.org/2000/svg"
   xmlns:svg="http://www.w3.org/2000/svg"><sodipodi:namedview
     id="namedview2505"
     pagecolor="#ffffff"
     bordercolor="#000000"
     borderopacity="0.25"
     inkscape:showpageshadow="2"
     inkscape:pageopacity="0.0"
     inkscape:pagecheckerboard="0"
     inkscape:deskcolor="#d1d1d1"
     inkscape:document-units="px"
     showgrid="false"
     inkscape:zoom="0.59863289"
     inkscape:cx="4.1761822"
     inkscape:cy="90.205535"
     inkscape:window-width="1436"
     inkscape:window-height="456"
     inkscape:window-x="0"
     inkscape:window-y="38"
     inkscape:window-maximized="0"
     inkscape:current-layer="layer1" /><defs
     id="defs2500" /><g
     inkscape:label="Layer 1"
     inkscape:groupmode="layer"
     id="layer1"><path
       d="M 28.492646,5.6212603 25.694202,29.050577 c 0,0 -6.151028,2.396685 -8.418874,4.668686 -4.447024,4.447027 -9.1406461,16.51357 -9.1406461,16.51357 l 7.1360211,-7.425565 4.909743,4.7241 -2.594794,-7.134638 0.936506,-0.969756 c 0,0 7.102776,-6.137175 11.217318,-5.499906 4.98732,0.775805 10.916687,10.487225 10.916687,10.487225 l -2.521365,11.207615 c -7.494835,3.61581 -14.768012,7.647224 -22.08136,11.623228 l 10.98457,-3.075517 1.66244,6.635914 2.07805,-6.968402 c 0,0 5.264395,-4.183803 8.423031,-4.363902 2.881561,-0.152389 8.09054,3.117073 8.09054,3.117073 l -5.181271,5.61074 10.902835,-4.460882 -8.630834,-6.23415 c 4.253076,-7.24547 5.444491,-13.382644 3.948295,-21.708697 1.939513,-1.593172 5.305954,-3.269465 8.298346,-1.870245 l -2.521368,4.225368 6.469662,8.229078 -2.133463,-7.342443 1.426928,-2.936977 c 3.629659,3.311026 5.929366,8.686248 6.123319,13.410348 0.207808,4.83493 -6.705173,12.870057 -6.705173,12.870057 8.783223,-5.513761 10.833565,-11.928007 9.378932,-18.480792 1.579318,0.166244 3.214049,-0.263219 5.028878,-0.581854 -4.28078,-1.510049 -5.513756,-2.992391 -7.120783,-5.167417 -1.066731,-2.161172 -2.410538,-4.294636 -3.906734,-6.400394 l 0.263221,-2.341269 -4.211513,-3.17249 -5.195127,1.24683 -3.532685,-21.8638528 z"
       fill="#8b572a"
       fill-opacity="1"
       id="path3723"
       style="stroke-width:0.264583" /><path
       style="color:#000000;font-variation-settings:normal;opacity:1;vector-effect:none;fill:#8b572a;fill-opacity:1;stroke-width:0.264583;stroke-linecap:butt;stroke-linejoin:miter;stroke-miterlimit:4;stroke-dasharray:none;stroke-dashoffset:0;stroke-opacity:1;-inkscape-stroke:none;paint-order:stroke fill markers;stop-color:#000000;stop-opacity:1"
       d="m 39.687495,1.8222655 c -20.87308,0 -37.86523,16.9921455 -37.86523,37.8652335 0,20.873088 16.99215,37.865234 37.86523,37.865234 20.873093,0 37.865239,-16.992146 37.865239,-37.865234 0,-20.873088 -16.992146,-37.8652335 -37.865239,-37.8652335 z m 0,6.615234 c 17.298312,0 31.250005,13.9516925 31.250005,31.2499995 0,17.298307 -13.951693,31.251953 -31.250005,31.251953 -17.2983,0 -31.25195,-13.953646 -31.25195,-31.251953 0,-17.298307 13.95365,-31.2499995 31.25195,-31.2499995 z"
       id="path4013" /></g></svg>
