<?xml version="1.0" encoding="UTF-8" standalone="no"?>
<svg
   width="300"
   height="300"
   viewBox="0 0 300 300"
   version="1.1"
   id="svg21608"
   inkscape:version="1.2 (dc2aeda, 2022-05-15)"
   sodipodi:docname="elite-recon.svg"
   xmlns:inkscape="http://www.inkscape.org/namespaces/inkscape"
   xmlns:sodipodi="http://sodipodi.sourceforge.net/DTD/sodipodi-0.dtd"
   xmlns="http://www.w3.org/2000/svg"
   xmlns:svg="http://www.w3.org/2000/svg"
   xmlns:rdf="http://www.w3.org/1999/02/22-rdf-syntax-ns#"
   xmlns:cc="http://creativecommons.org/ns#"
   xmlns:dc="http://purl.org/dc/elements/1.1/">
  <defs
     id="defs21602" />
  <sodipodi:namedview
     id="base"
     pagecolor="#ffffff"
     bordercolor="#666666"
     borderopacity="1.0"
     inkscape:pageopacity="0.0"
     inkscape:pageshadow="2"
     inkscape:zoom="0.98994949"
     inkscape:cx="378.30213"
     inkscape:cy="273.75134"
     inkscape:document-units="px"
     inkscape:current-layer="layer1"
     inkscape:document-rotation="0"
     showgrid="false"
     units="px"
     width="300px"
     inkscape:showpageshadow="2"
     inkscape:pagecheckerboard="0"
     inkscape:deskcolor="#d1d1d1"
     inkscape:window-width="1436"
     inkscape:window-height="456"
     inkscape:window-x="0"
     inkscape:window-y="38"
     inkscape:window-maximized="0" />
  <metadata
     id="metadata21605">
    <rdf:RDF>
      <cc:Work
         rdf:about="">
        <dc:format>image/svg+xml</dc:format>
        <dc:type
           rdf:resource="http://purl.org/dc/dcmitype/StillImage" />
        <dc:title />
      </cc:Work>
    </rdf:RDF>
  </metadata>
  <g
     inkscape:label="Layer 1"
     inkscape:groupmode="layer"
     id="layer1">
    <path
       id="path107965"
       style="font-variation-settings:normal;display:inline;vector-effect:none;fill:#552200;fill-opacity:1;stroke:none;stroke-width:0.0687069;stroke-linecap:butt;stroke-linejoin:miter;stroke-miterlimit:4;stroke-dasharray:none;stroke-dashoffset:0;stroke-opacity:1;-inkscape-stroke:none;paint-order:fill markers stroke;stop-color:#000000"
       d="M 158.44042,5.909619 134.92678,41.425132 102.64903,13.647642 94.532046,55.44785 54.074159,42.151513 62.55417,83.85688 20.12234,87.078382 43.904242,122.35668 5.90978,141.57532 l 35.515271,23.49771 -27.761642,32.27807 41.784602,8.13251 -13.296578,40.44245 41.721294,-8.51179 3.205897,42.47945 35.293816,-23.81392 19.2028,38.01055 23.49803,-35.51551 32.27776,27.76188 8.13282,-41.7846 40.45805,13.29666 -8.49593,-41.73746 42.44767,-3.18941 -23.81368,-35.29421 38.01023,-19.20273 -35.49958,-23.4977 27.74595,-32.27809 -41.76867,-8.132577 13.28072,-40.457968 -41.73714,8.495858 -3.19004,-42.447676 -35.27829,23.79783 z M 127.34707,94.83201 c 0.35414,0 0.71232,0.03234 1.0726,0.09136 0.3606,0.06468 0.72444,0.122088 1.09094,0.244175 0.36385,0.122089 0.72445,0.274901 1.09096,0.458436 0.36383,0.183537 0.73009,0.409116 1.09094,0.662994 0.36061,0.244175 0.72121,0.540905 1.0726,0.867872 0.3517,0.32665 0.7026,0.702616 1.04203,1.106232 0.342,0.403458 0.66945,0.843381 0.99626,1.326231 0.32423,0.4827 0.64198,1.01147 0.94728,1.57987 v 10.09076 c -0.64763,-0.43418 -1.30788,-0.83732 -1.97411,-1.21619 -0.66622,-0.3792 -1.33536,-0.73333 -2.01986,-1.05739 -0.68483,-0.32422 -1.38437,-0.61448 -2.08415,-0.88308 -0.70019,-0.2749 -1.40263,-0.51018 -2.11462,-0.72768 -0.71231,-0.21425 -1.42706,-0.40669 -2.14827,-0.5684 -0.7212,-0.15281 -1.45155,-0.30562 -2.17882,-0.40911 -0.72768,-0.12209 -1.44533,-0.18353 -2.17882,-0.24417 -0.73333,-0.0646 -1.47589,-0.0913 -2.21246,-0.0913 -0.80974,0 -1.61043,0.0323 -2.4171,0.0913 l 2.21247,-4.43737 c 0.31127,-0.62014 0.62984,-1.19493 0.96246,-1.720551 0.33312,-0.528776 0.67513,-1.011468 1.02676,-1.451549 0.3517,-0.437412 0.72444,-0.834248 1.09094,-1.185551 0.36708,-0.354133 0.7301,-0.657332 1.10624,-0.932151 0.37596,-0.2749 0.75759,-0.513416 1.13687,-0.709079 0.37919,-0.183537 0.75516,-0.360605 1.13678,-0.489161 0.38164,-0.122087 0.76083,-0.213451 1.1368,-0.274899 0.37597,-0.06468 0.75193,-0.09136 1.12151,-0.09136 z m 45.3376,0 v 0.01617 c 0.3695,0 0.74547,0.03234 1.12151,0.09137 0.37596,0.06468 0.75517,0.152811 1.1368,0.274899 0.38162,0.122088 0.75758,0.305624 1.13678,0.48916 0.37921,0.21426 0.76083,0.437414 1.1368,0.70908 0.37596,0.274899 0.7398,0.57729 1.10615,0.931995 0.36707,0.354131 0.7398,0.7487 1.09094,1.18571 0.35172,0.436607 0.69372,0.922847 1.02684,1.451464 0.33311,0.528792 0.65409,1.100092 0.96254,1.720472 l 2.22774,4.45297 c -0.83423,-0.0646 -1.65934,-0.0913 -2.49358,-0.0913 -0.83423,0.003 -1.67769,0.0162 -2.51194,0.12209 -0.83423,0.0647 -1.66847,0.18353 -2.49358,0.33311 -0.82809,0.15281 -1.64705,0.30886 -2.46301,0.51989 -0.81589,0.21425 -1.62878,0.46167 -2.43247,0.74223 -0.80367,0.27489 -1.60128,0.61125 -2.38354,0.96247 -0.39132,0.18354 -0.78265,0.3606 -1.16736,0.55303 -0.38808,0.18354 -0.76972,0.3881 -1.15206,0.59912 -0.38163,0.21426 -0.74547,0.43418 -1.12152,0.663 -0.37597,0.21425 -0.75436,0.4649 -1.12142,0.71231 v -10.10669 c 0.30562,-0.5684 0.62337,-1.09702 0.94726,-1.579868 0.32423,-0.482691 0.65411,-0.922858 0.99619,-1.326231 0.33959,-0.403457 0.69049,-0.76082 1.04204,-1.090944 0.35171,-0.32665 0.71232,-0.614487 1.07268,-0.867879 0.3606,-0.244175 0.72444,-0.464904 1.09094,-0.647632 0.36384,-0.183535 0.72444,-0.339582 1.09087,-0.458435 0.36384,-0.122088 0.72767,-0.214261 1.09095,-0.274901 0.3606,-0.06468 0.72121,-0.09136 1.07267,-0.09136 z m -53.84938,16.84966 v 0.0913 c 0.37273,0 0.74869,0.0162 1.12151,0.0323 0.37273,0.0162 0.73333,0.0323 1.10622,0.0913 0.37274,0.0323 0.75193,0.0647 1.12151,0.12209 0.36951,0.0647 0.73657,0.12209 1.10623,0.18353 0.36951,0.0647 0.73981,0.15281 1.10624,0.24418 0.36626,0.0913 0.74222,0.18354 1.10614,0.27489 0.36384,0.1221 0.71231,0.24419 1.07267,0.36385 0.36061,0.12209 0.73334,0.24417 1.09088,0.39456 0.35737,0.15281 0.70584,0.30562 1.05739,0.45844 0.35413,0.15281 0.70908,0.34523 1.05731,0.5223 0.34848,0.18354 0.69696,0.36951 1.04203,0.5684 0.34524,0.18353 0.68725,0.39699 1.02675,0.61691 0.33877,0.21426 0.663,0.43094 0.99619,0.66299 0.33312,0.24418 0.66946,0.4924 0.99627,0.74304 0.32665,0.24417 0.6444,0.50452 0.96255,0.77296 0.31775,0.27489 0.6355,0.54979 0.94735,0.83731 v 35.48366 c -0.41234,-0.63875 -0.84652,-1.26819 -1.29566,-1.87936 -0.44954,-0.61124 -0.90458,-1.20397 -1.39042,-1.78466 -0.48594,-0.58052 -0.99628,-1.13978 -1.51575,-1.68982 -0.51989,-0.54981 -1.04511,-1.09402 -1.59516,-1.61043 -0.54979,-0.51989 -1.12458,-1.01761 -1.70518,-1.50046 -0.58052,-0.4827 -1.17342,-0.9565 -1.78459,-1.40571 -0.61124,-0.44954 -1.24068,-0.86788 -1.87934,-1.28039 -0.63873,-0.40912 -1.29268,-0.79721 -1.95882,-1.16735 -0.66622,-0.37274 -1.34766,-0.72688 -2.03822,-1.05732 -0.69049,-0.32988 -1.38736,-0.64521 -2.09943,-0.93199 -0.7123,-0.2749 -1.43012,-0.56193 -2.16354,-0.80692 -0.73333,-0.24417 -1.47289,-0.46408 -2.22774,-0.66299 -0.75193,-0.18353 -1.51873,-0.37272 -2.28878,-0.5223 -0.76972,-0.15281 -1.5493,-0.2749 -2.33777,-0.3792 -0.7851,-0.0913 -1.58294,-0.18354 -2.38355,-0.24418 -0.80045,-0.0646 -1.60129,-0.0913 -2.41718,-0.0913 -0.69372,0 -1.38428,0.0243 -2.06879,0.0647 -0.68481,0.0323 -1.36293,0.0913 -2.03829,0.15281 -0.671886,0.0647 -1.329307,0.18354 -1.989387,0.2749 -0.659762,0.12209 -1.323158,0.24418 -1.974024,0.37921 -0.647631,0.15281 -1.289603,0.31208 -1.92826,0.48915 -0.635504,0.18354 -1.274321,0.37274 -1.894625,0.58376 -0.623375,0.21426 -1.225406,0.45197 -1.830509,0.69372 -0.608014,0.24417 -1.210125,0.49805 -1.799866,0.77295 l 12.175471,-21.31863 c 0.31775,-0.31129 0.63551,-0.60802 0.96256,-0.90144 0.32664,-0.30562 0.65975,-0.58052 0.99618,-0.85259 0.33635,-0.27489 0.68483,-0.53444 1.02684,-0.78832 0.342,-0.24417 0.67835,-0.50694 1.02674,-0.74222 0.34848,-0.24418 0.70262,-0.44955 1.05732,-0.663 0.35413,-0.21425 0.71231,-0.42205 1.0726,-0.61691 0.3606,-0.18353 0.72444,-0.37596 1.09094,-0.55302 0.36707,-0.18355 0.73334,-0.34848 1.10623,-0.50453 0.3695,-0.15281 0.74546,-0.30562 1.12151,-0.44307 0.37597,-0.12209 0.75759,-0.27491 1.13679,-0.37921 0.3792,-0.12208 0.75436,-0.21345 1.1368,-0.31451 0.38162,-0.0913 0.75435,-0.18354 1.13671,-0.2749 0.38485,-0.0913 0.76729,-0.15281 1.15206,-0.21426 0.38486,-0.0647 0.78267,-0.12209 1.17043,-0.15281 0.3881,-0.0323 0.76406,-0.0647 1.15208,-0.0913 0.38809,-0.0162 0.77942,-0.0323 1.16726,-0.0323 z m 62.7242,0.0913 c 0.3792,0.006 0.75759,0.0243 1.13679,0.0647 0.3792,0.0243 0.75759,0.0646 1.13679,0.0913 0.3792,0.0323 0.76083,0.12209 1.13687,0.18353 0.37597,0.0646 0.76083,0.12209 1.1368,0.21426 0.37596,0.0913 0.7487,0.18353 1.12142,0.2749 0.37274,0.0913 0.73657,0.21345 1.10623,0.34848 0.3695,0.12209 0.73981,0.24418 1.10624,0.3792 0.36706,0.12209 0.74222,0.2749 1.10622,0.44307 0.36384,0.15281 0.71474,0.31452 1.07252,0.48916 0.35736,0.18354 0.7212,0.37597 1.07259,0.5684 0.35414,0.18353 0.69371,0.37272 1.04211,0.58375 0.34848,0.21427 0.70019,0.43418 1.04212,0.66299 0.342,0.24419 0.67511,0.47704 1.01147,0.72768 0.33634,0.24418 0.66622,0.50452 0.99619,0.77296 0.32664,0.27489 0.65732,0.5498 0.97791,0.83731 0.32098,0.2749 0.6355,0.57729 0.94727,0.88307 l 12.17547,21.31856 c -0.58941,-0.2749 -1.19492,-0.52878 -1.79986,-0.77295 -0.60478,-0.24418 -1.21013,-0.46733 -1.83359,-0.67836 -0.62014,-0.21425 -1.25895,-0.40345 -1.89462,-0.58376 -0.63551,-0.18353 -1.27731,-0.34524 -1.92519,-0.48916 -0.65086,-0.15281 -1.31094,-0.2749 -1.97402,-0.3792 -0.65976,-0.12208 -1.3171,-0.21425 -1.98938,-0.27489 -0.6727,-0.0646 -1.35373,-0.12209 -2.03831,-0.15282 -0.68482,-0.0323 -1.37522,-0.0647 -2.06878,-0.0647 -0.8129,0 -1.61657,0.0162 -2.41717,0.0913 -0.80046,0.0647 -1.59823,0.12208 -2.38355,0.24417 -0.78508,0.0913 -1.56765,0.21427 -2.33777,0.37921 -0.76972,0.15281 -1.5371,0.32664 -2.28887,0.5223 -0.75194,0.21345 -1.49432,0.41882 -2.22775,0.66299 -0.73332,0.24418 -1.45155,0.51989 -2.16354,0.80692 -0.71231,0.2749 -1.41185,0.60235 -2.09942,0.93207 -0.69049,0.32989 -1.37207,0.68725 -2.03822,1.05731 -0.66623,0.37274 -1.32016,0.75759 -1.95882,1.16736 -0.63874,0.40912 -1.26818,0.83117 -1.87934,1.28038 -0.61126,0.44955 -1.20092,0.92286 -1.78459,1.40571 -0.58376,0.48269 -1.15506,0.98398 -1.70519,1.50039 -0.5498,0.51665 -1.07566,1.06038 -1.59515,1.61043 -0.51907,0.54979 -1.03289,1.10929 -1.51574,1.68991 -0.48593,0.58052 -0.94122,1.17349 -1.39043,1.78466 -0.44874,0.61125 -0.88308,1.24068 -1.29558,1.87934 v -35.48341 c 0.31775,-0.30562 0.63873,-0.57729 0.96255,-0.85259 0.32664,-0.27491 0.663,-0.53444 0.99618,-0.78832 0.33311,-0.24418 0.6727,-0.50452 1.01147,-0.74223 0.33959,-0.24417 0.6816,-0.46167 1.02684,-0.67836 0.34524,-0.21345 0.69048,-0.43418 1.04211,-0.63227 0.35171,-0.21425 0.70261,-0.38809 1.05731,-0.56839 0.35737,-0.18354 0.71231,-0.36384 1.0726,-0.52231 0.3606,-0.15281 0.72444,-0.31452 1.09094,-0.45844 0.36627,-0.15281 0.73658,-0.2749 1.10624,-0.39375 0.36949,-0.12209 0.74869,-0.24418 1.12151,-0.34848 0.37272,-0.0913 0.74545,-0.18353 1.12142,-0.27489 0.37597,-0.0913 0.74547,-0.18354 1.12151,-0.24418 0.37597,-0.0647 0.75759,-0.12209 1.1368,-0.18354 0.37919,-0.0646 0.75759,-0.0913 1.13678,-0.12209 0.37921,-0.0323 0.75759,-0.0646 1.1368,-0.0646 0.3792,-0.0162 0.75759,-0.0243 1.13678,-0.0162 z m -31.86735,4.31124 v 0.0162 c 0.0913,-0.007 0.21425,0 0.31452,0 0.21345,0 0.41882,0.0243 0.64763,0.0647 0.24417,0.0323 0.47056,0.0647 0.72687,0.12209 0.24417,0.0647 0.532,0.12208 0.8221,0.21426 0.30563,0.0913 0.59912,0.21346 0.93208,0.33312 0.66299,0.24417 1.42098,0.56515 2.28887,0.96263 0.87086,0.39699 1.85185,0.88 2.98556,1.43627 v 43.34748 c -0.30562,-0.21345 -0.60478,-0.42123 -0.91687,-0.61689 -0.31128,-0.18355 -0.62014,-0.36708 -0.94727,-0.53768 -0.32665,-0.18353 -0.66946,-0.32988 -1.01147,-0.4738 -0.33958,-0.15281 -0.68725,-0.2749 -1.04211,-0.39456 -0.35413,-0.12209 -0.70908,-0.21426 -1.07251,-0.31452 -0.36384,-0.0913 -0.7301,-0.15281 -1.10624,-0.21426 -0.37596,-0.0646 -0.75193,-0.12208 -1.13678,-0.15281 -0.38487,-0.0323 -0.77619,-0.0647 -1.16744,-0.0647 -0.39132,0 -0.78508,0.0162 -1.16727,0.0647 -0.38486,0.0323 -0.76082,0.0913 -1.13679,0.15281 -0.37596,0.0646 -0.73981,0.12209 -1.10623,0.21426 -0.36384,0.0913 -0.72121,0.18354 -1.0726,0.31452 -0.35413,0.12209 -0.70261,0.24417 -1.04203,0.39456 -0.33958,0.15282 -0.68483,0.30563 -1.01155,0.4738 -0.32664,0.18353 -0.6355,0.34201 -0.94727,0.53768 -0.31128,0.18353 -0.62014,0.39698 -0.91679,0.61689 v -43.34748 c 1.06346,-0.52231 1.99852,-0.97792 2.8267,-1.35994 0.83116,-0.38163 1.55237,-0.69695 2.1941,-0.94728 0.64439,-0.24418 1.20398,-0.43418 1.70519,-0.56839 0.24417,-0.0647 0.48592,-0.12209 0.70908,-0.18354 0.21425,-0.0323 0.44308,-0.0647 0.64763,-0.0913 z m -45.02187,26.92448 c 0.53767,0 1.06346,0.0243 1.59515,0.0647 0.53201,0.0243 1.07258,0.0646 1.59514,0.12209 0.52232,0.0646 1.0329,0.12209 1.54632,0.21426 0.51664,0.0913 1.02674,0.15281 1.53094,0.27489 0.50695,0.0913 1.02069,0.21427 1.51559,0.34849 0.49805,0.12209 0.98099,0.24417 1.46998,0.40911 0.48593,0.15281 0.97776,0.31452 1.45155,0.48916 0.47703,0.18354 0.94122,0.35737 1.40563,0.55303 0.4641,0.18354 0.91986,0.41235 1.37515,0.63227 0.45197,0.21426 0.90151,0.43984 1.34159,0.67836 0.43984,0.24417 0.86779,0.48269 1.29567,0.74223 0.42771,0.24417 0.84952,0.5409 1.26203,0.82203 0.41235,0.2749 0.81597,0.55627 1.21627,0.8526 0.39699,0.30562 0.80044,0.61447 1.18554,0.93199 0.38487,0.31775 0.75518,0.64439 1.1216,0.97791 0.36707,0.33312 0.72444,0.67512 1.07251,1.02675 0.35171,0.35171 0.70908,0.70585 1.04203,1.07259 0.33311,0.36708 0.64763,0.73657 0.96264,1.12151 0.31452,0.38163 0.63227,0.78508 0.93215,1.18571 0.30563,0.39699 0.57486,0.80368 0.85244,1.21619 0.27489,0.41235 0.56192,0.83724 0.8221,1.26212 0.24418,0.4277 0.50453,0.85558 0.74223,1.29566 0.24417,0.43984 0.46167,0.88922 0.67835,1.34151 0.21427,0.45197 0.43742,0.9075 0.63228,1.37515 0.18353,0.46409 0.37919,0.94427 0.55303,1.42099 0.18354,0.47702 0.33877,0.95034 0.48916,1.43619 0.15282,0.48592 0.2749,0.97177 0.40993,1.46991 0.12208,0.49805 0.24417,1.00839 0.34847,1.51566 0.0913,0.50694 0.18353,1.01753 0.2749,1.53094 0.0913,0.51666 0.15281,1.0207 0.21427,1.54624 0.0646,0.52231 0.0913,1.06346 0.12208,1.59515 0.0243,0.532 0.0646,1.05739 0.0646,1.59531 0,0.53766 -0.0162,1.06337 -0.0646,1.59514 -0.0243,0.53201 -0.0647,1.0726 -0.12208,1.59514 -0.0647,0.52232 -0.1221,1.0329 -0.21427,1.54623 -0.0913,0.51666 -0.15281,1.02676 -0.2749,1.53104 -0.0913,0.50694 -0.21345,1.0206 -0.34847,1.51567 -0.12209,0.49805 -0.24418,0.9809 -0.40993,1.4699 -0.15281,0.48593 -0.31451,0.95948 -0.48916,1.43619 -0.18353,0.47704 -0.35737,0.95649 -0.55303,1.42099 -0.18354,0.4649 -0.41235,0.91978 -0.63228,1.37514 -0.21345,0.45197 -0.43983,0.90151 -0.67835,1.34152 -0.24417,0.43984 -0.48269,0.86787 -0.74223,1.29567 -0.24417,0.4277 -0.5409,0.84951 -0.8221,1.2621 -0.27491,0.41236 -0.55627,0.81589 -0.85244,1.21619 -0.30562,0.40023 -0.61449,0.80045 -0.93215,1.18571 -0.31775,0.38162 -0.64521,0.75517 -0.97784,1.12151 -0.33312,0.36708 -0.67512,0.72121 -1.02683,1.07252 -0.35171,0.35171 -0.70585,0.69372 -1.07251,1.02683 -0.36627,0.33311 -0.73657,0.66299 -1.1216,0.97783 -0.38485,0.31775 -0.78508,0.63227 -1.18554,0.93207 -0.39698,0.30563 -0.80368,0.57487 -1.21627,0.85252 -0.41235,0.27489 -0.83731,0.56192 -1.26203,0.8221 -0.42771,0.24418 -0.85567,0.50453 -1.29567,0.74223 -0.43984,0.24419 -0.88931,0.46167 -1.34159,0.67837 -0.45197,0.21425 -0.90757,0.43741 -1.37515,0.63226 -0.46409,0.18354 -0.929,0.37921 -1.40563,0.55303 -0.47702,0.18354 -0.9657,0.33959 -1.45155,0.48917 -0.48592,0.15281 -0.97184,0.2749 -1.46998,0.40911 -0.49805,0.12209 -1.00832,0.24418 -1.51559,0.34848 -0.50694,0.0913 -1.01761,0.18353 -1.53094,0.2749 -0.51666,0.0913 -1.02377,0.15281 -1.54632,0.21426 -0.52231,0.0647 -1.06346,0.0913 -1.59514,0.12209 -0.53202,0.0243 -1.05732,0.0646 -1.59515,0.0646 -0.53767,0 -1.06346,-0.007 -1.59523,-0.0646 -0.53201,-0.0243 -1.07251,-0.0647 -1.59514,-0.12209 -0.52232,-0.0647 -1.0329,-0.1221 -1.546318,-0.21426 -0.516646,-0.0913 -1.026744,-0.15282 -1.530952,-0.2749 -0.506942,-0.0913 -1.002325,-0.21426 -1.500382,-0.34848 -0.498053,-0.12208 -0.996188,-0.24417 -1.485106,-0.40911 -0.485925,-0.15281 -0.962634,-0.31452 -1.43627,-0.48917 -0.477032,-0.18353 -0.95649,-0.35737 -1.420989,-0.55303 -0.464904,-0.18354 -0.919863,-0.41235 -1.375227,-0.63226 -0.451967,-0.21427 -0.901429,-0.43985 -1.341511,-0.67837 -0.439839,-0.24417 -0.867793,-0.48269 -1.295586,-0.74223 -0.427712,-0.24417 -0.849602,-0.5409 -1.265186,-0.8221 -0.412349,-0.2749 -0.815967,-0.55304 -1.216269,-0.85252 -0.396988,-0.30562 -0.800444,-0.61448 -1.182554,-0.93207 -0.38486,-0.31452 -0.755166,-0.64521 -1.12143,-0.97783 -0.367072,-0.33311 -0.724442,-0.67512 -1.072675,-1.02683 -0.35171,-0.35172 -0.693718,-0.70585 -1.026751,-1.07252 -0.333113,-0.36707 -0.662993,-0.73657 -0.977834,-1.12151 -0.317752,-0.38486 -0.632269,-0.78508 -0.932072,-1.18571 -0.305623,-0.39699 -0.574864,-0.80367 -0.852594,-1.21619 -0.274899,-0.41235 -0.561927,-0.83731 -0.822031,-1.2621 -0.244175,-0.42772 -0.504522,-0.85559 -0.742229,-1.29567 -0.244176,-0.43985 -0.46167,-0.88922 -0.678356,-1.34152 -0.21426,-0.45197 -0.434179,-0.90757 -0.632269,-1.37514 -0.183536,-0.4641 -0.3792,-0.94437 -0.553033,-1.42099 -0.183537,-0.47703 -0.338774,-0.95035 -0.489161,-1.43619 -0.152811,-0.48593 -0.274899,-0.97177 -0.409924,-1.4699 -0.122087,-0.49806 -0.244175,-1.0084 -0.348475,-1.51567 -0.09136,-0.50695 -0.183537,-1.01762 -0.274901,-1.53104 -0.09136,-0.51341 -0.152811,-1.02367 -0.214259,-1.54623 -0.06469,-0.5223 -0.09136,-1.06345 -0.122089,-1.59514 -0.02425,-0.53202 -0.06468,-1.05732 -0.06468,-1.59514 0,-0.53768 0.01617,-1.06346 0.06468,-1.59531 0.02426,-0.53202 0.06469,-1.07251 0.122089,-1.59515 0.06468,-0.52231 0.122088,-1.02982 0.214259,-1.54624 0.09136,-0.51341 0.152813,-1.02375 0.274901,-1.53094 0.09136,-0.50695 0.213451,-1.01761 0.348475,-1.51566 0.122088,-0.49807 0.244176,-0.98092 0.409924,-1.46991 0.152813,-0.48592 0.314518,-0.95957 0.489161,-1.43619 0.183535,-0.47703 0.357369,-0.95649 0.553033,-1.42099 0.183536,-0.46491 0.412349,-0.91978 0.632269,-1.37515 0.213452,-0.45197 0.43984,-0.90158 0.678356,-1.34151 0.244176,-0.43983 0.482692,-0.86787 0.742229,-1.29566 0.244177,-0.42772 0.54414,-0.84953 0.822031,-1.26212 0.274901,-0.41234 0.556268,-0.81589 0.852594,-1.21619 0.305624,-0.39698 0.614482,-0.80044 0.932072,-1.18571 0.314517,-0.38485 0.645206,-0.75516 0.977834,-1.12151 0.333115,-0.36706 0.675122,-0.7212 1.026751,-1.07259 0.35171,-0.35171 0.705846,-0.69372 1.072675,-1.02675 0.366264,-0.33312 0.73657,-0.66299 1.12143,-0.97791 0.381625,-0.31452 0.78508,-0.63227 1.182554,-0.93199 0.396987,-0.30563 0.803677,-0.57487 1.216269,-0.8526 0.41235,-0.2749 0.837312,-0.56192 1.265186,-0.82203 0.427711,-0.24418 0.855666,-0.50452 1.295586,-0.74223 0.439841,-0.24417 0.889382,-0.46167 1.341511,-0.67836 0.451968,-0.21425 0.907654,-0.43418 1.375227,-0.63227 0.464095,-0.18353 0.94428,-0.37919 1.420989,-0.55303 0.477032,-0.18354 0.950264,-0.33958 1.43627,-0.48916 0.485926,-0.15281 0.987053,-0.2749 1.485106,-0.40911 0.498057,-0.12209 0.993196,-0.24418 1.500382,-0.34849 0.506952,-0.0913 1.017622,-0.18353 1.530952,-0.27489 0.516658,-0.0913 1.023758,-0.15281 1.546318,-0.21426 0.52231,-0.0647 1.06338,-0.0913 1.59514,-0.12209 0.53202,-0.0243 1.05739,-0.0647 1.59523,-0.0647 z m 90.69113,0.39457 c 0.53766,0 1.06338,0.0243 1.59514,0.0646 0.53202,0.0243 1.05732,0.0647 1.57987,0.12208 0.52231,0.0647 1.04817,0.12209 1.56459,0.21427 0.51664,0.0913 1.02674,0.15281 1.53094,0.2749 0.50695,0.0913 1.00233,0.21425 1.50047,0.34847 0.49805,0.12209 0.99619,0.24418 1.4851,0.40912 0.48594,0.15281 0.96264,0.31452 1.43627,0.48916 0.47704,0.18353 0.94121,0.35736 1.40571,0.55303 0.4641,0.18354 0.93814,0.41235 1.39035,0.63227 0.45197,0.21427 0.88622,0.43984 1.32623,0.67835 0.43984,0.24418 0.88315,0.48269 1.31094,0.74223 0.42772,0.24419 0.84953,0.54415 1.26212,0.82203 0.41235,0.2749 0.81589,0.55627 1.21619,0.85252 0.39698,0.30563 0.78508,0.61448 1.16743,0.93207 0.38163,0.31452 0.75436,0.6444 1.12151,0.97792 0.36626,0.33311 0.7398,0.67512 1.09095,1.02675 0.35171,0.35171 0.69372,0.70584 1.02675,1.07259 0.33311,0.36707 0.64763,0.73657 0.96247,1.12151 0.31452,0.38163 0.63227,0.78509 0.93216,1.18563 0.30562,0.39699 0.57486,0.80368 0.85259,1.21627 0.27491,0.41235 0.54738,0.83723 0.80691,1.26203 0.24418,0.42771 0.51907,0.85567 0.75759,1.29567 0.24418,0.43984 0.46167,0.8893 0.67836,1.34158 0.21345,0.45197 0.41882,0.9075 0.61691,1.37507 0.18353,0.46491 0.39455,0.94428 0.56839,1.42099 0.18354,0.47703 0.32423,0.95043 0.4738,1.43627 0.15282,0.48592 0.30563,0.97177 0.42771,1.46991 0.12209,0.49805 0.24418,1.0084 0.34848,1.51567 0.0913,0.50695 0.18353,1.01753 0.2749,1.53086 0.0913,0.51666 0.15281,1.02376 0.21426,1.54632 0.0647,0.5223 0.0913,1.06345 0.12209,1.59514 0.0243,0.53202 0.0647,1.05739 0.0647,1.59523 0,0.53767 -0.0243,1.06346 -0.0647,1.59515 -0.0243,0.53201 -0.0647,1.07259 -0.12209,1.59514 -0.0647,0.52232 -0.12209,1.0329 -0.21426,1.54632 -0.0913,0.51664 -0.15281,1.02674 -0.2749,1.53094 -0.0913,0.50695 -0.21426,1.02069 -0.34848,1.51575 -0.12208,0.49805 -0.27489,0.98091 -0.42771,1.46982 -0.15281,0.48594 -0.30562,0.95957 -0.4738,1.43628 -0.18353,0.47703 -0.37273,0.95649 -0.56839,1.42098 -0.18354,0.4641 -0.39699,0.91979 -0.61691,1.37515 -0.21426,0.45197 -0.43984,0.90143 -0.67836,1.34151 -0.24417,0.43984 -0.49805,0.86788 -0.75759,1.29567 -0.24417,0.42771 -0.52554,0.84952 -0.80691,1.26203 -0.2749,0.41236 -0.55627,0.81597 -0.85259,1.21627 -0.30563,0.39699 -0.61771,0.80045 -0.93216,1.18571 -0.31451,0.38486 -0.62903,0.75436 -0.96247,1.12143 -0.33311,0.36707 -0.67512,0.72444 -1.02675,1.07259 -0.35171,0.35171 -0.7212,0.69372 -1.09095,1.02683 -0.36706,0.33311 -0.73657,0.663 -1.12151,0.97776 -0.38162,0.31452 -0.76972,0.63227 -1.16743,0.93215 -0.39699,0.30562 -0.80368,0.57405 -1.21619,0.85251 -0.41235,0.2749 -0.83723,0.56193 -1.26212,0.82212 -0.4277,0.24417 -0.87086,0.50451 -1.31094,0.74223 -0.43984,0.24417 -0.87394,0.46167 -1.32623,0.67835 -0.45197,0.21426 -0.92593,0.43661 -1.39035,0.63227 -0.4649,0.18353 -0.929,0.3792 -1.40571,0.55303 -0.47703,0.18354 -0.95033,0.33958 -1.43627,0.48916 -0.48592,0.15281 -0.98697,0.2749 -1.4851,0.40912 -0.49805,0.12208 -0.9932,0.24417 -1.50047,0.34847 -0.50694,0.0913 -1.01753,0.18354 -1.53094,0.2749 -0.51666,0.0913 -1.03896,0.15282 -1.56459,0.21427 -0.52232,0.0646 -1.04818,0.0913 -1.57987,0.12208 -0.53201,0.0243 -1.05739,0.0646 -1.59514,0.0646 -0.53768,0 -1.07874,-0.0243 -1.61052,-0.0646 -0.532,-0.0243 -1.0573,-0.0647 -1.57986,-0.12208 -0.5223,-0.0647 -1.04818,-0.12209 -1.56458,-0.21427 -0.51341,-0.0913 -1.02368,-0.15281 -1.53095,-0.2749 -0.50694,-0.0913 -1.00234,-0.21426 -1.50046,-0.34847 -0.49806,-0.12209 -0.98092,-0.24418 -1.46684,-0.40912 -0.48592,-0.15281 -0.97783,-0.31452 -1.45454,-0.48916 -0.47703,-0.18354 -0.94122,-0.35736 -1.40571,-0.55303 -0.4649,-0.18354 -0.91978,-0.41236 -1.37515,-0.63227 -0.45197,-0.21426 -0.90143,-0.43984 -1.34151,-0.67835 -0.43984,-0.24418 -0.88315,-0.4827 -1.31094,-0.74223 -0.42772,-0.24419 -0.84953,-0.54091 -1.26212,-0.82212 -0.41235,-0.2749 -0.81588,-0.55627 -1.21619,-0.85251 -0.39698,-0.30562 -0.78508,-0.61448 -1.16736,-0.93215 -0.38485,-0.31775 -0.75516,-0.6444 -1.12151,-0.97776 -0.36706,-0.33311 -0.7398,-0.67512 -1.09094,-1.02683 -0.35171,-0.35171 -0.69372,-0.70584 -1.02676,-1.07259 -0.33311,-0.36707 -0.66299,-0.73657 -0.97783,-1.12143 -0.31775,-0.38486 -0.61691,-0.78508 -0.91678,-1.18571 -0.30562,-0.40022 -0.58942,-0.80368 -0.86788,-1.21627 -0.2749,-0.41235 -0.54738,-0.83731 -0.80691,-1.26203 -0.24418,-0.42771 -0.50452,-0.85567 -0.74223,-1.29567 -0.24417,-0.43984 -0.47703,-0.8893 -0.69372,-1.34151 -0.21425,-0.45196 -0.41882,-0.90758 -0.61691,-1.37515 -0.18353,-0.4649 -0.37919,-0.94435 -0.55303,-1.42098 -0.18354,-0.47704 -0.33877,-0.95034 -0.48916,-1.43628 -0.15281,-0.48592 -0.30563,-0.97177 -0.42447,-1.46982 -0.12209,-0.49805 -0.21427,-1.00848 -0.33313,-1.51575 -0.0913,-0.50694 -0.21425,-1.01761 -0.27489,-1.53094 -0.0913,-0.51666 -0.12209,-1.02377 -0.18354,-1.54632 -0.0647,-0.52231 -0.0913,-1.06338 -0.12208,-1.59514 -0.0243,-0.53202 -0.0323,-1.05732 -0.0323,-1.59515 0,-0.53767 0.004,-1.06346 0.0323,-1.59523 0.0243,-0.53201 0.0646,-1.07251 0.12208,-1.59514 0.0646,-0.52232 0.12209,-1.0329 0.18354,-1.54632 0.0913,-0.51664 0.18354,-1.02674 0.27489,-1.53086 0.0913,-0.50695 0.21427,-1.01762 0.33313,-1.51567 0.12208,-0.49805 0.27489,-0.98099 0.42447,-1.46991 0.15281,-0.48592 0.31452,-0.95964 0.48916,-1.43627 0.18354,-0.47702 0.35737,-0.95648 0.55303,-1.42099 0.18354,-0.46409 0.39699,-0.91978 0.61691,-1.37507 0.21426,-0.45195 0.4552,-0.90158 0.69372,-1.34158 0.24417,-0.43985 0.48269,-0.8678 0.74223,-1.29567 0.24417,-0.42771 0.52554,-0.84952 0.80691,-1.26203 0.2749,-0.41235 0.57163,-0.81597 0.86788,-1.21627 0.30562,-0.40022 0.59912,-0.80044 0.91678,-1.18563 0.31775,-0.38486 0.6444,-0.75517 0.97783,-1.12151 0.33313,-0.36707 0.67513,-0.72444 1.02676,-1.07259 0.35172,-0.35171 0.72121,-0.69373 1.09094,-1.02675 0.36708,-0.33312 0.73657,-0.663 1.12151,-0.97792 0.38164,-0.31775 0.76972,-0.63227 1.16736,-0.93207 0.40022,-0.30562 0.80368,-0.57406 1.21619,-0.85252 0.41235,-0.27489 0.83731,-0.56192 1.26212,-0.82203 0.42771,-0.24417 0.87094,-0.50451 1.31094,-0.74223 0.43984,-0.24417 0.88922,-0.46166 1.34151,-0.67835 0.45197,-0.21426 0.91065,-0.43418 1.37515,-0.63227 0.46409,-0.18354 0.929,-0.3792 1.40571,-0.55303 0.47703,-0.18354 0.96562,-0.33958 1.45454,-0.48916 0.48592,-0.15281 0.97177,-0.2749 1.46684,-0.40912 0.49805,-0.12209 0.99319,-0.24417 1.50046,-0.34847 0.50695,-0.0913 1.01754,-0.18354 1.53095,-0.2749 0.51665,-0.0913 1.03896,-0.15282 1.56458,-0.21427 0.52231,-0.0646 1.04819,-0.0913 1.57986,-0.12208 0.53202,-0.0243 1.07269,-0.0646 1.61052,-0.0646 z" />
  </g>
</svg>
