<?xml version="1.0" encoding="UTF-8" standalone="no"?>
<svg
   width="300"
   height="300"
   viewBox="0 0 300 300"
   version="1.1"
   id="svg21608"
   inkscape:version="1.2 (dc2aeda, 2022-05-15)"
   sodipodi:docname="scout.svg"
   xml:space="preserve"
   xmlns:inkscape="http://www.inkscape.org/namespaces/inkscape"
   xmlns:sodipodi="http://sodipodi.sourceforge.net/DTD/sodipodi-0.dtd"
   xmlns="http://www.w3.org/2000/svg"
   xmlns:svg="http://www.w3.org/2000/svg"
   xmlns:rdf="http://www.w3.org/1999/02/22-rdf-syntax-ns#"
   xmlns:cc="http://creativecommons.org/ns#"
   xmlns:dc="http://purl.org/dc/elements/1.1/"><defs
     id="defs21602" /><sodipodi:namedview
     id="base"
     pagecolor="#ffffff"
     bordercolor="#666666"
     borderopacity="1.0"
     inkscape:pageopacity="0.0"
     inkscape:pageshadow="2"
     inkscape:zoom="0.52104237"
     inkscape:cx="119.95186"
     inkscape:cy="243.74217"
     inkscape:document-units="px"
     inkscape:current-layer="svg21608"
     inkscape:document-rotation="0"
     showgrid="false"
     units="px"
     width="300px"
     inkscape:showpageshadow="2"
     inkscape:pagecheckerboard="0"
     inkscape:deskcolor="#d1d1d1"
     inkscape:window-width="1512"
     inkscape:window-height="844"
     inkscape:window-x="0"
     inkscape:window-y="38"
     inkscape:window-maximized="1" /><metadata
     id="metadata21605"><rdf:RDF><cc:Work
         rdf:about=""><dc:format>image/svg+xml</dc:format><dc:type
           rdf:resource="http://purl.org/dc/dcmitype/StillImage" /></cc:Work></rdf:RDF></metadata><g
     inkscape:label="Layer 1"
     inkscape:groupmode="layer"
     id="layer1" /><path
     d="m 109.18957,50.701719 c -5.30572,0 -11.212175,3.443671 -15.684254,12.386655 l -3.993367,7.990255 c 1.454906,-0.119091 2.914507,-0.181863 4.37352,-0.181863 10.571541,0 21.122551,3.146236 30.429851,9.373003 V 62.092819 C 119.9154,53.928327 114.28233,50.701132 109.19015,50.701132 Z m 81.62028,0 c -5.09218,0 -10.72407,3.226608 -15.124,11.391686 v 18.182817 c 10.59736,-7.075071 22.81799,-10.137416 34.81511,-9.174127 L 206.4941,63.088374 C 202.02143,54.144803 196.11498,50.701719 190.80926,50.701719 Z M 93.884883,81.16442 c -11.175798,0 -22.339862,4.513145 -31.526894,13.493088 L 40.428787,133.03538 c 8.501819,-3.95582 17.971034,-6.17045 27.948291,-6.17045 23.442775,0 44.093072,12.19775 55.937652,30.57886 V 93.590968 C 115.343,85.310318 104.61482,81.16442 93.884883,81.16442 Z M 206.77686,81.18378 C 195.82869,81.004264 184.8418,85.137842 175.68585,93.588622 V 157.4432 c 11.84459,-18.37993 32.49488,-30.57827 55.93648,-30.57827 9.97902,0 19.44765,2.21463 27.95006,6.17045 L 237.64318,94.657508 c -9.00517,-8.8016 -19.91697,-13.293625 -30.86514,-13.473729 z m -56.77715,7.779059 c -2.99958,0 -6.97065,1.627971 -15.12576,5.647738 v 78.033473 c 4.25091,-3.11749 9.48271,-4.96722 15.12576,-4.96722 5.64363,0 10.87484,1.85031 15.12575,4.9678 V 94.610576 c -8.15452,-4.019767 -12.12618,-5.647738 -15.12575,-5.647737 z M 68.378252,137.42474 c -30.956077,0 -55.937651,24.98099 -55.937651,55.93648 0,30.95549 24.981574,55.93765 55.937651,55.93765 30.954905,0 55.935898,-24.98216 55.935898,-55.93765 0,-30.95549 -24.980993,-55.93648 -55.936485,-55.93648 z m 163.242908,0 c -30.9549,0 -55.93589,24.98099 -55.93589,55.93648 0,30.95549 24.98099,55.93765 55.93648,55.93765 30.95608,0 55.93765,-24.98216 55.93765,-55.93765 0,-30.95549 -24.98157,-55.93648 -55.93765,-55.93648 z M 67.458962,148.57355 c 0.71748,-0.0106 1.436134,-0.005 2.155374,0.0176 4.308402,0.132 8.620324,0.85769 12.771502,2.23868 21.613582,6.65444 35.049762,30.309 29.697702,52.27692 -4.48909,22.14216 -26.666451,37.84518 -49.04151,34.71244 -22.731748,-2.26743 -40.699849,-23.21868 -39.399819,-46.04253 0.09797,-6.69374 1.837994,-13.10355 4.81058,-18.84574 A 15.304096,15.304096 0 0 0 42.870449,183.1581 15.304096,15.304096 0 0 0 58.176305,167.85576 15.304096,15.304096 0 0 0 47.940917,153.43341 c 5.313931,-2.75376 11.203371,-4.45507 17.368537,-4.77949 0.714547,-0.0422 1.431441,-0.0692 2.148921,-0.0804 z m 163.242908,0 c 0.71748,-0.0106 1.43613,-0.005 2.15479,0.0176 4.3084,0.132 8.6215,0.85769 12.77385,2.23868 21.6124,6.65444 35.048,30.309 29.69652,52.27692 -4.48909,22.14157 -26.66527,37.84518 -49.03857,34.7142 -22.73292,-2.26743 -40.7022,-23.22102 -39.40158,-46.04546 0.098,-6.69375 1.83799,-13.10238 4.81058,-18.84457 a 15.304096,15.304096 0 0 0 14.41707,10.22718 15.304096,15.304096 0 0 0 15.30351,-15.30234 15.304096,15.304096 0 0 0 -10.23304,-14.42235 c 5.31334,-2.75376 11.20219,-4.45507 17.36678,-4.77949 0.71572,-0.0422 1.43144,-0.0692 2.1495,-0.0804 z m -80.70216,29.6625 c -8.41617,0 -15.12576,6.709 -15.12576,15.12517 0,8.41617 6.70959,15.12575 15.12576,15.12575 8.41616,0 15.12575,-6.70958 15.12575,-15.12575 0,-8.41617 -6.70959,-15.12399 -15.12575,-15.12399 z"
     fill="#8b572a"
     fill-opacity="1"
     id="path13292"
     style="stroke-width:1" /></svg>
