<?xml version="1.0" encoding="UTF-8" standalone="no"?>
<svg
   width="300"
   height="300"
   viewBox="0 0 300 300"
   version="1.1"
   id="svg21608"
   inkscape:version="1.2.2 (732a01da63, 2022-12-09)"
   sodipodi:docname="shield-broken.svg"
   xmlns:inkscape="http://www.inkscape.org/namespaces/inkscape"
   xmlns:sodipodi="http://sodipodi.sourceforge.net/DTD/sodipodi-0.dtd"
   xmlns="http://www.w3.org/2000/svg"
   xmlns:svg="http://www.w3.org/2000/svg"
   xmlns:rdf="http://www.w3.org/1999/02/22-rdf-syntax-ns#"
   xmlns:cc="http://creativecommons.org/ns#"
   xmlns:dc="http://purl.org/dc/elements/1.1/">
  <defs
     id="defs21602" />
  <sodipodi:namedview
     id="base"
     pagecolor="#ffffff"
     bordercolor="#666666"
     borderopacity="1.0"
     inkscape:pageopacity="0.0"
     inkscape:pageshadow="2"
     inkscape:zoom="0.98994949"
     inkscape:cx="633.23103"
     inkscape:cy="308.38281"
     inkscape:document-units="px"
     inkscape:current-layer="layer1"
     inkscape:document-rotation="0"
     showgrid="false"
     units="px"
     width="300px"
     inkscape:showpageshadow="2"
     inkscape:pagecheckerboard="0"
     inkscape:deskcolor="#d1d1d1" />
  <metadata
     id="metadata21605">
    <rdf:RDF>
      <cc:Work
         rdf:about="">
        <dc:format>image/svg+xml</dc:format>
        <dc:type
           rdf:resource="http://purl.org/dc/dcmitype/StillImage" />
        <dc:title />
      </cc:Work>
    </rdf:RDF>
  </metadata>
  <g
     inkscape:label="Layer 1"
     inkscape:groupmode="layer"
     id="layer1">
    <path
       id="path14819"
       style="color:#000000;fill:#000000;stroke-width:29.866;-inkscape-stroke:none;paint-order:stroke fill markers"
       d="m 149.98915,24.756158 c -68.96787,0 -125.23276,56.265711 -125.23276,125.233172 0,68.96745 56.26489,125.25451 125.23276,125.25451 68.96736,0 125.25446,-56.28706 125.25446,-125.25451 0,-68.96746 -56.2871,-125.233171 -125.25446,-125.233172 z m 0,32.898042 c 51.21217,0 92.39992,41.122578 92.39992,92.33513 0,51.21256 -41.18775,92.39999 -92.39992,92.39999 -51.21256,0 -92.335118,-41.18743 -92.335118,-92.39999 0,-51.212552 41.122558,-92.33513 92.335118,-92.33513 z m 0.0217,10.619889 C 138.82761,76.44879 105.26239,92.801975 82.89549,92.801975 v 14.880715 l 40.20844,8.08932 -10.70652,29.52369 55.02471,-4.26084 10.38214,29.93472 32.68174,-16.35151 c 4.20101,-10.36372 6.61856,-20.3407 6.61856,-29.13443 V 92.801975 c -22.36743,0 -55.90962,-16.353185 -67.09371,-24.527886 z m 52.55906,102.717261 -31.14645,15.59477 -11.67964,-33.84985 -63.52462,4.9096 12.09066,-33.61168 -25.41437,-5.08288 v 6.53233 c 0,32.69588 33.5648,81.74201 67.11536,106.26404 19.83427,-14.49649 39.65639,-37.56362 52.55906,-60.75633 z" />
  </g>
</svg>
