<?xml version="1.0" encoding="UTF-8" standalone="no"?>
<svg
   xmlns:dc="http://purl.org/dc/elements/1.1/"
   xmlns:cc="http://creativecommons.org/ns#"
   xmlns:rdf="http://www.w3.org/1999/02/22-rdf-syntax-ns#"
   xmlns:svg="http://www.w3.org/2000/svg"
   xmlns="http://www.w3.org/2000/svg"
   xmlns:sodipodi="http://sodipodi.sourceforge.net/DTD/sodipodi-0.dtd"
   xmlns:inkscape="http://www.inkscape.org/namespaces/inkscape"
   width="300"
   height="300"
   viewBox="0 0 300 300"
   version="1.1"
   id="svg21608"
   inkscape:version="1.0.1 (3bc2e813f5, 2020-09-07)"
   sodipodi:docname="sow.svg">
  <defs
     id="defs21602" />
  <sodipodi:namedview
     id="base"
     pagecolor="#ffffff"
     bordercolor="#666666"
     borderopacity="1.0"
     inkscape:pageopacity="0.0"
     inkscape:pageshadow="2"
     inkscape:zoom="1.979899"
     inkscape:cx="645.49276"
     inkscape:cy="312.77216"
     inkscape:document-units="px"
     inkscape:current-layer="layer1"
     inkscape:document-rotation="0"
     showgrid="false"
     units="px"
     width="300px" />
  <metadata
     id="metadata21605">
    <rdf:RDF>
      <cc:Work
         rdf:about="">
        <dc:format>image/svg+xml</dc:format>
        <dc:type
           rdf:resource="http://purl.org/dc/dcmitype/StillImage" />
        <dc:title />
      </cc:Work>
    </rdf:RDF>
  </metadata>
  <g
     inkscape:label="Layer 1"
     inkscape:groupmode="layer"
     id="layer1">
    <g
       id="g5264"
       transform="matrix(0.60722016,0,0,0.61821583,-5.5761962,-9.330284)"
       style="stroke-width:1.63213">
      <path
         d="m 33.132,424.607 -9.665,8.782 c -1.213,1.223 -1.72,2.35 -1.865,4.54 -0.148,2.21 0.372,5.432 1.806,9.162 2.87,7.46 9.277,16.667 17.055,24.445 7.778,7.778 16.985,14.185 24.445,17.055 3.73,1.434 6.95,1.954 9.162,1.806 2.19,-0.146 3.317,-0.652 4.54,-1.865 l 8.783,-9.664 -54.262,-54.263 z"
         id="path5252"
         style="font-variation-settings:normal;opacity:1;vector-effect:none;fill:#333333;fill-opacity:1;stroke-width:1.63213;stroke-linecap:butt;stroke-linejoin:miter;stroke-miterlimit:4;stroke-dasharray:none;stroke-dashoffset:0;stroke-opacity:1;stop-color:#000000;stop-opacity:1" />
      <path
         d="M 151.671,316.873 46.467,412.486 99.514,465.533 195.127,360.328 151.672,316.873 Z"
         id="path5254"
         style="fill:#552200;stroke-width:1.63213" />
      <path
         d="m 186.835,306.78 -9.9,9.902 18.382,18.382 9.9,-9.9 -18.382,-18.383 z"
         id="path5256"
         style="fill:#552200;stroke-width:1.63213" />
      <path
         d="m 263.847,248.163 c 0.13,0.035 0.177,0.042 0.07,-0.064 -0.11,-0.11 -0.105,-0.067 -0.07,0.064 z"
         id="path5258"
         style="stroke-width:1.63213" />
      <path
         d="m 261.864,247.935 c -0.27,-0.002 -0.573,0.005 -0.906,0.025 -2.665,0.16 -6.55,1.097 -10.294,2.4 -6.642,2.31 -11.982,5.16 -13.266,5.855 l -37.838,37.838 18.385,18.385 37.953,-37.954 c 0.697,-1.295 3.51,-6.603 5.79,-13.21 1.29,-3.73 2.21,-7.605 2.36,-10.254 0.102,-1.782 -0.132,-2.588 -0.202,-2.856 -0.223,-0.06 -0.787,-0.223 -1.983,-0.228 z"
         id="path5260"
         style="fill:#552200;stroke-width:1.63213" />
      <path
         d="m 468.72,21.45 c -4.12,-0.06 -8.86,0.69 -14.214,2.437 -0.886,0.41 -73.34,33.862 -146.268,70.326 -36.687,18.343 -73.365,37.396 -100.642,53.133 -13.64,7.868 -24.953,14.94 -32.51,20.463 -3.78,2.76 -6.626,5.173 -8.164,6.77 -0.49,0.51 -0.496,0.696 -0.62,0.977 0.885,18.142 15.927,45.03 31.975,66.427 4.204,5.606 8.403,10.845 12.338,15.56 l 15.928,-15.927 1.084,-0.607 c 0,0 7.78,-4.4 17.12,-7.65 4.672,-1.626 9.773,-3.046 15.142,-3.366 5.367,-0.32 11.818,0.453 16.74,5.36 4.91,4.9 5.697,11.337 5.39,16.69 -0.304,5.355 -1.705,10.443 -3.313,15.102 -3.216,9.32 -7.58,17.083 -7.58,17.083 l -0.61,1.096 -16.06,16.06 c 4.716,3.934 9.954,8.133 15.56,12.337 21.397,16.048 48.284,31.09 66.426,31.974 0.28,-0.123 0.467,-0.128 0.977,-0.62 1.597,-1.537 4.01,-4.384 6.77,-8.163 5.524,-7.557 12.596,-18.87 20.464,-32.51 15.737,-27.277 34.79,-63.955 53.133,-100.642 36.464,-72.928 69.917,-145.382 70.326,-146.268 4.725,-14.486 2.022,-24.414 -3.586,-30.02 -3.535,-3.537 -8.783,-5.925 -15.808,-6.025 z"
         id="path5262"
         style="fill:#333333;stroke-width:1.63213" />
    </g>
  </g>
</svg>
