<?xml version="1.0" encoding="UTF-8" standalone="no"?>
<svg
   width="300"
   height="300"
   viewBox="0 0 300 300"
   version="1.1"
   id="svg21608"
   inkscape:version="1.2 (dc2aeda, 2022-05-15)"
   sodipodi:docname="sow.svg"
   xmlns:inkscape="http://www.inkscape.org/namespaces/inkscape"
   xmlns:sodipodi="http://sodipodi.sourceforge.net/DTD/sodipodi-0.dtd"
   xmlns="http://www.w3.org/2000/svg"
   xmlns:svg="http://www.w3.org/2000/svg"
   xmlns:rdf="http://www.w3.org/1999/02/22-rdf-syntax-ns#"
   xmlns:cc="http://creativecommons.org/ns#"
   xmlns:dc="http://purl.org/dc/elements/1.1/">
  <defs
     id="defs21602" />
  <sodipodi:namedview
     id="base"
     pagecolor="#ffffff"
     bordercolor="#666666"
     borderopacity="1.0"
     inkscape:pageopacity="0.0"
     inkscape:pageshadow="2"
     inkscape:zoom="0.52104237"
     inkscape:cx="-188.08451"
     inkscape:cy="101.71917"
     inkscape:document-units="px"
     inkscape:current-layer="layer1"
     inkscape:document-rotation="0"
     showgrid="false"
     units="px"
     width="300px"
     inkscape:showpageshadow="2"
     inkscape:pagecheckerboard="0"
     inkscape:deskcolor="#d1d1d1"
     inkscape:window-width="1512"
     inkscape:window-height="844"
     inkscape:window-x="0"
     inkscape:window-y="38"
     inkscape:window-maximized="1" />
  <metadata
     id="metadata21605">
    <rdf:RDF>
      <cc:Work
         rdf:about="">
        <dc:format>image/svg+xml</dc:format>
        <dc:type
           rdf:resource="http://purl.org/dc/dcmitype/StillImage" />
        <dc:title />
      </cc:Work>
    </rdf:RDF>
  </metadata>
  <g
     inkscape:label="Layer 1"
     inkscape:groupmode="layer"
     id="layer1">
    <path
       d="m 160.3564,30.445402 c -10.75993,0.262739 -27.27763,11.544978 -40.13123,23.462226 -2.67518,2.477811 -5.11818,4.891527 -7.38644,7.20616 32.68656,1.424476 63.51195,-0.208925 94.10483,-2.448384 -2.96657,-2.861947 -6.39784,-6.00816 -10.23652,-9.224329 C 184.7841,39.431379 169.604,30.21875 160.3564,30.445569 Z m 93.17416,35.193338 c -58.16111,4.24544 -115.56628,10.81801 -182.567895,2.501078 -3.024649,2.966571 -4.594908,5.583662 -5.060246,7.735427 -0.406771,2.093841 -0.110794,4.013413 1.27887,6.455925 66.013021,14.714779 132.025891,15.063782 190.303321,-3.838668 0.29281,-1.628349 0.0633,-3.315252 -0.63944,-5.467017 -0.69799,-2.21032 -1.91973,-4.710932 -3.31525,-7.386589 z m -7.2701,27.103048 C 194.43879,106.64239 137.78986,106.52606 81.024601,95.882461 67.123997,149.56514 40.311696,197.89714 47.913393,254.48798 l 0.674252,5.00216 -4.984274,0.8721 c -5.717091,0.93067 -13.859765,5.99059 -18.582408,11.2251 -2.367183,2.6171 -3.832664,5.23435 -4.176116,6.6886 -0.340295,1.39599 -0.544478,0.81353 0.191509,1.27887 3.012472,2.03574 12.2137,3.14052 22.002284,1.62834 9.788429,-1.51312 20.245891,-5.17626 26.585482,-9.18951 l 1.745004,-1.10477 2.035741,0.40677 c 50.716423,9.5966 96.838243,14.42402 147.729253,2.09368 l 2.50108,-0.63944 2.03575,1.62819 c 3.25732,2.67518 13.78427,4.88567 24.66037,5.23435 9.88735,0.34662 19.65837,-0.29282 26.28888,-0.58087 -0.63943,-1.745 -1.9191,-4.42019 -3.83867,-7.2701 -2.44316,-3.48999 -5.52511,-7.09568 -8.43343,-9.82927 -2.96657,-2.73375 -6.04884,-4.30416 -6.45593,-4.42017 l -5.17626,-0.98923 1.0462,-5.17643 C 264.28922,199.4666 269.17489,146.9471 246.25935,92.740835 Z m -88.6959,20.589202 c 34.48964,0 61.76727,31.81413 61.76727,70.14228 0,38.32831 -27.27763,70.14245 -61.76727,70.14245 -34.48948,0 -61.767099,-31.81414 -61.767099,-70.14245 0,-38.32815 27.277619,-70.14228 61.767099,-70.14228 z m 0,10.46885 c -27.97546,0 -51.29809,26.28888 -51.29809,59.67343 0,30.65097 19.65854,55.31134 44.55158,59.15001 l 1.16333,-22.74111 c -17.9137,-3.49 -23.14821,-22.91539 -23.20629,-30.06931 5.40893,0.58088 17.44836,4.82758 24.02045,14.42402 l 0.75656,-14.19135 c -17.97193,-3.43143 -23.20629,-22.91554 -23.26453,-30.06931 5.351,0.58088 17.50645,4.82743 24.07871,14.5402 l 0.75656,-14.1331 c -10.35284,-4.30416 -13.5516,-16.92495 -13.60985,-21.81046 4.65285,0.46691 15.93619,4.76886 19.71662,14.83112 4.88566,-9.53852 16.45977,-12.62095 21.05437,-12.62095 -0.52706,5.11818 -5.2342,17.7972 -16.75037,20.58904 l -0.69799,13.5516 c 7.50275,-8.89876 19.94928,-11.86485 25.41645,-11.80677 -0.8721,7.03744 -8.02618,25.88179 -26.23063,27.45205 l -0.75656,14.30768 c 7.50293,-8.95684 20.00753,-11.92309 25.41662,-11.92309 -0.75656,7.03758 -7.96809,25.93988 -26.23079,27.45205 l -1.16334,22.56654 c 26.28889,-2.21033 47.57592,-27.62648 47.57592,-59.49886 0,-33.38455 -23.32263,-59.67343 -51.29825,-59.67343 z"
       fill="#000000"
       fill-opacity="1"
       id="path11693"
       style="font-variation-settings:normal;display:inline;vector-effect:none;fill:#008000;fill-opacity:1;stroke-width:5.96511;stroke-linecap:butt;stroke-linejoin:miter;stroke-miterlimit:4;stroke-dasharray:none;stroke-dashoffset:0;stroke-opacity:1;stop-color:#000000" />
  </g>
</svg>
