<?xml version="1.0" encoding="UTF-8" standalone="no"?>
<svg
   width="825"
   height="1125"
   viewBox="0 0 825 1125"
   version="1.1"
   id="svg21608"
   inkscape:version="1.3 (0e150ed6c4, 2023-07-21)"
   sodipodi:docname="spell.svg"
   xmlns:inkscape="http://www.inkscape.org/namespaces/inkscape"
   xmlns:sodipodi="http://sodipodi.sourceforge.net/DTD/sodipodi-0.dtd"
   xmlns="http://www.w3.org/2000/svg"
   xmlns:svg="http://www.w3.org/2000/svg"
   xmlns:rdf="http://www.w3.org/1999/02/22-rdf-syntax-ns#"
   xmlns:cc="http://creativecommons.org/ns#"
   xmlns:dc="http://purl.org/dc/elements/1.1/">
  <defs
     id="defs21602">
    <inkscape:path-effect
       effect="mirror_symmetry"
       start_point="419.31841,416.30252"
       end_point="419.31841,497.40614"
       center_point="419.31841,456.85433"
       id="path-effect2"
       is_visible="true"
       lpeversion="1.2"
       lpesatellites=""
       mode="free"
       discard_orig_path="false"
       fuse_paths="false"
       oposite_fuse="false"
       split_items="false"
       split_open="false"
       link_styles="false" />
    <inkscape:path-effect
       effect="powerstroke"
       id="path-effect1"
       is_visible="true"
       lpeversion="1.3"
       scale_width="1"
       interpolator_type="CubicBezierFit"
       interpolator_beta="0.21"
       start_linecap_type="zerowidth"
       end_linecap_type="zerowidth"
       offset_points="0.34522949,4.7931199 | 4.036692,3.3371388 | 1.9593575,6.3574837 | 2.5612738,5.9432964"
       linejoin_type="round"
       miter_limit="4"
       not_jump="false"
       sort_points="true"
       message="&lt;b&gt;Ctrl + click&lt;/b&gt; on existing node and move it" />
    <inkscape:path-effect
       effect="mirror_symmetry"
       start_point="412.5,594.96391"
       end_point="412.5,614.90404"
       center_point="412.5,604.93398"
       id="path-effect20617"
       is_visible="true"
       lpeversion="1.2"
       lpesatellites=""
       mode="free"
       discard_orig_path="false"
       fuse_paths="false"
       oposite_fuse="false"
       split_items="false"
       split_open="false"
       link_styles="false" />
    <inkscape:path-effect
       effect="mirror_symmetry"
       start_point="412.5,598.88538"
       end_point="412.5,618.82551"
       center_point="412.5,608.85544"
       id="path-effect20577"
       is_visible="true"
       lpeversion="1.2"
       lpesatellites=""
       mode="free"
       discard_orig_path="false"
       fuse_paths="false"
       oposite_fuse="false"
       split_items="false"
       split_open="false"
       link_styles="false" />
    <inkscape:path-effect
       effect="mirror_symmetry"
       start_point="412.5,598.88764"
       end_point="412.5,643.78902"
       center_point="412.5,621.33833"
       id="path-effect20573"
       is_visible="true"
       lpeversion="1.2"
       lpesatellites=""
       mode="free"
       discard_orig_path="false"
       fuse_paths="false"
       oposite_fuse="false"
       split_items="false"
       split_open="false"
       link_styles="false" />
    <inkscape:path-effect
       effect="powerstroke"
       id="path-effect20479"
       is_visible="true"
       lpeversion="1"
       offset_points="0.16489353,3.1520422 | 0.28145914,3.064678 | 0.6484644,0.32761604"
       not_jump="false"
       sort_points="true"
       interpolator_type="CentripetalCatmullRom"
       interpolator_beta="0.2"
       start_linecap_type="zerowidth"
       linejoin_type="round"
       miter_limit="4"
       scale_width="1"
       end_linecap_type="zerowidth" />
    <inkscape:path-effect
       effect="powerstroke"
       id="path-effect20473"
       is_visible="true"
       lpeversion="1"
       offset_points="0.29134868,1.2591953 | 0.54671778,0.8524837"
       not_jump="false"
       sort_points="true"
       interpolator_type="CentripetalCatmullRom"
       interpolator_beta="0.2"
       start_linecap_type="zerowidth"
       linejoin_type="round"
       miter_limit="4"
       scale_width="1"
       end_linecap_type="zerowidth" />
    <inkscape:path-effect
       effect="powerstroke"
       id="path-effect20467"
       is_visible="true"
       lpeversion="1"
       offset_points="0.29134868,1.2591953 | 0.54671778,0.8524837"
       not_jump="false"
       sort_points="true"
       interpolator_type="CentripetalCatmullRom"
       interpolator_beta="0.2"
       start_linecap_type="zerowidth"
       linejoin_type="round"
       miter_limit="4"
       scale_width="1"
       end_linecap_type="zerowidth" />
    <inkscape:path-effect
       effect="mirror_symmetry"
       start_point="461.57694,685.20453"
       end_point="348.33426,766.27301"
       center_point="404.9556,725.73877"
       id="path-effect3739"
       is_visible="true"
       lpeversion="1.2"
       lpesatellites=""
       mode="free"
       discard_orig_path="false"
       fuse_paths="false"
       oposite_fuse="false"
       split_items="false"
       split_open="false"
       link_styles="false" />
    <inkscape:path-effect
       effect="powerstroke"
       id="path-effect3715"
       is_visible="true"
       lpeversion="1"
       offset_points="3.8168338,2.7393647 | 7.4056326,5.9339756 | 8.3623789,4.8653391 | 10.861161,4.3509206"
       not_jump="false"
       sort_points="true"
       interpolator_type="CentripetalCatmullRom"
       interpolator_beta="0.2"
       start_linecap_type="zerowidth"
       linejoin_type="round"
       miter_limit="4"
       scale_width="1"
       end_linecap_type="zerowidth" />
    <inkscape:path-effect
       effect="powerstroke"
       id="path-effect3483"
       is_visible="true"
       lpeversion="1"
       offset_points="5.7296283,5.781831 | 3.0777788,1.8149216 | 7.5655201,4.0380969"
       not_jump="false"
       sort_points="true"
       interpolator_type="CentripetalCatmullRom"
       interpolator_beta="0.2"
       start_linecap_type="zerowidth"
       linejoin_type="round"
       miter_limit="4"
       scale_width="1"
       end_linecap_type="zerowidth"
       message="&lt;b&gt;Ctrl + click&lt;/b&gt; on existing node and move it" />
    <inkscape:path-effect
       effect="mirror_symmetry"
       start_point="-187.21984,625.19452"
       end_point="-187.21984,783.70506"
       center_point="-187.21984,704.44979"
       id="path-effect3481"
       is_visible="true"
       lpeversion="1.2"
       lpesatellites=""
       mode="free"
       discard_orig_path="false"
       fuse_paths="false"
       oposite_fuse="false"
       split_items="false"
       split_open="false"
       link_styles="false" />
    <inkscape:path-effect
       effect="mirror_symmetry"
       start_point="413.61635,464.83246"
       end_point="413.61635,587.33772"
       center_point="413.61635,526.08509"
       id="path-effect3476"
       is_visible="true"
       lpeversion="1.2"
       lpesatellites=""
       mode="free"
       discard_orig_path="false"
       fuse_paths="false"
       oposite_fuse="false"
       split_items="false"
       split_open="false"
       link_styles="false" />
    <inkscape:path-effect
       effect="powerstroke"
       id="path-effect3472"
       is_visible="true"
       lpeversion="1"
       offset_points="0.70338932,2.7202909 | 1.0495578,5.2590222 | 1.618221,3.5795042"
       not_jump="false"
       sort_points="true"
       interpolator_type="CentripetalCatmullRom"
       interpolator_beta="0.2"
       start_linecap_type="zerowidth"
       linejoin_type="round"
       miter_limit="4"
       scale_width="1"
       end_linecap_type="zerowidth" />
    <inkscape:path-effect
       effect="mirror_symmetry"
       start_point="444.72189,451.01858"
       end_point="444.72189,573.52384"
       center_point="445.15774,512.27121"
       id="path-effect3431"
       is_visible="true"
       lpeversion="1.2"
       lpesatellites=""
       mode="free"
       discard_orig_path="false"
       fuse_paths="false"
       oposite_fuse="false"
       split_items="false"
       split_open="false"
       link_styles="false" />
    <inkscape:path-effect
       effect="powerstroke"
       id="path-effect3429"
       is_visible="true"
       lpeversion="1"
       offset_points="1.5515824,4.6912351 | 4.2078236,4.7861086 | 6.2891039,6.9729324 | 7.1810418,2.8887748"
       not_jump="false"
       sort_points="true"
       interpolator_type="CentripetalCatmullRom"
       interpolator_beta="0.2"
       start_linecap_type="zerowidth"
       linejoin_type="round"
       miter_limit="4"
       scale_width="1"
       end_linecap_type="zerowidth" />
    <inkscape:path-effect
       effect="taper_stroke"
       id="path-effect3393"
       is_visible="true"
       lpeversion="1"
       stroke_width="22.87"
       attach_start="0.2"
       end_offset="0.2"
       start_smoothing="0.5"
       end_smoothing="0.5"
       jointype="extrapolated"
       start_shape="center"
       end_shape="center"
       miter_limit="100" />
    <inkscape:path-effect
       effect="powerstroke"
       id="path-effect3391"
       is_visible="true"
       lpeversion="1"
       offset_points="0.2,12.28345 | 4.5,12.28345 | 8.8,12.28345"
       not_jump="false"
       sort_points="true"
       interpolator_type="CubicBezierJohan"
       interpolator_beta="0.24"
       start_linecap_type="peak"
       linejoin_type="round"
       miter_limit="5.2"
       scale_width="0.8"
       end_linecap_type="zerowidth" />
    <inkscape:path-effect
       effect="spiro"
       id="path-effect3389"
       is_visible="true"
       lpeversion="1" />
    <inkscape:path-effect
       effect="fill_between_many"
       method="bsplinespiro"
       linkedpaths="#path2637,0,1"
       id="path-effect3395" />
  </defs>
  <sodipodi:namedview
     id="base"
     pagecolor="#ffffff"
     bordercolor="#666666"
     borderopacity="1.0"
     inkscape:pageopacity="0.0"
     inkscape:pageshadow="2"
     inkscape:zoom="0.87072287"
     inkscape:cx="338.22472"
     inkscape:cy="565.04775"
     inkscape:document-units="px"
     inkscape:current-layer="layer2"
     inkscape:document-rotation="0"
     showgrid="false"
     units="px"
     width="300px"
     inkscape:snap-bbox="true"
     inkscape:bbox-paths="true"
     inkscape:bbox-nodes="true"
     inkscape:showpageshadow="2"
     inkscape:pagecheckerboard="0"
     inkscape:deskcolor="#d1d1d1"
     inkscape:window-width="1512"
     inkscape:window-height="842"
     inkscape:window-x="0"
     inkscape:window-y="38"
     inkscape:window-maximized="0"
     showguides="true">
    <sodipodi:guide
       position="412.5,650.68146"
       orientation="-1,0"
       id="guide20575"
       inkscape:locked="false"
       inkscape:label=""
       inkscape:color="rgb(0,134,229)" />
  </sodipodi:namedview>
  <metadata
     id="metadata21605">
    <rdf:RDF>
      <cc:Work
         rdf:about="">
        <dc:format>image/svg+xml</dc:format>
        <dc:type
           rdf:resource="http://purl.org/dc/dcmitype/StillImage" />
        <dc:title />
      </cc:Work>
    </rdf:RDF>
  </metadata>
  <g
     inkscape:label="Old"
     inkscape:groupmode="layer"
     id="layer1"
     style="display:none"
     sodipodi:insensitive="true">
    <path
       id="rect10"
       style="display:inline;fill:#e6e6e6;stroke:#000000;stroke-width:0.944878;stroke-miterlimit:4;stroke-dasharray:none;stop-color:#000000"
       d="M 228.21386,470.45508 136.16894,562.5 l 92.04492,92.04492 0.40821,-0.4082 v 0.60351 h 368.57031 v -0.60156 L 688.83105,562.5 597.19239,470.86133 v -0.40625 h -0.40625 -368.16407 v 0.4082 z" />
    <path
       style="display:inline;fill:none;stroke:#000000;stroke-width:0.999999px;stroke-linecap:butt;stroke-linejoin:miter;stroke-opacity:1"
       d="M 84.849839,562.5 H 740.15016"
       id="path8" />
  </g>
  <g
     inkscape:groupmode="layer"
     id="layer2"
     inkscape:label="New">
    <path
       id="path2637"
       style="display:inline;opacity:1;vector-effect:none;fill:#000000;fill-opacity:1;fill-rule:nonzero;stroke:none;stroke-width:31.1544;stroke-linecap:round;paint-order:stroke fill markers;stop-color:#000000;stop-opacity:1"
       d="m 99.362859,513.87392 c -0.143789,-1.93494 -0.643009,-4.58067 -2.27016,-7.02569 -1.163574,-1.74842 -2.956429,-3.43521 -5.432333,-4.26271 -1.104467,-0.36914 -2.336206,-0.5605 -3.655757,-0.48578 -1.260264,0.0714 -2.57869,0.38483 -3.89905,0.99332 -1.276836,0.58843 -2.53089,1.44162 -3.713271,2.57909 -1.156059,1.11215 -2.231582,2.48441 -3.19077,4.12418 -0.100291,0.23667 -0.182441,0.43232 -0.176336,0.41997 -1.362948,3.2171 -1.928594,6.38211 -1.711392,9.4506 0.21966,3.1032 1.225446,5.88574 2.691388,8.27916 0.307102,0.50141 0.632929,0.98342 0.973845,1.44598 1.282999,1.74078 2.838209,3.28744 4.567317,4.6322 2.058319,1.60079 4.351988,2.90669 6.695047,3.9087 3.558264,1.50137 7.300086,2.08302 11.008843,1.80775 3.57969,-0.2657 7.0431,-1.32328 10.19554,-3.00836 3.08554,-1.64932 5.8758,-3.90113 8.18873,-6.60204 2.29138,-2.67573 4.12284,-5.80148 5.29808,-9.23146 1.54234,-4.46941 1.95315,-9.001 1.44411,-13.34137 -0.51204,-4.36596 -1.94812,-8.49503 -4.04564,-12.18225 -4.33742,-7.62476 -11.47672,-13.36879 -19.64717,-16.00279 -4.442677,-1.42894 -8.864659,-1.93025 -13.088337,-1.717 -0.873271,0.0441 -1.74319,0.11872 -2.608535,0.22313 -5.091315,0.6143 -10.009073,2.25792 -14.496136,4.75535 -8.924967,4.96749 -16.172043,13.33702 -19.517798,23.62352 -2.009474,6.27237 -2.501002,12.61309 -1.759284,18.67453 0.760361,6.2138 2.811407,12.08802 5.788019,17.30568 6.444034,11.29564 16.999813,19.2807 28.713211,22.57759 3.905894,1.0979 7.74226,1.52274 11.43243,1.44735 3.87868,-0.0793 7.58245,-0.71048 11.04159,-1.68157 1.12784,-0.31662 2.23277,-0.67023 3.3129,-1.05428 6.19426,-2.20246 11.78467,-5.48476 16.54513,-8.88268 6.37124,-4.54765 12.03518,-9.86227 16.76643,-14.7942 5.11516,-5.33212 9.7354,-10.84416 13.71837,-15.72565 3.2815,-3.95088 6.627,-7.97232 10.11124,-11.8334 1.26145,-1.39789 2.58587,-2.83255 3.96454,-4.27522 4.65608,-4.87222 9.86964,-9.7767 16.00132,-14.33829 6.33564,-4.71333 13.15686,-8.69371 20.77532,-12.06192 10.69899,-4.73015 21.09783,-7.39785 28.40646,-8.97853 -7.34078,1.19175 -17.95742,3.33325 -29.03841,7.41655 -7.92499,2.92032 -15.17044,6.48045 -22.06226,10.82033 -6.68291,4.20832 -12.46157,8.78987 -17.69502,13.35775 -1.54508,1.34858 -3.03308,2.68795 -4.45117,3.98791 -3.77055,3.45646 -7.89949,7.37396 -11.49421,10.73991 -4.60114,4.22704 -9.78704,8.84018 -15.2664,13.23651 -5.07386,4.07098 -10.80809,8.28558 -16.71698,11.7462 -4.4476,2.6048 -9.18404,4.89578 -13.97549,6.35487 -0.82779,0.25208 -1.65752,0.47937 -2.48838,0.6791 -2.55121,0.61329 -5.111041,0.96645 -7.664973,0.98166 -2.416717,0.0144 -4.871749,-0.2732 -7.361194,-0.9622 -8.202457,-2.26769 -16.061734,-7.73762 -21.097597,-15.62683 -2.34562,-3.67467 -4.054379,-7.82588 -4.853434,-12.2551 -0.775839,-4.30054 -0.697829,-8.8897 0.526089,-13.55119 1.916314,-7.51604 6.82543,-14.11304 13.427736,-18.20074 3.285096,-2.0339 6.91129,-3.39369 10.662473,-3.94212 0.63712,-0.0932 1.277459,-0.16285 1.920052,-0.20855 3.100681,-0.22054 6.361716,0.10446 9.661461,1.14199 5.925187,1.8561 11.130697,6.09454 14.206267,11.68099 1.47354,2.67653 2.41419,5.59223 2.70845,8.5804 0.29101,2.95526 -0.0481,5.99394 -1.14148,8.9863 -0.80465,2.17428 -2.03739,4.17806 -3.57544,5.89989 -1.55534,1.7412 -3.39168,3.15968 -5.35757,4.17883 -2.00465,1.03924 -4.10619,1.64534 -6.18227,1.80377 -2.131278,0.16264 -4.27202,-0.14176 -6.359229,-0.96714 -1.690847,-0.65985 -3.309541,-1.4894 -4.747171,-2.44862 -1.20229,-0.8022 -2.240189,-1.66928 -3.103793,-2.57955 -0.229446,-0.24185 -0.449786,-0.48997 -0.659825,-0.74456 -0.980724,-1.18875 -1.777076,-2.565 -2.20506,-4.19361 -0.427035,-1.625 -0.52286,-3.63747 0.07137,-6.11818 l -0.176336,0.41997 c 0.501267,-1.27558 1.058149,-2.31779 1.633618,-3.16363 0.586907,-0.86267 1.203424,-1.53643 1.823166,-2.05461 0.640588,-0.53561 1.30692,-0.92381 1.986781,-1.18113 0.714951,-0.27061 1.459187,-0.40176 2.216785,-0.39585 1.725173,0.0135 3.41408,0.73427 4.822249,1.93082 1.967498,1.67181 3.059021,3.95324 3.579302,5.88695 z m 691.589761,0 c 0.14379,-1.93494 0.64301,-4.58067 2.27016,-7.02569 1.16357,-1.74842 2.95643,-3.43521 5.43233,-4.26271 1.10447,-0.36914 2.33621,-0.5605 3.65576,-0.48578 1.26026,0.0714 2.57869,0.38483 3.89905,0.99332 1.27684,0.58843 2.53089,1.44162 3.71327,2.57909 1.15606,1.11215 2.23158,2.48441 3.19077,4.12418 0.10029,0.23667 0.18244,0.43232 0.17634,0.41997 1.36295,3.2171 1.92859,6.38211 1.71139,9.4506 -0.21966,3.1032 -1.22545,5.88574 -2.69139,8.27916 -0.3071,0.50141 -0.63293,0.98342 -0.97384,1.44598 -1.283,1.74078 -2.83821,3.28744 -4.56732,4.6322 -2.05832,1.60079 -4.35199,2.90669 -6.69505,3.9087 -3.55826,1.50137 -7.30008,2.08302 -11.00884,1.80775 -3.57969,-0.2657 -7.0431,-1.32328 -10.19554,-3.00836 -3.08554,-1.64932 -5.8758,-3.90113 -8.18873,-6.60204 -2.29138,-2.67573 -4.12284,-5.80148 -5.29808,-9.23146 -1.54234,-4.46941 -1.95315,-9.001 -1.44411,-13.34137 0.51204,-4.36596 1.94812,-8.49503 4.04564,-12.18225 4.33742,-7.62476 11.47672,-13.36879 19.64717,-16.00279 4.44268,-1.42894 8.86466,-1.93025 13.08834,-1.717 0.87327,0.0441 1.74319,0.11872 2.60853,0.22313 5.09132,0.6143 10.00908,2.25792 14.49614,4.75535 8.92497,4.96749 16.17204,13.33702 19.5178,23.62352 2.00947,6.27237 2.501,12.61309 1.75928,18.67453 -0.76036,6.2138 -2.81141,12.08802 -5.78802,17.30568 -6.44403,11.29564 -16.99981,19.2807 -28.71321,22.57759 -3.90589,1.0979 -7.74226,1.52274 -11.43243,1.44735 -3.87868,-0.0793 -7.58245,-0.71048 -11.04159,-1.68157 -1.12784,-0.31662 -2.23277,-0.67023 -3.3129,-1.05428 -6.19426,-2.20246 -11.78467,-5.48476 -16.54513,-8.88268 -6.37124,-4.54765 -12.03518,-9.86227 -16.76643,-14.7942 -5.11516,-5.33212 -9.7354,-10.84416 -13.71837,-15.72565 -3.2815,-3.95088 -6.627,-7.97232 -10.11124,-11.8334 -1.26145,-1.39789 -2.58587,-2.83255 -3.96454,-4.27522 -4.65608,-4.87222 -9.86964,-9.7767 -16.00132,-14.33829 -6.33564,-4.71333 -13.15686,-8.69371 -20.77532,-12.06192 -10.69899,-4.73015 -21.09783,-7.39785 -28.40646,-8.97853 7.34078,1.19175 17.95742,3.33325 29.03841,7.41655 7.92499,2.92032 15.17044,6.48045 22.06226,10.82033 6.68291,4.20832 12.46157,8.78987 17.69502,13.35775 1.54508,1.34858 3.03308,2.68795 4.45117,3.98791 3.77055,3.45646 7.89949,7.37396 11.49421,10.73991 4.60114,4.22704 9.78704,8.84018 15.2664,13.23651 5.07386,4.07098 10.80809,8.28558 16.71698,11.7462 4.4476,2.6048 9.18404,4.89578 13.97549,6.35487 0.82779,0.25208 1.65752,0.47937 2.48838,0.6791 2.55121,0.61329 5.11104,0.96645 7.66497,0.98166 2.41672,0.0144 4.87175,-0.2732 7.3612,-0.9622 8.20245,-2.26769 16.06173,-7.73762 21.09759,-15.62683 2.34562,-3.67467 4.05438,-7.82588 4.85344,-12.2551 0.77584,-4.30054 0.69783,-8.8897 -0.52609,-13.55119 -1.91632,-7.51604 -6.82543,-14.11304 -13.42774,-18.20074 -3.28509,-2.0339 -6.91129,-3.39369 -10.66247,-3.94212 -0.63712,-0.0932 -1.27746,-0.16285 -1.92005,-0.20855 -3.10068,-0.22054 -6.36172,0.10446 -9.66146,1.14199 -5.92519,1.8561 -11.1307,6.09454 -14.20627,11.68099 -1.47354,2.67653 -2.41419,5.59223 -2.70845,8.5804 -0.29101,2.95526 0.0481,5.99394 1.14148,8.9863 0.80465,2.17428 2.03739,4.17806 3.57544,5.89989 1.55534,1.7412 3.39168,3.15968 5.35757,4.17883 2.00465,1.03924 4.10619,1.64534 6.18227,1.80377 2.13128,0.16264 4.27202,-0.14176 6.35923,-0.96714 1.69085,-0.65985 3.30954,-1.4894 4.74717,-2.44862 1.20229,-0.8022 2.24019,-1.66928 3.10379,-2.57955 0.22945,-0.24185 0.44979,-0.48997 0.65983,-0.74456 0.98072,-1.18875 1.77707,-2.565 2.20506,-4.19361 0.42703,-1.625 0.52286,-3.63747 -0.0714,-6.11818 l 0.17633,0.41997 c -0.50126,-1.27558 -1.05815,-2.31779 -1.63362,-3.16363 -0.5869,-0.86267 -1.20342,-1.53643 -1.82316,-2.05461 -0.64059,-0.53561 -1.30692,-0.92381 -1.98678,-1.18113 -0.71495,-0.27061 -1.45919,-0.40176 -2.21679,-0.39585 -1.72517,0.0135 -3.41408,0.73427 -4.82225,1.93082 -1.9675,1.67181 -3.05902,3.95324 -3.5793,5.88695 z"
       sodipodi:nodetypes="ccssssssc"
       inkscape:linked-fill="path3397"
       class="UnoptimicedTransforms"
       inkscape:original-d="m 99.362859,513.87392 c -1.786528,-10.5017 -13.314991,-14.12317 -19.111621,-2.55007 -3.919556,11.41686 4.094355,18.67168 11.930341,21.90058 11.499621,4.73854 24.133931,-2.79661 28.082851,-13.97473 5.26327,-14.89867 -4.48428,-30.7594 -19.01097,-35.38705 -18.280367,-5.82342 -37.405208,6.1679 -42.691262,24.04721 -6.402111,21.65423 7.849066,44.0626 29.083441,49.99546 25.023981,6.99167 50.690431,-17.83661 68.145131,-36.36358 20.00374,-21.23258 37.61962,-40.50911 81.99998,-48.90491"
       inkscape:path-effect="#path-effect3429;#path-effect3431"
       transform="matrix(0.78855357,0,0,0.78855357,61.469275,108.22168)" />
    <path
       id="path3478"
       style="display:inline;fill:#000000;fill-opacity:1;fill-rule:nonzero;stroke:none"
       transform="rotate(180,112.64008,638.56937)"
       d="m 118.41333,660.26118 c -0.17318,-0.0309 -0.3361,-0.0739 -0.48147,-0.13222 -0.12881,-0.0516 -0.24091,-0.11404 -0.33301,-0.18773 -0.0838,-0.0671 -0.14895,-0.1418 -0.19554,-0.22343 -0.0431,-0.0755 -0.0704,-0.15683 -0.0826,-0.24434 -0.0115,-0.0823 -0.01,-0.17171 0.006,-0.26859 0.0148,-0.0921 0.0423,-0.19152 0.0834,-0.29787 0.0774,-0.20018 0.20225,-0.42286 0.37521,-0.66157 0.16105,-0.22228 0.36111,-0.45459 0.59316,-0.68573 0.21938,-0.21854 0.46513,-0.43373 0.72501,-0.63165 0.24867,-0.18938 0.50784,-0.36103 0.76156,-0.50023 0.24579,-0.13485 0.47979,-0.23545 0.68329,-0.29099 1.17756,-0.40285 2.23789,-0.46936 3.15387,-0.28526 0.87929,0.17673 1.62416,0.58406 2.21431,1.14183 0.57923,0.54745 1.0094,1.24027 1.26409,1.99598 0.25347,0.75208 0.32761,1.54989 0.21561,2.30678 -0.16901,1.45369 -0.76607,2.83461 -1.67421,4.10636 -0.92976,1.30203 -2.177,2.4738 -3.5974,3.46066 -1.47615,1.02558 -3.11391,1.83457 -4.75629,2.39759 -1.74784,0.59917 -3.45797,0.90642 -5.00104,0.94397 -0.75474,0.0313 -1.46324,0.0108 -2.12559,-0.0519 -1.48852,-0.14082 -2.79725,-0.50242 -3.92078,-1.02238 -1.62752,-0.7532 -2.87364,-1.84087 -3.74932,-3.10348 -0.87777,-1.26563 -1.40123,-2.7311 -1.5651,-4.28501 -0.16473,-1.56209 0.0316,-3.2326 0.61765,-4.91596 0.7573,-2.35308 2.10321,-4.56954 3.89253,-6.58345 1.81007,-2.03726 4.05877,-3.84643 6.56174,-5.33737 2.53597,-1.51059 5.29303,-2.67104 8.06688,-3.42119 2.82414,-0.76376 5.59873,-1.08497 8.14859,-0.96751 3.33116,0.11577 6.02166,0.88772 8.11542,1.97853 2.139,1.11438 3.73642,2.60028 4.8669,4.24877 1.07084,1.56152 1.77974,3.35042 2.10988,5.28943 0.0299,0.17566 0.0567,0.35287 0.0803,0.53156 0.29302,2.21954 0.0975,4.69363 -0.70909,7.31001 -0.77145,2.50574 -2.17526,5.44691 -4.10264,8.45697 -1.96525,3.06921 -4.38344,6.069 -7.05058,8.67276 -2.73634,2.67132 -5.64549,4.84055 -8.53845,6.31075 -1.46237,0.74318 -2.89965,1.29736 -4.29637,1.65726 -1.40653,0.36242 -2.77533,0.52892 -4.10266,0.49375 -3.58056,-0.19462 -7.30081,0.14597 -11.04786,0.89042 -3.782058,0.75142 -7.651333,1.92613 -11.52001,3.4328 -7.808922,3.04122 -15.77974,7.4983 -23.301117,12.8387 -1.991391,1.41395 -3.956122,2.8932 -5.883588,4.42943 -5.253362,4.18704 -10.448431,8.98826 -15.23539,14.27948 -6.179047,6.82996 -11.59414,14.38708 -15.445682,22.23422 -2.713223,5.67014 -5.487784,10.46577 -8.513205,14.69851 -3.170434,4.43563 -6.565494,8.17903 -10.293112,11.55476 -4.2079091,3.81068 -8.7694923,7.08171 -13.41310426,10.01922 -6.25331854,3.95581 -13.04530474,7.52427 -17.66569474,9.86711 4.640846,-2.0003 11.9084509,-5.15796 18.43077739,-8.53247 4.90386561,-2.53714 9.90182861,-5.44242 14.61970561,-8.94778 4.199351,-3.12009 8.168452,-6.70294 11.955031,-11.09855 3.616667,-4.19836 6.969831,-9.02326 10.229229,-14.7599 3.940439,-7.03443 9.312213,-13.84284 15.405456,-20.02956 4.715658,-4.788 9.777744,-9.11843 14.853838,-12.88651 1.860877,-1.38136 3.75118,-2.70564 5.660026,-3.96525 7.239895,-4.77746 14.711897,-8.60137 21.792527,-11.07557 3.499212,-1.22274 6.869653,-2.10402 10.036863,-2.61218 3.14568,-0.50471 6.03994,-0.63314 8.62884,-0.38922 2.36005,0.22704 4.71074,0.0805 7.00946,-0.36615 2.27342,-0.44168 4.49227,-1.17587 6.62674,-2.12987 4.1905,-1.87295 8.1261,-4.62436 11.62333,-7.81862 3.42089,-3.12451 6.49332,-6.73831 9.00304,-10.48578 2.43241,-3.63202 4.42253,-7.52101 5.60806,-11.27757 1.29755,-4.11541 1.69007,-8.33227 1.09594,-12.39051 -0.0476,-0.3252 -0.10153,-0.64915 -0.1618,-0.97171 -0.67059,-3.58917 -2.13343,-6.98544 -4.37445,-9.92881 -2.37705,-3.12203 -5.56534,-5.64821 -9.40997,-7.32942 -3.74851,-1.63918 -8.04491,-2.44329 -12.73096,-2.29203 -3.7018,0.14402 -7.43084,0.94533 -10.97269,2.25394 -3.4887,1.28897 -6.84339,3.08779 -9.84881,5.29165 -2.96717,2.17581 -5.62564,4.77024 -7.724659,7.68918 -2.080674,2.89342 -3.625355,6.12658 -4.340843,9.57906 -0.510727,2.64128 -0.428475,5.2267 0.193279,7.59484 0.619559,2.35977 1.768325,4.47903 3.362288,6.20875 1.592965,1.72864 3.604105,3.04067 5.929275,3.8401 1.59997,0.55009 3.34211,0.85542 5.1974,0.89634 0.82606,0.0182 1.68819,-0.0162 2.58545,-0.11034 1.89516,-0.22303 3.8825,-0.76024 5.82869,-1.59221 1.83219,-0.78324 3.63313,-1.83107 5.23791,-3.11014 1.54337,-1.23011 2.91338,-2.68154 3.92234,-4.3051 0.98936,-1.59199 1.63149,-3.35109 1.73212,-5.20388 0.0379,-1.07759 -0.1851,-2.14172 -0.61753,-3.09223 -0.43612,-0.95862 -1.08613,-1.80443 -1.90497,-2.44424 -0.83933,-0.65583 -1.83947,-1.08288 -2.94791,-1.21528 -1.15033,-0.1374 -2.38295,0.0456 -3.65877,0.56513 -0.26577,0.12038 -0.53675,0.28656 -0.79473,0.47285 -0.26925,0.19441 -0.53424,0.41785 -0.78092,0.65326 -0.25839,0.24659 -0.49839,0.50786 -0.70895,0.77035 -0.22268,0.27758 -0.41182,0.55564 -0.55936,0.82361 -0.15819,0.28733 -0.26771,0.5614 -0.32288,0.81397 -0.0294,0.1346 -0.0433,0.26265 -0.0411,0.38312 0.002,0.12707 0.0223,0.2444 0.0595,0.35101 0.0397,0.1135 0.0979,0.21203 0.17139,0.29622 0.0789,0.0904 0.174,0.16283 0.28013,0.22047 0.11625,0.0631 0.24677,0.10915 0.38598,0.14185 0.15734,0.0369 0.32738,0.0573 0.50247,0.0654 z m -611.26634,0 c 0.17318,-0.0309 0.3361,-0.0739 0.48147,-0.13222 0.12881,-0.0516 0.24091,-0.11404 0.33301,-0.18773 0.0838,-0.0671 0.14895,-0.1418 0.19554,-0.22343 0.0431,-0.0755 0.0703,-0.15683 0.0826,-0.24434 0.0115,-0.0823 0.01,-0.17171 -0.006,-0.26859 -0.0148,-0.0921 -0.0423,-0.19152 -0.0834,-0.29787 -0.0774,-0.20018 -0.20225,-0.42286 -0.37521,-0.66157 -0.16105,-0.22228 -0.36111,-0.45459 -0.59316,-0.68573 -0.21938,-0.21854 -0.46513,-0.43373 -0.72501,-0.63165 -0.24867,-0.18938 -0.50784,-0.36103 -0.76156,-0.50023 -0.24579,-0.13485 -0.47979,-0.23545 -0.68329,-0.29099 -1.17756,-0.40285 -2.23789,-0.46936 -3.15387,-0.28526 -0.87929,0.17673 -1.62416,0.58406 -2.21431,1.14183 -0.57923,0.54745 -1.0094,1.24027 -1.26409,1.99598 -0.25347,0.75208 -0.32761,1.54989 -0.21561,2.30678 0.16901,1.45369 0.76607,2.83461 1.67421,4.10636 0.92976,1.30203 2.177,2.4738 3.5974,3.46066 1.47615,1.02558 3.11391,1.83457 4.75629,2.39759 1.74784,0.59917 3.45797,0.90642 5.00104,0.94397 0.75474,0.0313 1.46324,0.0108 2.12559,-0.0519 1.48852,-0.14082 2.79725,-0.50242 3.92078,-1.02238 1.62752,-0.7532 2.87364,-1.84087 3.74932,-3.10348 0.87777,-1.26563 1.40123,-2.7311 1.5651,-4.28501 0.16473,-1.56209 -0.0316,-3.2326 -0.61765,-4.91596 -0.7573,-2.35308 -2.10321,-4.56954 -3.89253,-6.58345 -1.81007,-2.03726 -4.05877,-3.84643 -6.56174,-5.33737 -2.53597,-1.51059 -5.29303,-2.67104 -8.06688,-3.42119 -2.82414,-0.76376 -5.59873,-1.08497 -8.14859,-0.96751 -3.33116,0.11577 -6.02166,0.88772 -8.11542,1.97853 -2.139,1.11438 -3.73642,2.60028 -4.8669,4.24877 -1.07084,1.56152 -1.77974,3.35042 -2.10988,5.28943 -0.0299,0.17566 -0.0567,0.35287 -0.0803,0.53156 -0.29302,2.21954 -0.0975,4.69363 0.70909,7.31001 0.77145,2.50574 2.17526,5.44691 4.10264,8.45697 1.96525,3.06921 4.38344,6.069 7.05058,8.67276 2.73634,2.67132 5.64549,4.84055 8.53845,6.31075 1.46237,0.74318 2.89965,1.29736 4.29637,1.65726 1.40653,0.36242 2.77533,0.52892 4.10266,0.49375 3.58056,-0.19462 7.30081,0.14597 11.04786,0.89042 3.78206,0.75142 7.65133,1.92613 11.52001,3.4328 7.80892,3.04122 15.77974,7.4983 23.30112,12.8387 1.99139,1.41395 3.95612,2.8932 5.88359,4.42943 5.25336,4.18704 10.44843,8.98826 15.23539,14.27948 6.17904,6.82996 11.59414,14.38708 15.44568,22.23422 2.71322,5.67014 5.48778,10.46577 8.5132,14.69851 3.17044,4.43563 6.5655,8.17903 10.29311,11.55476 4.20791,3.81068 8.7695,7.08171 13.41311,10.01922 6.25332,3.95581 13.0453,7.52427 17.66569,9.86711 -4.64084,-2.0003 -11.90845,-5.15796 -18.43077,-8.53247 -4.90387,-2.53714 -9.90183,-5.44242 -14.61971,-8.94778 -4.19935,-3.12009 -8.16845,-6.70294 -11.95503,-11.09855 -3.61667,-4.19836 -6.96983,-9.02326 -10.22923,-14.7599 -3.94044,-7.03443 -9.31221,-13.84284 -15.40546,-20.02956 -4.71565,-4.788 -9.77774,-9.11843 -14.85383,-12.88651 -1.86088,-1.38136 -3.75118,-2.70564 -5.66003,-3.96525 -7.23989,-4.77746 -14.7119,-8.60137 -21.79253,-11.07557 -3.49921,-1.22274 -6.86965,-2.10402 -10.03686,-2.61218 -3.14568,-0.50471 -6.03994,-0.63314 -8.62884,-0.38922 -2.36005,0.22704 -4.71074,0.0805 -7.00946,-0.36615 -2.27342,-0.44168 -4.49227,-1.17587 -6.62674,-2.12987 -4.1905,-1.87295 -8.1261,-4.62436 -11.62333,-7.81862 -3.42089,-3.12451 -6.49332,-6.73831 -9.00304,-10.48578 -2.43241,-3.63202 -4.42253,-7.52101 -5.60806,-11.27757 -1.29755,-4.11541 -1.69007,-8.33227 -1.09594,-12.39051 0.0476,-0.3252 0.10153,-0.64915 0.1618,-0.97171 0.67059,-3.58917 2.13343,-6.98544 4.37445,-9.92881 2.37705,-3.12203 5.56534,-5.64821 9.40997,-7.32942 3.74851,-1.63918 8.04491,-2.44329 12.73096,-2.29203 3.7018,0.14402 7.43084,0.94533 10.97269,2.25394 3.4887,1.28897 6.84339,3.08779 9.84881,5.29165 2.96717,2.17581 5.62564,4.77024 7.72466,7.68918 2.08067,2.89342 3.62535,6.12658 4.34084,9.57906 0.51073,2.64128 0.42848,5.2267 -0.19328,7.59484 -0.61956,2.35977 -1.76832,4.47903 -3.36228,6.20875 -1.59297,1.72864 -3.60411,3.04067 -5.92928,3.8401 -1.59997,0.55009 -3.34211,0.85542 -5.1974,0.89634 -0.82606,0.0182 -1.68819,-0.0162 -2.58545,-0.11034 -1.89516,-0.22303 -3.8825,-0.76024 -5.82869,-1.59221 -1.83219,-0.78324 -3.63313,-1.83107 -5.23791,-3.11014 -1.54337,-1.23011 -2.91338,-2.68154 -3.92234,-4.3051 -0.98936,-1.59199 -1.63149,-3.35109 -1.73212,-5.20388 -0.0379,-1.07759 0.1851,-2.14172 0.61753,-3.09223 0.43612,-0.95862 1.08613,-1.80443 1.90497,-2.44424 0.83933,-0.65583 1.83947,-1.08288 2.94791,-1.21528 1.15033,-0.1374 2.38295,0.0456 3.65877,0.56513 0.26577,0.12038 0.53675,0.28656 0.79473,0.47285 0.26925,0.19441 0.53424,0.41785 0.78092,0.65326 0.25839,0.24659 0.49839,0.50786 0.70895,0.77035 0.22268,0.27758 0.41182,0.55564 0.55936,0.82361 0.15819,0.28733 0.26771,0.5614 0.32288,0.81397 0.0294,0.1346 0.0433,0.26265 0.0412,0.38312 -0.002,0.12707 -0.0223,0.2444 -0.0596,0.35101 -0.0397,0.1135 -0.0979,0.21203 -0.17139,0.29622 -0.0789,0.0904 -0.174,0.16283 -0.28013,0.22047 -0.11625,0.0631 -0.24677,0.10915 -0.38598,0.14185 -0.15734,0.0369 -0.32738,0.0573 -0.50247,0.0654 z"
       sodipodi:nodetypes="cssssssssc"
       inkscape:path-effect="#path-effect3483;#path-effect3481"
       inkscape:original-d="m 118.41333,660.26118 c -2.99631,-0.33535 0.12076,-3.86229 1.97161,-4.55823 5.01573,-1.88594 8.28791,2.0039 7.98853,5.67297 -0.53553,6.56311 -8.74089,12.01825 -15.875,12.55996 -10.46957,0.79497 -16.205709,-7.23202 -14.005417,-15.90419 2.932647,-11.55863 17.167587,-20.50623 29.778377,-20.56168 15.86941,-0.0698 24.28747,12.48966 20.02231,26.13539 -3.86288,12.35877 -19.16265,29.88709 -33.98066,28.83474 -24.575495,-1.74531 -64.05894,25.21995 -79.405603,54.53167 -11.832829,22.60039 -25.3012927,31.96885 -52.55993,44.73915"
       class="UnoptimicedTransforms" />
    <path
       id="path3712"
       style="fill:#000000;fill-opacity:1;fill-rule:nonzero;stroke:none;stroke-width:11.2;stroke-dasharray:none"
       d="m 368.96238,652.69767 c -0.0692,-0.37398 -0.0844,-0.72795 -0.0252,-1.03496 0.0502,-0.25992 0.15035,-0.46798 0.29295,-0.62053 0.12537,-0.13413 0.28201,-0.2239 0.46514,-0.27373 0.16924,-0.0461 0.36559,-0.0593 0.58614,-0.0359 0.20627,0.0219 0.43238,0.0761 0.6673,0.16508 0.22214,0.0841 0.44969,0.19841 0.6678,0.34109 0.20846,0.13638 0.40512,0.29667 0.57488,0.47522 0.16378,0.17225 0.29757,0.35637 0.39165,0.54388 0.30996,0.54522 0.47507,1.236 0.48009,2.02325 0.005,0.75135 -0.13745,1.57109 -0.42005,2.36779 -0.27366,0.77147 -0.66902,1.49179 -1.14767,2.06625 -0.47266,0.56726 -0.98461,0.94259 -1.4757,1.11634 -0.91305,0.38284 -2.03049,0.51551 -3.24043,0.39847 -1.21162,-0.1172 -2.48456,-0.48 -3.67937,-1.04072 -1.2021,-0.56415 -2.27821,-1.30655 -3.1104,-2.14086 -0.84949,-0.85166 -1.38244,-1.7344 -1.61124,-2.55759 -0.42175,-1.3645 -0.54642,-2.78406 -0.40066,-4.17131 0.15094,-1.43661 0.59056,-2.8323 1.28547,-4.11628 0.7293,-1.34753 1.73597,-2.56662 2.98897,-3.60645 0.34801,-0.28881 0.71491,-0.56372 1.10018,-0.82392 1.05009,-0.7092 2.28416,-1.33882 3.7194,-1.83895 2.06468,-0.72547 4.16386,-1.12576 6.17729,-1.1429 1.96651,-0.0167 3.80994,0.33177 5.45534,1.06028 1.60846,0.71215 3.07588,1.80744 4.33453,3.37467 1.25406,1.56151 2.36034,3.66679 3.15303,6.47527 0.73323,2.61943 0.79124,5.27968 0.32565,7.83632 -0.46986,2.58008 -1.4731,5.05174 -2.85041,7.24381 -1.39739,2.22402 -3.14509,4.10599 -5.03551,5.51621 -1.93485,1.44336 -3.93441,2.33267 -5.8132,2.69149 -1.7011,0.35994 -3.39112,0.43148 -5.07099,0.26457 -1.71559,-0.17046 -3.44643,-0.5918 -5.19079,-1.23767 -3.6164,-1.33902 -7.21969,-3.61968 -10.65605,-6.48722 -3.6077,-3.01052 -6.93926,-6.58976 -9.8434,-10.23386 -3.11306,-3.90625 -5.72362,-7.86996 -7.74228,-11.38504 -5.5792,-9.57595 -8.30069,-19.79616 -9.66327,-29.80203 -0.94684,-6.953 -1.25794,-14.00407 -1.29472,-20.73589 -0.0246,-4.50527 0.0739,-8.98834 0.20736,-13.16996 0.48696,-15.26155 1.12951,-23.55178 1.07226,-36.06398 -0.0573,-12.51489 -0.98205,-24.55068 -3.8291,-36.07882 -1.40247,-5.37923 -3.92826,-15.33884 -6.20601,-22.88038 -0.83272,-2.75709 -1.75047,-5.60697 -2.788,-8.54173 -3.40396,-9.62847 -8.18068,-20.46125 -16.4437,-33.72004 -2.52635,-4.04871 -4.93994,-9.21077 -6.92988,-15.03285 -1.89141,-5.53379 -3.36509,-11.57031 -4.1281,-17.48325 -0.73548,-5.6996 -0.78989,-11.14151 0.0157,-15.70609 0.39047,-2.2125 0.97114,-4.14874 1.72695,-5.77389 0.74132,-1.59398 1.63165,-2.84831 2.64546,-3.79154 2.09871,-1.95184 4.15018,-3.0445 6.06923,-3.5711 1.87308,-0.51398 3.76778,-0.52915 5.65179,-0.12078 1.86,0.40317 3.71272,1.22222 5.44732,2.37607 0.75659,0.50327 1.48058,1.0637 2.16079,1.66789 0.82092,0.72917 1.59052,1.53387 2.27711,2.39071 0.69272,0.83365 1.31807,2.06864 1.69281,3.73811 0.34564,1.53985 0.4494,3.33895 0.23777,5.22369 -0.19975,1.77892 -0.6719,3.54363 -1.39816,5.08807 -0.69749,1.48326 -1.58495,2.66962 -2.58358,3.47209 -0.63216,0.53658 -1.57994,1.00284 -2.83929,1.27435 -1.21978,0.26298 -2.62149,0.31733 -4.05531,0.1364 -1.40855,-0.17773 -2.77242,-0.57325 -3.9428,-1.14709 -1.16034,-0.56892 -2.06289,-1.27877 -2.66164,-2.05745 -0.37219,-0.43119 -0.69267,-1.10632 -0.86668,-2.00971 -0.17241,-0.89504 -0.18097,-1.91523 -0.0218,-2.93877 0.16027,-1.03059 0.48114,-2.00612 0.91838,-2.82271 0.44319,-0.82768 0.98223,-1.45057 1.56157,-1.84586 0.10797,-0.10199 0.26973,-0.20344 0.48648,-0.28967 0.21875,-0.087 0.47899,-0.1528 0.77023,-0.19184 0.60125,-0.0806 1.27707,-0.0403 1.92243,0.10336 0.67182,0.14958 1.26724,0.40041 1.72446,0.70398 0.23544,0.15633 0.43089,0.32417 0.58561,0.49779 0.15831,0.17766 0.27839,0.36611 0.35681,0.56572 0.0446,0.0215 0.0924,0.124 0.11774,0.25625 0.0266,0.13906 0.0324,0.30788 0.0199,0.48539 -0.0273,0.38693 -0.13666,0.78211 -0.27963,1.09161 -0.0785,0.16994 -0.16656,0.31386 -0.25912,0.42832 -0.0999,0.12359 -0.20754,0.21611 -0.3229,0.27426 -0.0629,0.0317 -0.12981,0.0541 -0.20129,0.0655 -0.0763,0.0121 -0.15726,0.0117 -0.24257,-0.003 -0.19538,-0.0336 -0.3964,-0.13846 -0.59165,-0.30012 0.14428,0.20112 0.31222,0.37975 0.51175,0.50157 0.0894,0.0546 0.18643,0.0985 0.29154,0.12785 0.0991,0.0276 0.20422,0.0419 0.31504,0.0404 0.20671,-0.003 0.42194,-0.0602 0.63823,-0.17095 0.19794,-0.10137 0.39178,-0.24482 0.5764,-0.42288 0.33376,-0.3219 0.64134,-0.76218 0.86919,-1.24886 0.10508,-0.22446 0.19709,-0.46775 0.26053,-0.71394 0.0596,-0.23118 0.10264,-0.49828 0.0875,-0.76919 -0.0514,-0.45356 -0.19134,-0.89208 -0.40581,-1.30637 -0.20752,-0.40089 -0.48193,-0.77359 -0.80581,-1.11361 -0.62194,-0.65291 -1.43578,-1.19508 -2.33843,-1.59301 -0.86394,-0.38087 -1.84433,-0.6443 -2.83651,-0.7197 -0.4866,-0.037 -0.99025,-0.0297 -1.49127,0.0392 -0.49391,0.0679 -1.00276,0.19805 -1.49424,0.41764 -1.32635,0.62364 -2.43287,1.64452 -3.29968,2.84661 -0.85406,1.1844 -1.5003,2.57781 -1.91345,4.03396 -0.40896,1.44141 -0.6033,2.99392 -0.51225,4.51383 0.0903,1.50691 0.4682,3.07863 1.29617,4.47054 1.06676,1.75671 2.62217,3.15368 4.34597,4.2019 1.74406,1.06054 3.72425,1.80479 5.73206,2.2291 2.04058,0.43124 4.17479,0.54614 6.21479,0.28888 2.08226,-0.26259 4.16295,-0.92609 5.95399,-2.1375 2.19808,-1.50219 3.87677,-3.58947 5.09237,-5.80519 1.27313,-2.32056 2.10012,-4.8879 2.52529,-7.41122 0.45073,-2.67507 0.46526,-5.37968 0.0444,-7.88978 -0.45396,-2.70771 -1.42522,-5.25805 -2.98157,-7.38161 -0.95262,-1.2987 -2.02174,-2.50591 -3.1634,-3.597 -0.94763,-0.90564 -1.97192,-1.75647 -3.0619,-2.53193 -2.48113,-1.76518 -5.3339,-3.16168 -8.43153,-3.90666 -3.18483,-0.76595 -6.58863,-0.83206 -10.02446,0.0598 -3.52712,0.91559 -6.89434,2.7897 -9.98611,5.63137 -2.05185,1.88799 -3.60641,4.17738 -4.76625,6.64954 -1.17568,2.50592 -1.96876,5.24673 -2.47277,8.07067 -1.03025,5.77237 -0.91058,12.21411 -0.1028,18.51141 0.84554,6.59159 2.47005,13.23736 4.53636,19.30207 2.16927,6.3669 4.85693,12.19544 7.80748,16.95617 7.84801,12.65571 12.26475,22.87371 15.31722,31.92188 0.93667,2.77649 1.75754,5.48601 2.49614,8.13076 2.19708,7.86728 3.9357,16.41671 5.22819,22.58702 2.31398,10.44342 2.92096,21.56832 2.75508,33.60399 -0.14264,10.34911 -0.97244,21.90762 -1.49004,35.70388 -0.16016,4.26897 -0.28036,8.91089 -0.26214,13.63545 0.0271,7.03771 0.35779,14.64827 1.42304,22.29838 1.53462,11.02088 4.67696,22.8388 11.35259,34.09618 2.36528,3.93819 5.39978,8.3344 9.01452,12.65348 3.36228,4.01744 7.32582,8.0845 11.74864,11.56169 4.18709,3.29186 8.94905,6.18259 14.10237,7.87963 2.51278,0.82749 5.14291,1.3789 7.85429,1.53946 2.67237,0.15824 5.40077,-0.0648 8.13986,-0.76012 3.47059,-0.91148 6.67827,-2.6988 9.43979,-5.04124 2.70847,-2.29744 5.04082,-5.173 6.80842,-8.40111 1.74698,-3.19044 2.96404,-6.76607 3.41751,-10.50787 0.45204,-3.73009 0.14287,-7.61463 -1.14948,-11.39942 -1.24461,-3.63405 -2.98676,-6.60488 -5.13725,-8.91896 -2.17286,-2.33814 -4.69161,-3.92867 -7.36494,-4.87083 -2.69966,-0.95144 -5.49367,-1.22118 -8.19637,-1.00872 -2.76182,0.2171 -5.46273,0.93908 -7.96971,1.99236 -1.85108,0.779 -3.46764,1.73494 -4.85753,2.81307 -0.50901,0.39484 -0.99423,0.81153 -1.45419,1.24914 -1.65997,1.57934 -2.97173,3.41375 -3.87524,5.42253 -0.85979,1.91159 -1.33697,3.95454 -1.39692,6.01835 -0.0579,1.99318 0.27448,3.99168 1.01347,5.87073 0.62861,1.57558 1.72006,2.91811 3.00264,3.99515 1.27017,1.06662 2.77976,1.91759 4.3576,2.50683 1.5725,0.58725 3.24792,0.92766 4.86866,0.94527 1.62689,0.0177 3.2314,-0.29032 4.61357,-1.03387 0.95196,-0.53276 1.69109,-1.34239 2.23474,-2.21131 0.55996,-0.89497 0.94841,-1.9079 1.1677,-2.91118 0.22767,-1.04166 0.27904,-2.09716 0.14295,-3.06529 -0.14311,-1.01808 -0.49369,-1.94288 -1.06652,-2.67129 -0.22436,-0.27281 -0.48653,-0.50226 -0.75767,-0.69013 -0.28252,-0.19576 -0.58291,-0.35213 -0.88058,-0.47053 -0.31229,-0.12421 -0.62627,-0.20858 -0.92622,-0.25439 -0.31747,-0.0485 -0.62091,-0.0541 -0.89766,-0.0182 -0.29699,0.0385 -0.56139,0.12462 -0.78221,0.25494 -0.24227,0.14298 -0.42114,0.33253 -0.539,0.55329 -0.13113,0.24562 -0.18216,0.52033 -0.17938,0.80458 0.003,0.33556 0.0816,0.69361 0.20186,1.0502 z m 93.53457,130.65627 c 0.33172,0.18603 0.66189,0.31456 0.9716,0.35744 0.26221,0.0363 0.49146,0.009 0.68183,-0.0773 0.16739,-0.0755 0.30285,-0.1948 0.40905,-0.35209 0.0981,-0.14537 0.17402,-0.32695 0.22295,-0.54327 0.0458,-0.20233 0.0673,-0.43385 0.0588,-0.6849 -0.008,-0.23739 -0.0429,-0.48964 -0.10764,-0.7421 -0.0619,-0.2413 -0.15025,-0.47912 -0.26456,-0.69737 -0.11027,-0.21056 -0.24144,-0.39657 -0.38861,-0.54605 -0.41621,-0.46917 -1.01691,-0.84811 -1.76052,-1.10662 -0.70971,-0.24672 -1.53155,-0.37628 -2.37682,-0.36556 -0.8185,0.0104 -1.62781,0.15247 -2.3259,0.42041 -0.68933,0.26459 -1.20964,0.62825 -1.53241,1.03712 -0.6567,0.74092 -1.14247,1.75596 -1.42167,2.93905 -0.27959,1.18473 -0.34645,2.50667 -0.20077,3.81845 0.14657,1.31978 0.50249,2.57775 1.02404,3.63444 0.53239,1.07867 1.19624,1.8677 1.90175,2.34962 1.15574,0.83906 2.45935,1.41463 3.81953,1.7238 1.40859,0.32017 2.8715,0.35387 4.31094,0.10991 1.51068,-0.25603 2.98918,-0.81603 4.37738,-1.667 0.38557,-0.23635 0.76407,-0.49506 1.13457,-0.77589 1.00982,-0.76545 2.0036,-1.73072 2.93965,-2.92816 1.35226,-1.72065 2.40779,-3.57876 3.073,-5.47922 0.6497,-1.85616 0.91397,-3.71353 0.7547,-5.50594 -0.1557,-1.75215 -0.71954,-3.49429 -1.79744,-5.19092 -1.07396,-1.69045 -2.7103,-3.41627 -5.11338,-5.07189 -2.2433,-1.53841 -4.74287,-2.45078 -7.31312,-2.83411 -2.59384,-0.38684 -5.25695,-0.23382 -7.77596,0.36342 -2.55574,0.60596 -4.90059,1.65377 -6.84488,2.98876 -1.98997,1.36635 -3.47632,2.97255 -4.42158,4.63541 -0.88904,1.49429 -1.50149,3.07106 -1.88495,4.71507 -0.39162,1.67897 -0.55065,3.45324 -0.5015,5.31268 0.1019,3.85499 1.09941,8.00108 2.70628,12.17833 1.68699,4.38551 4.00136,8.69294 6.5149,12.61667 2.69436,4.20599 5.60508,7.95482 8.28189,10.99874 7.26657,8.36799 16.06411,14.23847 25.09677,18.75346 6.27671,3.13743 12.85119,5.70465 19.21187,7.90931 4.25689,1.47546 8.53246,2.82717 12.53391,4.0487 14.60399,4.4582 22.65887,6.52208 34.48484,10.60927 11.8285,4.08806 22.92385,8.84292 32.91905,15.25382 4.64008,3.06148 13.25402,8.6627 19.65888,13.2497 2.34155,1.67696 4.74351,3.46431 7.18722,5.39241 8.01741,6.32578 16.73238,14.33923 26.62017,26.43488 3.01832,3.69652 7.12692,7.64515 11.99686,11.40549 4.6288,3.57413 9.86815,6.91488 15.21957,9.54305 5.15835,2.53335 10.29228,4.33892 14.8729,5.04761 2.22028,0.34351 4.24035,0.41793 6.02237,0.22628 1.74785,-0.18797 3.22222,-0.62649 4.44188,-1.28216 2.52414,-1.35758 4.21972,-2.94737 5.33677,-4.59426 1.0903,-1.60744 1.71536,-3.39614 1.93604,-5.31122 0.21788,-1.89068 0.0397,-3.90852 -0.49344,-5.92246 -0.23255,-0.87842 -0.52971,-1.74441 -0.8824,-2.58306 -0.42566,-1.01214 -0.93935,-2.00004 -1.52916,-2.92617 -0.56587,-0.92445 -1.53338,-1.9145 -2.99296,-2.80734 -1.34626,-0.82353 -3.0159,-1.50165 -4.86826,-1.90881 -1.74836,-0.3843 -3.57107,-0.50616 -5.26718,-0.31647 -1.62891,0.18218 -3.03801,0.63987 -4.11953,1.32655 -0.71171,0.42547 -1.45858,1.17238 -2.12151,2.277 -0.64211,1.06992 -1.14536,2.3793 -1.43625,3.79491 -0.28576,1.39066 -0.35095,2.80923 -0.18499,4.10211 0.16455,1.28179 0.5456,2.36497 1.08973,3.18275 0.28821,0.49131 0.82402,1.01229 1.6231,1.46821 0.7917,0.4517 1.75468,0.78863 2.7749,0.96786 1.02725,0.18047 2.05413,0.19116 2.96808,0.0405 0.92636,-0.15275 1.68975,-0.46225 2.25068,-0.88325 0.13134,-0.0693 0.27952,-0.18977 0.43101,-0.36716 0.15288,-0.17902 0.29903,-0.40417 0.42987,-0.66728 0.2701,-0.54319 0.4498,-1.19592 0.5218,-1.85315 0.0749,-0.68418 0.0294,-1.32867 -0.11058,-1.85933 -0.0721,-0.27326 -0.16798,-0.51238 -0.28247,-0.71481 -0.11714,-0.20712 -0.25683,-0.38153 -0.4205,-0.52011 -0.006,-0.0492 -0.0876,-0.12744 -0.20463,-0.19405 -0.12305,-0.07 -0.28101,-0.1299 -0.45308,-0.17526 -0.37508,-0.0989 -0.78442,-0.12273 -1.12349,-0.0871 -0.18617,0.0195 -0.35079,0.0565 -0.48898,0.10723 -0.1492,0.0548 -0.27146,0.1268 -0.3637,0.21727 -0.0503,0.0493 -0.093,0.10544 -0.12686,0.16944 -0.0361,0.0683 -0.0617,0.14509 -0.0754,0.23057 -0.0312,0.19578 0.003,0.41988 0.0934,0.65682 -0.14388,-0.20141 -0.25884,-0.41797 -0.30985,-0.64611 -0.0228,-0.10219 -0.0332,-0.20824 -0.0271,-0.31719 0.006,-0.10268 0.0262,-0.20682 0.0633,-0.31125 0.0692,-0.19479 0.19299,-0.38002 0.36755,-0.54907 0.15976,-0.1547 0.35803,-0.29195 0.5861,-0.40933 0.41229,-0.21219 0.92822,-0.36144 1.46237,-0.42026 0.24635,-0.0271 0.50631,-0.0358 0.75981,-0.0165 0.23804,0.0181 0.50476,0.0634 0.75632,0.16514 0.41278,0.19487 0.7828,0.46867 1.10585,0.80522 0.3126,0.32567 0.57697,0.70556 0.79444,1.12176 0.4176,0.79919 0.66851,1.74435 0.75426,2.72709 0.0821,0.94059 0.0154,1.95357 -0.23299,2.91709 -0.12184,0.47255 -0.29109,0.94697 -0.51777,1.39906 -0.22345,0.44567 -0.51069,0.88539 -0.87698,1.27987 -1.01787,1.05455 -2.34092,1.77296 -3.75825,2.20604 -1.39647,0.42672 -2.92381,0.58934 -4.43541,0.51108 -1.4963,-0.0775 -3.0286,-0.39391 -4.43804,-0.97 -1.39739,-0.57116 -2.76341,-1.43554 -3.81416,-2.66796 -1.31911,-1.57606 -2.14018,-3.49873 -2.57683,-5.46839 -0.44178,-1.99282 -0.50804,-4.10722 -0.26255,-6.14464 0.24951,-2.07067 0.82865,-4.12801 1.72972,-5.97621 0.91974,-1.88649 2.21849,-3.64227 3.94254,-4.94726 2.13051,-1.59657 4.64747,-2.51288 7.13676,-2.94943 2.60706,-0.4572 5.30394,-0.41254 7.82964,-0.002 2.67758,0.43556 5.24253,1.29357 7.48302,2.501 2.41687,1.30249 4.51804,3.04395 6.02661,5.20171 0.92234,1.32038 1.72052,2.72156 2.38538,4.15397 0.55187,1.18896 1.02713,2.43283 1.40988,3.71458 0.87125,2.91768 1.27369,6.06832 0.98047,9.24075 -0.30148,3.26174 -1.33603,6.50519 -3.28777,9.47016 -2.0036,3.04376 -4.86302,5.6272 -8.54958,7.63802 -2.44859,1.33379 -5.11686,2.06746 -7.83093,2.36856 -2.75113,0.30522 -5.60129,0.17253 -8.43697,-0.26058 -5.79637,-0.88531 -11.85573,-3.07492 -17.55657,-5.86936 -5.96725,-2.92504 -11.73472,-6.60495 -16.80973,-10.51579 -5.32789,-4.1057 -9.97905,-8.52859 -13.53466,-12.85617 -9.45066,-11.5084 -17.69969,-18.98293 -25.28108,-24.78893 -2.32639,-1.78161 -4.62671,-3.43201 -6.89224,-4.98366 -6.73923,-4.61564 -14.27196,-9.01716 -19.69636,-12.2295 -9.1402,-5.55665 -19.47571,-9.71707 -30.92249,-13.43943 -9.84274,-3.20075 -21.05184,-6.14083 -34.27862,-10.09772 -4.09275,-1.22438 -8.52567,-2.6068 -12.99221,-4.14689 -6.65336,-2.29411 -13.75115,-5.06019 -20.64961,-8.53441 -9.93804,-5.00501 -20.11238,-11.78885 -28.61723,-21.73672 -2.96562,-3.50842 -6.1491,-7.79797 -9.07256,-12.61194 -2.71928,-4.47775 -5.29173,-9.54066 -7.15776,-14.84822 -1.76657,-5.02467 -2.96811,-10.46423 -2.91354,-15.88951 0.0266,-2.6454 0.35238,-5.31289 1.07433,-7.93131 0.71157,-2.58075 1.80219,-5.09162 3.34323,-7.46042 1.98148,-2.99157 4.70733,-5.45196 7.81486,-7.31107 3.04782,-1.82339 6.52169,-3.1044 10.14725,-3.73717 3.58326,-0.62538 7.36035,-0.62497 11.04861,0.15184 3.67672,0.77437 7.25428,2.31913 10.42052,4.76244 3.03892,2.34952 5.28967,4.95626 6.78708,7.73787 1.51299,2.81053 2.20677,5.70752 2.23698,8.54185 0.0305,2.86225 -0.61474,5.59408 -1.68701,8.08406 -1.09572,2.54445 -2.64974,4.86849 -4.45486,6.90217 -1.33408,1.5012 -2.76005,2.72336 -4.22864,3.69156 -0.53783,0.35458 -1.08868,0.6796 -1.65118,0.97395 -2.0301,1.06232 -4.18943,1.7128 -6.38221,1.9206 -2.08671,0.19775 -4.17443,-0.009 -6.14741,-0.61749 -1.90547,-0.58765 -3.69017,-1.54645 -5.23075,-2.85167 -1.28887,-1.1029 -2.20794,-2.56883 -2.8141,-4.13012 -0.60028,-1.54617 -0.91926,-3.24948 -0.96848,-4.93304 -0.049,-1.67786 0.16874,-3.37358 0.67448,-4.9135 0.50765,-1.54576 1.31638,-2.96535 2.46575,-4.0341 0.81117,-0.72943 1.81583,-1.16815 2.8136,-1.40271 1.0277,-0.2416 2.11178,-0.28283 3.13219,-0.16703 1.05945,0.12023 2.07518,0.41182 2.94777,0.85269 0.91762,0.46363 1.68006,1.09358 2.18496,1.87062 0.18593,0.30032 0.31863,0.62246 0.40908,0.93969 0.0942,0.33053 0.14545,0.6653 0.16158,0.98524 0.0169,0.33566 -0.004,0.66008 -0.0577,0.95879 -0.0564,0.31615 -0.14891,0.60521 -0.27211,0.85562 -0.13221,0.26871 -0.29892,0.49125 -0.49346,0.65829 -0.21343,0.18325 -0.45052,0.29147 -0.69749,0.33188 -0.27477,0.045 -0.55127,0.005 -0.81946,-0.0895 -0.31659,-0.11126 -0.63028,-0.30081 -0.92908,-0.52959 z"
       sodipodi:nodetypes="csaassaaassaaaaac"
       transform="rotate(-54.533826,339.91292,683.14924)"
       inkscape:path-effect="#path-effect3715;#path-effect3739"
       inkscape:original-d="m 368.96238,652.69767 c -0.84349,-3.24779 2.93691,-2.64483 4.19076,-0.83482 1.81368,2.61815 0.33816,7.81322 -2.5211,9.21635 -4.61041,2.26248 -12.51165,-1.04167 -14.24195,-5.87704 -2.28932,-6.39755 0.7697,-14.51623 9.63188,-17.96536 9.27268,-3.60889 19.82753,-1.57505 23.89423,11.28673 4.04598,12.79623 -5.12141,26.74741 -15.94485,29.31873 -17.63228,4.1889 -35.49301,-15.35572 -44.6816,-30.97667 -23.368,-39.7265 -3.10316,-92.72593 -13.643,-137.59429 -5.20894,-22.17458 -9.0023,-39.38162 -24.23963,-63.8909 -11.24699,-18.0908 -18.01011,-52.39539 -5.83595,-63.63874 10.51475,-9.71082 22.41509,-3.98114 28.13682,3.54359 4.69088,6.16905 2.92134,18.47356 -3.36584,23.00488 -4.90946,3.53836 -14.55074,1.87017 -17.87293,-3.18808 -2.39567,-3.64756 -0.83763,-10.68259 3.01034,-12.741 2.38641,-1.27657 7.0788,0.17866 7.60905,2.8326 0.23714,1.18688 -1.16448,4.07441 -2.65485,2.4771"
       class="UnoptimicedTransforms" />
    <g
       id="g1548"
       transform="matrix(0.64038955,-0.21029572,0.21028041,0.64043615,0.0782909,319.42874)"
       style="stroke-width:1.01919">
      <rect
         style="fill:#000000;stroke:#ffffff;stroke-width:5.20669;stroke-dasharray:none;stroke-opacity:1;paint-order:fill markers stroke;stop-color:#000000"
         id="rect499"
         width="94.608681"
         height="130.55812"
         x="769.94696"
         y="298.3754"
         ry="17.803379"
         transform="matrix(0.85283099,0.52218704,-0.74504377,0.66701558,0,0)" />
      <rect
         style="fill:#000000;stroke:#ffffff;stroke-width:5.20669;stroke-dasharray:none;stroke-opacity:1;paint-order:fill markers stroke;stop-color:#000000"
         id="rect1541"
         width="94.608681"
         height="130.55812"
         x="759.05798"
         y="285.9111"
         ry="17.803379"
         transform="matrix(0.85283099,0.52218704,-0.74504377,0.66701558,0,0)" />
      <rect
         style="fill:#000000;stroke:#ffffff;stroke-width:5.20669;stroke-dasharray:none;stroke-opacity:1;paint-order:fill markers stroke;stop-color:#000000"
         id="rect1543"
         width="94.608681"
         height="130.55812"
         x="746.61346"
         y="271.6662"
         ry="17.803379"
         transform="matrix(0.85283099,0.52218704,-0.74504377,0.66701558,0,0)" />
    </g>
    <path
       style="fill:#000000;fill-rule:nonzero;stroke:none;stroke-width:1px;stroke-linecap:butt;stroke-linejoin:miter;stroke-opacity:1"
       d="m 216.15938,617.80951 c -4.62453,-2.24296 -11.69894,-5.6425 -19.67816,-9.00829 -7.97689,-3.36481 -14.96701,-5.89563 -20.92296,-7.64009 -1.82544,-0.53466 -3.47705,-0.97271 -4.95493,-1.32648 -7.96239,-1.90599 -13.9601,-2.19435 -18.61439,-1.82785 -0.97777,0.077 -1.9242,0.1861 -2.8348,0.32592 -1.30834,0.2009 -2.59707,0.48908 -3.81424,0.88606 -1.67135,0.54512 -2.9715,1.2186 -3.95222,1.92652 -0.96973,0.69997 -1.52573,1.36005 -1.82008,1.81159 -0.41325,0.63394 -0.35893,0.83095 -0.31549,0.85176 l 0,0 0,0 c 0.0434,0.0208 0.14669,-0.0851 0.67695,-0.53794 0.37299,-0.3185 0.99884,-0.80997 1.96348,-1.31336 0.98266,-0.51279 2.23534,-0.99633 3.8318,-1.36751 1.16442,-0.27073 2.38738,-0.45282 3.63684,-0.56477 0.86879,-0.0778 1.77253,-0.11632 2.70798,-0.12016 4.32506,-0.0178 10.28683,0.7341 17.97629,2.38556 1.45703,0.31293 3.08763,0.67915 4.90896,1.12238 6.01311,1.46334 12.92752,3.48384 21.12944,6.40991 8.08018,2.88264 15.41346,5.94168 20.07553,7.98675 z m 392.68124,0 c 4.62453,-2.24296 11.69894,-5.6425 19.67816,-9.00829 7.97689,-3.36481 14.96701,-5.89563 20.92296,-7.64009 1.82544,-0.53466 3.47705,-0.97271 4.95493,-1.32648 7.96239,-1.90599 13.9601,-2.19435 18.61439,-1.82785 0.97777,0.077 1.9242,0.1861 2.8348,0.32592 1.30834,0.2009 2.59707,0.48908 3.81424,0.88606 1.67135,0.54512 2.9715,1.2186 3.95222,1.92652 0.96973,0.69997 1.52573,1.36005 1.82008,1.81159 0.41325,0.63394 0.35893,0.83095 0.31549,0.85176 l 0,0 v 0 c -0.0434,0.0208 -0.14669,-0.0851 -0.67695,-0.53794 -0.37299,-0.3185 -0.99884,-0.80997 -1.96348,-1.31336 -0.98266,-0.51279 -2.23534,-0.99633 -3.8318,-1.36751 -1.16442,-0.27073 -2.38738,-0.45282 -3.63684,-0.56477 -0.86879,-0.0778 -1.77253,-0.11632 -2.70798,-0.12016 -4.32506,-0.0178 -10.28683,0.7341 -17.97629,2.38556 -1.45703,0.31293 -3.08763,0.67915 -4.90896,1.12238 -6.01311,1.46334 -12.92752,3.48384 -21.12944,6.40991 -8.08018,2.88264 -15.41346,5.94168 -20.07553,7.98675 z"
       id="path20465"
       inkscape:path-effect="#path-effect20467;#path-effect20617"
       inkscape:original-d="M 216.15938,617.80951 C 147.68819,586.2009 139.25211,603.80865 139.25211,603.80865"
       sodipodi:nodetypes="cc"
       class="UnoptimicedTransforms" />
    <path
       style="fill:#000000;fill-rule:nonzero;stroke:none;stroke-width:1px;stroke-linecap:butt;stroke-linejoin:miter;stroke-opacity:1"
       d="m 259.06953,654.58065 c -3.57153,-3.88131 -9.26212,-10.08945 -16.27123,-16.70819 -6.92675,-6.54095 -13.23353,-11.65919 -18.37022,-15.11267 -5.82017,-3.91301 -10.81347,-6.38096 -15.8864,-8.37912 -1.65484,-0.65182 -3.47068,-1.30999 -5.39917,-1.93255 -4.42565,-1.42867 -9.31445,-2.4631 -14.2554,-2.71142 -5.44616,-0.2737 -10.30668,0.43934 -14.3966,1.95826 -3.97635,1.47674 -6.81334,3.5583 -8.74504,5.65154 -0.3827,0.4147 -0.72818,0.82773 -1.0403,1.23488 -1.2812,1.67124 -2.18458,3.51323 -2.49527,5.40098 -0.17871,1.08578 -0.15127,2.13552 0.0805,3.1106 0.24055,1.01191 0.6935,1.91211 1.32079,2.67989 0.7088,0.86755 1.60704,1.52681 2.59369,2.0071 1.37946,0.67151 2.8204,0.93951 3.90105,1.03738 -1.07809,-0.12537 -2.51356,-0.38431 -3.89711,-1.04554 -0.98866,-0.47251 -1.89411,-1.12446 -2.60445,-1.99337 -0.62884,-0.76921 -1.07588,-1.67489 -1.29396,-2.68999 -0.21002,-0.97757 -0.19969,-2.02161 0.0326,-3.08057 0.40308,-1.83789 1.43794,-3.56989 2.85614,-4.99597 0.3458,-0.34773 0.72765,-0.68959 1.14626,-1.02173 2.11799,-1.68045 5.0833,-3.03925 8.86071,-3.70937 3.88405,-0.68905 8.29913,-0.59675 13.14401,0.27511 4.42988,0.79718 8.72856,2.15235 12.77331,3.67947 1.75642,0.66315 3.40254,1.36675 4.91469,2.05635 3.96153,1.80663 9.88184,4.91032 15.07909,7.83271 5.43791,3.05771 11.6867,6.65658 19.65824,12.22938 7.74241,5.4126 14.35786,10.80789 18.2941,14.22684 z m 306.86094,0 c 3.57153,-3.88131 9.26212,-10.08945 16.27123,-16.70819 6.92675,-6.54095 13.23353,-11.65919 18.37022,-15.11267 5.82017,-3.91301 10.81347,-6.38096 15.8864,-8.37912 1.65484,-0.65182 3.47068,-1.30999 5.39917,-1.93255 4.42565,-1.42867 9.31445,-2.4631 14.2554,-2.71142 5.44616,-0.2737 10.30668,0.43934 14.3966,1.95826 3.97635,1.47674 6.81334,3.5583 8.74504,5.65154 0.3827,0.4147 0.72818,0.82773 1.0403,1.23488 1.2812,1.67124 2.18458,3.51323 2.49527,5.40098 0.17871,1.08578 0.15127,2.13552 -0.0805,3.1106 -0.24055,1.01191 -0.6935,1.91211 -1.32079,2.67989 -0.7088,0.86755 -1.60704,1.52681 -2.59369,2.0071 -1.37946,0.67151 -2.8204,0.93951 -3.90105,1.03738 1.07809,-0.12537 2.51356,-0.38431 3.89711,-1.04554 0.98866,-0.47251 1.89411,-1.12446 2.60445,-1.99337 0.62884,-0.76921 1.07588,-1.67489 1.29396,-2.68999 0.21002,-0.97757 0.19969,-2.02161 -0.0326,-3.08057 -0.40308,-1.83789 -1.43794,-3.56989 -2.85614,-4.99597 -0.3458,-0.34773 -0.72765,-0.68959 -1.14626,-1.02173 -2.11799,-1.68045 -5.0833,-3.03925 -8.86071,-3.70937 -3.88405,-0.68905 -8.29913,-0.59675 -13.14401,0.27511 -4.42988,0.79718 -8.72856,2.15235 -12.77331,3.67947 -1.75642,0.66315 -3.40254,1.36675 -4.91469,2.05635 -3.96153,1.80663 -9.88184,4.91032 -15.07909,7.83271 -5.43791,3.05771 -11.6867,6.65658 -19.65824,12.22938 -7.74241,5.4126 -14.35786,10.80789 -18.2941,14.22684 z"
       id="path20475"
       inkscape:path-effect="#path-effect20479;#path-effect20573"
       inkscape:original-d="M 259.06953,654.58065 C 177.37424,575.1948 145.8294,630.30687 170.10594,632.81733"
       sodipodi:nodetypes="cc"
       class="UnoptimicedTransforms" />
    <path
       style="fill:#000000;fill-rule:nonzero;stroke:none;stroke-width:9.58624;stroke-linecap:butt;stroke-linejoin:miter;stroke-dasharray:none;stroke-opacity:1"
       d="m 188.40527,497.40614 c 15.46091,-13.19619 32.13211,-20.18196 48.32572,-24.16376 6.07249,-1.49315 12.24679,-2.6059 18.49528,-3.45633 8.75403,-1.19144 18.66637,-1.6875 29.97559,-1.06511 14.66882,0.8073 29.8995,3.38617 46.2405,7.46939 14.30505,3.5745 26.58794,7.53207 39.06324,11.38417 0.0292,0.009 0.0732,0.0221 0.044,0.0131 5.08098,1.57137 10.00755,2.64728 14.60958,2.95188 4.42814,0.29309 8.72055,-0.11662 12.63173,-1.61651 1.94227,-0.74484 3.75298,-1.74499 5.40182,-3.0158 1.65339,-1.27432 3.08716,-2.777 4.30829,-4.47397 2.48065,-3.44729 3.99116,-7.56191 4.84547,-11.99055 0.73968,-3.85153 0.67032,-7.67071 0.0706,-11.18543 -0.66696,-3.9085 -1.98712,-7.45174 -3.62977,-10.46769 -0.44492,-0.81688 -0.91333,-1.59513 -1.39944,-2.33399 -1.535,-2.33312 -3.36516,-4.47733 -5.45778,-6.33707 -2.77574,-2.46683 -6.01362,-4.43278 -9.61849,-5.66181 -3.24207,-1.08806 -6.55523,-1.57354 -9.75217,-1.508 -3.19644,0.0655 -6.29926,0.68224 -9.12504,1.81936 -2.82833,1.13814 -5.39178,2.80457 -7.48197,4.96559 -2.09823,2.16933 -3.69073,4.8051 -4.6223,7.84161 -0.23117,0.72252 -0.40589,1.44665 -0.52677,2.16979 -0.29167,1.74493 -0.26284,3.45719 0.0228,5.09905 0.4033,2.31826 1.30973,4.4642 2.52281,6.38889 1.20973,1.91938 2.74,3.64095 4.43715,5.11766 1.69866,1.47801 3.59226,2.73511 5.55756,3.71458 1.96386,0.97876 4.03113,1.69609 6.08201,2.06861 2.04678,0.37178 4.13082,0.4093 6.09237,-0.0266 1.97855,-0.4397 3.82451,-1.36176 5.31329,-2.87417 1.48783,-1.51145 2.5039,-3.49494 3.01847,-5.88582 0.26567,-1.47826 0.20577,-2.99023 -0.10757,-4.42301 -0.31384,-1.43509 -0.88832,-2.82187 -1.68585,-4.06191 -0.79869,-1.24183 -1.82932,-2.34929 -3.06503,-3.21375 -1.23904,-0.86677 -2.67324,-1.48131 -4.26317,-1.74512 -0.94854,-0.13117 -1.9275,-0.0819 -2.8434,0.11525 -0.91751,0.19754 -1.80481,0.5506 -2.5627,1.05637 -0.38018,0.25371 -0.73096,0.54801 -1.0361,0.8831 -0.30555,0.33555 -0.56459,0.71126 -0.75985,1.1249 -0.19563,0.41442 -0.3236,0.85929 -0.37348,1.32884 -0.0498,0.4691 -0.0208,0.95282 0.0878,1.44681 0.0686,0.24154 0.18468,0.4719 0.31281,0.67624 0.13038,0.20793 0.28759,0.41169 0.45801,0.60095 0.34028,0.3779 0.75913,0.727 1.19357,0.96324 0.21835,0.11873 0.4441,0.21086 0.66806,0.26257 0.22453,0.0518 0.44735,0.063 0.65477,0.0189 0.1035,-0.022 0.20116,-0.0573 0.29164,-0.10636 0.0905,-0.049 0.17205,-0.11088 0.24489,-0.18484 0.0727,-0.0738 0.13636,-0.15939 0.19189,-0.2563 0.0555,-0.0968 0.1034,-0.20595 0.14421,-0.32773 -0.0725,0.10664 -0.14838,0.19339 -0.22591,0.26215 -0.0775,0.0688 -0.15566,0.11864 -0.23241,0.15285 -0.0766,0.0342 -0.15134,0.0525 -0.22348,0.0591 -0.0719,0.007 -0.14216,0.002 -0.21063,-0.012 -0.1358,-0.027 -0.27409,-0.0899 -0.41098,-0.17898 -0.13789,-0.0897 -0.27709,-0.20785 -0.41176,-0.34704 -0.27049,-0.27956 -0.51672,-0.63828 -0.68391,-0.99316 -0.0832,-0.17655 -0.14419,-0.34696 -0.17751,-0.49685 -0.0334,-0.15007 -0.0365,-0.27193 -0.0125,-0.3353 -0.0209,-0.34368 0.0178,-0.64117 0.0946,-0.89746 0.0767,-0.25563 0.19379,-0.47838 0.33898,-0.6735 0.14555,-0.1956 0.32488,-0.37078 0.53246,-0.52545 0.20817,-0.1551 0.44681,-0.29105 0.71035,-0.40517 0.52968,-0.22935 1.14936,-0.36568 1.78961,-0.39361 0.64149,-0.028 1.27282,0.0544 1.81658,0.23456 1.08054,0.2907 2.00073,0.81337 2.75908,1.47908 0.76125,0.66827 1.37117,1.49127 1.8131,2.39151 0.44293,0.90228 0.71136,1.87057 0.79836,2.81851 0.0872,0.9506 -0.0104,1.84949 -0.26704,2.62669 -0.41474,1.62882 -1.10272,2.69386 -1.86582,3.38918 -0.76045,0.6929 -1.71483,1.12797 -2.8495,1.31779 -1.15286,0.19286 -2.50203,0.13177 -3.976,-0.20632 -1.47028,-0.33724 -3.01309,-0.93883 -4.51911,-1.77134 -1.50455,-0.8317 -2.94113,-1.87672 -4.20343,-3.07425 -1.26374,-1.19889 -2.32615,-2.52518 -3.11081,-3.90863 -0.78461,-1.38337 -1.27198,-2.78815 -1.43929,-4.16353 -0.11766,-0.96723 -0.0789,-1.93102 0.13176,-2.88889 0.0879,-0.39981 0.20723,-0.80304 0.36092,-1.20938 0.75485,-1.91257 1.92644,-3.4345 3.35231,-4.59634 1.43201,-1.16684 3.16036,-2.00268 5.0665,-2.48835 1.91009,-0.48667 3.992,-0.61971 6.1141,-0.3826 2.12233,0.23714 4.26172,0.84176 6.29445,1.80999 2.09964,0.99344 3.96496,2.42049 5.5593,4.15336 1.20623,1.31103 2.25944,2.79971 3.13647,4.40823 0.27735,0.50866 0.54503,1.04121 0.79911,1.59718 0.94275,2.06293 1.68102,4.4144 2.01941,6.93237 0.30474,2.26764 0.27192,4.58499 -0.18248,6.80052 -0.64873,3.20719 -1.61484,5.46576 -2.72715,7.03518 -0.53826,0.75947 -1.123,1.37607 -1.75523,1.88205 -0.63068,0.50474 -1.3577,0.93872 -2.21533,1.2932 -1.7568,0.72614 -4.14255,1.14858 -7.36997,1.03315 -3.35863,-0.12012 -7.33922,-0.81249 -11.92609,-2.06842 l 0.044,0.0131 c -12.37743,-3.6278 -25.10615,-7.53098 -39.84382,-10.96578 -16.91913,-3.94322 -32.92077,-6.37724 -48.43643,-6.88625 -11.97515,-0.39287 -22.5362,0.40557 -31.87901,1.98372 -6.68484,1.12918 -13.1776,2.895 -19.44269,5.25683 -16.87174,6.36034 -32.12144,17.02829 -45.92814,31.83918 z m 461.82628,0 c -15.46091,-13.19619 -32.13211,-20.18196 -48.32572,-24.16376 -6.07249,-1.49315 -12.24679,-2.6059 -18.49528,-3.45633 -8.75403,-1.19144 -18.66637,-1.6875 -29.97559,-1.06511 -14.66882,0.8073 -29.8995,3.38617 -46.2405,7.46939 -14.30505,3.5745 -26.58794,7.53207 -39.06324,11.38417 -0.0292,0.009 -0.0732,0.0221 -0.044,0.0131 -5.08098,1.57137 -10.00755,2.64728 -14.60958,2.95188 -4.42814,0.29309 -8.72055,-0.11662 -12.63173,-1.61651 -1.94227,-0.74484 -3.75298,-1.74499 -5.40182,-3.0158 -1.65339,-1.27432 -3.08716,-2.777 -4.30829,-4.47397 -2.48065,-3.44729 -3.99116,-7.56191 -4.84547,-11.99055 -0.73968,-3.85153 -0.67032,-7.67071 -0.0706,-11.18543 0.66696,-3.9085 1.98712,-7.45174 3.62977,-10.46769 0.44492,-0.81688 0.91333,-1.59513 1.39944,-2.33399 1.535,-2.33312 3.36516,-4.47733 5.45778,-6.33707 2.77574,-2.46683 6.01362,-4.43278 9.61849,-5.66181 3.24207,-1.08806 6.55523,-1.57354 9.75217,-1.508 3.19644,0.0655 6.29926,0.68224 9.12504,1.81936 2.82833,1.13814 5.39178,2.80457 7.48197,4.96559 2.09823,2.16933 3.69073,4.8051 4.6223,7.84161 0.23117,0.72252 0.40589,1.44665 0.52677,2.16979 0.29167,1.74493 0.26284,3.45719 -0.0228,5.09905 -0.4033,2.31826 -1.30973,4.4642 -2.52281,6.38889 -1.20973,1.91938 -2.74,3.64095 -4.43715,5.11766 -1.69866,1.47801 -3.59226,2.73511 -5.55756,3.71458 -1.96386,0.97876 -4.03113,1.69609 -6.08201,2.06861 -2.04678,0.37178 -4.13082,0.4093 -6.09237,-0.0266 -1.97855,-0.4397 -3.82451,-1.36176 -5.31329,-2.87417 -1.48783,-1.51145 -2.5039,-3.49494 -3.01847,-5.88582 -0.26567,-1.47826 -0.20577,-2.99023 0.10757,-4.42301 0.31384,-1.43509 0.88832,-2.82187 1.68585,-4.06191 0.79869,-1.24183 1.82932,-2.34929 3.06503,-3.21375 1.23904,-0.86677 2.67324,-1.48131 4.26317,-1.74512 0.94854,-0.13117 1.9275,-0.0819 2.8434,0.11525 0.91751,0.19754 1.80481,0.5506 2.5627,1.05637 0.38018,0.25371 0.73096,0.54801 1.0361,0.8831 0.30555,0.33555 0.56459,0.71126 0.75985,1.1249 0.19563,0.41442 0.3236,0.85929 0.37348,1.32884 0.0498,0.4691 0.0208,0.95282 -0.0878,1.44681 -0.0686,0.24154 -0.18468,0.4719 -0.31281,0.67624 -0.13038,0.20793 -0.28759,0.41169 -0.45801,0.60095 -0.34028,0.3779 -0.75913,0.727 -1.19357,0.96324 -0.21835,0.11873 -0.4441,0.21086 -0.66806,0.26257 -0.22453,0.0518 -0.44735,0.063 -0.65477,0.0189 -0.1035,-0.022 -0.20116,-0.0573 -0.29164,-0.10636 -0.0905,-0.049 -0.17205,-0.11088 -0.24489,-0.18484 -0.0727,-0.0738 -0.13636,-0.15939 -0.19189,-0.2563 -0.0555,-0.0968 -0.1034,-0.20595 -0.14421,-0.32773 0.0725,0.10664 0.14838,0.19339 0.22591,0.26215 0.0775,0.0688 0.15566,0.11864 0.23241,0.15285 0.0766,0.0342 0.15134,0.0525 0.22348,0.0591 0.0719,0.007 0.14216,0.002 0.21063,-0.012 0.1358,-0.027 0.27409,-0.0899 0.41098,-0.17898 0.13789,-0.0897 0.27709,-0.20785 0.41176,-0.34704 0.27049,-0.27956 0.51672,-0.63828 0.68391,-0.99316 0.0832,-0.17655 0.14419,-0.34696 0.17751,-0.49685 0.0334,-0.15007 0.0365,-0.27193 0.0125,-0.3353 0.0209,-0.34368 -0.0178,-0.64117 -0.0946,-0.89746 -0.0767,-0.25563 -0.19379,-0.47838 -0.33898,-0.6735 -0.14555,-0.1956 -0.32488,-0.37078 -0.53246,-0.52545 -0.20817,-0.1551 -0.44681,-0.29105 -0.71035,-0.40517 -0.52968,-0.22935 -1.14936,-0.36568 -1.78961,-0.39361 -0.64149,-0.028 -1.27282,0.0544 -1.81658,0.23456 -1.08054,0.2907 -2.00073,0.81337 -2.75908,1.47908 -0.76125,0.66827 -1.37117,1.49127 -1.8131,2.39151 -0.44293,0.90228 -0.71136,1.87057 -0.79836,2.81851 -0.0872,0.9506 0.0104,1.84949 0.26704,2.62669 0.41474,1.62882 1.10272,2.69386 1.86582,3.38918 0.76045,0.6929 1.71483,1.12797 2.8495,1.31779 1.15286,0.19286 2.50203,0.13177 3.976,-0.20632 1.47028,-0.33724 3.01309,-0.93883 4.51911,-1.77134 1.50455,-0.8317 2.94113,-1.87672 4.20343,-3.07425 1.26374,-1.19889 2.32615,-2.52518 3.11081,-3.90863 0.78461,-1.38337 1.27198,-2.78815 1.43929,-4.16353 0.11766,-0.96723 0.0789,-1.93102 -0.13176,-2.88889 -0.0879,-0.39981 -0.20723,-0.80304 -0.36092,-1.20938 -0.75485,-1.91257 -1.92644,-3.4345 -3.35231,-4.59634 -1.43201,-1.16684 -3.16036,-2.00268 -5.0665,-2.48835 -1.91009,-0.48667 -3.992,-0.61971 -6.1141,-0.3826 -2.12233,0.23714 -4.26172,0.84176 -6.29445,1.80999 -2.09964,0.99344 -3.96496,2.42049 -5.5593,4.15336 -1.20623,1.31103 -2.25944,2.79971 -3.13647,4.40823 -0.27735,0.50866 -0.54503,1.04121 -0.79911,1.59718 -0.94275,2.06293 -1.68102,4.4144 -2.01941,6.93237 -0.30474,2.26764 -0.27192,4.58499 0.18248,6.80052 0.64873,3.20719 1.61484,5.46576 2.72715,7.03518 0.53826,0.75947 1.123,1.37607 1.75523,1.88205 0.63068,0.50474 1.3577,0.93872 2.21533,1.2932 1.7568,0.72614 4.14255,1.14858 7.36997,1.03315 3.35863,-0.12012 7.33922,-0.81249 11.92609,-2.06842 l -0.044,0.0131 c 12.37743,-3.6278 25.10615,-7.53098 39.84382,-10.96578 16.91913,-3.94322 32.92077,-6.37724 48.43643,-6.88625 11.97515,-0.39287 22.5362,0.40557 31.87901,1.98372 6.68484,1.12918 13.1776,2.895 19.44269,5.25683 16.87174,6.36034 32.12144,17.02829 45.92814,31.83918 z"
       id="path1"
       sodipodi:nodetypes="csssssssc"
       inkscape:original-d="m 188.40527,497.40614 c 58.62206,-56.10969 138.83477,-29.06699 183.81522,-15.52967 19.91577,5.82678 30.83561,1.88743 33.89533,-13.66006 2.30468,-11.71087 -4.27176,-25.49085 -15.68337,-29.93882 -10.54842,-4.11152 -22.53112,-0.50583 -25.90442,9.38793 -5.24488,15.38311 23.2789,30.2152 26.99548,14.14367 1.04306,-4.51048 -1.77187,-10.26975 -7.11256,-11.37979 -2.98568,-0.62055 -6.90231,0.9588 -6.38519,4.30795 0.19083,1.23589 2.46872,3.59578 3.37445,1.76795"
       inkscape:path-effect="#path-effect1;#path-effect2"
       transform="translate(-6.81841,9.5119925)" />
  </g>
</svg>
