<?xml version="1.0" encoding="UTF-8" standalone="no"?>
<svg
   width="825"
   height="1125"
   viewBox="0 0 825 1125"
   version="1.1"
   id="svg21608"
   inkscape:version="1.2.2 (732a01da63, 2022-12-09)"
   sodipodi:docname="spell.svg"
   xmlns:inkscape="http://www.inkscape.org/namespaces/inkscape"
   xmlns:sodipodi="http://sodipodi.sourceforge.net/DTD/sodipodi-0.dtd"
   xmlns="http://www.w3.org/2000/svg"
   xmlns:svg="http://www.w3.org/2000/svg"
   xmlns:rdf="http://www.w3.org/1999/02/22-rdf-syntax-ns#"
   xmlns:cc="http://creativecommons.org/ns#"
   xmlns:dc="http://purl.org/dc/elements/1.1/">
  <defs
     id="defs21602">
    <inkscape:path-effect
       effect="mirror_symmetry"
       start_point="463.64373,689.09537"
       end_point="384.02979,744.62689"
       center_point="423.83676,716.86113"
       id="path-effect3739"
       is_visible="true"
       lpeversion="1.2"
       lpesatellites=""
       mode="free"
       discard_orig_path="false"
       fuse_paths="false"
       oposite_fuse="false"
       split_items="false"
       split_open="false"
       link_styles="false" />
    <inkscape:path-effect
       effect="powerstroke"
       id="path-effect3715"
       is_visible="true"
       lpeversion="1"
       offset_points="4.4409138,4.8853418 | 6.8894152,9.2364212 | 7.4405478,10.623788 | 8.4413336,11.958129 | 10.861161,4.3509206"
       not_jump="false"
       sort_points="true"
       interpolator_type="CentripetalCatmullRom"
       interpolator_beta="0.2"
       start_linecap_type="zerowidth"
       linejoin_type="round"
       miter_limit="4"
       scale_width="1"
       end_linecap_type="zerowidth" />
    <inkscape:path-effect
       effect="powerstroke"
       id="path-effect3483"
       is_visible="true"
       lpeversion="1"
       offset_points="5.8219604,9.0961564 | 3.0777788,1.8149216 | 7.9635728,6.6171982"
       not_jump="false"
       sort_points="true"
       interpolator_type="CentripetalCatmullRom"
       interpolator_beta="0.2"
       start_linecap_type="zerowidth"
       linejoin_type="round"
       miter_limit="4"
       scale_width="1"
       end_linecap_type="zerowidth" />
    <inkscape:path-effect
       effect="mirror_symmetry"
       start_point="-195.50829,623.1847"
       end_point="-195.50829,781.69524"
       center_point="-195.50829,702.43997"
       id="path-effect3481"
       is_visible="true"
       lpeversion="1.2"
       lpesatellites=""
       mode="free"
       discard_orig_path="false"
       fuse_paths="false"
       oposite_fuse="false"
       split_items="false"
       split_open="false"
       link_styles="false" />
    <inkscape:path-effect
       effect="mirror_symmetry"
       start_point="413.61635,464.83246"
       end_point="413.61635,587.33772"
       center_point="413.61635,526.08509"
       id="path-effect3476"
       is_visible="true"
       lpeversion="1.2"
       lpesatellites=""
       mode="free"
       discard_orig_path="false"
       fuse_paths="false"
       oposite_fuse="false"
       split_items="false"
       split_open="false"
       link_styles="false" />
    <inkscape:path-effect
       effect="powerstroke"
       id="path-effect3472"
       is_visible="true"
       lpeversion="1"
       offset_points="0.70338932,2.7202909 | 1.0495578,5.2590222 | 1.618221,3.5795042"
       not_jump="false"
       sort_points="true"
       interpolator_type="CentripetalCatmullRom"
       interpolator_beta="0.2"
       start_linecap_type="zerowidth"
       linejoin_type="round"
       miter_limit="4"
       scale_width="1"
       end_linecap_type="zerowidth" />
    <inkscape:path-effect
       effect="mirror_symmetry"
       start_point="455.6451,450.29037"
       end_point="455.6451,572.79563"
       center_point="455.6451,511.543"
       id="path-effect3431"
       is_visible="true"
       lpeversion="1.2"
       lpesatellites=""
       mode="free"
       discard_orig_path="false"
       fuse_paths="false"
       oposite_fuse="false"
       split_items="false"
       split_open="false"
       link_styles="false" />
    <inkscape:path-effect
       effect="powerstroke"
       id="path-effect3429"
       is_visible="true"
       lpeversion="1"
       offset_points="1.5515824,4.6912351 | 4.2078236,4.7861086 | 6.2782644,11.241927 | 7.2348538,9.0337868"
       not_jump="false"
       sort_points="true"
       interpolator_type="CentripetalCatmullRom"
       interpolator_beta="0.2"
       start_linecap_type="zerowidth"
       linejoin_type="round"
       miter_limit="4"
       scale_width="1"
       end_linecap_type="zerowidth" />
    <inkscape:path-effect
       effect="taper_stroke"
       id="path-effect3393"
       is_visible="true"
       lpeversion="1"
       stroke_width="22.87"
       attach_start="0.2"
       end_offset="0.2"
       start_smoothing="0.5"
       end_smoothing="0.5"
       jointype="extrapolated"
       start_shape="center"
       end_shape="center"
       miter_limit="100" />
    <inkscape:path-effect
       effect="powerstroke"
       id="path-effect3391"
       is_visible="true"
       lpeversion="1"
       offset_points="0.2,12.28345 | 4.5,12.28345 | 8.8,12.28345"
       not_jump="false"
       sort_points="true"
       interpolator_type="CubicBezierJohan"
       interpolator_beta="0.24"
       start_linecap_type="peak"
       linejoin_type="round"
       miter_limit="5.2"
       scale_width="0.8"
       end_linecap_type="zerowidth" />
    <inkscape:path-effect
       effect="spiro"
       id="path-effect3389"
       is_visible="true"
       lpeversion="1" />
    <inkscape:path-effect
       effect="fill_between_many"
       method="bsplinespiro"
       linkedpaths="#path2637,0,1"
       id="path-effect3395" />
  </defs>
  <sodipodi:namedview
     id="base"
     pagecolor="#ffffff"
     bordercolor="#666666"
     borderopacity="1.0"
     inkscape:pageopacity="0.0"
     inkscape:pageshadow="2"
     inkscape:zoom="0.87072287"
     inkscape:cx="338.22472"
     inkscape:cy="565.04775"
     inkscape:document-units="px"
     inkscape:current-layer="layer2"
     inkscape:document-rotation="0"
     showgrid="false"
     units="px"
     width="300px"
     inkscape:snap-bbox="true"
     inkscape:bbox-paths="true"
     inkscape:bbox-nodes="true"
     inkscape:showpageshadow="2"
     inkscape:pagecheckerboard="0"
     inkscape:deskcolor="#d1d1d1"
     inkscape:window-width="1512"
     inkscape:window-height="842"
     inkscape:window-x="0"
     inkscape:window-y="38"
     inkscape:window-maximized="0" />
  <metadata
     id="metadata21605">
    <rdf:RDF>
      <cc:Work
         rdf:about="">
        <dc:format>image/svg+xml</dc:format>
        <dc:type
           rdf:resource="http://purl.org/dc/dcmitype/StillImage" />
        <dc:title />
      </cc:Work>
    </rdf:RDF>
  </metadata>
  <g
     inkscape:label="Old"
     inkscape:groupmode="layer"
     id="layer1"
     style="display:none"
     sodipodi:insensitive="true">
    <path
       id="rect10"
       style="display:inline;fill:#e6e6e6;stroke:#000000;stroke-width:0.944878;stroke-miterlimit:4;stroke-dasharray:none;stop-color:#000000"
       d="M 228.21386,470.45508 136.16894,562.5 l 92.04492,92.04492 0.40821,-0.4082 v 0.60351 h 368.57031 v -0.60156 L 688.83105,562.5 597.19239,470.86133 v -0.40625 h -0.40625 -368.16407 v 0.4082 z" />
    <path
       style="display:inline;fill:none;stroke:#000000;stroke-width:0.999999px;stroke-linecap:butt;stroke-linejoin:miter;stroke-opacity:1"
       d="M 84.849839,562.5 H 740.15016"
       id="path8" />
  </g>
  <g
     inkscape:groupmode="layer"
     id="layer2"
     inkscape:label="New">
    <path
       id="path2637"
       style="display:inline;opacity:1;vector-effect:none;fill:#000000;fill-opacity:1;fill-rule:nonzero;stroke:none;stroke-width:31.1544;stroke-linecap:round;paint-order:stroke fill markers;stop-color:#000000;stop-opacity:1"
       d="m 99.362859,513.87392 c -0.143789,-1.93494 -0.643009,-4.58067 -2.27016,-7.02569 -1.163574,-1.74842 -2.956429,-3.43521 -5.432333,-4.26271 -1.104467,-0.36914 -2.336206,-0.5605 -3.655757,-0.48578 -1.260264,0.0714 -2.57869,0.38483 -3.89905,0.99332 -1.276836,0.58843 -2.53089,1.44162 -3.713271,2.57909 -1.156059,1.11215 -2.231582,2.48441 -3.19077,4.12418 -0.100291,0.23667 -0.182441,0.43232 -0.176336,0.41997 -1.362948,3.2171 -1.928594,6.38211 -1.711392,9.4506 0.21966,3.1032 1.225446,5.88574 2.691388,8.27916 0.307102,0.50141 0.632929,0.98342 0.973845,1.44598 1.282983,1.74076 2.842466,3.28312 4.577077,4.61888 2.064491,1.58979 4.364993,2.87755 6.712202,3.8567 3.556386,1.47696 7.28628,2.02963 10.971158,1.72944 3.55663,-0.28974 6.98771,-1.36694 10.10236,-3.06149 3.04897,-1.65881 5.79778,-3.9107 8.07043,-6.59881 2.25171,-2.66332 4.04421,-5.7637 5.19014,-9.15458 1.51034,-4.42276 1.9046,-8.89902 1.39791,-13.18345 -0.50986,-4.31128 -1.92614,-8.39177 -3.99087,-12.04303 -4.26985,-7.55078 -11.29779,-13.29295 -19.3793,-16.01456 -4.406962,-1.46852 -8.808669,-2.02893 -13.034587,-1.88572 -0.874456,0.0296 -1.746324,0.0893 -2.61443,0.17829 -5.117696,0.52463 -10.096462,2.06827 -14.680188,4.47437 -9.135453,4.79542 -16.804946,13.08768 -20.575399,23.5805 -2.236715,6.41136 -2.937235,12.96818 -2.34574,19.31208 0.605673,6.49597 2.561838,12.7096 5.527244,18.29072 6.378412,12.00464 17.257743,20.91048 29.829384,24.82638 4.229923,1.29113 8.417108,1.85513 12.468589,1.86537 4.231917,0.0107 8.271857,-0.58092 12.052547,-1.54899 0.88307,-0.22612 1.75284,-0.47305 2.60849,-0.73814 7.01776,-2.17414 13.40106,-5.59046 18.84859,-9.16241 6.8019,-4.46001 12.93125,-9.68241 18.05845,-14.5728 5.56603,-5.30895 10.49123,-10.74384 14.54202,-15.53019 4.47637,-5.22415 8.57497,-10.22672 12.8331,-15.11635 -0.0449,0.0516 0.86071,-0.98707 0.81581,-0.93552 4.26089,-4.87808 8.86073,-10.00232 14.34454,-14.95726 5.64865,-5.10389 11.81279,-9.64413 19.00939,-13.6984 10.09967,-5.68973 20.26133,-9.26024 27.47281,-11.28624 -7.34606,0.73748 -18.28831,1.96834 -29.97206,5.10883 -8.38813,2.25467 -16.26505,5.2446 -23.82818,9.18385 -7.37796,3.84281 -13.80158,8.25346 -19.35181,12.73878 -0.35517,0.28703 -0.70608,0.57384 -1.05261,0.86017 -5.41814,4.47701 -10.44481,9.21875 -15.31965,13.92442 -4.35313,4.1377 -9.33841,8.93892 -14.44275,13.43197 -4.78632,4.21311 -10.02561,8.46919 -15.42495,11.9676 -4.36244,2.82657 -8.84313,5.16781 -13.27688,6.59501 -0.53122,0.171 -1.06057,0.32965 -1.58793,0.47536 -2.25562,0.62322 -4.474064,1.00963 -6.654026,1.11424 -2.06957,0.0993 -4.175301,-0.0514 -6.325036,-0.54418 -7.461299,-1.68333 -14.935202,-6.28636 -19.981423,-13.37805 -2.359941,-3.31653 -4.161788,-7.13115 -5.114209,-11.27005 -0.92464,-4.01818 -1.058478,-8.39085 -0.06037,-12.91364 1.480484,-7.28263 5.949939,-13.96132 12.370134,-18.24377 3.173402,-2.11674 6.737914,-3.58279 10.478429,-4.22309 0.633772,-0.10849 1.272163,-0.1932 1.914149,-0.25339 3.095971,-0.29029 6.377462,-0.0256 9.715206,0.97327 6.006642,1.7649 11.327892,6.00374 14.474142,11.66923 1.50577,2.71146 2.4667,5.67586 2.76322,8.71961 0.29329,3.01062 -0.062,6.10433 -1.18768,9.14422 -0.83387,2.21303 -2.10558,4.24249 -3.68339,5.97677 -1.59553,1.75377 -3.47315,3.17238 -5.47587,4.18207 -2.03695,1.02695 -4.17587,1.61616 -6.27544,1.75063 -2.155425,0.13804 -4.30796,-0.19603 -6.396915,-1.04545 -1.687478,-0.68326 -3.298438,-1.5302 -4.730015,-2.50062 -1.197168,-0.81152 -2.230679,-1.68286 -3.094033,-2.59287 -0.229446,-0.24185 -0.449786,-0.48997 -0.659825,-0.74456 -0.980724,-1.18875 -1.777076,-2.565 -2.20506,-4.19361 -0.427035,-1.625 -0.52286,-3.63747 0.07137,-6.11818 l -0.176336,0.41997 c 0.501267,-1.27558 1.058149,-2.31779 1.633618,-3.16363 0.586907,-0.86267 1.203424,-1.53643 1.823166,-2.05461 0.640588,-0.53561 1.30692,-0.92381 1.986781,-1.18113 0.714951,-0.27061 1.459187,-0.40176 2.216785,-0.39585 1.725173,0.0135 3.41408,0.73427 4.822249,1.93082 1.967498,1.67181 3.059021,3.95324 3.579302,5.88695 z m 712.564481,0 c 0.14379,-1.93494 0.64301,-4.58067 2.27016,-7.02569 1.16357,-1.74842 2.95643,-3.43521 5.43233,-4.26271 1.10447,-0.36914 2.33621,-0.5605 3.65576,-0.48578 1.26026,0.0714 2.57869,0.38483 3.89905,0.99332 1.27684,0.58843 2.53089,1.44162 3.71327,2.57909 1.15606,1.11215 2.23158,2.48441 3.19077,4.12418 0.10029,0.23667 0.18244,0.43232 0.17634,0.41997 1.36295,3.2171 1.92859,6.38211 1.71139,9.4506 -0.21966,3.1032 -1.22545,5.88574 -2.69139,8.27916 -0.3071,0.50141 -0.63293,0.98342 -0.97384,1.44598 -1.28299,1.74076 -2.84247,3.28312 -4.57708,4.61888 -2.06449,1.58979 -4.36499,2.87755 -6.7122,3.8567 -3.55639,1.47696 -7.28628,2.02963 -10.97116,1.72944 -3.55663,-0.28974 -6.98771,-1.36694 -10.10236,-3.06149 -3.04897,-1.65881 -5.79778,-3.9107 -8.07043,-6.59881 -2.25171,-2.66332 -4.04421,-5.7637 -5.19014,-9.15458 -1.51034,-4.42276 -1.9046,-8.89902 -1.39791,-13.18345 0.50986,-4.31128 1.92614,-8.39177 3.99087,-12.04303 4.26985,-7.55078 11.29779,-13.29295 19.3793,-16.01456 4.40696,-1.46852 8.80867,-2.02893 13.03459,-1.88572 0.87445,0.0296 1.74632,0.0893 2.61443,0.17829 5.11769,0.52463 10.09646,2.06827 14.68018,4.47437 9.13546,4.79542 16.80495,13.08768 20.5754,23.5805 2.23672,6.41136 2.93724,12.96818 2.34574,19.31208 -0.60567,6.49597 -2.56183,12.7096 -5.52724,18.29072 -6.37841,12.00464 -17.25774,20.91048 -29.82938,24.82638 -4.22993,1.29113 -8.41711,1.85513 -12.46859,1.86537 -4.23192,0.0107 -8.27186,-0.58092 -12.05255,-1.54899 -0.88307,-0.22612 -1.75284,-0.47305 -2.60849,-0.73814 -7.01776,-2.17414 -13.40106,-5.59046 -18.84859,-9.16241 -6.8019,-4.46001 -12.93125,-9.68241 -18.05845,-14.5728 -5.56603,-5.30895 -10.49123,-10.74384 -14.54202,-15.53019 -4.47637,-5.22415 -8.57497,-10.22672 -12.8331,-15.11635 0.0449,0.0516 -0.86071,-0.98707 -0.81581,-0.93552 -4.26089,-4.87808 -8.86073,-10.00232 -14.34454,-14.95726 -5.64865,-5.10389 -11.81279,-9.64413 -19.00939,-13.6984 -10.09967,-5.68973 -20.26133,-9.26024 -27.47281,-11.28624 7.34606,0.73748 18.28831,1.96834 29.97206,5.10883 8.38813,2.25467 16.26505,5.2446 23.82818,9.18385 7.37796,3.84281 13.80158,8.25346 19.35181,12.73878 0.35517,0.28703 0.70608,0.57384 1.05261,0.86017 5.41814,4.47701 10.44481,9.21875 15.31965,13.92442 4.35313,4.1377 9.33841,8.93892 14.44275,13.43197 4.78632,4.21311 10.02561,8.46919 15.42495,11.9676 4.36244,2.82657 8.84313,5.16781 13.27688,6.59501 0.53122,0.171 1.06057,0.32965 1.58793,0.47536 2.25562,0.62322 4.47406,1.00963 6.65403,1.11424 2.06957,0.0993 4.1753,-0.0514 6.32503,-0.54418 7.4613,-1.68333 14.9352,-6.28636 19.98142,-13.37805 2.35995,-3.31653 4.16179,-7.13115 5.11421,-11.27005 0.92464,-4.01818 1.05848,-8.39085 0.0604,-12.91364 -1.48048,-7.28263 -5.94994,-13.96132 -12.37013,-18.24377 -3.17341,-2.11674 -6.73792,-3.58279 -10.47843,-4.22309 -0.63378,-0.10849 -1.27217,-0.1932 -1.91415,-0.25339 -3.09597,-0.29029 -6.37746,-0.0256 -9.71521,0.97327 -6.00664,1.7649 -11.32789,6.00374 -14.47414,11.66923 -1.50577,2.71146 -2.4667,5.67586 -2.76322,8.71961 -0.29329,3.01062 0.062,6.10433 1.18768,9.14422 0.83387,2.21303 2.10558,4.24249 3.68339,5.97677 1.59553,1.75377 3.47315,3.17238 5.47587,4.18207 2.03695,1.02695 4.17587,1.61616 6.27544,1.75063 2.15543,0.13804 4.30796,-0.19603 6.39691,-1.04545 1.68748,-0.68326 3.29844,-1.5302 4.73002,-2.50062 1.19717,-0.81152 2.23068,-1.68286 3.09403,-2.59287 0.22945,-0.24185 0.44979,-0.48997 0.65983,-0.74456 0.98072,-1.18875 1.77707,-2.565 2.20506,-4.19361 0.42703,-1.625 0.52286,-3.63747 -0.0714,-6.11818 l 0.17633,0.41997 c -0.50126,-1.27558 -1.05815,-2.31779 -1.63362,-3.16363 -0.5869,-0.86267 -1.20342,-1.53643 -1.82316,-2.05461 -0.64059,-0.53561 -1.30692,-0.92381 -1.98678,-1.18113 -0.71495,-0.27061 -1.45919,-0.40176 -2.21679,-0.39585 -1.72517,0.0135 -3.41408,0.73427 -4.82225,1.93082 -1.9675,1.67181 -3.05902,3.95324 -3.5793,5.88695 z"
       sodipodi:nodetypes="ccssssssc"
       inkscape:linked-fill="path3397"
       class="UnoptimicedTransforms"
       inkscape:original-d="m 99.362859,513.87392 c -1.786528,-10.5017 -13.314991,-14.12317 -19.111621,-2.55007 -3.919556,11.41686 4.094355,18.67168 11.930341,21.90058 11.499621,4.73854 24.133931,-2.79661 28.082851,-13.97473 5.26327,-14.89867 -4.48428,-30.7594 -19.01097,-35.38705 -18.280367,-5.82342 -37.405208,6.1679 -42.691262,24.04721 -6.402111,21.65423 7.849066,44.0626 29.083441,49.99546 25.023981,6.99167 50.690431,-17.83661 68.145131,-36.36358 20.00374,-21.23258 37.61962,-40.50911 81.99998,-48.90491"
       inkscape:path-effect="#path-effect3429;#path-effect3431"
       transform="matrix(0.78855357,0,0,0.78855357,61.469278,108.22168)" />
    <path
       id="path3478"
       style="display:inline;fill:#000000;fill-opacity:1;fill-rule:nonzero;stroke:none"
       transform="rotate(180,112.64008,638.56937)"
       d="m 118.41333,660.26118 c -0.17325,-0.0309 -0.33626,-0.0731 -0.48218,-0.12994 -0.12937,-0.0504 -0.24265,-0.11111 -0.33679,-0.18316 -0.0857,-0.0656 -0.15382,-0.13926 -0.20411,-0.22075 -0.0465,-0.0754 -0.078,-0.15776 -0.0943,-0.24748 -0.0154,-0.0845 -0.0176,-0.17667 -0.006,-0.27713 0.0115,-0.0955 0.0359,-0.19853 0.0742,-0.30897 0.072,-0.20773 0.19214,-0.43856 0.3607,-0.68593 0.15697,-0.23036 0.35338,-0.47115 0.58229,-0.71126 0.2164,-0.227 0.4598,-0.45116 0.71835,-0.65863 0.24731,-0.19844 0.50656,-0.38 0.76248,-0.5298 0.24756,-0.14491 0.4873,-0.25726 0.70193,-0.32488 1.19456,-0.42415 2.2859,-0.51086 3.24287,-0.3325 0.91905,0.17128 1.70629,0.58575 2.33424,1.16462 0.61523,0.56715 1.07395,1.28924 1.34706,2.07964 0.2715,0.78572 0.35429,1.62362 0.2377,2.42206 -0.17424,1.50336 -0.79362,2.92438 -1.72703,4.22024 -0.95402,1.32448 -2.2297,2.50677 -3.67581,3.49298 -1.50096,1.0236 -3.1639,1.822 -4.82904,2.36536 -1.76814,0.57698 -3.49641,0.85384 -5.05012,0.85107 -0.75712,0.0182 -1.46673,-0.0164 -2.12878,-0.0938 -1.4886,-0.17414 -2.78319,-0.57483 -3.87786,-1.13162 -1.58929,-0.80839 -2.75126,-1.93786 -3.52612,-3.21377 -0.77454,-1.27537 -1.17035,-2.71215 -1.21513,-4.1887 -0.045,-1.484 0.2629,-3.03243 0.92599,-4.55819 0.82563,-2.16299 2.20594,-4.18989 3.9948,-6.00836 1.8065,-1.8364 4.0212,-3.45075 6.46826,-4.75508 2.46991,-1.31651 5.12658,-2.29066 7.76688,-2.86908 2.67573,-0.58618 5.24098,-0.74618 7.52592,-0.51187 3.00221,0.2321 5.27329,1.03957 6.95004,2.04947 1.6811,1.01252 2.82903,2.26943 3.59364,3.56277 0.77864,1.31705 1.2546,2.83096 1.40489,4.49042 0.0444,0.48977 0.0609,0.99901 0.0466,1.52667 -0.0354,1.30125 -0.27205,2.74994 -0.78922,4.31442 -0.8814,2.69308 -1.96415,5.44247 -3.33565,8.05585 -1.37281,2.61585 -2.98947,5.00842 -4.9082,7.05709 -1.91966,2.04965 -4.16877,3.78586 -6.86799,5.08593 -2.64594,1.27442 -5.88923,2.20924 -9.92691,2.51187 h 0 c -12.16839,-1.16015 -22.701001,0.0635 -31.87506,3.04819 -9.756605,3.17422 -17.715651,8.25605 -24.291523,14.1582 -6.908236,6.20046 -12.408223,13.41562 -16.908886,20.49371 -4.120326,6.47993 -7.633358,13.21975 -10.633311,19.38073 -0.537917,1.10472 -1.067792,2.21088 -1.590996,3.31715 -2.640461,5.77754 -4.888302,10.80502 -7.212798,15.43671 -2.385546,4.75334 -4.741849,8.86219 -7.490389,12.68925 -3.098994,4.31504 -6.5359939,8.03572 -10.4917934,11.48333 -5.5284039,4.81819 -11.5581017,8.61907 -16.1474176,11.17834 4.7878551,-1.84348 11.65188015,-4.5554 18.2360464,-8.17289 4.7694926,-2.62048 9.3661236,-5.68518 13.7724096,-9.57737 3.933788,-3.47482 7.495737,-7.4094 10.989136,-12.05771 3.36294,-4.47473 6.547834,-9.45837 9.816632,-14.97338 0.598682,-1.03643 1.195945,-2.06646 1.795386,-3.09324 3.363479,-5.76128 7.041588,-11.7794 11.103999,-17.39503 4.453694,-6.15651 9.421861,-11.90903 15.178173,-16.6042 5.415506,-4.41719 11.586397,-7.95118 18.892985,-10.06353 7.01201,-2.02719 15.411517,-2.84622 25.716587,-1.59135 0.35664,0.0434 0.8038,0.0599 1.31781,0.0484 6.38972,-0.14233 12.1581,-1.40882 17.29294,-3.67933 5.03727,-2.22737 9.22302,-5.31417 12.66289,-8.86813 3.38658,-3.49889 5.98567,-7.38175 7.9909,-11.22492 1.99919,-3.8316 3.43404,-7.67323 4.48233,-11.1528 1.00623,-3.30962 1.47967,-6.65179 1.41383,-9.92556 -0.0266,-1.32278 -0.14331,-2.63688 -0.35145,-3.93385 -0.7176,-4.47157 -2.51278,-8.67339 -5.32152,-12.23109 -2.76565,-3.50313 -6.409,-6.24812 -10.68324,-8.01543 -4.20594,-1.73907 -8.91002,-2.48849 -13.89633,-2.22108 -3.98773,0.25898 -7.92614,1.2324 -11.59536,2.70957 -3.63844,1.46479 -7.09093,3.45623 -10.14882,5.84378 -3.03326,2.36832 -5.72242,5.16124 -7.818128,8.27145 -2.084676,3.09385 -3.59619,6.5245 -4.238579,10.15417 -0.433754,2.80175 -0.239982,5.50817 0.50162,7.9526 0.739523,2.43757 2.014199,4.58463 3.712266,6.30506 1.695851,1.71818 3.785471,2.984 6.152461,3.72981 1.62763,0.51284 3.38186,0.77927 5.24033,0.7871 0.82736,0.003 1.68839,-0.0451 2.58226,-0.15232 1.88933,-0.26335 3.8596,-0.83344 5.7796,-1.68511 1.81283,-0.80414 3.58816,-1.86355 5.16518,-3.14236 1.51969,-1.23233 2.86048,-2.67352 3.84393,-4.27279 0.96524,-1.56966 1.58407,-3.28936 1.67929,-5.09 0.0334,-1.0366 -0.18128,-2.06082 -0.59544,-2.97695 -0.41794,-0.92448 -1.0395,-1.74074 -1.82199,-2.36059 -0.8018,-0.63513 -1.75979,-1.05457 -2.82799,-1.19247 -1.10951,-0.14324 -2.31151,0.0198 -3.56977,0.51788 -0.25502,0.10875 -0.51956,0.26231 -0.77609,0.43896 -0.26715,0.18395 -0.53191,0.39724 -0.78,0.62369 -0.25961,0.23697 -0.50206,0.48932 -0.71561,0.74336 -0.22582,0.26864 -0.41862,0.53818 -0.57023,0.7981 -0.16257,0.2787 -0.27682,0.54452 -0.33739,0.7896 -0.0323,0.13059 -0.0492,0.25489 -0.0504,0.37201 -0.001,0.1235 0.015,0.23796 0.0484,0.34248 0.0355,0.11125 0.0897,0.20886 0.15966,0.29309 0.0752,0.0905 0.16729,0.16404 0.27156,0.22315 0.1142,0.0647 0.24343,0.11242 0.3822,0.14641 0.1567,0.0384 0.32651,0.0596 0.50176,0.0677 z m -627.84324,0 c 0.17325,-0.0309 0.33626,-0.0731 0.48218,-0.12994 0.12937,-0.0504 0.24265,-0.11111 0.33679,-0.18316 0.0857,-0.0656 0.15382,-0.13926 0.20411,-0.22075 0.0466,-0.0754 0.078,-0.15776 0.0943,-0.24748 0.0154,-0.0845 0.0176,-0.17667 0.006,-0.27713 -0.0115,-0.0955 -0.0359,-0.19853 -0.0741,-0.30897 -0.072,-0.20773 -0.19214,-0.43856 -0.3607,-0.68593 -0.15697,-0.23036 -0.35338,-0.47115 -0.58229,-0.71126 -0.2164,-0.227 -0.4598,-0.45116 -0.71835,-0.65863 -0.24731,-0.19844 -0.50656,-0.38 -0.76248,-0.5298 -0.24756,-0.14491 -0.4873,-0.25726 -0.70193,-0.32488 -1.19456,-0.42415 -2.2859,-0.51086 -3.24287,-0.3325 -0.91905,0.17128 -1.70629,0.58575 -2.33424,1.16462 -0.61523,0.56715 -1.07395,1.28924 -1.34706,2.07964 -0.2715,0.78572 -0.35429,1.62362 -0.2377,2.42206 0.17424,1.50336 0.79362,2.92438 1.72703,4.22024 0.95402,1.32448 2.2297,2.50677 3.67581,3.49298 1.50096,1.0236 3.1639,1.822 4.82904,2.36536 1.76814,0.57698 3.49641,0.85384 5.05012,0.85107 0.75712,0.0182 1.46673,-0.0164 2.12878,-0.0938 1.4886,-0.17414 2.78319,-0.57483 3.87786,-1.13162 1.58929,-0.80839 2.75126,-1.93786 3.52612,-3.21377 0.77454,-1.27537 1.17035,-2.71215 1.21513,-4.1887 0.045,-1.484 -0.2629,-3.03243 -0.92599,-4.55819 -0.82563,-2.16299 -2.20594,-4.18989 -3.9948,-6.00836 -1.8065,-1.8364 -4.0212,-3.45075 -6.46826,-4.75508 -2.46991,-1.31651 -5.12658,-2.29066 -7.76688,-2.86908 -2.67573,-0.58618 -5.24098,-0.74618 -7.52592,-0.51187 -3.00221,0.2321 -5.27329,1.03957 -6.95004,2.04947 -1.6811,1.01252 -2.82903,2.26943 -3.59364,3.56277 -0.77864,1.31705 -1.2546,2.83096 -1.40489,4.49042 -0.0444,0.48977 -0.0609,0.99901 -0.0466,1.52667 0.0354,1.30125 0.27205,2.74994 0.78922,4.31442 0.8814,2.69308 1.96415,5.44247 3.33565,8.05585 1.37281,2.61585 2.98947,5.00842 4.9082,7.05709 1.91966,2.04965 4.16877,3.78586 6.86799,5.08593 2.64594,1.27442 5.88923,2.20924 9.92691,2.51187 h 0 c 12.16839,-1.16015 22.701,0.0635 31.87506,3.04819 9.7566,3.17422 17.71565,8.25605 24.29152,14.1582 6.90824,6.20046 12.40823,13.41562 16.90889,20.49371 4.12033,6.47993 7.63336,13.21975 10.63331,19.38073 0.53792,1.10472 1.06779,2.21088 1.591,3.31715 2.64046,5.77754 4.8883,10.80502 7.21279,15.43671 2.38555,4.75334 4.74185,8.86219 7.49039,12.68925 3.099,4.31504 6.536,8.03572 10.4918,11.48333 5.5284,4.81819 11.5581,8.61907 16.14741,11.17834 -4.78785,-1.84348 -11.65188,-4.5554 -18.23604,-8.17289 -4.7695,-2.62048 -9.36613,-5.68518 -13.77241,-9.57737 -3.93379,-3.47482 -7.49574,-7.4094 -10.98914,-12.05771 -3.36294,-4.47473 -6.54783,-9.45837 -9.81663,-14.97338 -0.59868,-1.03643 -1.19594,-2.06646 -1.79539,-3.09324 -3.36348,-5.76128 -7.04158,-11.7794 -11.10399,-17.39503 -4.4537,-6.15651 -9.42187,-11.90903 -15.17818,-16.6042 -5.4155,-4.41719 -11.58639,-7.95118 -18.89298,-10.06353 -7.01201,-2.02719 -15.41152,-2.84622 -25.71659,-1.59135 -0.35664,0.0434 -0.8038,0.0599 -1.31781,0.0484 -6.38972,-0.14233 -12.1581,-1.40882 -17.29294,-3.67933 -5.03727,-2.22737 -9.22302,-5.31417 -12.66289,-8.86813 -3.38658,-3.49889 -5.98567,-7.38175 -7.9909,-11.22492 -1.99919,-3.8316 -3.43404,-7.67323 -4.48233,-11.1528 -1.00623,-3.30962 -1.47967,-6.65179 -1.41383,-9.92556 0.0266,-1.32278 0.14331,-2.63688 0.35145,-3.93385 0.7176,-4.47157 2.51278,-8.67339 5.32152,-12.23109 2.76565,-3.50313 6.409,-6.24812 10.68324,-8.01543 4.20594,-1.73907 8.91002,-2.48849 13.89633,-2.22108 3.98773,0.25898 7.92614,1.2324 11.59536,2.70957 3.63844,1.46479 7.09093,3.45623 10.14882,5.84378 3.03326,2.36832 5.72242,5.16124 7.81813,8.27145 2.08467,3.09385 3.59619,6.5245 4.23858,10.15417 0.43375,2.80175 0.23998,5.50817 -0.50162,7.9526 -0.73953,2.43757 -2.0142,4.58463 -3.71227,6.30506 -1.69585,1.71818 -3.78547,2.984 -6.15246,3.72981 -1.62763,0.51284 -3.38186,0.77927 -5.24033,0.7871 -0.82736,0.003 -1.68839,-0.0451 -2.58226,-0.15232 -1.88933,-0.26335 -3.8596,-0.83344 -5.7796,-1.68511 -1.81283,-0.80414 -3.58816,-1.86355 -5.16518,-3.14236 -1.51969,-1.23233 -2.86048,-2.67352 -3.84393,-4.27279 -0.96524,-1.56966 -1.58407,-3.28936 -1.67929,-5.09 -0.0334,-1.0366 0.18128,-2.06082 0.59544,-2.97695 0.41794,-0.92448 1.0395,-1.74074 1.82199,-2.36059 0.8018,-0.63513 1.75979,-1.05457 2.82799,-1.19247 1.10951,-0.14324 2.31151,0.0198 3.56977,0.51788 0.25502,0.10875 0.51956,0.26231 0.77609,0.43896 0.26715,0.18395 0.53191,0.39724 0.78,0.62369 0.25961,0.23697 0.50206,0.48932 0.71561,0.74336 0.22582,0.26864 0.41862,0.53818 0.57023,0.7981 0.16257,0.2787 0.27682,0.54452 0.33739,0.7896 0.0323,0.13059 0.0492,0.25489 0.0504,0.37201 0.001,0.1235 -0.015,0.23796 -0.0484,0.34248 -0.0355,0.11125 -0.0897,0.20886 -0.15966,0.29309 -0.0752,0.0905 -0.16729,0.16404 -0.27156,0.22315 -0.1142,0.0647 -0.24343,0.11242 -0.3822,0.14641 -0.1567,0.0384 -0.32651,0.0596 -0.50176,0.0677 z"
       sodipodi:nodetypes="csssssscsc"
       inkscape:path-effect="#path-effect3483;#path-effect3481"
       inkscape:original-d="m 118.41333,660.26118 c -2.99631,-0.33535 0.12076,-3.86229 1.97161,-4.55823 5.01573,-1.88594 8.28791,2.0039 7.98853,5.67297 -0.53553,6.56311 -8.74089,12.01825 -15.875,12.55996 -10.46957,0.79497 -16.205709,-7.23202 -14.005417,-15.90419 2.932647,-11.55863 17.167587,-20.50623 29.778377,-20.56168 15.86941,-0.0698 24.28747,12.48966 20.02231,26.13539 -3.86288,12.35877 -12.433,28.01717 -33.98066,28.83474 -44.939788,-5.0248 -64.05894,25.21995 -79.405603,54.53167 C 23.074648,769.5722 15.087803,781.986 -12.170834,794.7563"
       class="UnoptimicedTransforms" />
    <path
       id="path3712"
       style="fill:#000000;fill-opacity:1;fill-rule:nonzero;stroke:none;stroke-width:11.2;stroke-dasharray:none"
       d="m 368.96238,652.69767 c -0.0163,-0.29571 0.0228,-0.55968 0.12639,-0.76983 0.0447,-0.0907 0.0996,-0.16775 0.16328,-0.2319 0.0594,-0.0599 0.12596,-0.10819 0.19877,-0.14663 0.13298,-0.0702 0.29373,-0.11104 0.48,-0.1239 0.17211,-0.0119 0.36984,2e-5 0.58692,0.0387 0.39508,0.0704 0.85005,0.23035 1.24456,0.46395 0.18097,0.10716 0.34145,0.22586 0.46054,0.34494 0.11332,0.11332 0.18386,0.22813 0.1813,0.28792 0.14423,0.21467 0.24875,0.4626 0.31577,0.74084 0.0656,0.27215 0.0966,0.57952 0.0885,0.91731 -0.0158,0.65735 -0.18044,1.41022 -0.49515,2.16531 -0.30352,0.72823 -0.72928,1.41402 -1.22192,1.94603 -0.23959,0.25875 -0.4847,0.46971 -0.72326,0.62662 -0.23699,0.15587 -0.45298,0.24879 -0.63547,0.28932 -0.80009,0.29731 -1.78813,0.38779 -2.89735,0.24367 -1.10184,-0.14317 -2.26956,-0.51218 -3.37221,-1.07099 -1.10442,-0.5597 -2.08327,-1.27949 -2.82537,-2.06843 -0.75622,-0.80394 -1.1866,-1.59257 -1.34284,-2.26264 -0.33585,-1.13694 -0.38074,-2.50711 -0.11693,-4.00456 0.27031,-1.53438 0.8497,-3.11246 1.65635,-4.56422 0.83775,-1.50772 1.87319,-2.79572 2.96397,-3.75293 1.15585,-1.01432 2.2612,-1.563 3.18658,-1.76219 1.47511,-0.37662 3.20963,-0.35823 5.03616,0.0206 1.5043,0.31198 2.99816,0.8531 4.38507,1.54377 0.44549,0.22185 0.88453,0.46126 1.31425,0.71682 1.8298,1.08824 3.42618,2.43089 4.61654,3.87027 1.20275,1.45437 1.86894,2.85627 2.09194,4.04924 0.37161,1.67796 0.33906,3.74417 -0.1768,6.03638 -0.52397,2.32819 -1.50704,4.70649 -2.82484,6.86206 -1.36202,2.22788 -2.98653,4.06491 -4.64372,5.36082 -1.74501,1.36458 -3.31303,1.97148 -4.53965,2.10625 -1.4567,0.2661 -2.8887,0.28017 -4.30303,0.0975 -1.47671,-0.19074 -2.97514,-0.60068 -4.49851,-1.21086 -3.28986,-1.31774 -6.57585,-3.52557 -9.67799,-6.23538 -3.49221,-3.05056 -6.60632,-6.60693 -9.17451,-9.9983 -1.65383,-2.18393 -3.09418,-4.31526 -4.31102,-6.26744 -1.13396,-1.81919 -2.06284,-3.47443 -2.80783,-4.90245 -5.40073,-9.63054 -7.5881,-19.70442 -8.60701,-28.52599 -0.80312,-6.95326 -1.07115,-14.83361 -0.79491,-24.92249 0.0739,-2.69783 0.18745,-5.43696 0.32773,-8.23506 0.56429,-11.25537 1.61258,-23.31448 1.86797,-36.20703 0.22948,-11.58466 -0.20654,-24.63334 -3.12045,-37.59222 -2.25272,-10.47927 -6.23089,-20.18165 -11.08528,-30.51199 -0.57584,-1.22542 -1.15838,-2.44685 -1.74675,-3.6714 -4.55025,-9.47035 -9.63434,-19.41573 -12.54165,-29.40079 -1.52367,-5.39256 -3.59342,-11.34657 -5.64441,-17.38707 -1.96516,-5.78772 -3.945,-11.749 -5.40011,-17.32483 -0.70685,-2.70861 -1.28207,-5.29461 -1.67904,-7.71556 -0.39052,-2.38165 -0.59505,-4.52278 -0.60469,-6.41411 -0.009,-1.85677 0.1698,-3.36371 0.4812,-4.56863 0.29566,-1.14399 0.72077,-2.06516 1.29961,-2.79744 1.65477,-1.92867 3.3067,-3.14272 4.90949,-3.84802 1.59161,-0.70039 3.28265,-0.97224 5.12536,-0.79 1.80841,0.17886 3.69035,0.79972 5.50655,1.8225 0.7865,0.44292 1.54599,0.95322 2.26445,1.5182 0.86474,0.68002 1.68404,1.44718 2.42408,2.27896 0.79207,0.80399 1.51687,2.05163 1.97772,3.7682 0.42339,1.57706 0.58952,3.43622 0.42039,5.39472 -0.15923,1.84384 -0.61058,3.69824 -1.34827,5.34257 -0.70638,1.57452 -1.64542,2.88957 -2.76086,3.80407 -0.74673,0.64629 -1.82243,1.17107 -3.18733,1.47175 -1.32287,0.29142 -2.82617,0.35048 -4.35213,0.15692 -1.49789,-0.19 -2.96153,-0.61667 -4.22921,-1.24935 -1.25531,-0.6265 -2.27311,-1.43166 -2.95963,-2.36152 -0.45762,-0.58026 -0.80146,-1.39963 -0.97092,-2.40532 -0.16848,-0.99993 -0.15171,-2.11219 0.0448,-3.21074 0.19788,-1.10621 0.57056,-2.15811 1.07912,-3.04242 0.51592,-0.89711 1.1537,-1.59245 1.86783,-2.03076 0.17719,-0.12363 0.4007,-0.23097 0.6679,-0.31379 0.26993,-0.0837 0.57369,-0.13896 0.90041,-0.16365 0.67227,-0.0508 1.40153,0.0305 2.08537,0.22007 0.7121,0.19737 1.34369,0.50251 1.82635,0.87091 0.24891,0.18998 0.45578,0.39482 0.61714,0.60868 0.16558,0.21948 0.28528,0.45084 0.3563,0.693 0.0384,0.0681 0.066,0.18839 0.074,0.33968 0.008,0.15627 -0.004,0.33442 -0.0349,0.51849 -0.0664,0.40063 -0.21021,0.79559 -0.3849,1.10265 -0.0958,0.16839 -0.19949,0.30863 -0.30627,0.4184 -0.11544,0.11868 -0.23556,0.20305 -0.35945,0.2528 -0.0674,0.0271 -0.13745,0.0445 -0.21064,0.0514 -0.0781,0.007 -0.15967,0.003 -0.24459,-0.0156 -0.19438,-0.0414 -0.39239,-0.14928 -0.58743,-0.31076 0.1447,0.2017 0.31485,0.37625 0.51597,0.49093 0.0897,0.0512 0.18613,0.0907 0.28952,0.11524 0.0973,0.0231 0.19939,0.0325 0.30569,0.0263 0.19804,-0.0115 0.40096,-0.0764 0.60168,-0.19241 0.18381,-0.10624 0.36177,-0.25296 0.52924,-0.4328 0.30338,-0.32578 0.57386,-0.76328 0.76393,-1.23783 0.0877,-0.21892 0.16005,-0.45083 0.20574,-0.68083 0.0431,-0.21725 0.0669,-0.45497 0.0437,-0.68576 -0.0593,-0.41113 -0.19868,-0.80651 -0.40632,-1.17909 -0.20098,-0.36063 -0.46399,-0.6964 -0.77429,-1.00271 -0.59658,-0.58893 -1.37417,-1.07518 -2.23653,-1.42609 -0.82619,-0.33619 -1.75185,-0.55626 -2.67358,-0.60299 -0.45142,-0.0229 -0.91099,-0.005 -1.36108,0.0674 -0.44391,0.0709 -0.89016,0.19593 -1.31283,0.39352 -1.19288,0.58167 -2.19829,1.52827 -2.99341,2.66171 -0.78337,1.1167 -1.37674,2.43418 -1.75271,3.81425 -0.37237,1.36682 -0.53996,2.82705 -0.44568,4.24186 0.0936,1.40499 0.45082,2.83236 1.19194,4.07494 0.97955,1.60664 2.41941,2.90681 4.04798,3.89782 1.64704,1.00226 3.52833,1.71473 5.44565,2.12685 1.94909,0.41894 3.98229,0.5379 5.91798,0.30939 1.97743,-0.23344 3.93079,-0.83917 5.60595,-1.9401 2.08233,-1.39074 3.70962,-3.35104 4.91508,-5.47321 1.26246,-2.2225 2.11035,-4.70175 2.57517,-7.15672 0.49312,-2.60445 0.57013,-5.25066 0.22707,-7.71875 -0.37066,-2.66657 -1.24126,-5.20281 -2.69666,-7.35151 -0.90122,-1.32606 -1.92085,-2.57095 -3.01643,-3.70876 -0.91144,-0.94655 -1.90047,-1.84761 -2.95823,-2.68162 -2.41277,-1.9024 -5.23422,-3.49591 -8.37231,-4.46023 -3.24572,-0.99738 -6.82049,-1.31638 -10.55088,-0.60938 -3.85327,0.73028 -7.62205,2.50855 -11.14586,5.35445 -2.49011,2.08949 -4.30292,4.65255 -5.58281,7.42506 -1.2879,2.78984 -2.03218,5.77867 -2.43312,8.74512 -0.4089,3.02531 -0.47815,6.15847 -0.34333,9.25769 0.13777,3.16694 0.49343,6.39931 0.96559,9.58117 0.96326,6.49142 2.48972,13.25248 3.86923,19.21067 1.51244,6.5323 2.82115,12.00347 3.64891,16.85012 2.39612,12.9304 7.58645,25.18339 11.63655,34.50442 0.53853,1.2394 1.08026,2.47679 1.60363,3.67092 4.52477,10.32379 7.75313,17.94421 9.86539,26.02229 2.54829,10.28746 3.33041,21.23324 3.46373,32.09058 0.1407,11.45891 -0.46908,24.2806 -0.69433,35.56085 -0.0582,2.91269 -0.0949,5.81069 -0.0955,8.69824 -0.002,10.83557 0.59032,19.7749 1.87656,27.98388 1.61722,10.32128 4.88061,23.0249 12.40885,35.37223 1.0743,1.66552 2.37769,3.59144 3.90112,5.67527 1.63586,2.23763 3.5549,4.68747 5.73683,7.19335 3.35119,3.84876 7.55485,8.0956 12.41751,11.79724 4.27515,3.25441 9.38765,6.33678 15.08044,8.13148 2.69112,0.84839 5.55357,1.42277 8.54658,1.56627 2.89876,0.13897 5.88938,-0.12906 8.90784,-0.92721 4.06138,-1.11982 7.59397,-3.4114 10.49192,-6.23384 2.77774,-2.70538 5.09363,-6.01371 6.83121,-9.5688 1.68645,-3.45047 2.88606,-7.25436 3.36927,-11.09207 0.47218,-3.75016 0.2785,-7.703 -0.98772,-11.37724 -1.10695,-3.15918 -3.06211,-5.86644 -5.32132,-8.05655 -2.26667,-2.19734 -4.96151,-3.99578 -7.78028,-5.32373 -0.6723,-0.31672 -1.35513,-0.60836 -2.04515,-0.87348 -2.12896,-0.81798 -4.46853,-1.43858 -6.89389,-1.70447 -2.90776,-0.31878 -6.0943,-0.14099 -9.10165,0.98107 -2.36181,0.89885 -4.42023,2.44024 -6.11459,4.29562 -1.61539,1.7689 -2.9614,3.89025 -3.94615,6.16471 -0.94944,2.19289 -1.59045,4.59386 -1.76462,6.99948 -0.16948,2.34076 0.0989,4.77404 1.04935,6.99138 0.75633,1.71655 1.98534,3.14038 3.36301,4.25602 1.37473,1.11325 2.9784,1.98678 4.63241,2.58305 1.65645,0.59715 3.41705,0.93572 5.12472,0.93394 1.7209,-0.002 3.43609,-0.35039 4.926,-1.17731 0.53569,-0.31099 1.00172,-0.69903 1.40115,-1.11728 0.40408,-0.42311 0.75373,-0.89137 1.0512,-1.37548 0.60455,-0.98386 1.02784,-2.08776 1.26116,-3.16648 0.24272,-1.12215 0.29017,-2.26077 0.10141,-3.29479 -0.0981,-0.53709 -0.26053,-1.04998 -0.49524,-1.51924 -0.24222,-0.48427 -0.55814,-0.91544 -0.94903,-1.27401 -0.2413,-0.19844 -0.51954,-0.34165 -0.77768,-0.44549 -0.27448,-0.11042 -0.56643,-0.19238 -0.85073,-0.24909 -0.61637,-0.12295 -1.24515,-0.13842 -1.78099,-0.0463 -0.29671,0.051 -0.56706,0.13493 -0.8004,0.25219 -0.25566,0.12849 -0.45982,0.29347 -0.60572,0.48858 -0.0785,0.10498 -0.13777,0.21555 -0.17988,0.3295 -0.0449,0.12151 -0.0696,0.24503 -0.0787,0.3683 -0.0204,0.2781 0.0385,0.5628 0.13433,0.83523 z m 96.13344,137.82374 c 0.27189,0.11741 0.53312,0.17189 0.76611,0.14731 0.10056,-0.0106 0.19184,-0.0356 0.27402,-0.0731 0.0767,-0.035 0.14504,-0.0808 0.20627,-0.13589 0.11182,-0.10054 0.20566,-0.2373 0.28207,-0.40765 0.0706,-0.15742 0.12773,-0.34709 0.16644,-0.56416 0.0704,-0.39507 0.0774,-0.87729 -0.005,-1.32822 -0.038,-0.20684 -0.094,-0.39845 -0.16462,-0.55134 -0.0672,-0.14548 -0.15058,-0.25134 -0.20758,-0.26959 -0.15163,-0.20951 -0.34819,-0.39323 -0.58616,-0.55225 -0.23274,-0.15552 -0.51048,-0.29084 -0.83028,-0.39989 -0.62235,-0.21221 -1.38575,-0.31778 -2.20306,-0.28327 -0.78826,0.0333 -1.5789,0.19595 -2.24833,0.4745 -0.32558,0.13547 -0.60823,0.29261 -0.83788,0.46229 -0.22814,0.16856 -0.38995,0.33916 -0.49102,0.49642 -0.55538,0.64814 -0.98159,1.54411 -1.22948,2.63483 -0.24625,1.08348 -0.30331,2.30679 -0.15978,3.53459 0.14376,1.22977 0.48112,2.397 0.96516,3.36595 0.49324,0.98737 1.08466,1.66367 1.65952,2.04175 0.95095,0.7079 2.22127,1.22332 3.71768,1.49301 1.53329,0.27633 3.21438,0.27772 4.85541,0.0222 1.7043,-0.26538 3.27068,-0.79218 4.54576,-1.48517 1.35114,-0.73434 2.24786,-1.58213 2.75444,-2.38174 0.86298,-1.25422 1.44486,-2.88833 1.7203,-4.73328 0.22684,-1.51947 0.23504,-3.10829 0.066,-4.64841 -0.0543,-0.4947 -0.12733,-0.98941 -0.21873,-1.48096 -0.38919,-2.09307 -1.09777,-4.05498 -2.03737,-5.66925 -0.94939,-1.6311 -2.03489,-2.74054 -3.07739,-3.36189 -1.44632,-0.92834 -3.39659,-1.61152 -5.72589,-1.91919 -2.36588,-0.31249 -4.93736,-0.21145 -7.41545,0.28065 -2.56122,0.50861 -4.84632,1.39857 -6.6349,2.50612 -1.88335,1.16624 -2.99453,2.4281 -3.54471,3.53267 -0.7529,1.27512 -1.26074,2.61411 -1.57785,4.00449 -0.3311,1.45169 -0.46398,2.9995 -0.41757,4.63987 0.10023,3.54254 1.0371,7.38891 2.50856,11.23613 1.65649,4.33098 3.91827,8.48187 6.21378,12.06344 1.47822,2.30642 2.98084,4.39432 4.39252,6.21059 1.31552,1.69255 2.54802,3.13602 3.6308,4.32842 7.1722,8.39492 15.87044,13.9274 23.79706,17.93078 6.24784,3.15551 13.55055,6.12911 23.11384,9.35481 2.55728,0.86258 5.16706,1.70214 7.84138,2.53703 10.75748,3.35833 22.43642,6.54006 34.62361,10.75379 10.95085,3.78627 23.04573,8.70277 34.20041,15.91363 9.05609,5.73385 16.78711,12.81858 24.80476,20.94252 0.95108,0.96368 1.8961,1.93228 2.84204,2.90742 7.31565,7.54146 14.8927,15.74797 23.25889,21.92541 4.53431,3.2926 9.4069,7.29161 14.36712,11.30289 4.75266,3.84341 9.66311,7.76056 14.39311,11.05212 2.29772,1.59897 4.52584,3.03204 6.66065,4.24083 2.10016,1.18917 4.03885,2.12071 5.81043,2.78306 1.73922,0.65026 3.21532,1.00256 4.45363,1.12654 1.17571,0.1177 2.18702,0.0369 3.07418,-0.25331 2.38154,-0.88671 4.09148,-2.0176 5.30701,-3.2781 1.20705,-1.25172 2.0463,-2.74476 2.51179,-4.53699 0.45682,-1.75888 0.52425,-3.73944 0.19178,-5.79714 -0.14398,-0.89109 -0.36052,-1.78009 -0.64255,-2.64949 -0.33946,-1.04641 -0.77639,-2.08027 -1.30135,-3.06208 -0.4809,-1.02103 -1.40139,-2.13218 -2.85311,-3.15761 -1.33373,-0.94209 -3.02107,-1.74019 -4.91744,-2.25798 -1.78535,-0.48748 -3.68151,-0.70446 -5.47944,-0.58017 -1.72161,0.11902 -3.28008,0.54601 -4.52359,1.2769 -0.86444,0.47752 -1.72849,1.30574 -2.48213,2.48276 -0.73043,1.14078 -1.30514,2.53115 -1.65059,4.03004 -0.33911,1.47132 -0.44427,2.99225 -0.28843,4.40045 0.15433,1.39444 0.55835,2.62771 1.19384,3.59318 0.38647,0.62988 1.03663,1.23559 1.92188,1.742 0.88019,0.50352 1.92978,0.87199 3.02858,1.06704 1.10647,0.19641 2.22236,0.21002 3.2279,0.0382 1.0201,-0.17428 1.89295,-0.53262 2.55096,-1.05139 0.17722,-0.12358 0.35516,-0.29625 0.52518,-0.51839 0.17176,-0.22442 0.32857,-0.49038 0.4646,-0.78847 0.27989,-0.61334 0.45547,-1.3258 0.51381,-2.03302 0.0608,-0.73644 -0.007,-1.43456 -0.18643,-2.01477 -0.0923,-0.29921 -0.21308,-0.5641 -0.35805,-0.7894 -0.14877,-0.23121 -0.32454,-0.42345 -0.52726,-0.57374 -0.0507,-0.0596 -0.15401,-0.12701 -0.29321,-0.18679 -0.14379,-0.0618 -0.31536,-0.11139 -0.49864,-0.14632 -0.39892,-0.076 -0.81923,-0.0775 -1.16773,-0.0197 -0.19112,0.0317 -0.35854,0.0806 -0.49844,0.14289 -0.15125,0.0673 -0.27192,0.15092 -0.3614,0.25001 -0.0487,0.0539 -0.0893,0.1136 -0.121,0.17992 -0.0338,0.0708 -0.0575,0.14897 -0.0699,0.23491 -0.0283,0.19671 0.005,0.4198 0.0887,0.65861 -0.1393,-0.20546 -0.24433,-0.42543 -0.28248,-0.65378 -0.017,-0.10185 -0.0208,-0.20601 -0.008,-0.31151 0.0119,-0.0992 0.0384,-0.19834 0.0809,-0.29597 0.0792,-0.1819 0.2102,-0.34989 0.3884,-0.49819 0.16319,-0.1358 0.36236,-0.25212 0.58897,-0.34716 0.41052,-0.17217 0.91452,-0.27488 1.42552,-0.28934 0.23573,-0.007 0.47836,0.006 0.70999,0.0421 0.21878,0.0345 0.45008,0.0943 0.65865,0.19583 0.36535,0.19765 0.68824,0.46504 0.96616,0.7886 0.26901,0.31318 0.49326,0.67599 0.67354,1.07299 0.3466,0.76329 0.53432,1.66098 0.56575,2.59147 0.0301,0.89146 -0.0831,1.83617 -0.35764,2.7173 -0.13445,0.43154 -0.3104,0.85649 -0.53339,1.25403 -0.21991,0.39207 -0.49134,0.76769 -0.82278,1.09609 -0.95791,0.91853 -2.19354,1.53508 -3.53186,1.88973 -1.31856,0.34942 -2.75991,0.45118 -4.1849,0.3273 -1.41131,-0.12269 -2.83955,-0.46982 -4.13471,-1.047 -1.28617,-0.57317 -2.5023,-1.40143 -3.41239,-2.52615 -1.16939,-1.47423 -1.89217,-3.27458 -2.25963,-5.14521 -0.37163,-1.89187 -0.39041,-3.90347 -0.11487,-5.84513 0.28011,-1.97382 0.87078,-3.92296 1.75386,-5.66057 0.90212,-1.77508 2.14531,-3.39897 3.75712,-4.59073 2.02442,-1.47377 4.42616,-2.32375 6.83409,-2.72197 2.52179,-0.41704 5.14131,-0.35635 7.60574,0.0554 2.61447,0.43687 5.12439,1.27867 7.32206,2.45315 2.3744,1.26893 4.4538,2.96203 5.96751,5.07006 0.93314,1.3038 1.7492,2.69068 2.43852,4.11185 0.57347,1.1823 1.07742,2.4217 1.49472,3.70244 0.95188,2.92139 1.4727,6.11961 1.29369,9.39764 -0.18516,3.39045 -1.1206,6.85537 -3.07265,10.11193 -2.01635,3.36383 -4.98698,6.28637 -8.87492,8.61024 -2.82101,1.61508 -5.8525,2.43095 -8.89646,2.67438 -3.06299,0.24495 -6.12494,-0.089 -9.04729,-0.73742 -2.98033,-0.66129 -5.94455,-1.67857 -8.80644,-2.87564 -2.92441,-1.22322 -5.83496,-2.67353 -8.65787,-4.21572 -5.75913,-3.14626 -11.57674,-6.91419 -16.69167,-10.26689 -5.60778,-3.67576 -10.29013,-6.79378 -14.55253,-9.24474 -11.30681,-6.7151 -21.01272,-15.81843 -28.36101,-22.83895 -0.97708,-0.9335 -1.95118,-1.86931 -2.89102,-2.77294 -8.12537,-7.81234 -14.16158,-13.47426 -21.0128,-18.24687 -8.77399,-5.94496 -18.77585,-10.45988 -28.91885,-14.33538 -10.70497,-4.09022 -22.94807,-7.94689 -33.61179,-11.63197 -2.7535,-0.95154 -5.48581,-1.91809 -8.19582,-2.91498 -10.16935,-3.74086 -18.35378,-7.38471 -25.61317,-11.42736 -9.12734,-5.08289 -19.92176,-12.53354 -28.90864,-23.86346 -1.19192,-1.58349 -2.54906,-3.47191 -3.9784,-5.62137 -1.53483,-2.3081 -3.17099,-4.95525 -4.76894,-7.86847 -2.45427,-4.47436 -4.98766,-9.88624 -6.78177,-15.72823 -1.57735,-5.13615 -2.70401,-10.99867 -2.42181,-16.96099 0.1334,-2.81853 0.58313,-5.70318 1.48233,-8.56153 0.87089,-2.76834 2.15545,-5.48229 3.94712,-8.03925 2.45379,-3.42458 5.82456,-5.94817 9.47429,-7.69279 3.49835,-1.67227 7.403,-2.70283 11.33947,-3.10544 3.82062,-0.39077 7.80474,-0.20258 11.57314,0.66959 3.68243,0.85227 7.32506,2.39944 10.33576,4.8569 2.58235,2.13007 4.44761,4.90003 5.72252,7.77669 1.27913,2.88617 2.03601,6.03635 2.30854,9.14033 0.065,0.74032 0.10282,1.48185 0.11327,2.22098 0.0323,2.28046 -0.1935,4.69039 -0.78175,7.05832 -0.70525,2.83888 -1.97281,5.76787 -4.06461,8.20253 -1.65936,1.90594 -3.81689,3.30523 -6.14334,4.2544 -2.21802,0.90494 -4.67373,1.43533 -7.14834,1.57381 -2.38588,0.13352 -4.86048,-0.0943 -7.17819,-0.76179 -2.25522,-0.6495 -4.44601,-1.7419 -6.19857,-3.39975 -1.34963,-1.30271 -2.26129,-2.94789 -2.83238,-4.62613 -0.56986,-1.67465 -0.83567,-3.48135 -0.8239,-5.23952 0.0118,-1.76076 0.3022,-3.52994 0.89374,-5.13188 0.59613,-1.61436 1.51573,-3.10355 2.8064,-4.21612 0.47689,-0.39529 1.00202,-0.69859 1.5325,-0.92897 0.53664,-0.23306 1.09686,-0.39943 1.65392,-0.51137 1.13213,-0.22749 2.3143,-0.24341 3.40722,-0.0898 1.13691,0.15984 2.22184,0.50863 3.127,1.04294 0.47017,0.27754 0.89536,0.60718 1.25466,0.98954 0.3708,0.39459 0.6663,0.84 0.86778,1.33068 0.10288,0.295 0.14116,0.60558 0.14944,0.8837 0.009,0.29572 -0.0151,0.59802 -0.0601,0.88441 -0.0975,0.62089 -0.30021,1.21631 -0.57171,1.68737 -0.15034,0.26083 -0.3225,0.48555 -0.51314,0.66401 -0.2089,0.19555 -0.43424,0.33015 -0.66774,0.39967 -0.12563,0.0374 -0.24987,0.0548 -0.37135,0.055 -0.12954,1.7e-4 -0.254,-0.0193 -0.37281,-0.0534 -0.26805,-0.0769 -0.51486,-0.23051 -0.73742,-0.41457 z"
       sodipodi:nodetypes="caaaaaaaaasaaaaac"
       transform="rotate(-54.533826,337.99541,681.17403)"
       inkscape:path-effect="#path-effect3715;#path-effect3739"
       inkscape:original-d="m 368.96238,652.69767 c -0.50228,-2.52142 3.21965,-1.87681 4.19076,-0.83482 2.17149,2.32997 0.33816,7.81322 -2.5211,9.21635 -4.61041,2.26248 -12.40265,-1.08207 -14.24195,-5.87704 -2.55064,-6.64943 2.47922,-17.00759 9.23298,-19.26755 8.64904,-2.89415 21.62148,3.86859 24.29313,12.58892 3.25877,10.63668 -5.12141,26.74741 -15.94485,29.31873 -17.63228,4.1889 -35.49301,-15.35572 -44.6816,-30.97667 -23.368,-39.7265 -3.10316,-92.72593 -13.643,-137.59429 -5.20894,-22.17458 -19.11258,-41.69724 -24.23963,-63.8909 -4.79477,-20.75529 -18.01011,-52.39539 -5.83595,-63.63874 10.51475,-9.71082 22.41509,-3.98114 28.13682,3.54359 4.69088,6.16905 2.92134,18.47356 -3.36584,23.00488 -4.90946,3.53836 -14.55074,1.87017 -17.87293,-3.18808 -2.39567,-3.64756 -0.83763,-10.68259 3.01034,-12.741 2.38641,-1.27657 7.0788,0.17866 7.60905,2.8326 0.23714,1.18688 -1.16448,4.07441 -2.65485,2.4771"
       class="UnoptimicedTransforms" />
    <g
       id="g1548"
       transform="matrix(0.65269904,-0.2143224,0.2143224,0.65269904,-0.7905381,305.37519)">
      <rect
         style="fill:#000000;stroke:#ffffff;stroke-width:5.10868;stroke-dasharray:none;stroke-opacity:1;paint-order:fill markers stroke;stop-color:#000000"
         id="rect499"
         width="94.608681"
         height="130.55812"
         x="769.94696"
         y="298.3754"
         ry="17.803379"
         transform="matrix(0.85283099,0.52218704,-0.74504377,0.66701558,0,0)" />
      <rect
         style="fill:#000000;stroke:#ffffff;stroke-width:5.10868;stroke-dasharray:none;stroke-opacity:1;paint-order:fill markers stroke;stop-color:#000000"
         id="rect1541"
         width="94.608681"
         height="130.55812"
         x="759.05798"
         y="285.9111"
         ry="17.803379"
         transform="matrix(0.85283099,0.52218704,-0.74504377,0.66701558,0,0)" />
      <rect
         style="fill:#000000;stroke:#ffffff;stroke-width:5.10868;stroke-dasharray:none;stroke-opacity:1;paint-order:fill markers stroke;stop-color:#000000"
         id="rect1543"
         width="94.608681"
         height="130.55812"
         x="746.61346"
         y="271.6662"
         ry="17.803379"
         transform="matrix(0.85283099,0.52218704,-0.74504377,0.66701558,0,0)" />
    </g>
  </g>
</svg>
