<?xml version="1.0" encoding="UTF-8" standalone="no"?>
<svg
   width="825"
   height="1125"
   viewBox="0 0 825 1125"
   version="1.1"
   id="svg21608"
   inkscape:version="1.2 (dc2aeda, 2022-05-15)"
   sodipodi:docname="spell.svg"
   xmlns:inkscape="http://www.inkscape.org/namespaces/inkscape"
   xmlns:sodipodi="http://sodipodi.sourceforge.net/DTD/sodipodi-0.dtd"
   xmlns="http://www.w3.org/2000/svg"
   xmlns:svg="http://www.w3.org/2000/svg"
   xmlns:rdf="http://www.w3.org/1999/02/22-rdf-syntax-ns#"
   xmlns:cc="http://creativecommons.org/ns#"
   xmlns:dc="http://purl.org/dc/elements/1.1/">
  <defs
     id="defs21602">
    <inkscape:path-effect
       effect="mirror_symmetry"
       start_point="463.64373,689.09537"
       end_point="384.02979,744.62689"
       center_point="423.83676,716.86113"
       id="path-effect3739"
       is_visible="true"
       lpeversion="1.2"
       lpesatellites=""
       mode="free"
       discard_orig_path="false"
       fuse_paths="false"
       oposite_fuse="false"
       split_items="false"
       split_open="false"
       link_styles="false" />
    <inkscape:path-effect
       effect="powerstroke"
       id="path-effect3715"
       is_visible="true"
       lpeversion="1"
       offset_points="4.7184709,4.8853418 | 7.2886454,9.6535664 | 10.044156,5.7596158"
       not_jump="false"
       sort_points="true"
       interpolator_type="CentripetalCatmullRom"
       interpolator_beta="0.2"
       start_linecap_type="zerowidth"
       linejoin_type="round"
       miter_limit="4"
       scale_width="1"
       end_linecap_type="zerowidth" />
    <inkscape:path-effect
       effect="powerstroke"
       id="path-effect3483"
       is_visible="true"
       lpeversion="1"
       offset_points="6.4688449,9.0961564 | 3.4197542,1.8149216 | 8.8484142,6.6171982"
       not_jump="false"
       sort_points="true"
       interpolator_type="CentripetalCatmullRom"
       interpolator_beta="0.2"
       start_linecap_type="zerowidth"
       linejoin_type="round"
       miter_limit="4"
       scale_width="1"
       end_linecap_type="zerowidth" />
    <inkscape:path-effect
       effect="mirror_symmetry"
       start_point="-195.50829,623.1847"
       end_point="-195.50829,781.69524"
       center_point="-195.50829,702.43997"
       id="path-effect3481"
       is_visible="true"
       lpeversion="1.2"
       lpesatellites=""
       mode="free"
       discard_orig_path="false"
       fuse_paths="false"
       oposite_fuse="false"
       split_items="false"
       split_open="false"
       link_styles="false" />
    <inkscape:path-effect
       effect="mirror_symmetry"
       start_point="413.61635,464.83246"
       end_point="413.61635,587.33772"
       center_point="413.61635,526.08509"
       id="path-effect3476"
       is_visible="true"
       lpeversion="1.2"
       lpesatellites=""
       mode="free"
       discard_orig_path="false"
       fuse_paths="false"
       oposite_fuse="false"
       split_items="false"
       split_open="false"
       link_styles="false" />
    <inkscape:path-effect
       effect="powerstroke"
       id="path-effect3472"
       is_visible="true"
       lpeversion="1"
       offset_points="0.70338932,2.7202909 | 1.0495578,5.2590222 | 1.618221,3.5795042"
       not_jump="false"
       sort_points="true"
       interpolator_type="CentripetalCatmullRom"
       interpolator_beta="0.2"
       start_linecap_type="zerowidth"
       linejoin_type="round"
       miter_limit="4"
       scale_width="1"
       end_linecap_type="zerowidth" />
    <inkscape:path-effect
       effect="mirror_symmetry"
       start_point="429.38393,471.40229"
       end_point="429.38393,593.90755"
       center_point="429.38393,532.65492"
       id="path-effect3431"
       is_visible="true"
       lpeversion="1.2"
       lpesatellites=""
       mode="free"
       discard_orig_path="false"
       fuse_paths="false"
       oposite_fuse="false"
       split_items="false"
       split_open="false"
       link_styles="false" />
    <inkscape:path-effect
       effect="powerstroke"
       id="path-effect3429"
       is_visible="true"
       lpeversion="1"
       offset_points="1.344239,6.997215 | 4.2844051,10.623778 | 6.9179089,10.885751"
       not_jump="false"
       sort_points="true"
       interpolator_type="CentripetalCatmullRom"
       interpolator_beta="0.2"
       start_linecap_type="zerowidth"
       linejoin_type="round"
       miter_limit="4"
       scale_width="1"
       end_linecap_type="zerowidth" />
    <inkscape:path-effect
       effect="taper_stroke"
       id="path-effect3393"
       is_visible="true"
       lpeversion="1"
       stroke_width="22.87"
       attach_start="0.2"
       end_offset="0.2"
       start_smoothing="0.5"
       end_smoothing="0.5"
       jointype="extrapolated"
       start_shape="center"
       end_shape="center"
       miter_limit="100" />
    <inkscape:path-effect
       effect="powerstroke"
       id="path-effect3391"
       is_visible="true"
       lpeversion="1"
       offset_points="0.2,12.28345 | 4.5,12.28345 | 8.8,12.28345"
       not_jump="false"
       sort_points="true"
       interpolator_type="CubicBezierJohan"
       interpolator_beta="0.24"
       start_linecap_type="peak"
       linejoin_type="round"
       miter_limit="5.2"
       scale_width="0.8"
       end_linecap_type="zerowidth" />
    <inkscape:path-effect
       effect="spiro"
       id="path-effect3389"
       is_visible="true"
       lpeversion="1" />
    <inkscape:path-effect
       effect="fill_between_many"
       method="bsplinespiro"
       linkedpaths="#path2637,0,1"
       id="path-effect3395" />
  </defs>
  <sodipodi:namedview
     id="base"
     pagecolor="#ffffff"
     bordercolor="#666666"
     borderopacity="1.0"
     inkscape:pageopacity="0.0"
     inkscape:pageshadow="2"
     inkscape:zoom="0.87072287"
     inkscape:cx="338.22472"
     inkscape:cy="565.04775"
     inkscape:document-units="px"
     inkscape:current-layer="layer2"
     inkscape:document-rotation="0"
     showgrid="false"
     units="px"
     width="300px"
     inkscape:snap-bbox="true"
     inkscape:bbox-paths="true"
     inkscape:bbox-nodes="true"
     inkscape:showpageshadow="2"
     inkscape:pagecheckerboard="0"
     inkscape:deskcolor="#d1d1d1"
     inkscape:window-width="1512"
     inkscape:window-height="842"
     inkscape:window-x="0"
     inkscape:window-y="38"
     inkscape:window-maximized="0" />
  <metadata
     id="metadata21605">
    <rdf:RDF>
      <cc:Work
         rdf:about="">
        <dc:format>image/svg+xml</dc:format>
        <dc:type
           rdf:resource="http://purl.org/dc/dcmitype/StillImage" />
        <dc:title />
      </cc:Work>
    </rdf:RDF>
  </metadata>
  <g
     inkscape:label="Old"
     inkscape:groupmode="layer"
     id="layer1"
     style="display:none"
     sodipodi:insensitive="true">
    <path
       id="rect10"
       style="display:inline;fill:#e6e6e6;stroke:#000000;stroke-width:0.944878;stroke-miterlimit:4;stroke-dasharray:none;stop-color:#000000"
       d="M 228.21386,470.45508 136.16894,562.5 l 92.04492,92.04492 0.40821,-0.4082 v 0.60351 h 368.57031 v -0.60156 L 688.83105,562.5 597.19239,470.86133 v -0.40625 h -0.40625 -368.16407 v 0.4082 z" />
    <path
       style="display:inline;fill:none;stroke:#000000;stroke-width:0.999999px;stroke-linecap:butt;stroke-linejoin:miter;stroke-opacity:1"
       d="M 84.849839,562.5 H 740.15016"
       id="path8" />
  </g>
  <g
     inkscape:groupmode="layer"
     id="layer2"
     inkscape:label="New">
    <path
       id="path2637"
       style="display:inline;opacity:1;vector-effect:none;fill:#000000;fill-rule:nonzero;stroke:none;stroke-width:31.1544;stroke-linecap:round;paint-order:stroke fill markers;stop-color:#000000;stop-opacity:1;fill-opacity:1"
       d="m 110.71268,501.62538 c -0.1032,-2.47018 -0.59968,-5.91851 -2.62982,-9.21653 -1.44229,-2.34304 -3.7525,-4.69242 -7.07594,-5.90409 -1.482209,-0.54038 -3.152295,-0.84358 -4.957063,-0.78154 -1.724266,0.0593 -3.533968,0.4516 -5.349405,1.24809 -1.756167,0.77049 -3.47672,1.90146 -5.094826,3.4111 -1.583016,1.4769 -3.048579,3.29791 -4.351482,5.4639 -0.174533,0.39714 -0.316653,0.73561 -0.290868,0.69274 -1.873199,4.26235 -2.690697,8.51797 -2.427345,12.6893 0.09871,1.56353 0.347547,3.07966 0.729009,4.5401 0.615792,2.35759 1.581379,4.61002 2.854073,6.72933 1.908417,3.17793 4.443329,5.95144 7.338524,8.30153 2.711464,2.20095 5.731512,4.02445 8.821931,5.457 4.804932,2.13328 9.910002,3.04504 15.021922,2.78262 4.92453,-0.2528 9.72276,-1.58859 14.12123,-3.80027 4.2945,-2.1594 8.22116,-5.16051 11.51627,-8.81849 3.25226,-3.61042 5.92032,-7.89689 7.68353,-12.67567 2.25331,-6.16592 2.95552,-12.48866 2.34767,-18.60151 -0.60801,-6.11444 -2.51563,-11.92751 -5.37671,-17.13938 -5.84065,-10.63958 -15.68983,-18.88355 -27.2948,-22.68695 -7.46756,-2.4346 -14.94454,-2.98413 -21.984702,-2.1128 -0.988651,0.12237 -1.968081,0.27263 -2.937295,0.44937 -6.025314,1.09871 -11.838112,3.24102 -17.202274,6.28334 -12.080833,6.85173 -22.063894,18.40395 -26.564979,32.82744 -2.641571,8.53668 -3.250443,17.20623 -2.140123,25.53767 1.114401,8.36204 3.946717,16.2929 8.081485,23.38329 8.508897,14.59124 22.479031,25.59053 38.836393,30.20647 5.246705,1.47779 10.456295,2.08828 15.542565,2.01044 5.18258,-0.0793 10.18584,-0.87191 14.93911,-2.14608 9.81596,-2.6313 18.84068,-7.39029 26.69402,-12.66679 8.44226,-5.67217 16.09778,-12.32807 22.57754,-18.63231 4.74353,-4.61503 9.06147,-9.24215 12.807,-13.47968 1.91493,-2.16646 3.74443,-4.31066 5.4805,-6.39984 6.03478,-7.17039 10.71626,-12.78871 15.37539,-17.7105 4.83809,-5.11084 9.47584,-9.26885 14.98942,-13.04602 6.31212,-4.32422 13.47275,-7.92299 21.76438,-11.22211 11.38365,-4.52939 24.4628,-8.26516 34.2061,-10.70108 -9.12979,1.18386 -24.27883,2.96488 -35.81708,4.94837 -8.87508,1.52567 -17.46581,3.42505 -25.50623,6.35143 -7.19716,2.61947 -13.808,5.99269 -20.59707,10.6804 -6.39351,4.4146 -12.66446,9.79733 -19.59542,16.39758 -2.16214,2.019 -3.75808,3.51679 -5.9202,5.53579 -3.92802,3.6665 -8.29015,7.68218 -12.83999,11.60348 -6.29096,5.42187 -13.14545,10.84347 -20.22017,15.29101 -6.64123,4.17502 -13.28246,7.36917 -19.73181,9.02506 -3.0732,0.78905 -6.06268,1.21853 -8.97121,1.258 -2.83537,0.0385 -5.65565,-0.29229 -8.479027,-1.06939 -10.105838,-2.77786 -19.116654,-9.45695 -24.830651,-18.62558 -2.752596,-4.41678 -4.662879,-9.30513 -5.520175,-14.4006 -0.849534,-5.04934 -0.672559,-10.34108 0.78099,-15.65253 2.333927,-8.69997 8.124752,-16.11079 15.545245,-20.63137 3.247875,-1.97861 6.733786,-3.35805 10.289458,-4.08313 0.571682,-0.11657 1.147915,-0.21715 1.728154,-0.30108 4.104906,-0.59376 8.463906,-0.36244 12.881906,0.98975 6.56968,1.98535 12.4177,6.59291 15.9759,12.69783 1.71228,2.93782 2.83635,6.13784 3.25621,9.39896 0.41604,3.23139 0.1529,6.58508 -0.95718,9.93721 -0.77126,2.39629 -2.02606,4.66506 -3.65841,6.66489 -1.6544,2.02685 -3.64441,3.71362 -5.7983,4.96137 -2.19711,1.27279 -4.51512,2.06213 -6.81251,2.35047 -2.35539,0.29562 -4.76989,0.0773 -7.17754,-0.76418 -2.06404,-0.68949 -4.04723,-1.59933 -5.803261,-2.66878 -1.86656,-1.13676 -3.388309,-2.39809 -4.554636,-3.71626 -0.773018,-0.87365 -1.403267,-1.78643 -1.891347,-2.74055 -0.30417,-0.59461 -0.571451,-1.23595 -0.784101,-1.93243 -0.556504,-1.82271 -0.782752,-4.17584 -0.148656,-7.21036 l -0.290864,0.69274 c 0.562772,-1.55779 1.183861,-2.8251 1.814939,-3.85122 0.642386,-1.0445 1.313168,-1.86875 1.981725,-2.51159 0.691291,-0.66471 1.417015,-1.17124 2.173724,-1.53125 0.79709,-0.37922 1.649916,-0.60573 2.549095,-0.66659 2.057042,-0.13924 4.185102,0.5996 6.031232,2.01234 2.60121,1.99056 4.10762,4.85767 4.84683,7.28812 z m 637.3425,0 c 0.1032,-2.47018 0.59968,-5.91851 2.62982,-9.21653 1.44229,-2.34304 3.7525,-4.69242 7.07594,-5.90409 1.48221,-0.54038 3.15229,-0.84358 4.95706,-0.78154 1.72427,0.0593 3.53397,0.4516 5.34941,1.24809 1.75616,0.77049 3.47672,1.90146 5.09482,3.4111 1.58302,1.4769 3.04858,3.29791 4.35149,5.4639 0.17453,0.39714 0.31665,0.73561 0.29086,0.69274 1.8732,4.26235 2.6907,8.51797 2.42735,12.6893 -0.0987,1.56353 -0.34755,3.07966 -0.72901,4.5401 -0.61579,2.35759 -1.58138,4.61002 -2.85407,6.72933 -1.90842,3.17793 -4.44333,5.95144 -7.33853,8.30153 -2.71146,2.20095 -5.73151,4.02445 -8.82193,5.457 -4.80493,2.13328 -9.91,3.04504 -15.02192,2.78262 -4.92453,-0.2528 -9.72276,-1.58859 -14.12123,-3.80027 -4.2945,-2.1594 -8.22116,-5.16051 -11.51627,-8.81849 -3.25226,-3.61042 -5.92032,-7.89689 -7.68353,-12.67567 -2.25331,-6.16592 -2.95552,-12.48866 -2.34767,-18.60151 0.60801,-6.11444 2.51563,-11.92751 5.37671,-17.13938 5.84065,-10.63958 15.68983,-18.88355 27.2948,-22.68695 7.46756,-2.4346 14.94454,-2.98413 21.9847,-2.1128 0.98865,0.12237 1.96808,0.27263 2.9373,0.44937 6.02531,1.09871 11.83811,3.24102 17.20227,6.28334 12.08083,6.85173 22.0639,18.40395 26.56498,32.82744 2.64157,8.53668 3.25044,17.20623 2.14012,25.53767 -1.1144,8.36204 -3.94671,16.2929 -8.08148,23.38329 -8.5089,14.59124 -22.47903,25.59053 -38.83639,30.20647 -5.24671,1.47779 -10.4563,2.08828 -15.54257,2.01044 -5.18258,-0.0793 -10.18584,-0.87191 -14.93911,-2.14608 -9.81596,-2.6313 -18.84068,-7.39029 -26.69402,-12.66679 -8.44226,-5.67217 -16.09778,-12.32807 -22.57754,-18.63231 -4.74353,-4.61503 -9.06147,-9.24215 -12.807,-13.47968 -1.91493,-2.16646 -3.74443,-4.31066 -5.4805,-6.39984 -6.03478,-7.17039 -10.71626,-12.78871 -15.37539,-17.7105 -4.83809,-5.11084 -9.47584,-9.26885 -14.98942,-13.04602 -6.31212,-4.32422 -13.47275,-7.92299 -21.76438,-11.22211 -11.38365,-4.52939 -24.4628,-8.26516 -34.2061,-10.70108 9.12979,1.18386 24.27883,2.96488 35.81708,4.94837 8.87508,1.52567 17.46581,3.42505 25.50623,6.35143 7.19716,2.61947 13.808,5.99269 20.59707,10.6804 6.39351,4.4146 12.66446,9.79733 19.59542,16.39758 2.16214,2.019 3.75808,3.51679 5.9202,5.53579 3.92802,3.6665 8.29015,7.68218 12.83999,11.60348 6.29096,5.42187 13.14545,10.84347 20.22017,15.29101 6.64123,4.17502 13.28246,7.36917 19.73181,9.02506 3.0732,0.78905 6.06268,1.21853 8.97121,1.258 2.83537,0.0385 5.65565,-0.29229 8.47903,-1.06939 10.10583,-2.77786 19.11665,-9.45695 24.83065,-18.62558 2.75259,-4.41678 4.66288,-9.30513 5.52017,-14.4006 0.84954,-5.04934 0.67256,-10.34108 -0.78099,-15.65253 -2.33392,-8.69997 -8.12475,-16.11079 -15.54524,-20.63137 -3.24788,-1.97861 -6.73379,-3.35805 -10.28946,-4.08313 -0.57168,-0.11657 -1.14791,-0.21715 -1.72815,-0.30108 -4.10491,-0.59376 -8.46391,-0.36244 -12.88191,0.98975 -6.56968,1.98535 -12.4177,6.59291 -15.9759,12.69783 -1.71228,2.93782 -2.83635,6.13784 -3.25621,9.39896 -0.41604,3.23139 -0.1529,6.58508 0.95718,9.93721 0.77126,2.39629 2.02606,4.66506 3.65841,6.66489 1.6544,2.02685 3.64441,3.71362 5.7983,4.96137 2.19711,1.27279 4.51512,2.06213 6.81251,2.35047 2.35539,0.29562 4.76989,0.0773 7.17754,-0.76418 2.06404,-0.68949 4.04723,-1.59933 5.80326,-2.66878 1.86656,-1.13676 3.38831,-2.39809 4.55464,-3.71626 0.77302,-0.87365 1.40326,-1.78643 1.89134,-2.74055 0.30417,-0.59461 0.57146,-1.23595 0.78411,-1.93243 0.5565,-1.82271 0.78275,-4.17584 0.14865,-7.21036 l 0.29087,0.69274 c -0.56278,-1.55779 -1.18387,-2.8251 -1.81494,-3.85122 -0.64239,-1.0445 -1.31317,-1.86875 -1.98173,-2.51159 -0.69129,-0.66471 -1.41701,-1.17124 -2.17372,-1.53125 -0.79709,-0.37922 -1.64992,-0.60573 -2.5491,-0.66659 -2.05704,-0.13924 -4.1851,0.5996 -6.03123,2.01234 -2.60121,1.99056 -4.10762,4.85767 -4.84683,7.28812 z"
       sodipodi:nodetypes="ccssssssc"
       inkscape:linked-fill="path3397"
       class="UnoptimicedTransforms"
       inkscape:original-d="m 110.71268,501.62538 c -2.2835,-13.42304 -17.01892,-18.05192 -24.428042,-3.25944 -5.009888,14.59277 5.233312,23.86572 15.249092,27.99282 14.69856,6.0567 30.84744,-3.57456 35.89486,-17.86218 6.7274,-19.04314 -5.7317,-39.31597 -24.29939,-45.23092 -23.365549,-7.44337 -47.810488,7.88367 -54.567002,30.73659 -8.183034,27.67795 10.032499,56.31982 37.173796,63.90307 31.985086,8.9366 64.791356,-22.79835 87.101566,-46.4791 25.56832,-27.13901 37.19958,-34.79742 93.92555,-45.52875"
       inkscape:path-effect="#path-effect3429;#path-effect3431"
       transform="matrix(0.78855357,0,0,0.78855357,77.469278,92.221685)" />
    <path
       id="path3478"
       style="display:inline;fill:#000000;fill-rule:nonzero;stroke:none;fill-opacity:1"
       transform="rotate(180,112.64008,630.56937)"
       d="m 118.41333,660.26118 c -0.17447,-0.03 -0.3375,-0.0714 -0.48306,-0.12713 -0.13022,-0.0499 -0.24401,-0.11022 -0.33863,-0.18183 -0.0866,-0.0656 -0.15556,-0.13931 -0.20665,-0.22105 -0.0475,-0.0759 -0.0797,-0.15892 -0.0966,-0.24937 -0.016,-0.0853 -0.0186,-0.17838 -0.007,-0.27961 0.0112,-0.0964 0.0353,-0.20018 0.0734,-0.3113 0.0717,-0.2092 0.19159,-0.44134 0.35977,-0.68982 0.15669,-0.2315 0.35283,-0.47346 0.58145,-0.71485 0.21604,-0.22811 0.45916,-0.45359 0.71761,-0.66264 0.24694,-0.19975 0.50614,-0.38301 0.76241,-0.53485 0.24749,-0.14664 0.488,-0.26136 0.70447,-0.33163 1.19455,-0.42795 2.2914,-0.52148 3.25898,-0.34662 0.92485,0.16714 1.7235,0.57832 2.36575,1.1604 0.62501,0.56647 1.09803,1.29191 1.38536,2.09347 0.28316,0.7899 0.38118,1.64087 0.27464,2.46194 -0.16294,1.51624 -0.7731,2.96601 -1.71099,4.29654 -0.94542,1.3412 -2.21779,2.55232 -3.6792,3.57544 -1.48872,1.04222 -3.1557,1.87718 -4.85212,2.46209 -1.75355,0.6046 -3.50626,0.93159 -5.12343,0.97197 -2.51459,0.10495 -4.58866,-0.34801 -6.23551,-1.10309 -1.1797,-0.54089 -2.14644,-1.23984 -2.91799,-2.01877 -0.37533,-0.37892 -0.71061,-0.78403 -1.00579,-1.2103 -0.91889,-1.32702 -1.45327,-2.86444 -1.59959,-4.48504 -0.1466,-1.62373 0.0947,-3.34213 0.74008,-5.05079 0.81294,-2.36827 2.22855,-4.58283 4.08209,-6.56405 1.86378,-1.99217 4.16317,-3.74007 6.71035,-5.15339 2.56155,-1.42131 5.33622,-2.48354 8.11507,-3.12332 2.80338,-0.64543 5.53501,-0.84397 8.00896,-0.60243 3.21002,0.2388 5.72445,1.11375 7.60488,2.25856 1.8913,1.15143 3.19913,2.60577 4.05041,4.13686 0.86099,1.54852 1.32233,3.29325 1.38862,5.1485 0.0673,1.88431 -0.26994,3.98364 -1.13181,6.21341 -1.01854,2.71737 -2.22048,5.44407 -3.69013,8.01759 -1.30213,2.28019 -2.77118,4.36374 -4.4422,6.18779 -0.23881,0.26068 -0.48217,0.51608 -0.73022,0.76599 -1.96749,1.98221 -4.26251,3.65299 -7.00812,4.87816 -2.73228,1.21923 -6.11501,2.08875 -10.37684,2.25262 -1.90713,0.0735 -4.00636,-0.0915 -6.36319,-0.47388 -2.37095,-0.38469 -4.87904,-0.96806 -7.607988,-1.68089 -5.228113,-1.36564 -11.751624,-3.37266 -18.029616,-4.54807 -3.291958,-0.61635 -6.736782,-1.05692 -10.27693,-1.1244 -3.589196,-0.0684 -7.276291,0.24666 -11.002088,1.14618 -3.784081,0.9136 -7.494982,2.40325 -11.093669,4.58017 -3.642203,2.20323 -7.064134,5.04642 -10.282696,8.54952 -4.0921,4.52158 -7.272294,9.13694 -9.923801,13.66252 -2.742289,4.68053 -5.014425,9.44084 -7.035063,13.85748 -3.263502,7.13325 -5.636096,12.75384 -9.08688,19.25897 -1.480408,2.79075 -3.100538,5.64738 -4.9416179,8.55864 -2.1306127,3.55979 -4.7844497,7.22896 -7.88678189,11.08519 -3.21938241,4.00172 -6.83845441,8.09972 -10.50176421,12.13758 -9.980536,11.001 -19.90033,21.77772 -25.144783,27.79062 8.745479,-7.52036 14.821717,-11.72436 29.5872958,-22.93764 4.3533463,-3.30602 8.8324869,-6.79778 12.9208036,-10.33094 3.9315446,-3.39768 7.6182096,-6.9303 10.7778836,-10.65976 2.435492,-2.97498 4.590935,-5.92644 6.531043,-8.82409 4.38325,-6.54661 7.704531,-12.70501 11.332449,-19.19843 2.335846,-4.1808 4.662379,-8.23852 7.262758,-12.08999 2.478843,-3.67147 5.234286,-7.19907 8.573693,-10.56633 2.31771,-2.37349 4.548243,-4.05556 6.671002,-5.24439 2.082119,-1.16607 4.141628,-1.90347 6.208749,-2.33319 2.053401,-0.42687 4.206766,-0.56898 6.508969,-0.46563 2.292411,0.10292 4.707926,0.4478 7.302705,0.98627 5.501302,1.14161 10.353058,2.77847 16.775117,4.52446 2.972787,0.80823 6.1241,1.58276 9.33698,2.12289 3.2104,0.53972 6.60428,0.86733 10.09007,0.73616 6.51143,-0.24487 12.28285,-1.63964 17.33652,-3.97216 5.06517,-2.33782 9.19178,-5.51689 12.52278,-9.0759 0.41521,-0.44363 0.81751,-0.89255 1.20729,-1.3458 2.71964,-3.16248 4.84737,-6.57678 6.51938,-9.98244 1.87875,-3.82679 3.19524,-7.67132 4.12786,-11.19105 1.25554,-4.54769 1.48817,-9.14135 0.67321,-13.4871 -0.80589,-4.29734 -2.62109,-8.26001 -5.3378,-11.573 -2.69018,-3.28065 -6.1771,-5.8188 -10.22645,-7.44134 -3.99713,-1.60161 -8.48241,-2.28561 -13.2415,-2.01199 -3.81068,0.2666 -7.58572,1.20528 -11.11232,2.61902 -3.51127,1.4076 -6.84531,3.31344 -9.80063,5.58953 -2.94247,2.2662 -5.54403,4.92613 -7.576033,7.87314 -2.027472,2.94045 -3.497962,6.18557 -4.151291,9.59848 -0.453481,2.6242 -0.322606,5.16065 0.315711,7.46 0.637925,2.29794 1.777833,4.34339 3.327798,6.00872 0.496979,0.53397 1.035325,1.02806 1.611925,1.47892 1.18827,0.92914 2.57168,1.69579 4.14289,2.23558 2.18959,0.75224 4.73423,1.06026 7.59371,0.75717 1.88184,-0.22483 3.82818,-0.76176 5.7063,-1.56421 1.82088,-0.77798 3.58455,-1.80905 5.14209,-3.04564 1.52908,-1.21398 2.86263,-2.62901 3.84054,-4.19031 0.97268,-1.55294 1.59051,-3.24656 1.69533,-5.01372 0.044,-1.02225 -0.15912,-2.03306 -0.5585,-2.93706 -0.40631,-0.91969 -1.01588,-1.7304 -1.78369,-2.34676 -0.79168,-0.63552 -1.73945,-1.05545 -2.79648,-1.19669 -1.10348,-0.14745 -2.30041,0.0113 -3.55366,0.50376 -0.25362,0.10632 -0.5173,0.25748 -0.77355,0.43221 -0.26712,0.18214 -0.53192,0.39375 -0.78006,0.61864 -0.25992,0.23556 -0.50261,0.4866 -0.71637,0.73935 -0.22613,0.26739 -0.41918,0.53576 -0.57106,0.79451 -0.16281,0.27736 -0.27733,0.5419 -0.33832,0.78572 -0.0325,0.12978 -0.0497,0.25331 -0.0512,0.36968 -0.002,0.12254 0.0141,0.23617 0.0469,0.33998 0.0348,0.11028 0.0881,0.20728 0.15735,0.29121 0.0741,0.0899 0.16525,0.16342 0.26901,0.22284 0.11307,0.0648 0.2415,0.11298 0.38037,0.14776 0.15537,0.0389 0.32458,0.0611 0.50087,0.0705 z m -627.84324,0 c 0.17447,-0.03 0.3375,-0.0714 0.48306,-0.12713 0.13022,-0.0499 0.24401,-0.11022 0.33863,-0.18183 0.0866,-0.0656 0.15556,-0.13931 0.20665,-0.22105 0.0475,-0.0759 0.0797,-0.15892 0.0966,-0.24937 0.016,-0.0853 0.0187,-0.17838 0.007,-0.27961 -0.0111,-0.0964 -0.0353,-0.20018 -0.0734,-0.3113 -0.0716,-0.2092 -0.19159,-0.44134 -0.35977,-0.68982 -0.15669,-0.2315 -0.35283,-0.47346 -0.58145,-0.71485 -0.21604,-0.22811 -0.45916,-0.45359 -0.71761,-0.66264 -0.24694,-0.19975 -0.50614,-0.38301 -0.76241,-0.53485 -0.24749,-0.14664 -0.488,-0.26136 -0.70447,-0.33163 -1.19455,-0.42795 -2.2914,-0.52148 -3.25898,-0.34662 -0.92485,0.16714 -1.7235,0.57832 -2.36575,1.1604 -0.62501,0.56647 -1.09803,1.29191 -1.38536,2.09347 -0.28316,0.7899 -0.38118,1.64087 -0.27464,2.46194 0.16294,1.51624 0.7731,2.96601 1.71099,4.29654 0.94542,1.3412 2.21779,2.55232 3.6792,3.57544 1.48872,1.04222 3.1557,1.87718 4.85212,2.46209 1.75355,0.6046 3.50626,0.93159 5.12343,0.97197 2.51459,0.10495 4.58866,-0.34801 6.23551,-1.10309 1.1797,-0.54089 2.14644,-1.23984 2.91799,-2.01877 0.37533,-0.37892 0.71061,-0.78403 1.00579,-1.2103 0.91889,-1.32702 1.45327,-2.86444 1.59959,-4.48504 0.1466,-1.62373 -0.0947,-3.34213 -0.74008,-5.05079 -0.81294,-2.36827 -2.22855,-4.58283 -4.08209,-6.56405 -1.86378,-1.99217 -4.16317,-3.74007 -6.71035,-5.15339 -2.56155,-1.42131 -5.33622,-2.48354 -8.11507,-3.12332 -2.80338,-0.64543 -5.53501,-0.84397 -8.00896,-0.60243 -3.21002,0.2388 -5.72445,1.11375 -7.60488,2.25856 -1.8913,1.15143 -3.19913,2.60577 -4.05041,4.13686 -0.86099,1.54852 -1.32233,3.29325 -1.38862,5.1485 -0.0673,1.88431 0.26994,3.98364 1.13181,6.21341 1.01854,2.71737 2.22048,5.44407 3.69013,8.01759 1.30213,2.28019 2.77118,4.36374 4.4422,6.18779 0.23881,0.26068 0.48217,0.51608 0.73022,0.76599 1.96749,1.98221 4.26251,3.65299 7.00812,4.87816 2.73228,1.21923 6.11501,2.08875 10.37684,2.25262 1.90713,0.0735 4.00636,-0.0915 6.36319,-0.47388 2.37095,-0.38469 4.87904,-0.96806 7.60799,-1.68089 5.22811,-1.36564 11.75162,-3.37266 18.02961,-4.54807 3.29196,-0.61635 6.73679,-1.05692 10.27693,-1.1244 3.5892,-0.0684 7.2763,0.24666 11.00209,1.14618 3.78408,0.9136 7.49498,2.40325 11.09367,4.58017 3.6422,2.20323 7.06414,5.04642 10.2827,8.54952 4.0921,4.52158 7.27229,9.13694 9.9238,13.66252 2.74229,4.68053 5.01442,9.44084 7.03506,13.85748 3.2635,7.13325 5.6361,12.75384 9.08688,19.25897 1.48041,2.79075 3.10054,5.64738 4.94162,8.55864 2.13061,3.55979 4.78445,7.22896 7.88678,11.08519 3.21938,4.00172 6.83846,8.09972 10.50177,12.13758 9.98053,11.001 19.90032,21.77772 25.14478,27.79062 -8.74548,-7.52036 -14.82172,-11.72436 -29.5873,-22.93764 -4.35334,-3.30602 -8.83248,-6.79778 -12.9208,-10.33094 -3.93155,-3.39768 -7.61821,-6.9303 -10.77788,-10.65976 -2.4355,-2.97498 -4.59094,-5.92644 -6.53105,-8.82409 -4.38325,-6.54661 -7.70453,-12.70501 -11.33245,-19.19843 -2.33584,-4.1808 -4.66238,-8.23852 -7.26275,-12.08999 -2.47885,-3.67147 -5.23429,-7.19907 -8.5737,-10.56633 -2.31771,-2.37349 -4.54824,-4.05556 -6.671,-5.24439 -2.08212,-1.16607 -4.14163,-1.90347 -6.20875,-2.33319 -2.0534,-0.42687 -4.20677,-0.56898 -6.50897,-0.46563 -2.29241,0.10292 -4.70792,0.4478 -7.3027,0.98627 -5.50131,1.14161 -10.35306,2.77847 -16.77512,4.52446 -2.97279,0.80823 -6.1241,1.58276 -9.33698,2.12289 -3.2104,0.53972 -6.60428,0.86733 -10.09007,0.73616 -6.51143,-0.24487 -12.28285,-1.63964 -17.33652,-3.97216 -5.06517,-2.33782 -9.19178,-5.51689 -12.52278,-9.0759 -0.41521,-0.44363 -0.81751,-0.89255 -1.20729,-1.3458 -2.71964,-3.16248 -4.84737,-6.57678 -6.51938,-9.98244 -1.87875,-3.82679 -3.19524,-7.67132 -4.12786,-11.19105 -1.25554,-4.54769 -1.48817,-9.14135 -0.67321,-13.4871 0.80589,-4.29734 2.62109,-8.26001 5.3378,-11.573 2.69018,-3.28065 6.1771,-5.8188 10.22645,-7.44134 3.99713,-1.60161 8.48241,-2.28561 13.2415,-2.01199 3.81068,0.2666 7.58572,1.20528 11.11232,2.61902 3.51127,1.4076 6.84531,3.31344 9.80063,5.58953 2.94247,2.2662 5.54403,4.92613 7.57603,7.87314 2.02747,2.94045 3.49797,6.18557 4.15129,9.59848 0.45349,2.6242 0.32261,5.16065 -0.31571,7.46 -0.63792,2.29794 -1.77783,4.34339 -3.32779,6.00872 -0.49698,0.53397 -1.03533,1.02806 -1.61193,1.47892 -1.18827,0.92914 -2.57168,1.69579 -4.14289,2.23558 -2.18959,0.75224 -4.73423,1.06026 -7.59371,0.75717 -1.88184,-0.22483 -3.82818,-0.76176 -5.7063,-1.56421 -1.82088,-0.77798 -3.58455,-1.80905 -5.14209,-3.04564 -1.52908,-1.21398 -2.86263,-2.62901 -3.84054,-4.19031 -0.97268,-1.55294 -1.59051,-3.24656 -1.69533,-5.01372 -0.044,-1.02225 0.15912,-2.03306 0.5585,-2.93706 0.40631,-0.91969 1.01588,-1.7304 1.78369,-2.34676 0.79168,-0.63552 1.73945,-1.05545 2.79648,-1.19669 1.10348,-0.14745 2.30041,0.0113 3.55366,0.50376 0.25362,0.10632 0.5173,0.25748 0.77355,0.43221 0.26712,0.18214 0.53192,0.39375 0.78006,0.61864 0.25992,0.23556 0.50261,0.4866 0.71637,0.73935 0.22613,0.26739 0.41918,0.53576 0.57106,0.79451 0.16281,0.27736 0.27733,0.5419 0.33832,0.78572 0.0325,0.12978 0.0497,0.25331 0.0512,0.36968 0.002,0.12254 -0.0141,0.23617 -0.0469,0.33998 -0.0348,0.11028 -0.0881,0.20728 -0.15735,0.29121 -0.0741,0.0899 -0.16525,0.16342 -0.26901,0.22284 -0.11307,0.0648 -0.2415,0.11298 -0.38037,0.14776 -0.15537,0.0389 -0.32458,0.0611 -0.50087,0.0705 z"
       sodipodi:nodetypes="csssssszssc"
       inkscape:path-effect="#path-effect3483;#path-effect3481"
       inkscape:original-d="m 118.41333,660.26118 c -2.99631,-0.33535 0.12076,-3.86229 1.97161,-4.55823 5.01573,-1.88594 8.28791,2.0039 7.98853,5.67297 -0.53553,6.56311 -8.74089,12.01825 -15.875,12.55996 -10.46957,0.79497 -16.205709,-7.23202 -14.005417,-15.90419 2.932647,-11.55863 17.167587,-20.50623 29.778377,-20.56168 15.86941,-0.0698 24.28747,12.48966 20.02231,26.13539 -3.86288,12.35877 -12.433,28.01717 -33.98066,28.83474 -21.547653,0.81757 -46.464679,-20.61972 -68.774889,3.06103 -14.614626,15.51242 -18.331248,33.71995 -32.343651,53.00822 -10.5023278,14.45659 -29.477436,28.6711 -48.409658,47.47087"
       class="UnoptimicedTransforms" />
    <path
       id="path3712"
       style="fill:#000000;fill-opacity:1;fill-rule:nonzero;stroke:none;stroke-width:11.2;stroke-dasharray:none"
       d="m 388.68994,680.38925 c -0.0188,-0.2965 0.0179,-0.56039 0.11809,-0.77192 0.0435,-0.0919 0.0974,-0.17042 0.16025,-0.23643 0.0588,-0.0617 0.12502,-0.11221 0.19786,-0.15294 0.13342,-0.0746 0.29541,-0.12002 0.4839,-0.13716 0.17429,-0.0159 0.37446,-0.008 0.59436,0.0274 0.40054,0.0639 0.86134,0.21791 1.26466,0.44668 0.18512,0.105 0.35033,0.22191 0.4757,0.34046 0.12019,0.11364 0.19691,0.22417 0.20473,0.29328 0.15389,0.22005 0.26693,0.47475 0.34103,0.76108 0.0724,0.27968 0.10883,0.59491 0.10512,0.94067 -0.007,0.67158 -0.16668,1.43954 -0.47834,2.21007 -0.29999,0.74166 -0.72526,1.44405 -1.22266,1.99513 -0.24168,0.26776 -0.49085,0.48899 -0.73616,0.65683 -0.24334,0.1665 -0.46922,0.27111 -0.66608,0.32274 -0.8267,0.31825 -1.84297,0.41977 -2.97884,0.28134 -1.12408,-0.137 -2.31554,-0.50426 -3.44256,-1.06573 -1.12398,-0.55995 -2.12824,-1.28565 -2.89744,-2.08962 -0.7792,-0.81441 -1.24195,-1.62872 -1.42263,-2.34283 -0.35876,-1.17616 -0.41398,-2.58699 -0.15256,-4.12339 0.26573,-1.56181 0.84579,-3.17229 1.66228,-4.65989 0.8391,-1.52878 1.88536,-2.8516 3.00402,-3.84651 1.16837,-1.03913 2.31107,-1.63132 3.30166,-1.85971 1.51693,-0.40062 3.30206,-0.39871 5.19434,-0.0179 2.0159,0.40573 4.02818,1.21579 5.82624,2.27098 1.7047,1.0004 3.14548,2.17698 4.25724,3.38253 0.16746,0.18158 0.32756,0.36411 0.48019,0.54719 1.26393,1.51609 1.94445,2.97946 2.16606,4.22005 0.43581,1.96071 0.45019,4.22821 0.0362,6.55025 -0.43026,2.41348 -1.29975,4.75982 -2.49804,6.79643 -1.24289,2.11242 -2.77241,3.78383 -4.42931,4.94179 -1.67821,1.17285 -3.47149,1.81553 -5.37673,1.98107 -3.10427,0.38491 -5.42153,0.43119 -7.37549,0.16647 -0.96134,-0.13024 -1.82565,-0.33511 -2.64255,-0.60898 -0.81228,-0.27232 -1.63133,-0.63106 -2.48577,-1.09687 -1.71885,-0.93704 -3.73561,-2.38051 -6.3151,-4.7995 -2.56091,-2.40158 -5.56301,-5.66529 -9.27784,-10.20257 -4.95541,-6.00815 -10.0738,-14.05188 -15.15036,-23.74144 -0.76576,-1.46157 -1.52846,-2.95659 -2.2874,-4.48303 -4.19885,-8.44501 -8.14331,-17.57338 -11.72708,-26.8543 -4.34614,-11.25527 -8.17245,-22.76205 -11.32075,-33.69094 -3.20673,-11.13172 -5.71749,-21.68732 -7.39436,-30.90931 -1.57062,-8.60003 -1.58191,-15.71235 -0.99223,-22.18135 0.59131,-6.4869 1.85244,-12.58271 2.7959,-19.26264 0.46321,-3.27966 0.84172,-6.73453 0.93948,-10.36188 0.097,-3.59784 -0.0813,-7.36989 -0.71943,-11.38194 -0.62824,-3.94999 -1.69265,-8.07418 -3.33739,-12.46534 -1.61263,-4.30541 -3.77714,-8.85212 -6.62567,-13.74534 l 0.14624,0.27297 c -2.93101,-5.06086 -4.9662,-10.02697 -6.77412,-15.24908 -1.61803,-4.67362 -2.93499,-9.39525 -4.85166,-14.06264 -0.42983,-1.13112 -0.86471,-2.26215 -1.30323,-3.39502 -1.8604,-4.80608 -4.10222,-10.42544 -5.9248,-15.34607 -2.13002,-5.75065 -4.05716,-11.5021 -5.20634,-16.81337 -1.08291,-5.00502 -1.4461,-9.48142 -0.78619,-13.2862 0.31263,-1.80249 0.85456,-3.45475 1.66485,-4.96303 l 0,0 c 0.78807,-1.46692 1.87006,-2.87316 3.35978,-4.18847 l 0,0 c 3.06097,-2.3982 7.12114,-3.69382 11.28984,-3.38297 2.01133,0.14999 4.0002,0.67555 5.82077,1.60457 1.77168,0.90407 3.40808,2.20258 4.75261,3.94792 2.06514,2.62799 3.10064,6.10116 2.80317,9.54345 -0.14457,1.67291 -0.6032,3.30179 -1.38416,4.77209 -0.7728,1.45494 -1.87256,2.7765 -3.33638,3.84332 -1.04785,0.78683 -2.26435,1.373 -3.56522,1.7266 -1.30048,0.3535 -2.66068,0.46766 -3.98004,0.33165 -1.32183,-0.13626 -2.58839,-0.52188 -3.7121,-1.15512 -1.12702,-0.63509 -2.13158,-1.53072 -2.91969,-2.71654 -0.53633,-0.76481 -0.9325,-1.66213 -1.16197,-2.61763 -0.23258,-0.96844 -0.28757,-1.96995 -0.1631,-2.92201 0.12659,-0.96823 0.43663,-1.87285 0.92234,-2.65092 0.49491,-0.79282 1.1855,-1.47662 2.09951,-1.97844 0.46037,-0.29035 1.04236,-0.5047 1.66972,-0.61498 0.64837,-0.11397 1.31026,-0.11122 1.91295,0.002 0.6283,0.1185 1.17896,0.35405 1.61188,0.69276 0.22564,0.17653 0.42424,0.38468 0.5896,0.62743 0.17075,0.25067 0.30897,0.54254 0.40346,0.88081 0.0454,0.0606 0.0817,0.17777 0.099,0.32473 0.018,0.15254 0.0153,0.32822 -0.005,0.50998 -0.0447,0.39478 -0.16823,0.78634 -0.32472,1.09111 -0.0854,0.16635 -0.17984,0.30615 -0.27857,0.4164 -0.10587,0.11822 -0.21899,0.20528 -0.33935,0.258 -0.065,0.0285 -0.13379,0.0477 -0.20682,0.056 -0.0772,0.009 -0.15896,0.005 -0.24486,-0.0119 -0.19221,-0.0388 -0.39173,-0.14435 -0.58991,-0.30937 0.14799,0.20507 0.31696,0.37976 0.5132,0.49801 0.0895,0.0539 0.18582,0.0968 0.28893,0.12506 0.098,0.0269 0.20119,0.0404 0.30911,0.0386 0.20293,-0.003 0.41238,-0.0609 0.62092,-0.17015 0.19228,-0.10072 0.37932,-0.24307 0.55614,-0.41937 0.3216,-0.32066 0.61285,-0.75844 0.82379,-1.24287 0.0976,-0.22418 0.18065,-0.46497 0.23635,-0.70802 0.0527,-0.22981 0.0864,-0.48544 0.0708,-0.74049 -0.0612,-0.49961 -0.19247,-0.97531 -0.39512,-1.42107 -0.19652,-0.43229 -0.4566,-0.82833 -0.77347,-1.18375 -0.60995,-0.68413 -1.40956,-1.19463 -2.30947,-1.52823 -0.85701,-0.3177 -1.80925,-0.4763 -2.77142,-0.46783 -0.92263,0.008 -1.887,0.17089 -2.78102,0.52414 -1.44294,0.61446 -2.64645,1.55117 -3.57895,2.72943 -0.90675,1.14572 -1.53464,2.4915 -1.88536,3.92627 -0.34347,1.40515 -0.42248,2.90164 -0.23288,4.38317 0.18662,1.45831 0.63682,2.92448 1.37329,4.27413 1.05941,1.88584 2.50119,3.41385 4.19672,4.56249 1.67717,1.1362 3.58042,1.88544 5.56028,2.25574 1.97063,0.36857 4.02731,0.36448 6.03444,-0.008 2.00678,-0.37282 3.98214,-1.11791 5.77736,-2.24707 2.33759,-1.494 4.19534,-3.43526 5.56496,-5.64377 1.37572,-2.21833 2.24512,-4.68287 2.63606,-7.20819 0.79345,-5.12541 -0.36918,-10.57117 -3.3867,-14.99894 -1.93182,-2.80502 -4.37599,-4.99584 -7.09032,-6.58701 -2.77356,-1.62588 -5.8093,-2.61549 -8.87309,-3.02819 -6.42688,-0.86574 -13.00439,0.77922 -18.23077,4.52494 -0.0342,0.0245 -0.11596,0.0899 -0.21895,0.17499 -2.38588,1.97234 -4.26954,4.20758 -5.7038,6.6558 -1.46633,2.50294 -2.42353,5.16085 -2.99605,7.87919 -1.18021,5.60369 -0.7468,11.57738 0.31186,17.28694 1.13325,6.11183 3.10211,12.4991 5.12426,18.44811 1.71603,5.04845 3.90265,10.99541 5.56063,15.65547 0.4009,1.1268 0.79507,2.24471 1.18178,3.35742 1.15398,3.76972 2.02838,8.53859 3.24242,13.69662 1.36185,5.78598 3.11154,11.90562 6.05792,18.38602 0.004,0.01 0.067,0.12656 0.14624,0.27297 2.33943,4.3238 3.97406,8.15023 5.10462,11.58448 1.14848,3.48868 1.7929,6.62181 2.10878,9.50401 0.32073,2.92648 0.31318,5.69228 0.0987,8.40649 -0.21851,2.76504 -0.65554,5.52428 -1.21439,8.42514 -1.08088,5.61056 -2.83293,12.59171 -3.80359,20.02518 -1.01981,7.80983 -1.29593,16.65698 0.39299,27.25495 1.59119,10.01447 4.08181,21.26514 7.30267,32.96717 3.16635,11.50396 7.08205,23.59998 11.60627,35.45408 3.72639,9.76367 7.91118,19.48124 12.46436,28.56545 0.82483,1.64564 1.65841,3.26372 2.50012,4.85168 5.52097,10.41576 11.46345,19.67298 17.70245,26.96341 4.20594,4.87221 8.04208,8.76423 11.7205,11.81129 3.75224,3.10821 7.46097,5.43713 11.31274,6.96265 1.93976,0.76826 3.87806,1.31752 5.83022,1.66543 1.95074,0.34765 3.86357,0.48508 5.75001,0.46111 3.71594,-0.0472 7.31499,-0.72238 10.86498,-1.60896 4.62291,-1.09369 8.5268,-3.37071 11.64144,-6.32386 3.01297,-2.85674 5.27376,-6.3282 6.82489,-9.99174 1.49946,-3.54149 2.38326,-7.37487 2.5924,-11.17723 0.20028,-3.6413 -0.21232,-7.40723 -1.43689,-10.87509 -1.08282,-3.02661 -2.97471,-5.68016 -5.2472,-7.88574 -0.2817,-0.2734 -0.57034,-0.54101 -0.86536,-0.80264 -1.94062,-1.72101 -4.24491,-3.25196 -6.79405,-4.46163 -2.67791,-1.27077 -5.69936,-2.21877 -8.8121,-2.56757 -2.90705,-0.32575 -6.02604,-0.13971 -8.94348,0.94263 -2.32279,0.87855 -4.34205,2.39171 -5.99951,4.19809 -1.60373,1.74783 -2.93375,3.84022 -3.90611,6.07114 -0.94773,2.17443 -1.58208,4.5427 -1.75868,6.90381 -0.17328,2.31677 0.0902,4.70504 1.01373,6.87256 0.73468,1.67858 1.93455,3.07665 3.28322,4.17582 1.35263,1.10239 2.93218,1.9687 4.56033,2.56185 1.63755,0.59658 3.37409,0.93525 5.05437,0.93921 1.69942,0.004 3.38419,-0.3352 4.84452,-1.13964 0.52181,-0.30029 0.9779,-0.67649 1.37055,-1.08387 0.39771,-0.41262 0.74325,-0.87053 1.03829,-1.34526 0.60082,-0.96674 1.02432,-2.05382 1.26043,-3.1174 0.24609,-1.10849 0.2984,-2.23156 0.11822,-3.25002 -0.0937,-0.5295 -0.25079,-1.03433 -0.4786,-1.49587 -0.2352,-0.47653 -0.54273,-0.90062 -0.92378,-1.25377 -0.23204,-0.1935 -0.50151,-0.33565 -0.75425,-0.44014 -0.26854,-0.11101 -0.55519,-0.19469 -0.83558,-0.25356 -0.6079,-0.12764 -1.2298,-0.14933 -1.76089,-0.0636 -0.29373,0.0474 -0.56155,0.12757 -0.79295,0.24092 -0.25316,0.124 -0.456,0.28443 -0.60182,0.47532 -0.0783,0.10256 -0.13799,0.21098 -0.1808,0.32318 -0.0456,0.11944 -0.0714,0.24142 -0.0817,0.36377 -0.0231,0.27493 0.0319,0.55852 0.12603,0.83315 z m 57.23318,82.05356 c 0.27177,0.12002 0.53208,0.17678 0.76519,0.15582 0.10123,-0.009 0.19359,-0.0326 0.27724,-0.0687 0.0782,-0.0338 0.14849,-0.0786 0.21187,-0.13285 0.11611,-0.0994 0.21467,-0.23577 0.29587,-0.40673 0.0751,-0.15809 0.13655,-0.34876 0.17959,-0.56724 0.0784,-0.39797 0.093,-0.8836 0.0177,-1.34111 -0.0346,-0.21 -0.0872,-0.40543 -0.15518,-0.56403 -0.0651,-0.15204 -0.14236,-0.26222 -0.20452,-0.29343 -0.15335,-0.22043 -0.35331,-0.41449 -0.59643,-0.58293 -0.23746,-0.16453 -0.5207,-0.30764 -0.84646,-0.42358 -0.63273,-0.22521 -1.40851,-0.34084 -2.23926,-0.31452 -0.79963,0.0253 -1.60568,0.18181 -2.29466,0.45824 -0.33476,0.13431 -0.62844,0.29172 -0.87069,0.46395 -0.2403,0.17086 -0.4165,0.3467 -0.53295,0.5136 -0.58422,0.66589 -1.03054,1.58454 -1.29299,2.6983 -0.25971,1.10221 -0.32662,2.3472 -0.18901,3.5988 0.13724,1.24822 0.47137,2.44133 0.96015,3.44089 0.49513,1.01256 1.09947,1.72811 1.70722,2.14433 0.97983,0.74295 2.28475,1.28211 3.81688,1.5675 1.55747,0.2901 3.26918,0.30205 4.94725,0.0497 1.72452,-0.25937 3.32732,-0.7843 4.6474,-1.49043 1.37876,-0.73752 2.32921,-1.60532 2.88572,-2.45605 0.89994,-1.28517 1.51478,-2.96108 1.81101,-4.86845 0.31558,-2.03196 0.25047,-4.20018 -0.11867,-6.25206 -0.34998,-1.94533 -0.95646,-3.70384 -1.70377,-5.1636 -0.11256,-0.21987 -0.22856,-0.43317 -0.34765,-0.63964 -0.98617,-1.70982 -2.12439,-2.85395 -3.21208,-3.49044 -1.68948,-1.08626 -3.81244,-1.883 -6.13455,-2.29661 -2.41354,-0.42989 -4.9158,-0.42441 -7.24097,-0.003 -2.41172,0.4367 -4.50858,1.29474 -6.16759,2.44966 -1.68036,1.16978 -2.90292,2.63068 -3.71638,4.36146 -1.43351,2.78024 -2.27738,4.93888 -2.7039,6.86401 -0.20984,0.94715 -0.31614,1.82903 -0.3413,2.69025 -0.025,0.85634 0.0287,1.7489 0.1707,2.71164 0.28564,1.93673 0.94361,4.32796 2.3227,7.58425 1.36915,3.23284 3.39497,7.17752 6.36977,12.23097 3.92662,6.72575 9.70721,14.30758 17.04677,22.41867 1.10711,1.22348 2.24665,2.45566 3.41697,3.69515 6.47481,6.85751 13.67879,13.71233 21.15052,20.28136 9.0612,7.96646 18.538,15.53197 27.70669,22.26158 9.33885,6.85451 18.37744,12.85688 26.45255,17.61603 7.52814,4.4446 14.19877,6.91196 20.47328,8.59313 6.29185,1.68582 12.44808,2.60795 19.04273,4.02998 3.23779,0.69817 6.61075,1.53636 10.04859,2.69758 3.40987,1.15179 6.88816,2.62205 10.43283,4.60674 3.48985,1.954 6.99251,4.37749 10.54524,7.4378 3.48336,3.00055 7.00253,6.60238 10.61061,10.9658 l -0.20565,-0.23153 c 3.73691,4.49874 7.69434,8.12408 11.97051,11.62455 3.82704,3.13282 7.80312,5.99968 11.52116,9.41061 0.91302,0.79408 1.82421,1.59287 2.73587,2.39573 3.86763,3.40602 8.36672,7.45091 12.3549,10.861 4.66092,3.98533 9.39267,7.78054 13.98006,10.69362 4.32288,2.74511 8.39828,4.6322 12.19682,5.32717 1.79953,0.32924 3.53729,0.39139 5.23262,0.15198 h 0 c 1.64884,-0.23286 3.34227,-0.76249 5.09121,-1.70618 l 0,0 c 3.30791,-2.04416 5.92626,-5.40688 7.07451,-9.42635 0.55401,-1.93934 0.7478,-3.98732 0.50483,-6.01674 -0.23644,-1.97492 -0.88977,-3.95912 -2.06325,-5.82378 -1.75288,-2.84579 -4.65457,-5.01727 -7.98773,-5.92716 -1.61988,-0.4422 -3.30692,-0.57445 -4.95647,-0.34944 -1.63233,0.22266 -3.25243,0.79823 -4.75922,1.80344 -1.10035,0.71157 -2.07065,1.65071 -2.85184,2.74936 -0.78095,1.09832 -1.35793,2.33537 -1.68603,3.6205 -0.32872,1.28753 -0.40434,2.60933 -0.19824,3.88261 0.20671,1.27703 0.70021,2.52913 1.54081,3.67834 0.53247,0.76749 1.23771,1.44924 2.05513,1.99464 0.82849,0.55279 1.74935,0.95033 2.68581,1.16239 0.95236,0.21565 1.9084,0.23717 2.80634,0.0501 0.91497,-0.1906 1.79523,-0.60248 2.58189,-1.28689 0.4315,-0.33173 0.83368,-0.80386 1.15388,-1.35452 0.33092,-0.56909 0.55697,-1.19118 0.65848,-1.79604 0.10583,-0.63056 0.075,-1.22869 -0.0933,-1.75196 -0.0877,-0.27273 -0.21446,-0.531 -0.38515,-0.77003 -0.17626,-0.24683 -0.40242,-0.47737 -0.68723,-0.68288 -0.0412,-0.0636 -0.13861,-0.13807 -0.27053,-0.20511 -0.13693,-0.0696 -0.30274,-0.12774 -0.48041,-0.17122 -0.38592,-0.0944 -0.79604,-0.11375 -1.13612,-0.0722 -0.1856,0.0227 -0.34942,0.063 -0.48699,0.11759 -0.14751,0.0585 -0.26829,0.13461 -0.35934,0.22934 -0.0492,0.0512 -0.091,0.10908 -0.12402,0.17474 -0.035,0.0695 -0.06,0.14732 -0.0734,0.23392 -0.03,0.19377 1.5e-4,0.41747 0.0865,0.66045 -0.14133,-0.20971 -0.24689,-0.42862 -0.29008,-0.65364 -0.0197,-0.10266 -0.0266,-0.20779 -0.0176,-0.31433 0.009,-0.10124 0.0316,-0.20277 0.0706,-0.30342 0.0733,-0.18926 0.19961,-0.36595 0.37416,-0.52392 0.16094,-0.14566 0.35913,-0.27201 0.58566,-0.37706 0.41201,-0.19103 0.92345,-0.31313 1.45092,-0.34376 0.24411,-0.0142 0.49875,-0.009 0.74609,0.0228 0.23384,0.03 0.48538,0.0866 0.71936,0.18933 0.4477,0.23006 0.8488,0.51752 1.19712,0.86167 0.3378,0.33374 0.61962,0.71462 0.84371,1.13476 0.43133,0.80872 0.6342,1.73545 0.63642,2.6952 0.002,0.914 -0.17799,1.86241 -0.51829,2.76242 -0.32632,0.86304 -0.81218,1.71182 -1.45251,2.4288 -1.07506,1.14186 -2.36983,1.94774 -3.79767,2.41584 -1.38842,0.45518 -2.86825,0.57955 -4.33585,0.41308 -1.4373,-0.16304 -2.86897,-0.60583 -4.19381,-1.2955 -1.30408,-0.67888 -2.5245,-1.60781 -3.53668,-2.76515 -1.40382,-1.64561 -2.33974,-3.52646 -2.83201,-5.5144 -0.48692,-1.9664 -0.53261,-4.01131 -0.19623,-5.99721 0.33482,-1.97664 1.04908,-3.90531 2.09233,-5.66009 1.04307,-1.75448 2.42463,-3.35087 4.10439,-4.64556 2.20951,-1.67764 4.67298,-2.75047 7.21865,-3.27292 2.557,-0.52477 5.17015,-0.48935 7.67507,0.0161 5.08399,1.02583 9.79295,3.99799 12.90585,8.35923 1.96507,2.78183 3.17676,5.83232 3.73239,8.9292 0.56775,3.16446 0.44783,6.35517 -0.22317,9.37293 -1.40756,6.33034 -5.22329,11.93477 -10.54377,15.54559 -0.0348,0.0236 -0.12438,0.0778 -0.23985,0.14502 -2.67508,1.55773 -5.42339,2.55334 -8.21634,3.05365 -2.85539,0.51148 -5.68034,0.49166 -8.42911,0.09 -5.66644,-0.82809 -11.12272,-3.29827 -16.11515,-6.26399 -5.34417,-3.17467 -10.6582,-7.22865 -15.54253,-11.18126 -4.14494,-3.35426 -8.97053,-7.46051 -12.77104,-10.62613 -0.91897,-0.76545 -1.83191,-1.52151 -2.74255,-2.26877 -3.13907,-2.3851 -7.31236,-4.85296 -11.73353,-7.77398 -4.95942,-3.27664 -10.09799,-7.03251 -15.16175,-12.036 -0.008,-0.007 -0.0956,-0.10663 -0.20566,-0.23154 -3.24956,-3.68897 -6.27582,-6.54472 -9.10815,-8.79197 -2.87723,-2.28286 -5.59492,-3.96987 -8.19059,-5.26189 -2.63556,-1.31187 -5.23372,-2.26016 -7.85495,-2.99642 -2.67033,-0.75005 -5.41069,-1.29303 -8.32603,-1.7706 -5.63857,-0.92367 -12.79521,-1.69093 -20.10642,-3.34771 -7.68137,-1.74067 -16.07933,-4.53756 -25.44157,-9.78332 -8.84841,-4.95248 -18.54625,-11.17605 -28.41541,-18.24082 -9.70212,-6.9452 -19.70101,-14.79813 -29.26268,-23.13856 -7.8755,-6.86962 -15.54939,-14.1535 -22.50167,-21.56433 -1.25943,-1.3425 -2.48997,-2.68369 -3.68944,-4.02211 -7.86756,-8.779 -14.50228,-17.55336 -19.18886,-25.92662 -3.11949,-5.63003 -5.44685,-10.57444 -7.03573,-15.07897 -1.62078,-4.59493 -2.52526,-8.87983 -2.62639,-13.02147 -0.0509,-2.08574 0.10315,-4.09446 0.45099,-6.04663 0.34758,-1.95075 0.87935,-3.79331 1.55346,-5.55536 1.32787,-3.4709 3.20469,-6.61519 5.26295,-9.64043 2.62323,-3.96056 6.10859,-6.83762 9.95583,-8.74046 3.72165,-1.84072 7.76037,-2.76322 11.7342,-2.9534 3.84145,-0.18385 7.74416,0.31089 11.38471,1.42805 3.48636,1.06985 6.87795,2.75789 9.70936,5.10497 2.46628,2.06162 4.30299,4.75367 5.58784,7.64814 0.15927,0.35879 0.3107,0.72211 0.45432,1.08934 0.94473,2.41565 1.5855,5.10693 1.84017,7.91701 0.26754,2.95203 0.11351,6.11496 -0.63438,9.15659 -0.69847,2.84063 -1.95043,5.70337 -3.97391,8.06737 -1.62682,1.87634 -3.74434,3.24863 -6.01205,4.18009 -2.19421,0.90128 -4.61723,1.42667 -7.04671,1.56856 -2.36796,0.1383 -4.80956,-0.0845 -7.08634,-0.73431 -2.23403,-0.63765 -4.38428,-1.70987 -6.09937,-3.32528 -1.32149,-1.26927 -2.21904,-2.87821 -2.78468,-4.52355 -0.56731,-1.65017 -0.83468,-3.43173 -0.82892,-5.16455 0.006,-1.74283 0.28781,-3.48947 0.86451,-5.06769 0.58327,-1.5962 1.48355,-3.0601 2.7429,-4.15266 0.46205,-0.38596 0.97264,-0.68403 1.49057,-0.91179 0.52461,-0.2307 1.07369,-0.39681 1.62111,-0.5097 1.11477,-0.2299 2.28122,-0.25183 3.3609,-0.10602 1.12526,0.15196 2.19727,0.4908 3.09081,1.01169 0.46455,0.27081 0.88403,0.59263 1.23847,0.96585 0.36595,0.38533 0.65771,0.82042 0.8575,1.3 0.10144,0.2846 0.14176,0.58658 0.15251,0.85986 0.0114,0.29036 -0.009,0.58826 -0.0507,0.87173 -0.0902,0.61457 -0.28467,1.20568 -0.54855,1.67448 -0.14595,0.25928 -0.3137,0.48291 -0.5,0.66092 -0.20382,0.19474 -0.42443,0.32968 -0.65394,0.40059 -0.12331,0.0381 -0.24566,0.0566 -0.36575,0.058 -0.12782,0.002 -0.25123,-0.0164 -0.3696,-0.049 -0.26599,-0.0733 -0.51311,-0.2229 -0.73833,-0.40606 z"
       sodipodi:nodetypes="caaaaassscscsssssc"
       transform="rotate(-54.533826,322.47373,673.17403)"
       inkscape:path-effect="#path-effect3715;#path-effect3739"
       inkscape:original-d="m 388.68994,680.38925 c -0.50228,-2.52142 3.21964,-1.87682 4.19076,-0.83482 2.1715,2.32996 0.33816,7.81322 -2.5211,9.21635 -4.61042,2.26248 -12.40265,-1.08207 -14.24195,-5.87704 -2.55065,-6.64943 2.47921,-17.00759 9.23298,-19.26755 8.64903,-2.89415 21.62148,3.86859 24.29313,12.58892 3.25877,10.63668 -2.76692,26.78908 -15.94485,29.31873 -13.21567,2.5369 -21.12049,0.69265 -36.7876,-17.91649 -22.70915,-26.97355 -43.15723,-85.55871 -49.72791,-124.2404 -6.52916,-38.43727 15.25259,-50.76177 -5.31322,-87.29937 -6.07347,-11.92703 -7.54822,-22.68738 -10.46306,-30.69718 -9.28408,-25.51214 -21.17198,-50.62889 -5.83595,-63.63874 8.62261,-6.4881 21.64759,-5.46711 28.13682,3.54359 5.15675,7.16046 4.21836,17.89443 -3.36584,23.00488 -5.69024,3.83426 -14.16152,2.98007 -17.87293,-3.18808 -2.529,-4.20307 -1.76175,-10.47917 3.01034,-12.741 2.66781,-1.26446 6.976,-0.57153 7.60905,2.8326 0.23359,1.25617 -1.16448,4.07441 -2.65485,2.4771"
       class="UnoptimicedTransforms" />
  </g>
</svg>
