<?xml version="1.0" encoding="UTF-8" standalone="no"?>
<svg
   width="825"
   height="1125"
   viewBox="0 0 825 1125"
   version="1.1"
   id="svg21608"
   inkscape:version="1.2.2 (732a01da63, 2022-12-09)"
   sodipodi:docname="spell.svg"
   xmlns:inkscape="http://www.inkscape.org/namespaces/inkscape"
   xmlns:sodipodi="http://sodipodi.sourceforge.net/DTD/sodipodi-0.dtd"
   xmlns="http://www.w3.org/2000/svg"
   xmlns:svg="http://www.w3.org/2000/svg"
   xmlns:rdf="http://www.w3.org/1999/02/22-rdf-syntax-ns#"
   xmlns:cc="http://creativecommons.org/ns#"
   xmlns:dc="http://purl.org/dc/elements/1.1/">
  <defs
     id="defs21602">
    <inkscape:path-effect
       effect="mirror_symmetry"
       start_point="412.5,594.96391"
       end_point="412.5,614.90404"
       center_point="412.5,604.93398"
       id="path-effect20617"
       is_visible="true"
       lpeversion="1.2"
       lpesatellites=""
       mode="free"
       discard_orig_path="false"
       fuse_paths="false"
       oposite_fuse="false"
       split_items="false"
       split_open="false"
       link_styles="false" />
    <inkscape:path-effect
       effect="mirror_symmetry"
       start_point="412.5,598.88538"
       end_point="412.5,618.82551"
       center_point="412.5,608.85544"
       id="path-effect20577"
       is_visible="true"
       lpeversion="1.2"
       lpesatellites=""
       mode="free"
       discard_orig_path="false"
       fuse_paths="false"
       oposite_fuse="false"
       split_items="false"
       split_open="false"
       link_styles="false" />
    <inkscape:path-effect
       effect="mirror_symmetry"
       start_point="412.5,598.88764"
       end_point="412.5,643.78902"
       center_point="412.5,621.33833"
       id="path-effect20573"
       is_visible="true"
       lpeversion="1.2"
       lpesatellites=""
       mode="free"
       discard_orig_path="false"
       fuse_paths="false"
       oposite_fuse="false"
       split_items="false"
       split_open="false"
       link_styles="false" />
    <inkscape:path-effect
       effect="powerstroke"
       id="path-effect20479"
       is_visible="true"
       lpeversion="1"
       offset_points="0.16489353,3.1520422 | 0.28145914,3.064678 | 0.6484644,0.32761604"
       not_jump="false"
       sort_points="true"
       interpolator_type="CentripetalCatmullRom"
       interpolator_beta="0.2"
       start_linecap_type="zerowidth"
       linejoin_type="round"
       miter_limit="4"
       scale_width="1"
       end_linecap_type="zerowidth" />
    <inkscape:path-effect
       effect="powerstroke"
       id="path-effect20473"
       is_visible="true"
       lpeversion="1"
       offset_points="0.29134868,1.2591953 | 0.54671778,0.8524837"
       not_jump="false"
       sort_points="true"
       interpolator_type="CentripetalCatmullRom"
       interpolator_beta="0.2"
       start_linecap_type="zerowidth"
       linejoin_type="round"
       miter_limit="4"
       scale_width="1"
       end_linecap_type="zerowidth" />
    <inkscape:path-effect
       effect="powerstroke"
       id="path-effect20467"
       is_visible="true"
       lpeversion="1"
       offset_points="0.29134868,1.2591953 | 0.54671778,0.8524837"
       not_jump="false"
       sort_points="true"
       interpolator_type="CentripetalCatmullRom"
       interpolator_beta="0.2"
       start_linecap_type="zerowidth"
       linejoin_type="round"
       miter_limit="4"
       scale_width="1"
       end_linecap_type="zerowidth" />
    <inkscape:path-effect
       effect="mirror_symmetry"
       start_point="461.57694,685.20453"
       end_point="348.33426,766.273"
       center_point="404.9556,725.73877"
       id="path-effect3739"
       is_visible="true"
       lpeversion="1.2"
       lpesatellites=""
       mode="free"
       discard_orig_path="false"
       fuse_paths="false"
       oposite_fuse="false"
       split_items="false"
       split_open="false"
       link_styles="false" />
    <inkscape:path-effect
       effect="powerstroke"
       id="path-effect3715"
       is_visible="true"
       lpeversion="1"
       offset_points="3.8168338,2.7393647 | 7.4056326,5.9339756 | 8.3623789,4.8653391 | 10.861161,4.3509206"
       not_jump="false"
       sort_points="true"
       interpolator_type="CentripetalCatmullRom"
       interpolator_beta="0.2"
       start_linecap_type="zerowidth"
       linejoin_type="round"
       miter_limit="4"
       scale_width="1"
       end_linecap_type="zerowidth" />
    <inkscape:path-effect
       effect="powerstroke"
       id="path-effect3483"
       is_visible="true"
       lpeversion="1"
       offset_points="5.7264147,3.5024552 | 3.0777788,1.8149216 | 7.5372243,4.0380969"
       not_jump="false"
       sort_points="true"
       interpolator_type="CentripetalCatmullRom"
       interpolator_beta="0.2"
       start_linecap_type="zerowidth"
       linejoin_type="round"
       miter_limit="4"
       scale_width="1"
       end_linecap_type="zerowidth" />
    <inkscape:path-effect
       effect="mirror_symmetry"
       start_point="-187.21984,625.19452"
       end_point="-187.21984,783.70506"
       center_point="-187.21984,704.44979"
       id="path-effect3481"
       is_visible="true"
       lpeversion="1.2"
       lpesatellites=""
       mode="free"
       discard_orig_path="false"
       fuse_paths="false"
       oposite_fuse="false"
       split_items="false"
       split_open="false"
       link_styles="false" />
    <inkscape:path-effect
       effect="mirror_symmetry"
       start_point="413.61635,464.83246"
       end_point="413.61635,587.33772"
       center_point="413.61635,526.08509"
       id="path-effect3476"
       is_visible="true"
       lpeversion="1.2"
       lpesatellites=""
       mode="free"
       discard_orig_path="false"
       fuse_paths="false"
       oposite_fuse="false"
       split_items="false"
       split_open="false"
       link_styles="false" />
    <inkscape:path-effect
       effect="powerstroke"
       id="path-effect3472"
       is_visible="true"
       lpeversion="1"
       offset_points="0.70338932,2.7202909 | 1.0495578,5.2590222 | 1.618221,3.5795042"
       not_jump="false"
       sort_points="true"
       interpolator_type="CentripetalCatmullRom"
       interpolator_beta="0.2"
       start_linecap_type="zerowidth"
       linejoin_type="round"
       miter_limit="4"
       scale_width="1"
       end_linecap_type="zerowidth" />
    <inkscape:path-effect
       effect="mirror_symmetry"
       start_point="444.72189,451.01858"
       end_point="444.72189,573.52384"
       center_point="445.15774,512.27121"
       id="path-effect3431"
       is_visible="true"
       lpeversion="1.2"
       lpesatellites=""
       mode="free"
       discard_orig_path="false"
       fuse_paths="false"
       oposite_fuse="false"
       split_items="false"
       split_open="false"
       link_styles="false" />
    <inkscape:path-effect
       effect="powerstroke"
       id="path-effect3429"
       is_visible="true"
       lpeversion="1"
       offset_points="1.5515824,4.6912351 | 4.2078236,4.7861086 | 6.2891039,6.9729324 | 7.1810418,2.8887748"
       not_jump="false"
       sort_points="true"
       interpolator_type="CentripetalCatmullRom"
       interpolator_beta="0.2"
       start_linecap_type="zerowidth"
       linejoin_type="round"
       miter_limit="4"
       scale_width="1"
       end_linecap_type="zerowidth" />
    <inkscape:path-effect
       effect="taper_stroke"
       id="path-effect3393"
       is_visible="true"
       lpeversion="1"
       stroke_width="22.87"
       attach_start="0.2"
       end_offset="0.2"
       start_smoothing="0.5"
       end_smoothing="0.5"
       jointype="extrapolated"
       start_shape="center"
       end_shape="center"
       miter_limit="100" />
    <inkscape:path-effect
       effect="powerstroke"
       id="path-effect3391"
       is_visible="true"
       lpeversion="1"
       offset_points="0.2,12.28345 | 4.5,12.28345 | 8.8,12.28345"
       not_jump="false"
       sort_points="true"
       interpolator_type="CubicBezierJohan"
       interpolator_beta="0.24"
       start_linecap_type="peak"
       linejoin_type="round"
       miter_limit="5.2"
       scale_width="0.8"
       end_linecap_type="zerowidth" />
    <inkscape:path-effect
       effect="spiro"
       id="path-effect3389"
       is_visible="true"
       lpeversion="1" />
    <inkscape:path-effect
       effect="fill_between_many"
       method="bsplinespiro"
       linkedpaths="#path2637,0,1"
       id="path-effect3395" />
  </defs>
  <sodipodi:namedview
     id="base"
     pagecolor="#ffffff"
     bordercolor="#666666"
     borderopacity="1.0"
     inkscape:pageopacity="0.0"
     inkscape:pageshadow="2"
     inkscape:zoom="0.87072287"
     inkscape:cx="338.22472"
     inkscape:cy="565.04775"
     inkscape:document-units="px"
     inkscape:current-layer="layer2"
     inkscape:document-rotation="0"
     showgrid="false"
     units="px"
     width="300px"
     inkscape:snap-bbox="true"
     inkscape:bbox-paths="true"
     inkscape:bbox-nodes="true"
     inkscape:showpageshadow="2"
     inkscape:pagecheckerboard="0"
     inkscape:deskcolor="#d1d1d1"
     inkscape:window-width="1512"
     inkscape:window-height="842"
     inkscape:window-x="0"
     inkscape:window-y="38"
     inkscape:window-maximized="0"
     showguides="true">
    <sodipodi:guide
       position="412.5,650.68146"
       orientation="-1,0"
       id="guide20575"
       inkscape:locked="false"
       inkscape:label=""
       inkscape:color="rgb(0,134,229)" />
  </sodipodi:namedview>
  <metadata
     id="metadata21605">
    <rdf:RDF>
      <cc:Work
         rdf:about="">
        <dc:format>image/svg+xml</dc:format>
        <dc:type
           rdf:resource="http://purl.org/dc/dcmitype/StillImage" />
        <dc:title />
      </cc:Work>
    </rdf:RDF>
  </metadata>
  <g
     inkscape:label="Old"
     inkscape:groupmode="layer"
     id="layer1"
     style="display:none"
     sodipodi:insensitive="true">
    <path
       id="rect10"
       style="display:inline;fill:#e6e6e6;stroke:#000000;stroke-width:0.944878;stroke-miterlimit:4;stroke-dasharray:none;stop-color:#000000"
       d="M 228.21386,470.45508 136.16894,562.5 l 92.04492,92.04492 0.40821,-0.4082 v 0.60351 h 368.57031 v -0.60156 L 688.83105,562.5 597.19239,470.86133 v -0.40625 h -0.40625 -368.16407 v 0.4082 z" />
    <path
       style="display:inline;fill:none;stroke:#000000;stroke-width:0.999999px;stroke-linecap:butt;stroke-linejoin:miter;stroke-opacity:1"
       d="M 84.849839,562.5 H 740.15016"
       id="path8" />
  </g>
  <g
     inkscape:groupmode="layer"
     id="layer2"
     inkscape:label="New">
    <path
       id="path2637"
       style="display:inline;opacity:1;vector-effect:none;fill:#000000;fill-opacity:1;fill-rule:nonzero;stroke:none;stroke-width:31.1544;stroke-linecap:round;paint-order:stroke fill markers;stop-color:#000000;stop-opacity:1"
       d="m 99.362859,513.87392 c -0.143789,-1.93494 -0.643009,-4.58067 -2.27016,-7.02569 -1.163574,-1.74842 -2.956429,-3.43521 -5.432333,-4.26271 -1.104467,-0.36914 -2.336206,-0.5605 -3.655757,-0.48578 -1.260264,0.0714 -2.57869,0.38483 -3.89905,0.99332 -1.276836,0.58843 -2.53089,1.44162 -3.713271,2.57909 -1.156059,1.11215 -2.231582,2.48441 -3.19077,4.12418 -0.100291,0.23667 -0.182441,0.43232 -0.176336,0.41997 -1.362948,3.2171 -1.928594,6.38211 -1.711392,9.4506 0.21966,3.1032 1.225446,5.88574 2.691388,8.27916 0.307102,0.50141 0.632929,0.98342 0.973845,1.44598 1.282999,1.74078 2.838209,3.28744 4.567317,4.6322 2.058319,1.60079 4.351988,2.90669 6.695047,3.9087 3.558264,1.50137 7.300086,2.08302 11.008843,1.80775 3.57969,-0.2657 7.0431,-1.32328 10.19554,-3.00836 3.08554,-1.64932 5.8758,-3.90113 8.18873,-6.60204 2.29138,-2.67573 4.12284,-5.80148 5.29808,-9.23146 1.54234,-4.46941 1.95315,-9.001 1.44411,-13.34137 -0.51204,-4.36596 -1.94812,-8.49503 -4.04564,-12.18225 -4.33742,-7.62476 -11.47672,-13.36879 -19.64717,-16.00279 -4.442677,-1.42894 -8.864659,-1.93025 -13.088337,-1.717 -0.873271,0.0441 -1.74319,0.11872 -2.608535,0.22313 -5.091315,0.6143 -10.009073,2.25792 -14.496136,4.75535 -8.924967,4.96749 -16.172043,13.33702 -19.517798,23.62352 -2.009474,6.27237 -2.501002,12.61309 -1.759284,18.67453 0.760361,6.2138 2.811407,12.08802 5.788019,17.30568 6.444034,11.29564 16.999813,19.2807 28.713211,22.57759 3.905894,1.0979 7.74226,1.52274 11.43243,1.44735 3.87868,-0.0793 7.58245,-0.71048 11.04159,-1.68157 1.12784,-0.31662 2.23277,-0.67023 3.3129,-1.05428 6.19426,-2.20246 11.78467,-5.48476 16.54513,-8.88268 6.37124,-4.54765 12.03518,-9.86227 16.76643,-14.7942 5.11516,-5.33212 9.7354,-10.84416 13.71837,-15.72565 3.2815,-3.95088 6.627,-7.97232 10.11124,-11.8334 1.26145,-1.39789 2.58587,-2.83255 3.96454,-4.27522 4.65608,-4.87222 9.86964,-9.7767 16.00132,-14.33829 6.33564,-4.71333 13.15686,-8.69371 20.77532,-12.06192 10.69899,-4.73015 21.09783,-7.39785 28.40646,-8.97853 -7.34078,1.19175 -17.95742,3.33325 -29.03841,7.41655 -7.92499,2.92032 -15.17044,6.48045 -22.06226,10.82033 -6.68291,4.20832 -12.46157,8.78987 -17.69502,13.35775 -1.54508,1.34858 -3.03308,2.68795 -4.45117,3.98791 -3.77055,3.45646 -7.89949,7.37396 -11.49421,10.73991 -4.60114,4.22704 -9.78704,8.84018 -15.2664,13.23651 -5.07386,4.07098 -10.80809,8.28558 -16.71698,11.7462 -4.4476,2.6048 -9.18404,4.89578 -13.97549,6.35487 -0.82779,0.25208 -1.65752,0.47937 -2.48838,0.6791 -2.55121,0.61329 -5.111041,0.96645 -7.664973,0.98166 -2.416717,0.0144 -4.871749,-0.2732 -7.361194,-0.9622 -8.202457,-2.26769 -16.061734,-7.73762 -21.097597,-15.62683 -2.34562,-3.67467 -4.054379,-7.82588 -4.853434,-12.2551 -0.775839,-4.30054 -0.697829,-8.8897 0.526089,-13.55119 1.916314,-7.51604 6.82543,-14.11304 13.427736,-18.20074 3.285096,-2.0339 6.91129,-3.39369 10.662473,-3.94212 0.63712,-0.0932 1.277459,-0.16285 1.920052,-0.20855 3.100681,-0.22054 6.361716,0.10446 9.661461,1.14199 5.925187,1.8561 11.130697,6.09454 14.206267,11.68099 1.47354,2.67653 2.41419,5.59223 2.70845,8.5804 0.29101,2.95526 -0.0481,5.99394 -1.14148,8.9863 -0.80465,2.17428 -2.03739,4.17806 -3.57544,5.89989 -1.55534,1.7412 -3.39168,3.15968 -5.35757,4.17883 -2.00465,1.03924 -4.10619,1.64534 -6.18227,1.80377 -2.131278,0.16264 -4.27202,-0.14176 -6.359229,-0.96714 -1.690847,-0.65985 -3.309541,-1.4894 -4.747171,-2.44862 -1.20229,-0.8022 -2.240189,-1.66928 -3.103793,-2.57955 -0.229446,-0.24185 -0.449786,-0.48997 -0.659825,-0.74456 -0.980724,-1.18875 -1.777076,-2.565 -2.20506,-4.19361 -0.427035,-1.625 -0.52286,-3.63747 0.07137,-6.11818 l -0.176336,0.41997 c 0.501267,-1.27558 1.058149,-2.31779 1.633618,-3.16363 0.586907,-0.86267 1.203424,-1.53643 1.823166,-2.05461 0.640588,-0.53561 1.30692,-0.92381 1.986781,-1.18113 0.714951,-0.27061 1.459187,-0.40176 2.216785,-0.39585 1.725173,0.0135 3.41408,0.73427 4.822249,1.93082 1.967498,1.67181 3.059021,3.95324 3.579302,5.88695 z m 691.589761,0 c 0.14379,-1.93494 0.64301,-4.58067 2.27016,-7.02569 1.16357,-1.74842 2.95643,-3.43521 5.43233,-4.26271 1.10447,-0.36914 2.33621,-0.5605 3.65576,-0.48578 1.26026,0.0714 2.57869,0.38483 3.89905,0.99332 1.27684,0.58843 2.53089,1.44162 3.71327,2.57909 1.15606,1.11215 2.23158,2.48441 3.19077,4.12418 0.10029,0.23667 0.18244,0.43232 0.17634,0.41997 1.36295,3.2171 1.92859,6.38211 1.71139,9.4506 -0.21966,3.1032 -1.22545,5.88574 -2.69139,8.27916 -0.3071,0.50141 -0.63293,0.98342 -0.97384,1.44598 -1.283,1.74078 -2.83821,3.28744 -4.56732,4.6322 -2.05832,1.60079 -4.35199,2.90669 -6.69505,3.9087 -3.55826,1.50137 -7.30008,2.08302 -11.00884,1.80775 -3.57969,-0.2657 -7.0431,-1.32328 -10.19554,-3.00836 -3.08554,-1.64932 -5.8758,-3.90113 -8.18873,-6.60204 -2.29138,-2.67573 -4.12284,-5.80148 -5.29808,-9.23146 -1.54234,-4.46941 -1.95315,-9.001 -1.44411,-13.34137 0.51204,-4.36596 1.94812,-8.49503 4.04564,-12.18225 4.33742,-7.62476 11.47672,-13.36879 19.64717,-16.00279 4.44268,-1.42894 8.86466,-1.93025 13.08834,-1.717 0.87327,0.0441 1.74319,0.11872 2.60853,0.22313 5.09132,0.6143 10.00908,2.25792 14.49614,4.75535 8.92497,4.96749 16.17204,13.33702 19.5178,23.62352 2.00947,6.27237 2.501,12.61309 1.75928,18.67453 -0.76036,6.2138 -2.81141,12.08802 -5.78802,17.30568 -6.44403,11.29564 -16.99981,19.2807 -28.71321,22.57759 -3.90589,1.0979 -7.74226,1.52274 -11.43243,1.44735 -3.87868,-0.0793 -7.58245,-0.71048 -11.04159,-1.68157 -1.12784,-0.31662 -2.23277,-0.67023 -3.3129,-1.05428 -6.19426,-2.20246 -11.78467,-5.48476 -16.54513,-8.88268 -6.37124,-4.54765 -12.03518,-9.86227 -16.76643,-14.7942 -5.11516,-5.33212 -9.7354,-10.84416 -13.71837,-15.72565 -3.2815,-3.95088 -6.627,-7.97232 -10.11124,-11.8334 -1.26145,-1.39789 -2.58587,-2.83255 -3.96454,-4.27522 -4.65608,-4.87222 -9.86964,-9.7767 -16.00132,-14.33829 -6.33564,-4.71333 -13.15686,-8.69371 -20.77532,-12.06192 -10.69899,-4.73015 -21.09783,-7.39785 -28.40646,-8.97853 7.34078,1.19175 17.95742,3.33325 29.03841,7.41655 7.92499,2.92032 15.17044,6.48045 22.06226,10.82033 6.68291,4.20832 12.46157,8.78987 17.69502,13.35775 1.54508,1.34858 3.03308,2.68795 4.45117,3.98791 3.77055,3.45646 7.89949,7.37396 11.49421,10.73991 4.60114,4.22704 9.78704,8.84018 15.2664,13.23651 5.07386,4.07098 10.80809,8.28558 16.71698,11.7462 4.4476,2.6048 9.18404,4.89578 13.97549,6.35487 0.82779,0.25208 1.65752,0.47937 2.48838,0.6791 2.55121,0.61329 5.11104,0.96645 7.66497,0.98166 2.41672,0.0144 4.87175,-0.2732 7.3612,-0.9622 8.20245,-2.26769 16.06173,-7.73762 21.09759,-15.62683 2.34562,-3.67467 4.05438,-7.82588 4.85344,-12.2551 0.77584,-4.30054 0.69783,-8.8897 -0.52609,-13.55119 -1.91632,-7.51604 -6.82543,-14.11304 -13.42774,-18.20074 -3.28509,-2.0339 -6.91129,-3.39369 -10.66247,-3.94212 -0.63712,-0.0932 -1.27746,-0.16285 -1.92005,-0.20855 -3.10068,-0.22054 -6.36172,0.10446 -9.66146,1.14199 -5.92519,1.8561 -11.1307,6.09454 -14.20627,11.68099 -1.47354,2.67653 -2.41419,5.59223 -2.70845,8.5804 -0.29101,2.95526 0.0481,5.99394 1.14148,8.9863 0.80465,2.17428 2.03739,4.17806 3.57544,5.89989 1.55534,1.7412 3.39168,3.15968 5.35757,4.17883 2.00465,1.03924 4.10619,1.64534 6.18227,1.80377 2.13128,0.16264 4.27202,-0.14176 6.35923,-0.96714 1.69085,-0.65985 3.30954,-1.4894 4.74717,-2.44862 1.20229,-0.8022 2.24019,-1.66928 3.10379,-2.57955 0.22945,-0.24185 0.44979,-0.48997 0.65983,-0.74456 0.98072,-1.18875 1.77707,-2.565 2.20506,-4.19361 0.42703,-1.625 0.52286,-3.63747 -0.0714,-6.11818 l 0.17633,0.41997 c -0.50126,-1.27558 -1.05815,-2.31779 -1.63362,-3.16363 -0.5869,-0.86267 -1.20342,-1.53643 -1.82316,-2.05461 -0.64059,-0.53561 -1.30692,-0.92381 -1.98678,-1.18113 -0.71495,-0.27061 -1.45919,-0.40176 -2.21679,-0.39585 -1.72517,0.0135 -3.41408,0.73427 -4.82225,1.93082 -1.9675,1.67181 -3.05902,3.95324 -3.5793,5.88695 z"
       sodipodi:nodetypes="ccssssssc"
       inkscape:linked-fill="path3397"
       class="UnoptimicedTransforms"
       inkscape:original-d="m 99.362859,513.87392 c -1.786528,-10.5017 -13.314991,-14.12317 -19.111621,-2.55007 -3.919556,11.41686 4.094355,18.67168 11.930341,21.90058 11.499621,4.73854 24.133931,-2.79661 28.082851,-13.97473 5.26327,-14.89867 -4.48428,-30.7594 -19.01097,-35.38705 -18.280367,-5.82342 -37.405208,6.1679 -42.691262,24.04721 -6.402111,21.65423 7.849066,44.0626 29.083441,49.99546 25.023981,6.99167 50.690431,-17.83661 68.145131,-36.36358 20.00374,-21.23258 37.61962,-40.50911 81.99998,-48.90491"
       inkscape:path-effect="#path-effect3429;#path-effect3431"
       transform="matrix(0.78855357,0,0,0.78855357,61.469275,108.22168)" />
    <path
       id="path3478"
       style="display:inline;fill:#000000;fill-opacity:1;fill-rule:nonzero;stroke:none"
       transform="rotate(180,112.64008,638.56937)"
       d="m 118.41333,660.26118 c -0.17318,-0.0309 -0.33604,-0.0746 -0.48095,-0.13388 -0.12842,-0.0526 -0.23967,-0.1162 -0.33025,-0.19107 -0.0825,-0.0682 -0.14541,-0.14366 -0.1893,-0.22537 -0.0406,-0.0755 -0.0648,-0.15615 -0.074,-0.24206 -0.009,-0.0808 -0.004,-0.1681 0.0138,-0.26237 0.0172,-0.0897 0.047,-0.1863 0.0902,-0.28978 0.0813,-0.19467 0.20963,-0.41143 0.38577,-0.64382 0.16401,-0.2164 0.36675,-0.44254 0.60108,-0.66715 0.22154,-0.21236 0.46902,-0.42104 0.72986,-0.612 0.24963,-0.18276 0.50879,-0.34722 0.76091,-0.47868 0.24438,-0.12742 0.47443,-0.21962 0.66973,-0.26628 1.16507,-0.38726 2.20275,-0.43907 3.089,-0.25071 0.85016,0.18068 1.56413,0.58284 2.12675,1.12533 0.55278,0.533 0.96211,1.20447 1.2033,1.93501 0.24014,0.72733 0.30795,1.49582 0.19916,2.2225 -0.16524,1.41683 -0.74579,2.76836 -1.63584,4.02279 -0.91167,1.28491 -2.13781,2.44891 -3.54012,3.43664 -1.457,1.02625 -3.07608,1.84315 -4.70292,2.42095 -1.73104,0.6148 -3.42793,0.94501 -4.96483,1.01239 -0.75265,0.041 -1.46034,0.031 -2.12323,-0.0208 -1.48877,-0.11613 -2.80842,-0.44699 -3.95451,-0.93652 -1.65872,-0.70848 -2.9717,-1.75626 -3.93405,-3.00912 -0.96468,-1.25589 -1.59689,-2.74324 -1.86317,-4.36192 -0.26758,-1.62659 -0.16775,-3.39964 0.35238,-5.21763 0.69422,-2.50259 2.01319,-4.88928 3.80567,-7.07011 1.81142,-2.20389 4.08987,-4.17687 6.64574,-5.82267 2.58945,-1.66744 5.43329,-2.9798 8.32595,-3.86448 2.94415,-0.90042 5.89447,-1.34492 8.6656,-1.30487 3.59396,0.0373 6.6067,0.79447 9.03406,1.98251 2.48627,1.21688 4.40666,2.90693 5.7832,4.8534 1.28524,1.81737 2.12594,3.89827 2.50869,6.12933 0.0406,0.23677 0.076,0.47547 0.10609,0.71595 0.32423,2.5907 0.0367,5.39598 -0.9193,8.26595 -0.98949,2.97051 -2.23216,6.01074 -3.82239,8.91396 -1.63189,2.9793 -3.59316,5.74703 -5.95823,8.13342 -2.41172,2.43345 -5.24093,4.46884 -8.58941,5.94836 h 0 c -3.33604,1.47403 -7.27299,2.4343 -11.96005,2.63461 -11.68676,-1.28136 -21.796854,-0.26435 -30.624193,2.50266 -9.000022,2.82114 -16.550682,7.4255 -22.992825,13.09016 -0.96178,0.84571 -1.898677,1.71487 -2.811933,2.60509 -5.049223,4.92182 -9.515011,10.63434 -13.62251,16.97276 -4.580016,7.06757 -8.53004,14.62343 -12.257783,22.2188 -2.793081,5.80896 -5.244231,10.81301 -7.801649,15.37177 -2.677687,4.77314 -5.351668,8.83568 -8.399302,12.5525 -3.45314,4.21137 -7.2171709,7.76167 -11.3905933,10.97063 -5.7372186,4.41137 -11.8918396,7.87538 -16.7377457,10.32889 4.941785,-2.13354 11.44583355,-5.1348 17.6457195,-9.02234 4.5319155,-2.84168 8.8147275,-6.08865 12.8736045,-10.09006 3.593363,-3.54249 6.839729,-7.50031 10.080229,-12.19447 3.078685,-4.45976 6.029874,-9.40317 9.227778,-15.03832 4.097873,-7.34875 8.234784,-14.41828 12.865898,-20.96733 4.138723,-5.85274 8.430834,-10.94083 13.08404,-15.25255 0.840183,-0.77853 1.696028,-1.53486 2.568602,-2.26754 5.822216,-4.88876 12.431783,-8.76144 20.191661,-11.13155 7.681044,-2.34604 16.691712,-3.28217 27.469922,-2.09072 0.21713,0.024 0.4308,0.0318 0.63903,0.0235 5.85929,-0.23578 10.98647,-1.49928 15.43612,-3.57782 4.36279,-2.03797 7.97106,-4.81092 10.94147,-8.0057 2.89497,-3.11363 5.15753,-6.59816 6.94086,-10.14859 1.73705,-3.45828 3.02078,-6.98145 3.9956,-10.29467 1.14478,-3.85131 1.45009,-7.73709 0.88573,-11.43458 -0.0523,-0.34268 -0.11207,-0.68361 -0.17931,-1.02257 -0.63589,-3.20577 -1.95035,-6.22611 -3.93232,-8.85365 -2.12859,-2.82191 -4.99304,-5.14359 -8.49367,-6.7248 -3.4112,-1.54081 -7.38661,-2.36067 -11.81232,-2.28804 -3.47792,0.0673 -7.03234,0.74324 -10.45568,1.91658 -3.36821,1.15444 -6.63686,2.80008 -9.58974,4.84837 -2.91343,2.02092 -5.54258,4.45044 -7.64065,7.20387 -2.078285,2.72746 -3.65003,5.7934 -4.427711,9.0924 -0.577026,2.50665 -0.59056,4.98971 -0.07199,7.29317 0.516736,2.29531 1.557887,4.39272 3.064221,6.13184 1.505982,1.73871 3.451952,3.09076 5.744542,3.93446 1.5785,0.5809 3.30925,0.91667 5.16367,0.9822 0.82549,0.0292 1.68844,0.005 2.58781,-0.0792 1.90148,-0.19344 3.90153,-0.70716 5.8649,-1.52379 1.84775,-0.76854 3.66721,-1.80823 5.29128,-3.08678 1.56147,-1.22926 2.95248,-2.68836 3.97963,-4.32912 1.0073,-1.60905 1.66603,-3.39703 1.77048,-5.28746 0.0411,-1.10785 -0.18823,-2.20115 -0.63398,-3.17651 -0.44958,-0.98371 -1.1205,-1.85099 -1.96576,-2.50521 -0.86689,-0.67096 -1.89784,-1.10346 -3.03547,-1.23176 -1.18024,-0.13311 -2.43515,0.0645 -3.72363,0.59967 -0.27361,0.12883 -0.54927,0.30427 -0.8083,0.49755 -0.27077,0.20204 -0.53594,0.43291 -0.78157,0.67482 -0.2574,0.25351 -0.49572,0.52138 -0.7041,0.79 -0.22039,0.28409 -0.40687,0.56836 -0.55144,0.8422 -0.155,0.2936 -0.26108,0.57368 -0.31232,0.83171 -0.0273,0.13752 -0.0389,0.2683 -0.0344,0.3912 0.005,0.12967 0.0276,0.24911 0.0677,0.35723 0.0427,0.11514 0.10393,0.21434 0.17994,0.29852 0.0816,0.0904 0.17888,0.16193 0.28637,0.21852 0.11772,0.062 0.24919,0.10675 0.38874,0.13851 0.15775,0.0359 0.32795,0.0556 0.50299,0.0637 z m -611.26634,0 c 0.17318,-0.0309 0.33604,-0.0746 0.48095,-0.13388 0.12842,-0.0526 0.23967,-0.1162 0.33025,-0.19107 0.0825,-0.0682 0.14541,-0.14366 0.1893,-0.22537 0.0406,-0.0755 0.0648,-0.15615 0.074,-0.24206 0.009,-0.0808 0.004,-0.1681 -0.0138,-0.26237 -0.0172,-0.0897 -0.047,-0.1863 -0.0902,-0.28978 -0.0813,-0.19467 -0.20963,-0.41143 -0.38577,-0.64382 -0.16401,-0.2164 -0.36675,-0.44254 -0.60108,-0.66715 -0.22154,-0.21236 -0.46902,-0.42104 -0.72986,-0.612 -0.24963,-0.18276 -0.50879,-0.34722 -0.76091,-0.47868 -0.24438,-0.12742 -0.47443,-0.21962 -0.66973,-0.26628 -1.16507,-0.38726 -2.20275,-0.43907 -3.089,-0.25071 -0.85016,0.18068 -1.56413,0.58284 -2.12675,1.12533 -0.55278,0.533 -0.96211,1.20447 -1.2033,1.93501 -0.24014,0.72733 -0.30795,1.49582 -0.19916,2.2225 0.16524,1.41683 0.74579,2.76836 1.63584,4.02279 0.91167,1.28491 2.13781,2.44891 3.54012,3.43664 1.457,1.02625 3.07608,1.84315 4.70292,2.42095 1.73104,0.6148 3.42793,0.94501 4.96483,1.01239 0.75265,0.041 1.46034,0.031 2.12323,-0.0208 1.48877,-0.11613 2.80842,-0.44699 3.95451,-0.93652 1.65872,-0.70848 2.9717,-1.75626 3.93405,-3.00912 0.96468,-1.25589 1.59689,-2.74324 1.86317,-4.36192 0.26758,-1.62659 0.16775,-3.39964 -0.35238,-5.21763 -0.69422,-2.50259 -2.01319,-4.88928 -3.80567,-7.07011 -1.81142,-2.20389 -4.08987,-4.17687 -6.64574,-5.82267 -2.58945,-1.66744 -5.43329,-2.9798 -8.32595,-3.86448 -2.94415,-0.90042 -5.89447,-1.34492 -8.6656,-1.30487 -3.59396,0.0373 -6.6067,0.79447 -9.03406,1.98251 -2.48627,1.21688 -4.40666,2.90693 -5.7832,4.8534 -1.28524,1.81737 -2.12594,3.89827 -2.50869,6.12933 -0.0406,0.23677 -0.076,0.47547 -0.10609,0.71595 -0.32423,2.5907 -0.0367,5.39598 0.9193,8.26595 0.98949,2.97051 2.23216,6.01074 3.82239,8.91396 1.63189,2.9793 3.59316,5.74703 5.95823,8.13342 2.41172,2.43345 5.24093,4.46884 8.58941,5.94836 h 0 c 3.33604,1.47403 7.27299,2.4343 11.96005,2.63461 11.68676,-1.28136 21.79685,-0.26435 30.62419,2.50266 9.00003,2.82114 16.55069,7.4255 22.99283,13.09016 0.96178,0.84571 1.89868,1.71487 2.81193,2.60509 5.04922,4.92182 9.51501,10.63434 13.62251,16.97276 4.58002,7.06757 8.53004,14.62343 12.25778,22.2188 2.79308,5.80896 5.24424,10.81301 7.80165,15.37177 2.67769,4.77314 5.35167,8.83568 8.3993,12.5525 3.45315,4.21137 7.21718,7.76167 11.3906,10.97063 5.73722,4.41137 11.89184,7.87538 16.73774,10.32889 -4.94178,-2.13354 -11.44583,-5.1348 -17.64572,-9.02234 -4.53191,-2.84168 -8.81472,-6.08865 -12.8736,-10.09006 -3.59336,-3.54249 -6.83973,-7.50031 -10.08023,-12.19447 -3.07868,-4.45976 -6.02987,-9.40317 -9.22778,-15.03832 -4.09787,-7.34875 -8.23478,-14.41828 -12.8659,-20.96733 -4.13872,-5.85274 -8.43083,-10.94083 -13.08403,-15.25255 -0.84019,-0.77853 -1.69603,-1.53486 -2.56861,-2.26754 -5.82221,-4.88876 -12.43178,-8.76144 -20.19166,-11.13155 -7.68104,-2.34604 -16.69171,-3.28217 -27.46992,-2.09072 -0.21713,0.024 -0.4308,0.0318 -0.63903,0.0235 -5.85929,-0.23578 -10.98647,-1.49928 -15.43612,-3.57782 -4.36279,-2.03797 -7.97106,-4.81092 -10.94147,-8.0057 -2.89497,-3.11363 -5.15753,-6.59816 -6.94086,-10.14859 -1.73705,-3.45828 -3.02078,-6.98145 -3.9956,-10.29467 -1.14478,-3.85131 -1.45009,-7.73709 -0.88573,-11.43458 0.0523,-0.34268 0.11207,-0.68361 0.17931,-1.02257 0.63589,-3.20577 1.95035,-6.22611 3.93232,-8.85365 2.12859,-2.82191 4.99304,-5.14359 8.49367,-6.7248 3.4112,-1.54081 7.38661,-2.36067 11.81232,-2.28804 3.47792,0.0673 7.03234,0.74324 10.45568,1.91658 3.36821,1.15444 6.63686,2.80008 9.58974,4.84837 2.91343,2.02092 5.54258,4.45044 7.64065,7.20387 2.07829,2.72746 3.65003,5.7934 4.42771,9.0924 0.57703,2.50665 0.59056,4.98971 0.072,7.29317 -0.51673,2.29531 -1.55788,4.39272 -3.06422,6.13184 -1.50598,1.73871 -3.45195,3.09076 -5.74454,3.93446 -1.5785,0.5809 -3.30925,0.91667 -5.16367,0.9822 -0.82549,0.0292 -1.68844,0.005 -2.58781,-0.0792 -1.90148,-0.19344 -3.90153,-0.70716 -5.8649,-1.52379 -1.84775,-0.76854 -3.66721,-1.80823 -5.29128,-3.08678 -1.56147,-1.22926 -2.95248,-2.68836 -3.97963,-4.32912 -1.0073,-1.60905 -1.66603,-3.39703 -1.77048,-5.28746 -0.0411,-1.10785 0.18823,-2.20115 0.63398,-3.17651 0.44958,-0.98371 1.1205,-1.85099 1.96576,-2.50521 0.86689,-0.67096 1.89784,-1.10346 3.03547,-1.23176 1.18024,-0.13311 2.43515,0.0645 3.72363,0.59967 0.27361,0.12883 0.54927,0.30427 0.8083,0.49755 0.27077,0.20204 0.53594,0.43291 0.78157,0.67482 0.2574,0.25351 0.49572,0.52138 0.7041,0.79 0.22039,0.28409 0.40687,0.56836 0.55144,0.8422 0.155,0.2936 0.26108,0.57368 0.31232,0.83171 0.0273,0.13752 0.0389,0.2683 0.0344,0.3912 -0.005,0.12967 -0.0276,0.24911 -0.0677,0.35723 -0.0427,0.11514 -0.10393,0.21434 -0.17994,0.29852 -0.0816,0.0904 -0.17888,0.16193 -0.28637,0.21852 -0.11772,0.062 -0.24919,0.10675 -0.38874,0.13851 -0.15775,0.0359 -0.32795,0.0556 -0.50299,0.0637 z"
       sodipodi:nodetypes="csssssscsc"
       inkscape:path-effect="#path-effect3483;#path-effect3481"
       inkscape:original-d="m 118.41333,660.26118 c -2.99631,-0.33535 0.12076,-3.86229 1.97161,-4.55823 5.01573,-1.88594 8.28791,2.0039 7.98853,5.67297 -0.53553,6.56311 -8.74089,12.01825 -15.875,12.55996 -10.46957,0.79497 -16.205709,-7.23202 -14.005417,-15.90419 2.932647,-11.55863 17.167587,-20.50623 29.778377,-20.56168 15.86941,-0.0698 24.28747,12.48966 20.02231,26.13539 -3.86288,12.35877 -12.433,28.01717 -33.98066,28.83474 -44.939788,-5.0248 -64.05894,25.21995 -79.405603,54.53167 C 23.074648,769.5722 15.087803,781.986 -12.170834,794.7563"
       class="UnoptimicedTransforms" />
    <path
       id="path3712"
       style="fill:#000000;fill-opacity:1;fill-rule:nonzero;stroke:none;stroke-width:11.2;stroke-dasharray:none"
       d="m 368.96238,652.69767 c -0.0304,-0.29135 -0.008,-0.55847 0.082,-0.78096 0.0387,-0.0961 0.0887,-0.18108 0.14934,-0.25484 0.0566,-0.0688 0.1221,-0.12765 0.196,-0.17707 0.13564,-0.0907 0.30324,-0.15223 0.5015,-0.1837 0.18254,-0.029 0.39201,-0.0325 0.62238,-0.008 0.41942,0.0444 0.90062,0.18184 1.33182,0.39809 0.19836,0.0995 0.37867,0.21232 0.52334,0.33043 0.14018,0.11444 0.23735,0.22678 0.277,0.31422 0.18375,0.23845 0.32216,0.51561 0.41695,0.82724 0.0925,0.30424 0.14434,0.64443 0.15298,1.01423 0.0168,0.7188 -0.13051,1.53301 -0.43346,2.34613 -0.2928,0.7859 -0.71912,1.53663 -1.229,2.14071 -0.24911,0.29513 -0.51093,0.54652 -0.7758,0.74601 -0.26322,0.19825 -0.51898,0.33738 -0.75775,0.4214 -0.91256,0.38267 -2.01541,0.51318 -3.22115,0.39298 -1.20115,-0.11974 -2.46336,-0.48511 -3.65244,-1.04816 -1.19594,-0.5663 -2.27313,-1.31132 -3.11548,-2.14934 -0.85975,-0.85535 -1.41526,-1.74648 -1.66898,-2.581 -0.4376,-1.31596 -0.51627,-2.85706 -0.27037,-4.48474 0.25435,-1.68368 0.84618,-3.39485 1.66949,-4.95879 0.86581,-1.64469 1.95333,-3.06465 3.11867,-4.14742 0.32182,-0.29902 0.647,-0.57003 0.97277,-0.81268 0.89533,-0.66687 1.80607,-1.12551 2.68922,-1.36316 1.63796,-0.47147 3.58217,-0.5257 5.6965,-0.13239 2.06392,0.38394 4.21008,1.18152 6.218,2.32182 1.97985,1.12437 3.75162,2.54076 5.11927,4.10864 1.36498,1.56482 2.23859,3.1766 2.60622,4.69058 0.51255,1.98497 0.52242,4.34745 0.0145,6.89018 -0.50952,2.55075 -1.51689,5.15987 -2.8984,7.54674 -1.40175,2.42186 -3.1266,4.50915 -4.97763,6.06062 -1.89837,1.59115 -3.78568,2.50363 -5.50156,2.82366 -1.7011,0.35994 -3.39112,0.43148 -5.07099,0.26457 -1.71559,-0.17046 -3.44643,-0.5918 -5.19079,-1.23767 -3.6164,-1.33902 -7.21969,-3.61968 -10.65605,-6.48722 -3.6077,-3.01052 -6.93926,-6.58976 -9.8434,-10.23386 -3.11306,-3.90625 -5.72362,-7.86996 -7.74228,-11.38504 -5.5792,-9.57595 -8.30069,-19.79616 -9.66327,-29.80203 -0.94684,-6.953 -1.25794,-14.00407 -1.29472,-20.73589 -0.0246,-4.50527 0.0739,-8.98834 0.20736,-13.16996 0.48696,-15.26156 1.12951,-23.55178 1.07226,-36.06398 -0.0573,-12.51489 -0.98205,-24.55068 -3.8291,-36.07882 -1.40247,-5.37922 -3.92826,-15.33884 -6.20601,-22.88038 -0.83272,-2.75709 -1.75047,-5.60697 -2.788,-8.54173 -3.40396,-9.62847 -8.18068,-20.46125 -16.4437,-33.72004 -2.52635,-4.04871 -4.93994,-9.21077 -6.92988,-15.03285 -1.89141,-5.53379 -3.36509,-11.57031 -4.1281,-17.48325 -0.73548,-5.6996 -0.78989,-11.14151 0.0157,-15.70609 0.39047,-2.2125 0.97114,-4.14874 1.72695,-5.77389 0.74132,-1.59398 1.63165,-2.84831 2.64546,-3.79154 2.09871,-1.95184 4.15018,-3.0445 6.06923,-3.5711 1.87308,-0.51398 3.76778,-0.52915 5.65179,-0.12078 1.86,0.40317 3.71272,1.22222 5.44732,2.37607 0.75659,0.50327 1.48058,1.0637 2.16079,1.66789 0.82092,0.72917 1.59052,1.53387 2.27711,2.39071 0.69272,0.83365 1.31807,2.06864 1.69281,3.73811 0.34564,1.53985 0.4494,3.33895 0.23777,5.22369 -0.19975,1.77892 -0.6719,3.54363 -1.39816,5.08807 -0.69749,1.48326 -1.58495,2.66962 -2.58358,3.47209 -0.63216,0.53658 -1.57994,1.00284 -2.83929,1.27435 -1.21978,0.26298 -2.62149,0.31733 -4.05531,0.1364 -1.40855,-0.17773 -2.77241,-0.57325 -3.9428,-1.14709 -1.16034,-0.56892 -2.06289,-1.27877 -2.66164,-2.05745 -0.37219,-0.43119 -0.69267,-1.10632 -0.86668,-2.00971 -0.17241,-0.89504 -0.18097,-1.91523 -0.0218,-2.93877 0.16027,-1.03059 0.48114,-2.00611 0.91838,-2.82271 0.44319,-0.82768 0.98223,-1.45057 1.56157,-1.84586 0.10797,-0.10199 0.26973,-0.20344 0.48648,-0.28967 0.21875,-0.087 0.47899,-0.1528 0.77023,-0.19184 0.60125,-0.0806 1.27707,-0.0403 1.92243,0.10336 0.67182,0.14958 1.26724,0.40041 1.72446,0.70398 0.23544,0.15633 0.43089,0.32417 0.58561,0.49779 0.15831,0.17766 0.27839,0.36611 0.35681,0.56572 0.0446,0.0215 0.0924,0.124 0.11774,0.25625 0.0266,0.13906 0.0324,0.30788 0.0199,0.48539 -0.0273,0.38693 -0.13666,0.78211 -0.27963,1.09161 -0.0785,0.16994 -0.16656,0.31386 -0.25912,0.42832 -0.0999,0.12359 -0.20754,0.21611 -0.3229,0.27426 -0.0629,0.0317 -0.12981,0.0541 -0.20129,0.0655 -0.0763,0.0121 -0.15726,0.0117 -0.24257,-0.003 -0.19538,-0.0336 -0.3964,-0.13846 -0.59165,-0.30012 0.14428,0.20112 0.31222,0.37975 0.51175,0.50157 0.0894,0.0546 0.18643,0.0985 0.29154,0.12785 0.0991,0.0276 0.20422,0.0419 0.31504,0.0404 0.20671,-0.003 0.42194,-0.0602 0.63823,-0.17095 0.19794,-0.10137 0.39178,-0.24482 0.5764,-0.42288 0.33376,-0.3219 0.64134,-0.76218 0.86919,-1.24886 0.10508,-0.22446 0.19709,-0.46775 0.26053,-0.71394 0.0596,-0.23118 0.10264,-0.49828 0.0875,-0.76919 -0.0514,-0.45356 -0.19134,-0.89208 -0.40581,-1.30637 -0.20752,-0.40089 -0.48193,-0.77359 -0.80581,-1.11361 -0.62194,-0.65291 -1.43578,-1.19508 -2.33843,-1.59301 -0.86394,-0.38087 -1.84433,-0.6443 -2.83651,-0.7197 -0.4866,-0.037 -0.99025,-0.0297 -1.49127,0.0392 -0.49391,0.0679 -1.00276,0.19805 -1.49424,0.41764 -1.32635,0.62364 -2.43287,1.64452 -3.29968,2.84661 -0.85406,1.1844 -1.5003,2.57781 -1.91345,4.03396 -0.40896,1.44141 -0.6033,2.99392 -0.51225,4.51383 0.0903,1.50691 0.4682,3.07863 1.29617,4.47054 1.06676,1.75671 2.62217,3.15368 4.34597,4.2019 1.74406,1.06054 3.72425,1.80479 5.73206,2.2291 2.04058,0.43124 4.17479,0.54614 6.21479,0.28888 2.08226,-0.26259 4.16295,-0.92609 5.95399,-2.1375 2.19808,-1.50219 3.87677,-3.58947 5.09237,-5.80519 1.27313,-2.32056 2.10012,-4.8879 2.52529,-7.41122 0.45073,-2.67507 0.46526,-5.37968 0.0444,-7.88978 -0.45396,-2.70771 -1.42522,-5.25805 -2.98157,-7.38161 -0.95262,-1.2987 -2.02174,-2.50591 -3.1634,-3.597 -0.94763,-0.90564 -1.97192,-1.75647 -3.0619,-2.53193 -2.48113,-1.76518 -5.3339,-3.16168 -8.43153,-3.90666 -3.18483,-0.76595 -6.58863,-0.83206 -10.02446,0.0598 -3.52712,0.91559 -6.89434,2.7897 -9.98611,5.63137 -2.05185,1.88799 -3.60641,4.17738 -4.76625,6.64954 -1.17568,2.50592 -1.96876,5.24673 -2.47277,8.07067 -1.03025,5.77237 -0.91058,12.21411 -0.1028,18.51141 0.84554,6.59159 2.47005,13.23736 4.53636,19.30207 2.16927,6.36691 4.85693,12.19544 7.80748,16.95617 7.84801,12.65571 12.26475,22.87371 15.31722,31.92188 0.93667,2.77649 1.75754,5.48601 2.49614,8.13076 2.19708,7.86728 3.9357,16.41671 5.22819,22.58702 2.31398,10.44342 2.92096,21.56832 2.75508,33.60399 -0.14264,10.34911 -0.97244,21.90762 -1.49004,35.70388 -0.16016,4.26897 -0.28036,8.91089 -0.26214,13.63545 0.0271,7.03771 0.35779,14.64827 1.42304,22.29838 1.53462,11.02088 4.67696,22.8388 11.35259,34.09618 2.36528,3.93819 5.39978,8.3344 9.01452,12.65348 3.36228,4.01744 7.32582,8.0845 11.74864,11.56169 4.18709,3.29186 8.94905,6.18259 14.10237,7.87963 2.51278,0.82749 5.14291,1.3789 7.85429,1.53946 2.67237,0.15824 5.40077,-0.0648 8.13986,-0.76012 3.63866,-0.95151 6.83683,-2.96253 9.53002,-5.51644 2.62749,-2.49161 4.8319,-5.56513 6.4973,-8.869 1.64586,-3.2651 2.8069,-6.83843 3.29572,-10.40739 0.48501,-3.54123 0.32103,-7.18559 -0.79641,-10.52344 -0.97011,-2.85711 -2.72689,-5.35638 -4.80704,-7.41521 -2.10444,-2.08287 -4.62721,-3.80424 -7.27755,-5.08535 -2.69453,-1.30247 -5.5818,-2.1802 -8.42036,-2.51674 -2.91145,-0.34517 -5.8114,-0.12838 -8.44131,0.82811 -1.62201,0.6001 -3.06757,1.52726 -4.31416,2.60558 -0.45912,0.39715 -0.90135,0.82381 -1.32502,1.27638 -1.52022,1.62392 -2.82206,3.60444 -3.79145,5.77023 -0.92237,2.06073 -1.5598,4.32855 -1.75148,6.60491 -0.18486,2.19544 0.0419,4.4593 0.89592,6.51121 0.65752,1.54393 1.75445,2.8684 3.03686,3.93766 1.2702,1.05907 2.772,1.91002 4.3423,2.50213 1.5646,0.58996 3.23032,0.9354 4.8445,0.95677 1.62086,0.0214 3.2197,-0.28426 4.60219,-1.028 0.47888,-0.26778 0.90524,-0.60839 1.27888,-0.98521 0.37733,-0.38053 0.71036,-0.80746 0.99865,-1.25607 0.58559,-0.91125 1.00986,-1.94736 1.25408,-2.97182 0.25333,-1.06268 0.31998,-2.13931 0.16309,-3.11396 -0.0813,-0.50496 -0.22283,-0.98461 -0.43073,-1.42232 -0.21422,-0.451 -0.49641,-0.85221 -0.84785,-1.1876 -0.20347,-0.17661 -0.44563,-0.31382 -0.68198,-0.41921 -0.24986,-0.11141 -0.51981,-0.19907 -0.78793,-0.26358 -0.58128,-0.13987 -1.17865,-0.17883 -1.69373,-0.11221 -0.28373,0.0367 -0.54178,0.10519 -0.76495,0.20537 -0.24432,0.10967 -0.44053,0.25447 -0.5842,0.42877 -0.0774,0.0939 -0.13779,0.19423 -0.18267,0.29905 -0.0479,0.11192 -0.0777,0.22772 -0.0926,0.34537 -0.034,0.26725 0.008,0.54819 0.09,0.8241 z m 93.53456,130.65627 c 0.26601,0.12265 0.52624,0.18713 0.76572,0.17407 0.10348,-0.006 0.20001,-0.0256 0.28937,-0.0592 0.0834,-0.0314 0.16019,-0.0744 0.23079,-0.12847 0.1296,-0.0992 0.24185,-0.23799 0.33555,-0.41552 0.0863,-0.16346 0.15712,-0.36061 0.20832,-0.58653 0.0932,-0.41133 0.11816,-0.91116 0.0524,-1.38905 -0.0302,-0.21984 -0.0789,-0.4269 -0.14412,-0.60193 -0.0631,-0.16958 -0.13816,-0.29777 -0.20816,-0.36349 -0.1665,-0.2508 -0.38425,-0.47116 -0.6487,-0.66134 -0.25817,-0.18567 -0.56351,-0.34435 -0.91078,-0.47173 -0.67503,-0.2476 -1.49326,-0.37058 -2.36064,-0.34589 -0.83833,0.0239 -1.6864,0.18545 -2.42259,0.47341 -0.35968,0.14069 -0.68204,0.30751 -0.95626,0.49394 -0.27251,0.18527 -0.48665,0.38254 -0.64315,0.58148 -0.65639,0.74051 -1.13541,1.74243 -1.41026,2.92257 -0.27381,1.17563 -0.33478,2.48824 -0.18505,3.79535 0.1506,1.31464 0.50865,2.57449 1.03043,3.64199 0.53258,1.08957 1.1971,1.90266 1.9053,2.41182 1.10467,0.83842 2.53817,1.40962 4.15824,1.70149 1.6758,0.30191 3.48641,0.29322 5.23225,0.018 1.83598,-0.28948 3.5307,-0.86126 4.93129,-1.61541 0.38679,-0.20826 0.74815,-0.42873 1.08285,-0.65891 0.91987,-0.63259 1.64758,-1.3469 2.15721,-2.10631 0.97426,-1.39857 1.65227,-3.22154 1.96145,-5.34981 0.30181,-2.07752 0.23855,-4.3662 -0.19369,-6.63451 -0.4262,-2.2366 -1.19592,-4.37034 -2.23929,-6.17036 -1.04134,-1.79652 -2.28551,-3.14302 -3.60019,-3.97902 -1.71382,-1.125 -3.94703,-1.89583 -6.51777,-2.23461 -2.57884,-0.33984 -5.37342,-0.22722 -8.07819,0.31121 -2.74442,0.54631 -5.27627,1.50632 -7.34157,2.75848 -2.11813,1.28419 -3.59023,2.77665 -4.44625,4.29781 -0.88904,1.49428 -1.50149,3.07106 -1.88495,4.71507 -0.39162,1.67897 -0.55066,3.45324 -0.50151,5.31268 0.1019,3.85499 1.09941,8.00108 2.70629,12.17833 1.68699,4.38551 4.00136,8.69294 6.51489,12.61666 2.69436,4.206 5.60508,7.95483 8.28189,10.99875 7.26657,8.368 16.06411,14.23847 25.09677,18.75346 6.27672,3.13743 12.85119,5.70466 19.21187,7.90931 4.25689,1.47546 8.53247,2.82717 12.53391,4.0487 14.604,4.45821 22.65887,6.52209 34.48484,10.60928 11.8285,4.08807 22.92385,8.84293 32.91905,15.25382 4.64008,3.06148 13.25402,8.6627 19.65888,13.24971 2.34154,1.67695 4.74351,3.46431 7.18721,5.3924 8.01742,6.32579 16.73239,14.33924 26.62017,26.43489 3.01833,3.69652 7.12692,7.64515 11.99686,11.40549 4.6288,3.57414 9.86815,6.91488 15.21957,9.54306 5.15835,2.53335 10.29228,4.33891 14.8729,5.0476 2.22028,0.34351 4.24035,0.41793 6.02237,0.22629 1.74785,-0.18798 3.22222,-0.62649 4.44188,-1.28216 2.52414,-1.35758 4.21972,-2.94737 5.33677,-4.59426 1.0903,-1.60745 1.71536,-3.39614 1.93604,-5.31122 0.21788,-1.89068 0.0397,-3.90852 -0.49344,-5.92246 -0.23255,-0.87842 -0.52971,-1.74441 -0.8824,-2.58307 -0.42565,-1.01214 -0.93935,-2.00004 -1.52915,-2.92616 -0.56588,-0.92446 -1.53339,-1.9145 -2.99297,-2.80735 -1.34625,-0.82352 -3.01589,-1.50164 -4.86825,-1.9088 -1.74837,-0.3843 -3.57108,-0.50616 -5.26718,-0.31647 -1.62892,0.18217 -3.03802,0.63987 -4.11954,1.32654 -0.7117,0.42548 -1.45857,1.17238 -2.12151,2.277 -0.64211,1.06993 -1.14536,2.3793 -1.43625,3.79491 -0.28576,1.39067 -0.35095,2.80923 -0.18498,4.10212 0.16454,1.28178 0.5456,2.36497 1.08972,3.18275 0.28821,0.4913 0.82402,1.01229 1.6231,1.4682 0.7917,0.4517 1.75468,0.78863 2.7749,0.96787 1.02725,0.18047 2.05413,0.19116 2.96808,0.0404 0.92636,-0.15275 1.68975,-0.46224 2.25068,-0.88325 0.13135,-0.0693 0.27952,-0.18976 0.43101,-0.36715 0.15288,-0.17903 0.29903,-0.40417 0.42987,-0.66728 0.2701,-0.54319 0.4498,-1.19592 0.5218,-1.85316 0.075,-0.68417 0.0294,-1.32866 -0.11058,-1.85932 -0.0721,-0.27327 -0.16798,-0.51239 -0.28246,-0.71481 -0.11715,-0.20712 -0.25684,-0.38154 -0.42051,-0.52011 -0.006,-0.0492 -0.0876,-0.12744 -0.20463,-0.19405 -0.12305,-0.07 -0.28101,-0.1299 -0.45308,-0.17526 -0.37508,-0.0989 -0.78442,-0.12273 -1.12349,-0.0871 -0.18617,0.0195 -0.35079,0.0565 -0.48898,0.10722 -0.14919,0.0548 -0.27146,0.12681 -0.36369,0.21728 -0.0503,0.0493 -0.093,0.10544 -0.12686,0.16943 -0.0361,0.0683 -0.0618,0.1451 -0.0754,0.23058 -0.0312,0.19578 0.003,0.41987 0.0934,0.65681 -0.14388,-0.20141 -0.25884,-0.41796 -0.30985,-0.6461 -0.0228,-0.10219 -0.0332,-0.20825 -0.027,-0.31719 0.006,-0.10269 0.0262,-0.20683 0.0633,-0.31126 0.0692,-0.19479 0.19298,-0.38002 0.36754,-0.54906 0.15976,-0.1547 0.35804,-0.29196 0.5861,-0.40933 0.41229,-0.2122 0.92822,-0.36145 1.46237,-0.42027 0.24635,-0.0271 0.50631,-0.0358 0.75981,-0.0165 0.23804,0.0181 0.50477,0.0634 0.75633,0.16514 0.41277,0.19486 0.7828,0.46867 1.10584,0.80522 0.3126,0.32566 0.57697,0.70555 0.79444,1.12175 0.41761,0.7992 0.66852,1.74435 0.75426,2.7271 0.0821,0.94059 0.0154,1.95356 -0.23299,2.91709 -0.12184,0.47255 -0.29109,0.94697 -0.51777,1.39905 -0.22345,0.44567 -0.51069,0.8854 -0.87698,1.27988 -1.01787,1.05454 -2.34092,1.77296 -3.75825,2.20604 -1.39647,0.42671 -2.92381,0.58933 -4.43541,0.51108 -1.4963,-0.0775 -3.0286,-0.39392 -4.43804,-0.97 -1.39739,-0.57117 -2.76341,-1.43554 -3.81416,-2.66796 -1.31911,-1.57606 -2.14018,-3.49874 -2.57683,-5.4684 -0.44178,-1.99282 -0.50804,-4.10722 -0.26254,-6.14464 0.2495,-2.07067 0.82864,-4.128 1.72972,-5.97621 0.91974,-1.88649 2.21848,-3.64226 3.94253,-4.94725 2.13051,-1.59657 4.64747,-2.51289 7.13676,-2.94944 2.60707,-0.4572 5.30395,-0.41253 7.82964,-0.002 2.67758,0.43556 5.24253,1.29357 7.48302,2.501 2.41687,1.30249 4.51804,3.04395 6.02661,5.20171 0.92235,1.32038 1.72052,2.72156 2.38539,4.15397 0.55186,1.18896 1.02713,2.43283 1.40987,3.71458 0.87125,2.91768 1.27369,6.06831 0.98047,9.24075 -0.30148,3.26174 -1.33603,6.50518 -3.28777,9.47016 -2.0036,3.04376 -4.86302,5.6272 -8.54958,7.63802 -2.44859,1.33379 -5.11687,2.06746 -7.83093,2.36856 -2.75113,0.30522 -5.60129,0.17253 -8.43697,-0.26058 -5.79637,-0.88531 -11.85573,-3.07493 -17.55657,-5.86937 -5.96725,-2.92504 -11.73472,-6.60495 -16.80973,-10.51578 -5.32789,-4.10571 -9.97904,-8.5286 -13.53466,-12.85618 -9.45066,-11.5084 -17.69969,-18.98293 -25.28107,-24.78893 -2.3264,-1.78161 -4.62671,-3.43202 -6.89225,-4.98366 -6.73922,-4.61564 -14.27196,-9.01716 -19.69636,-12.22951 -9.14019,-5.55665 -19.4757,-9.71707 -30.92249,-13.43943 -9.84273,-3.20075 -21.05183,-6.14083 -34.27861,-10.09773 -4.09275,-1.22438 -8.52567,-2.6068 -12.99221,-4.14689 -6.65336,-2.29411 -13.75115,-5.06019 -20.64961,-8.53441 -9.93804,-5.00501 -20.11238,-11.78885 -28.61723,-21.73673 -2.96561,-3.50841 -6.1491,-7.79796 -9.07255,-12.61193 -2.71928,-4.47775 -5.29173,-9.54067 -7.15776,-14.84822 -1.76657,-5.02467 -2.96812,-10.46423 -2.91354,-15.88951 0.0266,-2.6454 0.35238,-5.31289 1.07433,-7.93131 0.71157,-2.58075 1.80219,-5.09162 3.34323,-7.46042 2.07355,-3.13777 5.0081,-5.51706 8.29379,-7.24332 3.20552,-1.68415 6.82555,-2.78024 10.48988,-3.29184 3.62135,-0.50559 7.3782,-0.4529 10.91424,0.23474 3.50856,0.6823 6.90557,2.01219 9.70509,4.14587 2.39193,1.83924 4.19156,4.30784 5.47003,6.94059 1.29339,2.66347 2.10974,5.60644 2.46821,8.52827 0.36444,2.97054 0.26469,5.98663 -0.33168,8.78216 -0.61168,2.86733 -1.75163,5.54263 -3.50475,7.72388 -1.09088,1.34201 -2.4345,2.41157 -3.85707,3.24406 -0.52394,0.30661 -1.07038,0.58771 -1.63535,0.84289 -2.02726,0.91567 -4.32169,1.50965 -6.68434,1.72922 -2.24806,0.20891 -4.6003,0.0814 -6.81695,-0.47093 -2.13785,-0.53264 -4.20782,-1.47696 -5.87493,-2.94682 -1.24959,-1.12007 -2.14981,-2.58537 -2.74865,-4.14399 -0.59313,-1.54377 -0.9146,-3.2397 -0.96896,-4.91704 -0.0542,-1.67126 0.15574,-3.35942 0.6558,-4.89434 0.50214,-1.54127 1.30687,-2.95623 2.45653,-4.02522 0.40784,-0.36701 0.8677,-0.66082 1.34484,-0.89306 0.48185,-0.23454 0.99334,-0.41219 1.51092,-0.54049 1.05137,-0.26062 2.16894,-0.32828 3.21744,-0.22926 1.08762,0.10272 2.12826,0.38665 3.00033,0.84931 0.45181,0.23971 0.86024,0.52831 1.20758,0.8662 0.35788,0.34815 0.64671,0.7446 0.85094,1.18539 0.1016,0.24954 0.15342,0.523 0.17701,0.7807 0.0249,0.27244 0.0209,0.55624 -0.004,0.83084 -0.055,0.59534 -0.21063,1.17338 -0.43972,1.6395 -0.12619,0.25676 -0.2742,0.47896 -0.44097,0.65793 -0.18257,0.19593 -0.38288,0.335 -0.59419,0.41482 -0.11389,0.043 -0.22828,0.0678 -0.34197,0.0765 -0.12139,0.009 -0.24059,1.2e-4 -0.35678,-0.0236 -0.26395,-0.054 -0.51642,-0.18409 -0.75112,-0.35079 z"
       sodipodi:nodetypes="caaaaaaaassaaaaac"
       transform="rotate(-54.533826,339.91292,683.14924)"
       inkscape:path-effect="#path-effect3715;#path-effect3739"
       inkscape:original-d="m 368.96238,652.69767 c -0.50228,-2.52142 3.21965,-1.87681 4.19076,-0.83482 2.17149,2.32997 0.33816,7.81322 -2.5211,9.21635 -4.61041,2.26248 -12.40265,-1.08207 -14.24195,-5.87704 -2.55064,-6.64943 2.47922,-17.00759 9.23298,-19.26755 8.64904,-2.89415 21.62148,3.86859 24.29313,12.58892 3.25877,10.63668 -5.12141,26.74741 -15.94485,29.31873 -17.63228,4.1889 -35.49301,-15.35572 -44.6816,-30.97667 -23.368,-39.7265 -3.10316,-92.72593 -13.643,-137.59429 -5.20894,-22.17458 -9.0023,-39.38162 -24.23963,-63.8909 -11.24699,-18.0908 -18.01011,-52.39539 -5.83595,-63.63874 10.51475,-9.71082 22.41509,-3.98114 28.13682,3.54359 4.69088,6.16905 2.92134,18.47356 -3.36584,23.00488 -4.90946,3.53836 -14.55074,1.87017 -17.87293,-3.18808 -2.39567,-3.64756 -0.83763,-10.68259 3.01034,-12.741 2.38641,-1.27657 7.0788,0.17866 7.60905,2.8326 0.23714,1.18688 -1.16448,4.07441 -2.65485,2.4771"
       class="UnoptimicedTransforms" />
    <g
       id="g1548"
       transform="matrix(0.64038955,-0.21029572,0.21028041,0.64043615,0.0782909,319.42874)"
       style="stroke-width:1.01919">
      <rect
         style="fill:#000000;stroke:#ffffff;stroke-width:5.20669;stroke-dasharray:none;stroke-opacity:1;paint-order:fill markers stroke;stop-color:#000000"
         id="rect499"
         width="94.608681"
         height="130.55812"
         x="769.94696"
         y="298.3754"
         ry="17.803379"
         transform="matrix(0.85283099,0.52218704,-0.74504377,0.66701558,0,0)" />
      <rect
         style="fill:#000000;stroke:#ffffff;stroke-width:5.20669;stroke-dasharray:none;stroke-opacity:1;paint-order:fill markers stroke;stop-color:#000000"
         id="rect1541"
         width="94.608681"
         height="130.55812"
         x="759.05798"
         y="285.9111"
         ry="17.803379"
         transform="matrix(0.85283099,0.52218704,-0.74504377,0.66701558,0,0)" />
      <rect
         style="fill:#000000;stroke:#ffffff;stroke-width:5.20669;stroke-dasharray:none;stroke-opacity:1;paint-order:fill markers stroke;stop-color:#000000"
         id="rect1543"
         width="94.608681"
         height="130.55812"
         x="746.61346"
         y="271.6662"
         ry="17.803379"
         transform="matrix(0.85283099,0.52218704,-0.74504377,0.66701558,0,0)" />
    </g>
    <path
       style="fill:#000000;fill-rule:nonzero;stroke:none;stroke-width:1px;stroke-linecap:butt;stroke-linejoin:miter;stroke-opacity:1"
       d="m 216.15938,617.80951 c -4.62453,-2.24296 -11.69894,-5.6425 -19.67816,-9.00829 -7.97689,-3.36481 -14.96701,-5.89563 -20.92296,-7.64009 -1.82544,-0.53466 -3.47705,-0.97271 -4.95493,-1.32648 -7.96239,-1.90599 -13.9601,-2.19435 -18.61439,-1.82785 -0.97777,0.077 -1.9242,0.1861 -2.8348,0.32592 -1.30834,0.2009 -2.59707,0.48908 -3.81424,0.88606 -1.67135,0.54512 -2.9715,1.2186 -3.95222,1.92652 -0.96973,0.69997 -1.52573,1.36005 -1.82008,1.81159 -0.41325,0.63394 -0.35893,0.83095 -0.31549,0.85176 l 0,0 0,0 c 0.0434,0.0208 0.14669,-0.0851 0.67695,-0.53794 0.37299,-0.3185 0.99884,-0.80997 1.96348,-1.31336 0.98266,-0.51279 2.23534,-0.99633 3.8318,-1.36751 1.16442,-0.27073 2.38738,-0.45282 3.63684,-0.56477 0.86879,-0.0778 1.77253,-0.11632 2.70798,-0.12016 4.32506,-0.0178 10.28683,0.7341 17.97629,2.38556 1.45703,0.31293 3.08763,0.67915 4.90896,1.12238 6.01311,1.46334 12.92752,3.48384 21.12944,6.40991 8.08018,2.88264 15.41346,5.94168 20.07553,7.98675 z m 392.68124,0 c 4.62453,-2.24296 11.69894,-5.6425 19.67816,-9.00829 7.97689,-3.36481 14.96701,-5.89563 20.92296,-7.64009 1.82544,-0.53466 3.47705,-0.97271 4.95493,-1.32648 7.96239,-1.90599 13.9601,-2.19435 18.61439,-1.82785 0.97777,0.077 1.9242,0.1861 2.8348,0.32592 1.30834,0.2009 2.59707,0.48908 3.81424,0.88606 1.67135,0.54512 2.9715,1.2186 3.95222,1.92652 0.96973,0.69997 1.52573,1.36005 1.82008,1.81159 0.41325,0.63394 0.35893,0.83095 0.31549,0.85176 l 0,0 v 0 c -0.0434,0.0208 -0.14669,-0.0851 -0.67695,-0.53794 -0.37299,-0.3185 -0.99884,-0.80997 -1.96348,-1.31336 -0.98266,-0.51279 -2.23534,-0.99633 -3.8318,-1.36751 -1.16442,-0.27073 -2.38738,-0.45282 -3.63684,-0.56477 -0.86879,-0.0778 -1.77253,-0.11632 -2.70798,-0.12016 -4.32506,-0.0178 -10.28683,0.7341 -17.97629,2.38556 -1.45703,0.31293 -3.08763,0.67915 -4.90896,1.12238 -6.01311,1.46334 -12.92752,3.48384 -21.12944,6.40991 -8.08018,2.88264 -15.41346,5.94168 -20.07553,7.98675 z"
       id="path20465"
       inkscape:path-effect="#path-effect20467;#path-effect20617"
       inkscape:original-d="M 216.15938,617.80951 C 147.68819,586.2009 139.25211,603.80865 139.25211,603.80865"
       sodipodi:nodetypes="cc"
       class="UnoptimicedTransforms" />
    <path
       style="fill:#000000;fill-rule:nonzero;stroke:none;stroke-width:1px;stroke-linecap:butt;stroke-linejoin:miter;stroke-opacity:1"
       d="m 259.06953,654.58065 c -3.57153,-3.88131 -9.26212,-10.08945 -16.27123,-16.70819 -6.92675,-6.54095 -13.23353,-11.65919 -18.37022,-15.11267 -5.82017,-3.91301 -10.81347,-6.38096 -15.8864,-8.37912 -1.65484,-0.65182 -3.47068,-1.30999 -5.39917,-1.93255 -4.42565,-1.42867 -9.31445,-2.4631 -14.2554,-2.71142 -5.44616,-0.2737 -10.30668,0.43934 -14.3966,1.95826 -3.97635,1.47674 -6.81334,3.5583 -8.74504,5.65154 -0.3827,0.4147 -0.72818,0.82773 -1.0403,1.23488 -1.2812,1.67124 -2.18458,3.51323 -2.49527,5.40098 -0.17871,1.08578 -0.15127,2.13552 0.0805,3.1106 0.24055,1.01191 0.6935,1.91211 1.32079,2.67989 0.7088,0.86755 1.60704,1.52681 2.59369,2.0071 1.37946,0.67151 2.8204,0.93951 3.90105,1.03738 -1.07809,-0.12537 -2.51356,-0.38431 -3.89711,-1.04554 -0.98866,-0.47251 -1.89411,-1.12446 -2.60445,-1.99337 -0.62884,-0.76921 -1.07588,-1.67489 -1.29396,-2.68999 -0.21002,-0.97757 -0.19969,-2.02161 0.0326,-3.08057 0.40308,-1.83789 1.43794,-3.56989 2.85614,-4.99597 0.3458,-0.34773 0.72765,-0.68959 1.14626,-1.02173 2.11799,-1.68045 5.0833,-3.03925 8.86071,-3.70937 3.88405,-0.68905 8.29913,-0.59675 13.14401,0.27511 4.42988,0.79718 8.72856,2.15235 12.77331,3.67947 1.75642,0.66315 3.40254,1.36675 4.91469,2.05635 3.96153,1.80663 9.88184,4.91032 15.07909,7.83271 5.43791,3.05771 11.6867,6.65658 19.65824,12.22938 7.74241,5.4126 14.35786,10.80789 18.2941,14.22684 z m 306.86094,0 c 3.57153,-3.88131 9.26212,-10.08945 16.27123,-16.70819 6.92675,-6.54095 13.23353,-11.65919 18.37022,-15.11267 5.82017,-3.91301 10.81347,-6.38096 15.8864,-8.37912 1.65484,-0.65182 3.47068,-1.30999 5.39917,-1.93255 4.42565,-1.42867 9.31445,-2.4631 14.2554,-2.71142 5.44616,-0.2737 10.30668,0.43934 14.3966,1.95826 3.97635,1.47674 6.81334,3.5583 8.74504,5.65154 0.3827,0.4147 0.72818,0.82773 1.0403,1.23488 1.2812,1.67124 2.18458,3.51323 2.49527,5.40098 0.17871,1.08578 0.15127,2.13552 -0.0805,3.1106 -0.24055,1.01191 -0.6935,1.91211 -1.32079,2.67989 -0.7088,0.86755 -1.60704,1.52681 -2.59369,2.0071 -1.37946,0.67151 -2.8204,0.93951 -3.90105,1.03738 1.07809,-0.12537 2.51356,-0.38431 3.89711,-1.04554 0.98866,-0.47251 1.89411,-1.12446 2.60445,-1.99337 0.62884,-0.76921 1.07588,-1.67489 1.29396,-2.68999 0.21002,-0.97757 0.19969,-2.02161 -0.0326,-3.08057 -0.40308,-1.83789 -1.43794,-3.56989 -2.85614,-4.99597 -0.3458,-0.34773 -0.72765,-0.68959 -1.14626,-1.02173 -2.11799,-1.68045 -5.0833,-3.03925 -8.86071,-3.70937 -3.88405,-0.68905 -8.29913,-0.59675 -13.14401,0.27511 -4.42988,0.79718 -8.72856,2.15235 -12.77331,3.67947 -1.75642,0.66315 -3.40254,1.36675 -4.91469,2.05635 -3.96153,1.80663 -9.88184,4.91032 -15.07909,7.83271 -5.43791,3.05771 -11.6867,6.65658 -19.65824,12.22938 -7.74241,5.4126 -14.35786,10.80789 -18.2941,14.22684 z"
       id="path20475"
       inkscape:path-effect="#path-effect20479;#path-effect20573"
       inkscape:original-d="M 259.06953,654.58065 C 177.37424,575.1948 145.8294,630.30687 170.10594,632.81733"
       sodipodi:nodetypes="cc"
       class="UnoptimicedTransforms" />
  </g>
</svg>
