<?xml version="1.0" encoding="UTF-8" standalone="no"?>
<svg
   width="300"
   height="300"
   viewBox="0 0 300 300"
   version="1.1"
   id="svg21608"
   inkscape:version="1.2 (dc2aeda, 2022-05-15)"
   sodipodi:docname="steam-engine.svg"
   xmlns:inkscape="http://www.inkscape.org/namespaces/inkscape"
   xmlns:sodipodi="http://sodipodi.sourceforge.net/DTD/sodipodi-0.dtd"
   xmlns="http://www.w3.org/2000/svg"
   xmlns:svg="http://www.w3.org/2000/svg"
   xmlns:rdf="http://www.w3.org/1999/02/22-rdf-syntax-ns#"
   xmlns:cc="http://creativecommons.org/ns#"
   xmlns:dc="http://purl.org/dc/elements/1.1/">
  <defs
     id="defs21602" />
  <sodipodi:namedview
     id="base"
     pagecolor="#ffffff"
     bordercolor="#666666"
     borderopacity="1.0"
     inkscape:pageopacity="0.0"
     inkscape:pageshadow="2"
     inkscape:zoom="0.71494858"
     inkscape:cx="241.97544"
     inkscape:cy="204.21049"
     inkscape:document-units="px"
     inkscape:current-layer="layer1"
     inkscape:document-rotation="0"
     showgrid="false"
     units="px"
     width="300px"
     inkscape:showpageshadow="2"
     inkscape:pagecheckerboard="0"
     inkscape:deskcolor="#d1d1d1"
     inkscape:window-width="859"
     inkscape:window-height="456"
     inkscape:window-x="568"
     inkscape:window-y="164"
     inkscape:window-maximized="0" />
  <metadata
     id="metadata21605">
    <rdf:RDF>
      <cc:Work
         rdf:about="">
        <dc:format>image/svg+xml</dc:format>
        <dc:type
           rdf:resource="http://purl.org/dc/dcmitype/StillImage" />
        <dc:title />
      </cc:Work>
    </rdf:RDF>
  </metadata>
  <g
     inkscape:label="Layer 1"
     inkscape:groupmode="layer"
     id="layer1">
    <g
       id="g190298"
       transform="matrix(18.297098,0,0,18.297098,-5418.3573,-3840.4827)"
       style="stroke-width:1.61165">
      <path
         id="path188135"
         style="stroke-width:18.5732"
         d="m 1151.5508,795.88867 a 11.889648,8.8833814 0 0 0 -6.5899,1.51172 c -0.5315,-0.0543 -1.0735,-0.082 -1.625,-0.082 -4.3569,0 -10.3018,3.58405 -12.3925,6.21289 h -1.3262 v 2.75391 c 1.7566,0.35565 3.5652,0.53889 5.3808,0.54296 a 27.571747,27.571747 0 0 0 4.3946,-0.37109 c 1.1035,4.24248 6.101,7.30902 11.9179,7.3125 1.3103,-0.004 2.6125,-0.16411 3.8536,-0.47656 0.3212,2.22418 2.3693,3.88388 4.7949,3.88672 0.041,-8.7e-4 0.084,-5.2e-4 0.125,-0.002 0.3658,1.25587 1.7631,2.1449 3.375,2.14649 1.9168,0 3.4707,-1.24381 3.4707,-2.77734 0,-1.17623 -0.9299,-2.22417 -2.3164,-2.61524 a 4.170927,4.170927 0 0 0 0.1914,-1.23242 c 0,-1.66995 -1.006,-3.2016 -2.6074,-3.97266 0.058,-0.0874 0.1136,-0.17503 0.1679,-0.26367 0.7154,-1.16606 1.0889,-2.43297 1.0938,-3.7168 0,-0.24079 -0.014,-0.38437 -0.041,-0.50195 0,0 0,-0.002 0,-0.002 a 11.889648,8.8833814 0 0 0 -11.8672,-8.35352 z m -22.1055,25.42969 v 1.5625 h 1.9942 v 4.16406 h -1.2149 v 8.1582 h 12.3223 v -8.1582 h -1.2149 v -4.16406 h 1.9961 v -1.5625 z m 31.2383,0 v 1.5625 h 1.4746 v 3.99219 h 3.9922 v -3.99219 h 1.4746 v -1.5625 z m -27.6816,1.5625 h 1.2148 v 4.16406 h -1.2148 z m 2.7773,0 h 3.9902 v 4.16406 h -3.9902 z m 20.0449,1.73437 c -0.6291,0 -1.2649,0.0884 -1.6621,0.22071 -0.1803,0.0597 -0.2856,0.12658 -0.334,0.16211 v 1.875 h 3.9903 v -1.875 c -0.049,-0.034 -0.1518,-0.10202 -0.3321,-0.16211 -0.3971,-0.13229 -1.033,-0.22071 -1.6621,-0.22071 z m -11.7148,3.81836 v 2.60352 h 21.4336 v 1.5625 h -21.4336 v 2.60351 h 24.209 c 3.1238,0 3.1238,-6.76953 0,-6.76953 z m -13.8848,8.33008 v 3.23047 l 4.3984,-3.23047 z m 36.0977,0 v 6.76953 H 1171 c -0.4308,-0.79721 -0.7893,-1.73137 -1.1035,-2.73828 -0.4287,-1.37389 -0.7386,-2.81182 -0.8887,-4.03125 z m -25.0762,0.13086 c -0.9302,0 -1.7845,0.30698 -2.4688,0.82617 l 3.5372,4.42383 h 2.8398 a 4.1094046,4.1094046 0 0 0 0.1699,-1.17187 c 0,-2.26164 -1.8165,-4.07813 -4.0781,-4.07813 z m 9.7187,0 c -0.7341,0 -1.4222,0.19142 -2.0156,0.52735 l 3.7793,4.72265 h 2.1445 a 4.1094046,4.1094046 0 0 0 0.17,-1.17187 c 0,-2.26164 -1.8165,-4.07813 -4.0782,-4.07813 z m 9.7188,0 c -0.7341,0 -1.4222,0.19142 -2.0156,0.52735 l 3.7793,4.72265 c 0.1459,0.1954 0.146,0.16637 0.1445,0.36328 v 1.19922 h -4.9414 c 0.745,0.82643 1.8261,1.34375 3.0332,1.34375 2.2616,0 4.0781,-1.81645 4.0781,-4.07812 0,-2.26164 -1.8165,-4.07813 -4.0781,-4.07813 z m -24.2109,0.44727 -4.6465,3.41406 h 3.7851 c 0.045,-1.16478 0.4453,-2.2396 1.0957,-3.12109 z m 11.291,1.09765 c -0.5494,0.6946 -0.877,1.57351 -0.877,2.53321 0,0.40811 0.06,0.80084 0.1699,1.17187 h 3.67 z m 9.7187,0 c -0.5493,0.6946 -0.8789,1.57351 -0.8789,2.53321 0,0.40811 0.062,0.80084 0.1719,1.17187 h 3.6699 z m -19.7578,0.4668 c -0.3541,0.60484 -0.5566,1.31114 -0.5566,2.06641 0,2.26167 1.8164,4.07812 4.0781,4.07812 1.207,0 2.2863,-0.51732 3.0312,-1.34375 h -2.7128 z m -7.498,3.41211 c 0.045,1.45398 1.2236,2.60352 2.6894,2.60352 1.4658,0 2.6422,-1.14954 2.6875,-2.60352 z m 17.705,1.38867 c 0.7451,0.82643 1.8261,1.34375 3.0332,1.34375 1.207,0 2.2863,-0.51732 3.0313,-1.34375 z"
         transform="scale(0.26458333)" />
      <path
         style="color:#000000;display:inline;fill:#000000;stroke-width:1.61165;paint-order:fill markers stroke"
         d="m 304.33008,210.29492 c -4.3039,0 -7.79883,3.49493 -7.79883,7.79883 0,4.3039 3.49493,7.79883 7.79883,7.79883 4.3039,0 7.79883,-3.49493 7.79883,-7.79883 0,-4.3039 -3.49493,-7.79883 -7.79883,-7.79883 z m 0,0.58008 c 3.99044,0 7.21875,3.22831 7.21875,7.21875 0,3.99044 -3.22831,7.21875 -7.21875,7.21875 -3.99045,0 -7.21875,-3.22831 -7.21875,-7.21875 0,-3.99044 3.2283,-7.21875 7.21875,-7.21875 z"
         id="path188559" />
    </g>
  </g>
</svg>
