<?xml version="1.0" encoding="UTF-8" standalone="no"?>
<svg
   xmlns:dc="http://purl.org/dc/elements/1.1/"
   xmlns:cc="http://creativecommons.org/ns#"
   xmlns:rdf="http://www.w3.org/1999/02/22-rdf-syntax-ns#"
   xmlns:svg="http://www.w3.org/2000/svg"
   xmlns="http://www.w3.org/2000/svg"
   xmlns:sodipodi="http://sodipodi.sourceforge.net/DTD/sodipodi-0.dtd"
   xmlns:inkscape="http://www.inkscape.org/namespaces/inkscape"
   width="300"
   height="300"
   viewBox="0 0 300 300"
   version="1.1"
   id="svg21608"
   inkscape:version="1.0.1 (3bc2e813f5, 2020-09-07)"
   sodipodi:docname="stone.svg">
  <defs
     id="defs21602" />
  <sodipodi:namedview
     id="base"
     pagecolor="#ffffff"
     bordercolor="#666666"
     borderopacity="1.0"
     inkscape:pageopacity="0.0"
     inkscape:pageshadow="2"
     inkscape:zoom="0.98994949"
     inkscape:cx="633.23103"
     inkscape:cy="308.38281"
     inkscape:document-units="px"
     inkscape:current-layer="layer1"
     inkscape:document-rotation="0"
     showgrid="false"
     units="px"
     width="300px" />
  <metadata
     id="metadata21605">
    <rdf:RDF>
      <cc:Work
         rdf:about="">
        <dc:format>image/svg+xml</dc:format>
        <dc:type
           rdf:resource="http://purl.org/dc/dcmitype/StillImage" />
        <dc:title />
      </cc:Work>
    </rdf:RDF>
  </metadata>
  <g
     inkscape:label="Layer 1"
     inkscape:groupmode="layer"
     id="layer1">
    <path
       d="m 122.52046,17.453009 -108.945239,63.855065 71.60757,32.572226 88.798529,7.02897 25.12336,-14.58094 10.38081,6.93432 -27.62887,16.04318 v 89.2866 l 32.06306,-8.77072 -38.68467,31.1688 -66.36995,-35.76044 -1.29065,-0.9169 -42.668254,3.93422 45.455264,-19.17206 60.30909,31.26181 V 131.87459 L 83.331388,124.9774 82.358827,124.8953 81.459815,124.48282 8.9737678,91.496867 V 225.74695 l 14.2538642,19.02157 49.085282,12.57677 13.094256,-12.76378 6.677986,17.82437 78.585354,20.14682 v -31.29847 l 2.54396,1.36711 3.27422,1.7633 2.88071,-2.34381 2.48722,-2.00433 v 31.27972 l 109.16961,-63.77998 v -57.81859 l -14.72278,-7.14004 14.72278,-23.24019 V 65.932239 l -54.02386,31.354804 -0.65447,20.448337 -52.67647,-35.197851 50.86277,3.223557 47.58817,-27.625482 -110.70369,-28.225892 0.97257,0.338622 -38.55365,3.466602 3.19956,-12.556385 -14.51595,-3.711254 z"
       fill="#d0021b"
       fill-opacity="1"
       id="path2060"
       style="font-variation-settings:normal;vector-effect:none;fill:#666666;fill-opacity:1;stroke-width:5.94576;stroke-linecap:butt;stroke-linejoin:miter;stroke-miterlimit:4;stroke-dasharray:none;stroke-dashoffset:0;stroke-opacity:1;stop-color:#000000" />
  </g>
</svg>
