<?xml version="1.0" encoding="UTF-8" standalone="no"?>
<svg
   width="300"
   height="300"
   viewBox="0 0 300 300"
   version="1.1"
   id="svg21608"
   inkscape:version="1.3 (0e150ed6c4, 2023-07-21)"
   sodipodi:docname="strong.svg"
   xmlns:inkscape="http://www.inkscape.org/namespaces/inkscape"
   xmlns:sodipodi="http://sodipodi.sourceforge.net/DTD/sodipodi-0.dtd"
   xmlns="http://www.w3.org/2000/svg"
   xmlns:svg="http://www.w3.org/2000/svg"
   xmlns:rdf="http://www.w3.org/1999/02/22-rdf-syntax-ns#"
   xmlns:cc="http://creativecommons.org/ns#"
   xmlns:dc="http://purl.org/dc/elements/1.1/">
  <defs
     id="defs21602" />
  <sodipodi:namedview
     id="base"
     pagecolor="#ffffff"
     bordercolor="#666666"
     borderopacity="1.0"
     inkscape:pageopacity="0.0"
     inkscape:pageshadow="2"
     inkscape:zoom="0.98994949"
     inkscape:cx="633.23103"
     inkscape:cy="308.38281"
     inkscape:document-units="px"
     inkscape:current-layer="layer1"
     inkscape:document-rotation="0"
     showgrid="false"
     units="px"
     width="300px"
     inkscape:showpageshadow="2"
     inkscape:pagecheckerboard="0"
     inkscape:deskcolor="#d1d1d1" />
  <metadata
     id="metadata21605">
    <rdf:RDF>
      <cc:Work
         rdf:about="">
        <dc:format>image/svg+xml</dc:format>
        <dc:type
           rdf:resource="http://purl.org/dc/dcmitype/StillImage" />
        <dc:title />
      </cc:Work>
    </rdf:RDF>
  </metadata>
  <g
     inkscape:label="Layer 1"
     inkscape:groupmode="layer"
     id="layer1">
    <path
       id="path87820"
       style="display:inline;fill:#aa0000;stroke-width:0.99951118px;font-variation-settings:normal;opacity:1;vector-effect:none;fill-opacity:1;stroke:none;stroke-linecap:butt;stroke-linejoin:miter;stroke-miterlimit:4;stroke-dasharray:none;stroke-dashoffset:0;stroke-opacity:1;-inkscape-stroke:none;paint-order:stroke markers fill;stop-color:#000000;stop-opacity:1"
       d="m 149.99807,10.610315 c -76.871604,0 -139.38729,62.516639 -139.38729,139.388235 0,76.87159 62.515686,139.39114 139.38729,139.39114 76.87159,0 139.39115,-62.51955 139.39115,-139.39114 0,-76.871596 -62.51956,-139.388235 -139.39115,-139.388235 z m 0,18.761668 c 29.96131,0 57.33167,10.868103 78.40213,28.880294 -1.11671,-0.273327 -2.3523,-0.448779 -3.76456,-0.488623 -8.88424,0 -16.08589,7.72012 -16.08589,17.233761 0,9.513646 7.20165,17.233745 16.08589,17.233745 1.85046,0 3.60264,-0.43831 5.25852,-1.054811 l 3.94003,36.933901 -58.04659,-19.90181 c -0.14146,0.20847 -0.27438,0.43097 -0.41882,0.63599 -6.17298,8.79786 -15.19065,14.73732 -25.42405,14.73732 -10.2324,0 -19.25106,-5.93946 -25.42405,-14.73732 -0.13752,-0.19607 -0.2683,-0.4054 -0.40332,-0.60496 l -57.952547,19.87078 3.940024,-36.933901 c 1.656436,0.616501 3.409025,1.054811 5.259521,1.054811 8.884234,0 16.085863,-7.719613 16.085863,-17.233745 0,-9.513155 -7.201649,-17.233761 -16.085863,-17.233761 h -9.93e-4 c -1.413149,0.03996 -2.649263,0.215896 -3.766494,0.489601 C 92.666654,40.240537 120.03621,29.371983 149.99805,29.371983 Z m -0.0533,7.016231 c -6.66042,0 -12.94043,3.814688 -17.83872,10.796306 -4.8983,6.981111 -8.11273,17.010026 -8.11273,28.169654 0,11.15867 3.21394,21.173041 8.11273,28.154156 4.89829,6.98211 11.17879,10.79631 17.83872,10.79631 6.66045,0 12.92493,-3.8142 17.82321,-10.79631 4.8993,-6.980624 8.12922,-16.994489 8.12922,-28.154156 0,-11.158635 -3.22948,-21.188051 -8.12824,-28.169654 -4.89785,-6.981112 -11.1628,-10.796306 -17.82326,-10.796306 z M 61.903877,67.519683 c -0.745972,1.479709 -1.483421,3.037032 -2.315148,4.654561 C 48.024034,94.662309 32.00755,153.95312 32.00755,153.95312 l 79.65471,-2.69907 14.45711,68.29901 -9.94411,46.28178 C 65.96345,251.24746 29.371495,204.98322 29.371495,149.99855 c 0,-31.93436 12.347757,-60.923791 32.532382,-82.478867 z m 176.195123,0.0056 c 20.18248,21.55449 32.52948,50.541427 32.52948,82.473047 0,53.7207 -34.93222,99.11519 -83.36689,114.77857 l -9.50299,-45.20952 12.03724,-68.25247 78.19467,2.63799 c 0,0 -16.01556,-59.291315 -27.57926,-81.778874 -0.8308,-1.615369 -1.56723,-3.170836 -2.31225,-4.648743 z" />
  </g>
</svg>
