<?xml version="1.0" encoding="UTF-8" standalone="no"?>
<!-- Created with Inkscape (http://www.inkscape.org/) -->

<svg
   width="300"
   height="300"
   viewBox="0 0 79.374998 79.375"
   version="1.1"
   id="svg2503"
   inkscape:version="1.2 (dc2aeda, 2022-05-15)"
   sodipodi:docname="strength.svg"
   xmlns:inkscape="http://www.inkscape.org/namespaces/inkscape"
   xmlns:sodipodi="http://sodipodi.sourceforge.net/DTD/sodipodi-0.dtd"
   xmlns="http://www.w3.org/2000/svg"
   xmlns:svg="http://www.w3.org/2000/svg">
  <sodipodi:namedview
     id="namedview2505"
     pagecolor="#ffffff"
     bordercolor="#000000"
     borderopacity="0.25"
     inkscape:showpageshadow="2"
     inkscape:pageopacity="0.0"
     inkscape:pagecheckerboard="0"
     inkscape:deskcolor="#d1d1d1"
     inkscape:document-units="px"
     showgrid="false"
     inkscape:zoom="0.49999998"
     inkscape:cx="-95.000004"
     inkscape:cy="54.000002"
     inkscape:window-width="1436"
     inkscape:window-height="456"
     inkscape:window-x="356"
     inkscape:window-y="221"
     inkscape:window-maximized="0"
     inkscape:current-layer="layer1" />
  <defs
     id="defs2500" />
  <g
     inkscape:label="Layer 1"
     inkscape:groupmode="layer"
     id="layer1">
    <path
       id="path91813"
       style="display:inline;fill:#225500;stroke-width:0.264583"
       d="M 39.687018,5.7636574 C 20.978611,5.7635361 5.7637688,20.978561 5.763759,39.687248 5.7638442,58.395711 20.978647,73.611373 39.687018,73.611342 58.395555,73.61139 73.611193,58.395733 73.61124,39.687196 73.611211,20.978528 58.39544,5.7635951 39.687018,5.7636574 Z m 8.9e-5,4.5660116 c 7.291838,2e-5 13.953016,2.645192 19.080987,7.028744 -0.271962,-0.07506 -0.573002,-0.119502 -0.91645,-0.120387 -2.162272,-3.81e-4 -3.914681,1.879104 -3.914753,4.194304 -2.58e-4,2.315483 1.752866,4.194018 3.914598,4.194364 0.452284,4.05e-4 0.878052,-0.105126 1.279417,-0.258908 l 0.958601,8.988816 -14.127049,-4.843767 c -0.02397,0.04847 -0.07391,0.111961 -0.107995,0.148943 -1.502483,2.140475 -3.696432,3.587281 -6.187391,3.586678 -2.49018,1.49e-4 -4.685066,-1.44598 -6.187542,-3.586659 -0.03298,-0.05024 -0.07829,-0.110682 -0.104552,-0.150942 l -14.104118,4.835941 0.958442,-8.988701 c 0.403462,0.149828 0.829995,0.258632 1.280232,0.258488 2.162401,3.07e-4 3.914811,-1.879178 3.914957,-4.194251 2.58e-4,-2.315481 -1.75294,-4.194147 -3.914673,-4.194494 l -3.35e-4,2.1e-5 c -0.344147,0.0098 -0.644458,0.04473 -0.916124,0.120174 5.127558,-4.384097 11.789183,-7.028181 19.080685,-7.028834 z m -0.0097,1.708151 c -1.620848,5.21e-4 -3.149596,0.926441 -4.341231,2.627648 -1.190958,1.699086 -1.974386,4.139731 -1.974386,6.855848 2.97e-4,2.715427 0.781446,5.152882 1.97436,6.851882 1.192471,1.69943 2.720746,2.627537 4.341431,2.627632 1.620849,-5.2e-4 3.146147,-0.927913 4.338504,-2.626075 1.192127,-1.699759 1.978643,-4.135953 1.978643,-6.85207 -3.71e-4,-2.715557 -0.786039,-5.156638 -1.978283,-6.855679 -1.190647,-1.699271 -2.717174,-2.627347 -4.3376,-2.627594 z m -21.426712,7.576552 c -0.182029,0.359696 -0.361552,0.738733 -0.563707,1.132567 -2.814669,5.473025 -6.712535,19.902862 -6.712535,19.902862 l 19.385858,-0.657039 3.518545,16.622171 -2.420118,11.263751 C 19.238216,64.328511 10.332936,53.069181 10.332996,39.687217 c -5.5e-5,-7.771957 3.005115,-14.827166 7.9175,-20.073235 z m 42.881329,0.0013 c 4.911865,5.245803 7.917277,12.300169 7.916772,20.071755 -1.7e-5,13.074162 -8.501538,24.1221 -20.289488,27.934118 l -2.312752,-11.002784 2.929765,-16.610923 19.030281,0.64201 c 4.65e-4,-9.5e-5 -3.897626,-14.430046 -6.71201,-19.902883 C 61.487018,20.3576 61.316814,19.97264 61.128811,19.61701 Z" />
  </g>
</svg>
