<?xml version="1.0" encoding="UTF-8" standalone="no"?>
<svg
   width="300"
   height="300"
   viewBox="0 0 300 300"
   version="1.1"
   id="svg21608"
   inkscape:version="1.3 (0e150ed6c4, 2023-07-21)"
   sodipodi:docname="water prestige.svg"
   xml:space="preserve"
   xmlns:inkscape="http://www.inkscape.org/namespaces/inkscape"
   xmlns:sodipodi="http://sodipodi.sourceforge.net/DTD/sodipodi-0.dtd"
   xmlns="http://www.w3.org/2000/svg"
   xmlns:svg="http://www.w3.org/2000/svg"
   xmlns:rdf="http://www.w3.org/1999/02/22-rdf-syntax-ns#"
   xmlns:cc="http://creativecommons.org/ns#"
   xmlns:dc="http://purl.org/dc/elements/1.1/"><defs
     id="defs21602" /><sodipodi:namedview
     id="base"
     pagecolor="#ffffff"
     bordercolor="#666666"
     borderopacity="1.0"
     inkscape:pageopacity="0.0"
     inkscape:pageshadow="2"
     inkscape:zoom="0.98994949"
     inkscape:cx="211.62696"
     inkscape:cy="154.55334"
     inkscape:document-units="px"
     inkscape:current-layer="layer1"
     inkscape:document-rotation="0"
     showgrid="false"
     units="px"
     width="300px"
     inkscape:showpageshadow="2"
     inkscape:pagecheckerboard="0"
     inkscape:deskcolor="#d1d1d1"
     inkscape:window-width="1512"
     inkscape:window-height="840"
     inkscape:window-x="210"
     inkscape:window-y="38"
     inkscape:window-maximized="0" /><metadata
     id="metadata21605"><rdf:RDF><cc:Work
         rdf:about=""><dc:format>image/svg+xml</dc:format><dc:type
           rdf:resource="http://purl.org/dc/dcmitype/StillImage" /><dc:title /></cc:Work></rdf:RDF></metadata><g
     inkscape:label="Layer 1"
     inkscape:groupmode="layer"
     id="layer1"><path
       d="M 158.17578,10.238281 135.38086,44.673828 104.07031,17.748047 96.1875,58.287109 56.955078,45.392578 l 8.230469,40.46875 -41.179688,3.101563 23.091797,34.236329 -36.859375,18.625 34.435547,22.79492 -26.925781,31.31055 40.539062,7.88281 -12.894531,39.23242 40.46875,-8.23047 3.101563,41.17969 34.236329,-23.0918 18.625,36.85938 22.79492,-34.43555 31.31055,26.92578 7.88281,-40.53711 39.23242,12.89258 -8.23047,-40.46875 41.17969,-3.10156 -23.0918,-34.23633 36.85938,-18.625 -34.43555,-22.79492 26.92578,-31.31055 -40.53906,-7.88281 12.89453,-39.232422 -40.46875,8.230469 -3.10156,-41.179688 -34.23633,23.091797 z m -8.16211,61.980469 c 1.21534,3.038346 2.44989,5.999869 3.69727,8.888672 1.24738,2.888802 2.50783,5.705212 3.77539,8.449219 1.26756,2.744006 2.54249,5.415573 3.81836,8.019531 1.27587,2.603958 2.55191,5.138768 3.82422,7.607418 2.54461,4.93732 5.07208,9.60861 7.53125,14.03321 2.45916,4.42459 4.85014,8.60288 7.1289,12.55273 2.27876,3.94985 4.44386,7.67246 6.44727,11.18555 2.00341,3.51309 3.8454,6.81733 5.47851,9.93164 0.81656,1.55715 1.58094,3.06667 2.28711,4.53125 0.70618,1.46458 1.35553,2.88301 1.93946,4.25976 0.58393,1.37675 1.10291,2.71219 1.55273,4.00586 0.44982,1.29367 0.82898,2.54639 1.13281,3.76172 0.48837,1.95352 0.85166,3.89134 1.09571,5.80664 0.24404,1.9153 0.3694,3.80794 0.38086,5.67383 0.0114,1.8659 -0.0894,3.70446 -0.29883,5.50977 -0.20942,1.80531 -0.52676,3.577 -0.94532,5.31054 -0.41855,1.73354 -0.93871,3.42949 -1.55468,5.08008 -0.61597,1.65059 -1.3292,3.25605 -2.13086,4.8125 -0.80166,1.55645 -1.69235,3.06254 -2.66797,4.51367 -0.97562,1.45114 -2.03597,2.84702 -3.17383,4.18164 -1.13786,1.33463 -2.35225,2.60947 -3.64062,3.81641 -1.28838,1.20694 -2.65097,2.34599 -4.07813,3.41406 -1.42715,1.06808 -2.92039,2.06441 -4.47461,2.98242 -1.55421,0.91802 -3.16834,1.75885 -4.83789,2.51563 -1.66955,0.75678 -3.39481,1.42931 -5.16797,2.01367 -1.77315,0.58436 -3.59395,1.07971 -5.45898,1.48047 -1.86503,0.40076 -3.77357,0.70809 -5.71875,0.91406 -1.94519,0.20597 -3.92779,0.31055 -5.94141,0.31055 -2.01361,0 -3.99554,-0.10337 -5.9414,-0.30664 -1.94587,-0.20327 -3.85446,-0.50643 -5.72071,-0.90234 -1.86624,-0.39592 -3.69008,-0.88496 -5.46484,-1.4629 -1.77477,-0.57793 -3.50046,-1.2448 -5.17188,-1.99414 -1.67141,-0.74933 -3.2895,-1.58208 -4.8457,-2.49218 -1.5562,-0.91011 -3.05135,-1.89678 -4.48047,-2.95703 -1.42912,-1.06025 -2.79186,-2.19281 -4.08203,-3.39258 -1.29017,-1.19977 -2.50713,-2.46626 -3.64648,-3.79492 -1.13936,-1.32867 -2.20106,-2.71908 -3.17774,-4.16602 -0.97667,-1.44694 -1.86974,-2.95127 -2.67187,-4.50586 -0.80213,-1.55459 -1.51319,-3.16089 -2.12891,-4.8125 -0.61572,-1.65161 -1.1353,-3.34793 -1.55273,-5.08594 -0.41744,-1.73801 -0.73216,-3.51629 -0.93946,-5.33008 -0.207291,-1.81378 -0.307683,-3.66403 -0.292966,-5.54296 0.01472,-1.87894 0.143986,-3.78725 0.392576,-5.72071 0.2486,-1.93346 0.61699,-3.89178 1.11133,-5.86914 0.30384,-1.21533 0.68299,-2.46805 1.13281,-3.76172 0.44982,-1.29367 0.97076,-2.62911 1.55469,-4.00586 0.58393,-1.37675 1.23132,-2.79518 1.9375,-4.25976 0.70618,-1.46458 1.47055,-2.9741 2.28711,-4.53125 1.63311,-3.11431 3.47511,-6.41855 5.47852,-9.93164 2.00341,-3.51309 4.1685,-7.2357 6.44726,-11.18555 2.27876,-3.94985 4.6717,-8.12814 7.13086,-12.55273 2.45916,-4.4246 4.98468,-9.09589 7.5293,-14.03321 1.27231,-2.46865 2.54835,-5.00346 3.82422,-7.607418 1.27587,-2.603958 2.55079,-5.275525 3.81836,-8.019531 1.26756,-2.744007 2.528,-5.560417 3.77539,-8.449219 1.24738,-2.888803 2.48192,-5.850326 3.69726,-8.888672 z"
       style="fill:#0000ff;stroke-width:0.0355181;paint-order:fill markers stroke;stop-color:#000000"
       id="path1" /></g></svg>
