<?xml version="1.0" encoding="UTF-8" standalone="no"?>
<svg
   width="300"
   height="300"
   viewBox="0 0 300 300"
   version="1.1"
   id="svg21608"
   inkscape:version="1.2 (dc2aeda, 2022-05-15)"
   sodipodi:docname="water-tower.svg"
   xmlns:inkscape="http://www.inkscape.org/namespaces/inkscape"
   xmlns:sodipodi="http://sodipodi.sourceforge.net/DTD/sodipodi-0.dtd"
   xmlns="http://www.w3.org/2000/svg"
   xmlns:svg="http://www.w3.org/2000/svg"
   xmlns:rdf="http://www.w3.org/1999/02/22-rdf-syntax-ns#"
   xmlns:cc="http://creativecommons.org/ns#"
   xmlns:dc="http://purl.org/dc/elements/1.1/">
  <defs
     id="defs21602" />
  <sodipodi:namedview
     id="base"
     pagecolor="#ffffff"
     bordercolor="#666666"
     borderopacity="1.0"
     inkscape:pageopacity="0.0"
     inkscape:pageshadow="2"
     inkscape:zoom="0.98994949"
     inkscape:cx="211.62696"
     inkscape:cy="154.55334"
     inkscape:document-units="px"
     inkscape:current-layer="layer1"
     inkscape:document-rotation="0"
     showgrid="false"
     units="px"
     width="300px"
     inkscape:showpageshadow="2"
     inkscape:pagecheckerboard="0"
     inkscape:deskcolor="#d1d1d1"
     inkscape:window-width="1512"
     inkscape:window-height="840"
     inkscape:window-x="210"
     inkscape:window-y="38"
     inkscape:window-maximized="0" />
  <metadata
     id="metadata21605">
    <rdf:RDF>
      <cc:Work
         rdf:about="">
        <dc:format>image/svg+xml</dc:format>
        <dc:type
           rdf:resource="http://purl.org/dc/dcmitype/StillImage" />
        <dc:title />
      </cc:Work>
    </rdf:RDF>
  </metadata>
  <g
     inkscape:label="Layer 1"
     inkscape:groupmode="layer"
     id="layer1">
    <g
       id="g32013"
       transform="matrix(34.646597,0,0,34.646597,-4920.6761,-5903.2557)"
       style="stroke-width:0.134243">
      <path
         sodipodi:type="star"
         style="font-variation-settings:normal;fill:#0000ff;fill-opacity:1;stroke:none;stroke-width:0.0355181;stroke-linecap:butt;stroke-linejoin:miter;stroke-miterlimit:4;stroke-dasharray:none;stroke-dashoffset:0;stroke-opacity:1;paint-order:fill markers stroke;stop-color:#000000"
         id="path32009"
         sodipodi:sides="16"
         sodipodi:cx="146.35423"
         sodipodi:cy="174.71429"
         sodipodi:r1="4.0408034"
         sodipodi:r2="3.0691423"
         sodipodi:arg1="0.45113305"
         sodipodi:arg2="0.64748259"
         inkscape:flatsided="false"
         inkscape:rounded="0"
         inkscape:randomized="0"
         inkscape:transform-center-x="1.44125e-06"
         inkscape:transform-center-y="-3.0256249e-06"
         d="m 149.99077,176.47603 -1.18857,0.0895 0.23757,1.16802 -1.13236,-0.37214 -0.22749,1.17003 -0.90375,-0.77716 -0.65792,0.99391 -0.53755,-1.06384 -0.9882,0.66647 -0.0895,-1.18857 -1.16803,0.23757 0.37215,-1.13235 -1.17003,-0.2275 0.77715,-0.90374 -0.9939,-0.65793 1.06384,-0.53755 -0.66647,-0.9882 1.18857,-0.0895 -0.23757,-1.16803 1.13235,0.37215 0.2275,-1.17003 0.90374,0.77715 0.65793,-0.9939 0.53755,1.06384 0.98819,-0.66647 0.0895,1.18857 1.16802,-0.23757 -0.37214,1.13235 1.17002,0.2275 -0.77715,0.90374 0.99391,0.65793 -1.06384,0.53755 z" />
      <path
         id="path32011"
         style="font-variation-settings:normal;fill:#ffffff;fill-opacity:1;stroke-width:0.0355181;stroke-linecap:butt;stroke-linejoin:miter;stroke-miterlimit:4;stroke-dasharray:none;stroke-dashoffset:0;stroke-opacity:1;stop-color:#000000"
         d="m 146.02286,172.17499 c -0.14364,0 -0.37671,0.0391 -0.56193,0.11305 -0.0921,0.0369 -0.17215,0.0828 -0.22445,0.13115 a 0.29611683,0.29611656 0 0 0 -0.0461,0.0532 h 1.66435 c -0.0119,-0.0175 -0.0257,-0.035 -0.0456,-0.0532 -0.0525,-0.0483 -0.13286,-0.0942 -0.22499,-0.13115 -0.18522,-0.074 -0.41775,-0.11305 -0.56136,-0.11305 z m -0.70351,0.47577 v 1.28682 l 0.70351,0.42198 0.70349,-0.42198 v -1.28682 z m 0.70515,0.1542 c 0.14583,0.36457 0.32791,0.58344 0.36437,0.72929 0.0586,0.2344 -0.12275,0.43735 -0.36437,0.43735 -0.24162,0 -0.42424,-0.20009 -0.36491,-0.43735 0.0364,-0.14585 0.21907,-0.36472 0.36491,-0.72929 z m 0.94933,0.61845 v 0.17832 h 0.22774 v 0.1383 h -0.29743 v 0.17835 h 0.50814 l 0.29029,0.29139 0.12676,-0.12678 -0.34351,-0.34296 h -0.10588 v -0.1383 h 0.22774 v -0.17832 z m -1.69728,0.69635 -0.45107,2.70588 0.17615,0.0296 0.1723,-1.03495 h 1.69784 l 0.1723,1.03495 0.17615,-0.0296 -0.45052,-2.70588 -0.16517,0.0988 0.13554,0.8105 -0.71721,0.26121 -0.71724,-0.26012 0.13555,-0.81159 z m 2.60657,0.22169 c 0,0 -0.10088,0.49151 0.0516,0.59155 0.0971,0.0634 0.28496,-0.0287 0.30675,-0.15255 0.0377,-0.19414 -0.35833,-0.439 -0.35833,-0.439 z m 0.28918,0.84509 c 0,0 -0.1329,0.28827 -0.0577,0.38137 0.0485,0.0585 0.17244,0.0367 0.20414,-0.0357 0.0515,-0.1149 -0.14653,-0.34571 -0.14653,-0.34571 z m -2.8963,0.0225 0.48455,0.17668 -0.5471,0.19865 z m 1.4937,0 0.0626,0.37533 -0.54711,-0.19865 z m 1.77301,0.0747 c 0,0 0.0141,0.31792 0.12292,0.36546 0.0714,0.0298 0.17023,-0.0464 0.16627,-0.12566 -0.008,-0.1248 -0.28919,-0.2398 -0.28919,-0.2398 z m -2.51985,0.19699 0.44394,0.16134 h -0.88789 z m 2.49297,0.40114 c 0,0 -0.0334,0.213 0.034,0.25957 0.0426,0.0287 0.11981,-0.01 0.12675,-0.0626 0.0129,-0.0852 -0.16077,-0.19701 -0.16077,-0.19701 z" />
    </g>
  </g>
</svg>
