<?xml version="1.0" encoding="UTF-8" standalone="no"?>
<!-- Created with Inkscape (http://www.inkscape.org/) -->

<svg
   width="300"
   height="300"
   viewBox="0 0 79.374998 79.375"
   version="1.1"
   id="svg2503"
   inkscape:version="1.2 (dc2aeda, 2022-05-15)"
   sodipodi:docname="weakened.svg"
   xml:space="preserve"
   xmlns:inkscape="http://www.inkscape.org/namespaces/inkscape"
   xmlns:sodipodi="http://sodipodi.sourceforge.net/DTD/sodipodi-0.dtd"
   xmlns="http://www.w3.org/2000/svg"
   xmlns:svg="http://www.w3.org/2000/svg"><sodipodi:namedview
     id="namedview2505"
     pagecolor="#ffffff"
     bordercolor="#000000"
     borderopacity="0.25"
     inkscape:showpageshadow="2"
     inkscape:pageopacity="0.0"
     inkscape:pagecheckerboard="0"
     inkscape:deskcolor="#d1d1d1"
     inkscape:document-units="px"
     showgrid="false"
     inkscape:zoom="0.31048352"
     inkscape:cx="-162.64953"
     inkscape:cy="148.15601"
     inkscape:window-width="1436"
     inkscape:window-height="456"
     inkscape:window-x="0"
     inkscape:window-y="38"
     inkscape:window-maximized="0"
     inkscape:current-layer="layer1" /><defs
     id="defs2500" /><g
     inkscape:label="Layer 1"
     inkscape:groupmode="layer"
     id="layer1"><path
       d="m 21.209189,16.813847 2.01711,2.018264 a 3.1715568,3.1715568 0 0 1 -1.48199,5.311878 l 1.77607,1.776071 a 5.4781437,5.4781437 0 0 0 1.33706,-8.721779 l -0.38463,-0.384434 z m -1.18703,0.998559 a 5.4608443,5.4608443 0 0 0 -1.33686,8.708328 l 8.45748,8.451718 a 7.6713231,7.6713231 0 0 1 0.72177,-2.530518 l -7.5484,-7.555032 a 3.1590629,3.1590629 0 0 1 0.006,-4.46709 2.8380628,2.8380628 0 0 1 1.4764,-0.818838 l -1.77606,-1.788568 z m 7.92601,2.477661 c 0.0244,0.22172 0.0384,0.445941 0.0423,0.672754 a 7.0216345,7.0216345 0 0 1 -0.34407,2.290248 l 6.998567,6.998569 a 3.1715568,3.1715568 0 0 1 -2.167237,5.399336 2.3248473,2.3248473 0 0 0 0.678527,1.803943 l 0.384429,0.38443 a 5.4781437,5.4781437 0 0 0 2.738111,-9.226346 z m 13.133031,2.392314 -0.08842,4.696019 2.306201,0.04353 0.08842,-4.695923 z m 7.880645,1.104567 -2.658532,4.341573 1.967134,1.204519 2.658338,-4.341573 z m 5.768101,5.179056 -4.296978,1.99366 0.970688,2.092458 4.297171,-1.993659 z m -22.357937,1.19241 a 6.112455,6.112455 0 0 0 -1.55983,0.953389 5.9315801,5.9315801 0 0 0 -0.3902,0.35656 6.1595479,6.1595479 0 0 0 -0.41134,8.244125 6.2470057,6.2470057 0 0 0 0.42287,0.468045 l 8.856338,8.856332 a 6.1903021,6.1903021 0 0 0 1.317639,1.004325 7.0379727,7.0379727 0 0 1 -0.633353,-3.589623 l -7.906784,-7.906788 a 3.9308082,3.9308082 0 0 1 -0.26526,-0.288324 3.7925093,3.7925093 0 0 1 -0.2297,-0.312349 3.8443112,3.8443112 0 0 1 0.48054,-4.844795 c 0.0769,-0.07689 0.15666,-0.148966 0.23835,-0.217203 a 3.8443112,3.8443112 0 0 1 1.678039,-0.821722 1.6126886,1.6126886 0 0 0 -0.416144,-0.720808 z m 6.856327,0.747718 a 7.065844,7.065844 0 0 1 0.120135,2.498802 l 1.671316,0.612207 a 1.1532934,1.1532934 0 1 0 0.79481,-2.161464 v 0.0029 z m 13.235006,5.001064 -0.06997,2.305434 4.386165,0.133301 0.07007,-2.305433 z m -5.876801,1.04277 a 1.1532934,1.1532934 0 0 0 -1.089091,1.543875 l 1.765498,4.855366 a 3.8625717,3.8625717 0 0 1 -0.907259,4.044212 l -0.0086,0.0086 a 3.8837153,3.8837153 0 0 1 -0.726571,0.570885 1.6078832,1.6078832 0 0 0 0.183564,0.222009 l 1.455071,1.455069 a 6.2287455,6.2287455 0 0 0 0.718886,-0.617012 l 0.0086,-0.0086 a 6.1768473,6.1768473 0 0 0 1.441616,-6.46613 l -1.770303,-4.860171 a 1.1475269,1.1475269 0 0 0 -0.237386,-0.389236 1.1600209,1.1600209 0 0 0 -0.718888,-0.352716 1.1532934,1.1532934 0 0 0 -0.115137,-0.0062 z m -1.484095,4.97204 A 5.4781437,5.4781437 0 0 0 43.0986,50.932112 l 0.412301,0.412302 7.78473,7.784728 a 7.4079878,7.4079878 0 0 1 0.301778,-2.950509 v -0.0045 l -5.025474,-5.025516 -1.847191,-1.847191 a 3.1715568,3.1715568 0 0 1 1.057182,-5.175406 c 0,-0.0096 -0.0057,-0.02019 -0.0096,-0.02977 l 0.02401,0.02402 c 0.06343,-0.02498 0.127825,-0.04804 0.192217,-0.06919 a 0.08938023,0.08938023 0 0 0 0,-0.02114 c -0.04036,0.01348 -0.08169,0.02593 -0.122056,0.04037 -0.0096,-0.05768 -0.02979,-0.125904 -0.0519,-0.189335 z m 6.163392,1.681883 -0.0057,0.0057 a 7.6540236,7.6540236 0 0 1 0.07016,1.092746 9.034132,9.034132 0 0 1 -0.07208,0.988949 7.759742,7.759742 0 0 1 -0.192217,0.974532 l 5.025475,5.025478 2.970691,2.970694 a 3.1715568,3.1715568 0 0 1 -1.481984,5.313794 l 1.776072,1.77607 a 5.4781437,5.4781437 0 0 0 1.336835,-8.720796 l -1.642482,-1.642481 z m 4.327734,9.76455 a 5.285928,5.285928 0 0 0 -1.331092,0.979342 5.482949,5.482949 0 0 0 -0.0057,7.741481 l 0.470928,0.47189 h 3.259494 l -2.102361,-2.10284 a 3.1715568,3.1715568 0 0 1 1.484868,-5.313797 z"
       fill="#000000"
       fill-opacity="1"
       id="path3862"
       style="stroke-width:0.264583;fill:#000000" /><path
       style="color:#000000;fill:#000000;-inkscape-stroke:none;paint-order:stroke fill markers"
       d="m 39.6875,1.8222675 c -20.873086,0 -37.8652355,16.9921455 -37.8652355,37.8652345 0,20.87309 16.9921495,37.865229 37.8652355,37.865229 20.873088,0 37.865234,-16.99214 37.865234,-37.865229 0,-20.873088 -16.992146,-37.8652345 -37.865234,-37.8652345 z m 0,6.615234 c 17.298307,0 31.25,13.9516925 31.25,31.2500005 0,17.29831 -13.951693,31.251949 -31.25,31.251949 -17.298305,0 -31.2519555,-13.95364 -31.2519555,-31.251949 0,-17.298307 13.9536495,-31.2500005 31.2519555,-31.2500005 z"
       id="path4013" /></g></svg>
