<?xml version="1.0" encoding="UTF-8" standalone="no"?>
<svg
   xmlns:dc="http://purl.org/dc/elements/1.1/"
   xmlns:cc="http://creativecommons.org/ns#"
   xmlns:rdf="http://www.w3.org/1999/02/22-rdf-syntax-ns#"
   xmlns:svg="http://www.w3.org/2000/svg"
   xmlns="http://www.w3.org/2000/svg"
   xmlns:sodipodi="http://sodipodi.sourceforge.net/DTD/sodipodi-0.dtd"
   xmlns:inkscape="http://www.inkscape.org/namespaces/inkscape"
   width="300"
   height="300"
   viewBox="0 0 300 300"
   version="1.1"
   id="svg21608"
   inkscape:version="1.0.1 (3bc2e813f5, 2020-09-07)"
   sodipodi:docname="laborers.svg">
  <defs
     id="defs21602" />
  <sodipodi:namedview
     id="base"
     pagecolor="#ffffff"
     bordercolor="#666666"
     borderopacity="1.0"
     inkscape:pageopacity="0.0"
     inkscape:pageshadow="2"
     inkscape:zoom="0.98994949"
     inkscape:cx="633.23103"
     inkscape:cy="308.38281"
     inkscape:document-units="px"
     inkscape:current-layer="layer1"
     inkscape:document-rotation="0"
     showgrid="false"
     units="px"
     width="300px" />
  <metadata
     id="metadata21605">
    <rdf:RDF>
      <cc:Work
         rdf:about="">
        <dc:format>image/svg+xml</dc:format>
        <dc:type
           rdf:resource="http://purl.org/dc/dcmitype/StillImage" />
        <dc:title />
      </cc:Work>
    </rdf:RDF>
  </metadata>
  <g
     inkscape:label="Layer 1"
     inkscape:groupmode="layer"
     id="layer1">
    <path
       d="m 153.54575,15.661731 c -17.85739,0 -30.70019,9.44114 -38.11768,21.29818 -6.63363,10.60408 -9.39371,22.90391 -9.93199,33.67657 -20.243695,10.00148 -42.669285,20.08499 -60.725145,30.393709 -9.47103,5.40746 -17.72841,10.8467 -23.94415,16.69226 -6.21573,5.84431 -10.80177,12.42599 -10.80177,20.19064 0,3.30399 1.61373,5.99691 3.43265,7.97265 1.82143,1.97592 4.00394,3.51028 6.48948,4.94292 4.9703,2.86542 11.2369,5.2536 18.12989,7.31935 10.24018,3.07014 21.70873,5.35253 31.68032,6.32858 -9.91806,17.07557 -23.11741,32.75937 -34.68769,47.78704 -13.37121,17.36763 -25.04465,34.02357 -25.04465,52.52645 0,2.64331 -0.0313,4.70703 0.20505,6.77999 0.23477,2.07295 0.83112,4.66069 2.91675,6.71127 2.08657,2.0512 4.64082,2.60231 6.7216,2.82833 2.08078,0.22852 4.17659,0.20033 6.86513,0.20033 H 100.5059 c 5.35519,0 9.27665,0.32556 13.31033,-2.26656 4.03446,-2.5904 5.50544,-6.12902 8.37978,-11.41565 l 0.0625,-0.10953 0.0469,-0.10953 c 0,0 6.43064,-13.06443 14.10342,-26.02838 3.83599,-6.48134 8.00085,-12.93608 11.6232,-17.51039 1.81218,-2.28629 3.50792,-4.09957 4.72893,-5.12385 0.37252,-0.31146 0.54313,-0.37095 0.7826,-0.50242 0.23947,0.12522 0.41009,0.19096 0.78261,0.50242 1.22085,1.02365 2.91675,2.83756 4.72893,5.12385 3.62235,4.57431 7.78705,11.02905 11.6232,17.51039 7.67199,12.96395 14.10342,26.02759 14.10342,26.02759 l 0.0469,0.10953 0.0625,0.10953 c 2.87434,5.28647 4.33201,8.80395 8.34001,11.4017 4.00662,2.597 7.91947,2.27972 13.1992,2.27972 h 74.09713 c 2.64552,0 4.70908,0.0314 6.77515,-0.20034 2.0656,-0.23009 4.62845,-0.79982 6.69326,-2.8626 2.06357,-2.06309 2.63503,-4.62376 2.86385,-6.68747 0.23009,-2.0631 0.20192,-4.1262 0.20192,-6.7695 0,-18.50288 -11.67343,-35.15883 -25.0448,-52.52709 -11.56951,-15.02704 -24.76885,-30.71083 -34.6877,-47.78703 9.97176,-0.97668 21.44015,-3.25781 31.68048,-6.32796 6.893,-2.06512 13.1596,-4.45394 18.12989,-7.31857 2.48555,-1.43216 4.66806,-2.96715 6.48824,-4.9429 1.8208,-1.97591 3.43389,-4.66869 3.43389,-7.97282 0,-7.76451 -4.58603,-14.34633 -10.80177,-20.19066 -6.21574,-5.84555 -14.47312,-11.28478 -23.94416,-16.69224 -18.05583,-10.308719 -40.48142,-20.392849 -60.72511,-30.393549 -0.53844,-10.77141 -3.29898,-23.07249 -9.932,-33.67532 -7.41749,-11.85767 -20.26028,-21.29818 -38.11767,-21.29818 z"
       fill="#000000"
       fill-opacity="1"
       id="path8565"
       style="fill:#c87137;stroke-width:9.03113;font-variation-settings:normal;opacity:1;vector-effect:none;fill-opacity:1;stroke-linecap:butt;stroke-linejoin:miter;stroke-miterlimit:4;stroke-dasharray:none;stroke-dashoffset:0;stroke-opacity:1;stop-color:#000000;stop-opacity:1" />
  </g>
</svg>
