<?xml version="1.0" encoding="UTF-8" standalone="no"?>
<svg
   width="300"
   height="300"
   viewBox="0 0 300 300"
   version="1.1"
   id="svg21608"
   inkscape:version="1.2 (dc2aeda, 2022-05-15)"
   sodipodi:docname="worker-income.svg"
   xmlns:inkscape="http://www.inkscape.org/namespaces/inkscape"
   xmlns:sodipodi="http://sodipodi.sourceforge.net/DTD/sodipodi-0.dtd"
   xmlns="http://www.w3.org/2000/svg"
   xmlns:svg="http://www.w3.org/2000/svg"
   xmlns:rdf="http://www.w3.org/1999/02/22-rdf-syntax-ns#"
   xmlns:cc="http://creativecommons.org/ns#"
   xmlns:dc="http://purl.org/dc/elements/1.1/">
  <defs
     id="defs21602" />
  <sodipodi:namedview
     id="base"
     pagecolor="#ffffff"
     bordercolor="#666666"
     borderopacity="1.0"
     inkscape:pageopacity="0.0"
     inkscape:pageshadow="2"
     inkscape:zoom="1.4313641"
     inkscape:cx="171.51471"
     inkscape:cy="225.65886"
     inkscape:document-units="px"
     inkscape:current-layer="layer1"
     inkscape:document-rotation="0"
     showgrid="false"
     units="px"
     width="300px"
     inkscape:showpageshadow="2"
     inkscape:pagecheckerboard="0"
     inkscape:deskcolor="#d1d1d1"
     inkscape:window-width="1436"
     inkscape:window-height="456"
     inkscape:window-x="0"
     inkscape:window-y="38"
     inkscape:window-maximized="0" />
  <metadata
     id="metadata21605">
    <rdf:RDF>
      <cc:Work
         rdf:about="">
        <dc:format>image/svg+xml</dc:format>
        <dc:type
           rdf:resource="http://purl.org/dc/dcmitype/StillImage" />
        <dc:title />
      </cc:Work>
    </rdf:RDF>
  </metadata>
  <g
     inkscape:label="Layer 1"
     inkscape:groupmode="layer"
     id="layer1">
    <path
       id="path8053"
       style="font-variation-settings:normal;display:inline;vector-effect:none;fill:#c87137;fill-opacity:1;stroke-width:9.03114;stroke-linecap:butt;stroke-linejoin:miter;stroke-miterlimit:4;stroke-dasharray:none;stroke-dashoffset:0;stroke-opacity:1;stop-color:#000000"
       d="m 149.96168,19.046566 c -17.6028,0 -30.26489,9.323675 -37.57559,21.012494 -6.53123,10.452391 -9.23354,22.579957 -9.765,33.199237 -19.954564,9.858848 -42.090775,19.782194 -59.889815,29.944503 -9.335285,5.33238 -17.452364,10.69233 -23.579516,16.45523 -6.12167,5.75903 -10.6681373,12.23673 -10.6681373,19.8899 0,3.26038 1.6092263,5.94188 3.4006593,7.88666 1.797883,1.94413 3.955181,3.43113 6.399657,4.8388 4.899755,2.82179 11.070282,5.20451 17.864828,7.22975 10.095233,3.02883 21.381262,5.25933 31.211408,6.221 -9.777097,16.83254 -22.770872,32.31078 -34.176222,47.12356 -13.180819,17.11955 -24.700814,33.54865 -24.700814,51.78709 0,2.60217 -0.016125,4.61338 0.2434801,6.65555 0.2434801,2.04152 0.8287998,4.595 2.8887059,6.6233 2.059906,2.01718 4.570815,2.5717 6.626367,2.78503 2.047652,0.24348 4.107558,0.24348 6.765361,0.24348 h 72.728796 c 5.271582,0 9.151792,0.30475 13.127122,-2.24276 3.9734,-2.55348 5.41171,-6.03331 8.24559,-11.24814 l 0.0645,-0.0645 0.0322,-0.18221 c 0,0 6.32645,-12.86139 13.88772,-25.64007 3.77846,-6.39288 7.89456,-12.74255 11.46388,-17.25113 1.77966,-2.25485 3.46161,-4.05257 4.66821,-5.06422 0.30475,-0.24348 0.6095,-0.30476 0.73689,-0.48696 0.24348,0.1822 0.4273,0.24348 0.8159,0.48696 1.20611,1.011 2.84001,2.8155 4.63176,5.06422 3.57126,4.50374 7.68124,10.8626 11.46453,17.25113 7.5661,12.77868 13.92303,25.64007 13.92303,25.64007 l 0.0322,0.18221 0.0645,0.0645 c 2.82775,5.21064 4.24784,8.68676 8.20963,11.24814 3.94922,2.5596 7.81297,2.24276 13.01925,2.24276 h 73.01775 c 2.6083,0 4.64999,0.0161 6.6849,-0.24348 2.0354,-0.24348 4.58887,-0.82235 6.62621,-2.82163 2.03555,-2.03556 2.5962,-4.54631 2.82178,-6.58186 0.24348,-2.03556 0.24348,-4.05274 0.24348,-6.6562 0,-18.23844 -11.48339,-34.66689 -24.66356,-51.78693 -11.40487,-14.81278 -24.43573,-30.29118 -34.21283,-47.12356 9.8295,-0.96908 21.15278,-3.19958 31.24672,-6.22051 6.79455,-2.03556 12.96685,-4.40619 17.86612,-7.23023 2.44383,-1.41412 4.61339,-2.89483 6.3995,-4.84493 1.79788,-1.94414 3.36405,-4.6379 3.36405,-7.88666 0,-7.6564 -4.50357,-14.12846 -10.63201,-19.89007 -6.12184,-5.75903 -14.27955,-11.1251 -23.61548,-16.45522 C 239.471,93.039846 217.37058,83.114726 197.41537,73.257168 c -0.6095,-10.618796 -3.22377,-22.748297 -9.76355,-33.199882 -7.3144,-11.68898 -19.97359,-21.01201 -37.57575,-21.01201 z m -11.2836,85.711444 h 22.60382 v 33.92275 h 33.9221 v 22.63961 h -33.9221 v 33.88614 h -22.60382 v -33.88614 h -33.92275 v -22.63961 h 33.92275 z" />
  </g>
</svg>
